__ticks __seconds ch event__________ data____
      0    0.0000 -- SMF Header      Format=1, Tracks=15, Division=192
      0    0.0000 -- Track           Start: 1
      0    0.0000 -- Tempo           631578
      0    0.0000 -- Time Signature  4, 2, 24, 8
      0    0.0000 -- Key Signature   0, 0
      0    0.0000 -- Meta Event      End Of Track
      0    0.0000 -- Track           End: 1
      0    0.0000 -- Track           Start: 2
      0    0.0000 -- Text (3)        Quick MUS->MID ! for WinTex
      0    0.0000 -- Forced channel  0
      0    0.0000  0 Control Change  7, 100
      0    0.0000  0 Control Change  10, 64
      0    0.0000  0 Program Change  30
    476    1.5656  0 Control Change  0, 0
    478    1.5725  0 Control Change  0, 0
    481    1.5825  0 Control Change  7, 100
    483    1.5888  0 Control Change  10, 48
    485    1.5956  0 Control Change  11, 117
    487    1.6019  0 Control Change  91, 25
    487    1.6019  0 Control Change  93, 0
   1272    4.1844  0 Note On         53, 70
   1272    4.1844  0 Note On         46, 110
   1272    4.1844  0 Note On         34, 120
   1315    4.3256  0 Note Off        34, 0
   1315    4.3256  0 Note Off        46, 0
   1315    4.3256  0 Note Off        53, 0
   1512    4.9737  0 Note On         53, 70
   1512    4.9737  0 Note On         46, 110
   1512    4.9737  0 Note On         34, 120
   1555    5.1150  0 Note Off        34, 0
   1555    5.1150  0 Note Off        46, 0
   1555    5.1150  0 Note Off        53, 0
   1671    5.4969  0 Note On         41, 110
   1671    5.4969  0 Note On         48, 70
   1671    5.4969  0 Note On         29, 120
   1715    5.6413  0 Note Off        29, 0
   1715    5.6413  0 Note Off        48, 0
   1715    5.6413  0 Note Off        41, 0
   1790    5.8881  0 Note On         51, 70
   1790    5.8881  0 Note On         44, 110
   1790    5.8881  0 Note On         32, 120
   1833    6.0294  0 Note Off        32, 0
   1833    6.0294  0 Note Off        44, 0
   1833    6.0294  0 Note Off        51, 0
   1911    6.2862  0 Note On         53, 70
   1911    6.2862  0 Note On         46, 110
   1911    6.2862  0 Note On         34, 120
   1954    6.4275  0 Note Off        34, 0
   1954    6.4275  0 Note Off        46, 0
   1954    6.4275  0 Note Off        53, 0
   2148    7.0656  0 Note On         53, 70
   2148    7.0656  0 Note On         46, 110
   2148    7.0656  0 Note On         34, 120
   2191    7.2075  0 Note Off        34, 0
   2191    7.2075  0 Note Off        46, 0
   2191    7.2075  0 Note Off        53, 0
   2308    7.5919  0 Note On         41, 110
   2308    7.5919  0 Note On         48, 70
   2308    7.5919  0 Note On         29, 120
   2351    7.7337  0 Note Off        29, 0
   2351    7.7337  0 Note Off        48, 0
   2351    7.7337  0 Note Off        41, 0
   2429    7.9900  0 Note On         51, 70
   2429    7.9900  0 Note On         44, 110
   2429    7.9900  0 Note On         32, 120
   2472    8.1319  0 Note Off        32, 0
   2472    8.1319  0 Note Off        44, 0
   2472    8.1319  0 Note Off        51, 0
   2547    8.3781  0 Note On         53, 70
   2547    8.3781  0 Note On         46, 110
   2547    8.3781  0 Note On         34, 120
   2590    8.5200  0 Note Off        34, 0
   2590    8.5200  0 Note Off        46, 0
   2590    8.5200  0 Note Off        53, 0
   2787    9.1675  0 Note On         53, 70
   2787    9.1675  0 Note On         46, 110
   2787    9.1675  0 Note On         34, 120
   2830    9.3094  0 Note Off        34, 0
   2830    9.3094  0 Note Off        46, 0
   2830    9.3094  0 Note Off        53, 0
   2946    9.6906  0 Note On         41, 110
   2946    9.6906  0 Note On         48, 70
   2946    9.6906  0 Note On         29, 120
   2990    9.8356  0 Note Off        29, 0
   2990    9.8356  0 Note Off        48, 0
   2990    9.8356  0 Note Off        41, 0
   3065   10.0825  0 Note On         51, 70
   3065   10.0825  0 Note On         44, 110
   3065   10.0825  0 Note On         32, 120
   3108   10.2238  0 Note Off        32, 0
   3108   10.2238  0 Note Off        44, 0
   3108   10.2238  0 Note Off        51, 0
   3184   10.4738  0 Note On         53, 70
   3184   10.4738  0 Note On         46, 110
   3184   10.4738  0 Note On         34, 120
   3227   10.6150  0 Note Off        34, 0
   3227   10.6150  0 Note Off        46, 0
   3227   10.6150  0 Note Off        53, 0
   3423   11.2600  0 Note On         53, 70
   3423   11.2600  0 Note On         46, 110
   3423   11.2600  0 Note On         34, 120
   3466   11.4012  0 Note Off        34, 0
   3466   11.4012  0 Note Off        46, 0
   3466   11.4012  0 Note Off        53, 0
   3583   11.7863  0 Note On         41, 110
   3583   11.7863  0 Note On         48, 70
   3583   11.7863  0 Note On         29, 120
   3626   11.9275  0 Note Off        29, 0
   3626   11.9275  0 Note Off        48, 0
   3626   11.9275  0 Note Off        41, 0
   3701   12.1744  0 Note On         51, 70
   3701   12.1744  0 Note On         44, 110
   3701   12.1744  0 Note On         32, 120
   3745   12.3187  0 Note Off        32, 0
   3745   12.3187  0 Note Off        44, 0
   3745   12.3187  0 Note Off        51, 0
   3822   12.5725  0 Note On         53, 70
   3822   12.5725  0 Note On         46, 110
   3822   12.5725  0 Note On         34, 120
   3865   12.7137  0 Note Off        34, 0
   3865   12.7137  0 Note Off        46, 0
   3865   12.7137  0 Note Off        53, 0
   4062   13.3619  0 Note On         53, 70
   4062   13.3619  0 Note On         46, 110
   4062   13.3619  0 Note On         34, 120
   4105   13.5031  0 Note Off        34, 0
   4105   13.5031  0 Note Off        46, 0
   4105   13.5031  0 Note Off        53, 0
   4219   13.8781  0 Note On         41, 110
   4219   13.8781  0 Note On         48, 70
   4219   13.8781  0 Note On         29, 120
   4262   14.0200  0 Note Off        29, 0
   4262   14.0200  0 Note Off        48, 0
   4262   14.0200  0 Note Off        41, 0
   4340   14.2762  0 Note On         51, 70
   4340   14.2762  0 Note On         44, 110
   4340   14.2762  0 Note On         32, 120
   4383   14.4175  0 Note Off        32, 0
   4383   14.4175  0 Note Off        44, 0
   4383   14.4175  0 Note Off        51, 0
   4459   14.6675  0 Note On         53, 70
   4459   14.6675  0 Note On         46, 110
   4459   14.6675  0 Note On         34, 120
   4502   14.8094  0 Note Off        34, 0
   4502   14.8094  0 Note Off        46, 0
   4502   14.8094  0 Note Off        53, 0
   4698   15.4537  0 Note On         53, 70
   4698   15.4537  0 Note On         46, 110
   4698   15.4537  0 Note On         34, 120
   4741   15.5956  0 Note Off        34, 0
   4741   15.5956  0 Note Off        46, 0
   4741   15.5956  0 Note Off        53, 0
   4858   15.9800  0 Note On         41, 110
   4858   15.9800  0 Note On         48, 70
   4858   15.9800  0 Note On         29, 120
   4901   16.1219  0 Note Off        29, 0
   4901   16.1219  0 Note Off        48, 0
   4901   16.1219  0 Note Off        41, 0
   4976   16.3681  0 Note On         51, 70
   4976   16.3681  0 Note On         44, 110
   4976   16.3681  0 Note On         32, 120
   5020   16.5131  0 Note Off        32, 0
   5020   16.5131  0 Note Off        44, 0
   5020   16.5131  0 Note Off        51, 0
   5097   16.7662  0 Note On         53, 70
   5097   16.7662  0 Note On         46, 110
   5097   16.7662  0 Note On         34, 120
   5140   16.9081  0 Note Off        34, 0
   5140   16.9081  0 Note Off        46, 0
   5140   16.9081  0 Note Off        53, 0
   5335   17.5494  0 Note On         53, 70
   5335   17.5494  0 Note On         46, 110
   5335   17.5494  0 Note On         34, 120
   5378   17.6906  0 Note Off        34, 0
   5378   17.6906  0 Note Off        46, 0
   5378   17.6906  0 Note Off        53, 0
   5494   18.0725  0 Note On         41, 110
   5494   18.0725  0 Note On         48, 70
   5494   18.0725  0 Note On         29, 120
   5537   18.2138  0 Note Off        29, 0
   5537   18.2138  0 Note Off        48, 0
   5537   18.2138  0 Note Off        41, 0
   5615   18.4706  0 Note On         51, 70
   5615   18.4706  0 Note On         44, 110
   5615   18.4706  0 Note On         32, 120
   5658   18.6119  0 Note Off        32, 0
   5658   18.6119  0 Note Off        44, 0
   5658   18.6119  0 Note Off        51, 0
   5734   18.8619  0 Note On         53, 70
   5734   18.8619  0 Note On         46, 110
   5734   18.8619  0 Note On         34, 120
   5777   19.0031  0 Note Off        34, 0
   5777   19.0031  0 Note Off        46, 0
   5777   19.0031  0 Note Off        53, 0
   5973   19.6481  0 Note On         53, 70
   5973   19.6481  0 Note On         46, 110
   5973   19.6481  0 Note On         34, 120
   6016   19.7894  0 Note Off        34, 0
   6016   19.7894  0 Note Off        46, 0
   6016   19.7894  0 Note Off        53, 0
   6133   20.1744  0 Note On         41, 110
   6133   20.1744  0 Note On         48, 70
   6133   20.1744  0 Note On         29, 120
   6176   20.3156  0 Note Off        29, 0
   6176   20.3156  0 Note Off        48, 0
   6176   20.3156  0 Note Off        41, 0
   6251   20.5625  0 Note On         51, 70
   6251   20.5625  0 Note On         44, 110
   6251   20.5625  0 Note On         32, 120
   6295   20.7075  0 Note Off        32, 0
   6295   20.7075  0 Note Off        44, 0
   6295   20.7075  0 Note Off        51, 0
   6370   20.9537  0 Note On         53, 70
   6370   20.9537  0 Note On         46, 110
   6370   20.9537  0 Note On         34, 120
   6413   21.0956  0 Note Off        34, 0
   6413   21.0956  0 Note Off        46, 0
   6413   21.0956  0 Note Off        53, 0
   6609   21.7400  0 Note On         53, 70
   6609   21.7400  0 Note On         46, 110
   6609   21.7400  0 Note On         34, 120
   6653   21.8850  0 Note Off        34, 0
   6653   21.8850  0 Note Off        46, 0
   6653   21.8850  0 Note Off        53, 0
   6769   22.2662  0 Note On         41, 110
   6769   22.2662  0 Note On         48, 70
   6769   22.2662  0 Note On         29, 120
   6812   22.4081  0 Note Off        29, 0
   6812   22.4081  0 Note Off        48, 0
   6812   22.4081  0 Note Off        41, 0
   6888   22.6581  0 Note On         51, 70
   6888   22.6581  0 Note On         44, 110
   6888   22.6581  0 Note On         32, 120
   6931   22.7994  0 Note Off        32, 0
   6931   22.7994  0 Note Off        44, 0
   6931   22.7994  0 Note Off        51, 0
   7009   23.0556  0 Note On         53, 70
   7009   23.0556  0 Note On         46, 110
   7009   23.0556  0 Note On         34, 120
   7052   23.1975  0 Note Off        34, 0
   7052   23.1975  0 Note Off        46, 0
   7052   23.1975  0 Note Off        53, 0
   7248   23.8419  0 Note On         53, 70
   7248   23.8419  0 Note On         46, 110
   7248   23.8419  0 Note On         34, 120
   7291   23.9838  0 Note Off        34, 0
   7291   23.9838  0 Note Off        46, 0
   7291   23.9838  0 Note Off        53, 0
   7406   24.3619  0 Note On         41, 110
   7406   24.3619  0 Note On         48, 70
   7406   24.3619  0 Note On         29, 120
   7449   24.5031  0 Note Off        29, 0
   7449   24.5031  0 Note Off        48, 0
   7449   24.5031  0 Note Off        41, 0
   7526   24.7563  0 Note On         51, 70
   7526   24.7563  0 Note On         44, 110
   7526   24.7563  0 Note On         32, 120
   7569   24.8981  0 Note Off        32, 0
   7569   24.8981  0 Note Off        44, 0
   7569   24.8981  0 Note Off        51, 0
   7645   25.1481  0 Note On         53, 70
   7645   25.1481  0 Note On         46, 110
   7645   25.1481  0 Note On         34, 120
   7688   25.2894  0 Note Off        34, 0
   7688   25.2894  0 Note Off        46, 0
   7688   25.2894  0 Note Off        53, 0
   7884   25.9344  0 Note On         53, 70
   7884   25.9344  0 Note On         46, 110
   7884   25.9344  0 Note On         34, 120
   7928   26.0787  0 Note Off        34, 0
   7928   26.0787  0 Note Off        46, 0
   7928   26.0787  0 Note Off        53, 0
   8044   26.4606  0 Note On         41, 110
   8044   26.4606  0 Note On         48, 70
   8044   26.4606  0 Note On         29, 120
   8087   26.6019  0 Note Off        29, 0
   8087   26.6019  0 Note Off        48, 0
   8087   26.6019  0 Note Off        41, 0
   8163   26.8519  0 Note On         51, 70
   8163   26.8519  0 Note On         44, 110
   8163   26.8519  0 Note On         32, 120
   8206   26.9931  0 Note Off        32, 0
   8206   26.9931  0 Note Off        44, 0
   8206   26.9931  0 Note Off        51, 0
   8284   27.2500  0 Note On         53, 70
   8284   27.2500  0 Note On         46, 110
   8284   27.2500  0 Note On         34, 120
   8327   27.3912  0 Note Off        34, 0
   8327   27.3912  0 Note Off        46, 0
   8327   27.3912  0 Note Off        53, 0
   8521   28.0294  0 Note On         53, 70
   8521   28.0294  0 Note On         46, 110
   8521   28.0294  0 Note On         34, 120
   8564   28.1713  0 Note Off        34, 0
   8564   28.1713  0 Note Off        46, 0
   8564   28.1713  0 Note Off        53, 0
   8680   28.5525  0 Note On         41, 110
   8680   28.5525  0 Note On         48, 70
   8680   28.5525  0 Note On         29, 120
   8724   28.6975  0 Note Off        29, 0
   8724   28.6975  0 Note Off        48, 0
   8724   28.6975  0 Note Off        41, 0
   8801   28.9506  0 Note On         51, 70
   8801   28.9506  0 Note On         44, 110
   8801   28.9506  0 Note On         32, 120
   8844   29.0919  0 Note Off        32, 0
   8844   29.0919  0 Note Off        44, 0
   8844   29.0919  0 Note Off        51, 0
   8920   29.3419  0 Note On         53, 70
   8920   29.3419  0 Note On         46, 110
   8920   29.3419  0 Note On         34, 120
   8963   29.4838  0 Note Off        34, 0
   8963   29.4838  0 Note Off        46, 0
   8963   29.4838  0 Note Off        53, 0
   9159   30.1281  0 Note On         53, 70
   9159   30.1281  0 Note On         46, 110
   9159   30.1281  0 Note On         34, 120
   9203   30.2731  0 Note Off        34, 0
   9203   30.2731  0 Note Off        46, 0
   9203   30.2731  0 Note Off        53, 0
   9319   30.6544  0 Note On         41, 110
   9319   30.6544  0 Note On         48, 70
   9319   30.6544  0 Note On         29, 120
   9362   30.7963  0 Note Off        29, 0
   9362   30.7963  0 Note Off        48, 0
   9362   30.7963  0 Note Off        41, 0
   9438   31.0463  0 Note On         51, 70
   9438   31.0463  0 Note On         44, 110
   9438   31.0463  0 Note On         32, 120
   9481   31.1875  0 Note Off        32, 0
   9481   31.1875  0 Note Off        44, 0
   9481   31.1875  0 Note Off        51, 0
   9556   31.4344  0 Note On         53, 70
   9556   31.4344  0 Note On         46, 110
   9556   31.4344  0 Note On         34, 120
   9600   31.5787  0 Note Off        34, 0
   9600   31.5787  0 Note Off        46, 0
   9600   31.5787  0 Note Off        53, 0
   9796   32.2238  0 Note On         53, 70
   9796   32.2238  0 Note On         46, 110
   9796   32.2238  0 Note On         34, 120
   9839   32.3650  0 Note Off        34, 0
   9839   32.3650  0 Note Off        46, 0
   9839   32.3650  0 Note Off        53, 0
   9955   32.7469  0 Note On         41, 110
   9955   32.7469  0 Note On         48, 70
   9955   32.7469  0 Note On         29, 120
   9999   32.8912  0 Note Off        29, 0
   9999   32.8912  0 Note Off        48, 0
   9999   32.8912  0 Note Off        41, 0
  10074   33.1381  0 Note On         51, 70
  10074   33.1381  0 Note On         44, 110
  10074   33.1381  0 Note On         32, 120
  10117   33.2794  0 Note Off        32, 0
  10117   33.2794  0 Note Off        44, 0
  10117   33.2794  0 Note Off        51, 0
  10195   33.5363  0 Note On         53, 70
  10195   33.5363  0 Note On         46, 110
  10195   33.5363  0 Note On         34, 120
  10238   33.6775  0 Note Off        34, 0
  10238   33.6775  0 Note Off        46, 0
  10238   33.6775  0 Note Off        53, 0
  10432   34.3156  0 Note On         53, 70
  10432   34.3156  0 Note On         46, 110
  10432   34.3156  0 Note On         34, 120
  10475   34.4569  0 Note Off        34, 0
  10475   34.4569  0 Note Off        46, 0
  10475   34.4569  0 Note Off        53, 0
  10592   34.8419  0 Note On         41, 110
  10592   34.8419  0 Note On         48, 70
  10592   34.8419  0 Note On         29, 120
  10635   34.9838  0 Note Off        29, 0
  10635   34.9838  0 Note Off        48, 0
  10635   34.9838  0 Note Off        41, 0
  10713   35.2400  0 Note On         51, 70
  10713   35.2400  0 Note On         44, 110
  10713   35.2400  0 Note On         32, 120
  10756   35.3813  0 Note Off        32, 0
  10756   35.3813  0 Note Off        44, 0
  10756   35.3813  0 Note Off        51, 0
  10831   35.6281  0 Note On         53, 70
  10831   35.6281  0 Note On         46, 110
  10831   35.6281  0 Note On         34, 120
  10874   35.7694  0 Note Off        34, 0
  10874   35.7694  0 Note Off        46, 0
  10874   35.7694  0 Note Off        53, 0
  11071   36.4175  0 Note On         53, 70
  11071   36.4175  0 Note On         46, 110
  11071   36.4175  0 Note On         34, 120
  11114   36.5594  0 Note Off        34, 0
  11114   36.5594  0 Note Off        46, 0
  11114   36.5594  0 Note Off        53, 0
  11230   36.9406  0 Note On         41, 110
  11230   36.9406  0 Note On         48, 70
  11230   36.9406  0 Note On         29, 120
  11274   37.0856  0 Note Off        29, 0
  11274   37.0856  0 Note Off        48, 0
  11274   37.0856  0 Note Off        41, 0
  11349   37.3319  0 Note On         51, 70
  11349   37.3319  0 Note On         44, 110
  11349   37.3319  0 Note On         32, 120
  11392   37.4738  0 Note Off        32, 0
  11392   37.4738  0 Note Off        44, 0
  11392   37.4738  0 Note Off        51, 0
  19115   62.8781  0 Note On         53, 70
  19115   62.8781  0 Note On         46, 110
  19115   62.8781  0 Note On         34, 120
  19159   63.0231  0 Note Off        34, 0
  19159   63.0231  0 Note Off        46, 0
  19159   63.0231  0 Note Off        53, 0
  19355   63.6675  0 Note On         53, 70
  19355   63.6675  0 Note On         46, 110
  19355   63.6675  0 Note On         34, 120
  19398   63.8094  0 Note Off        34, 0
  19398   63.8094  0 Note Off        46, 0
  19398   63.8094  0 Note Off        53, 0
  19514   64.1906  0 Note On         41, 110
  19514   64.1906  0 Note On         48, 70
  19514   64.1906  0 Note On         29, 120
  19558   64.3356  0 Note Off        29, 0
  19558   64.3356  0 Note Off        48, 0
  19558   64.3356  0 Note Off        41, 0
  19633   64.5819  0 Note On         51, 70
  19633   64.5819  0 Note On         44, 110
  19633   64.5819  0 Note On         32, 120
  19676   64.7237  0 Note Off        32, 0
  19676   64.7237  0 Note Off        44, 0
  19676   64.7237  0 Note Off        51, 0
  19752   64.9737  0 Note On         53, 70
  19752   64.9737  0 Note On         46, 110
  19752   64.9737  0 Note On         34, 120
  19795   65.1150  0 Note Off        34, 0
  19795   65.1150  0 Note Off        46, 0
  19795   65.1150  0 Note Off        53, 0
  19991   65.7600  0 Note On         53, 70
  19991   65.7600  0 Note On         46, 110
  19991   65.7600  0 Note On         34, 120
  20034   65.9013  0 Note Off        34, 0
  20034   65.9013  0 Note Off        46, 0
  20034   65.9013  0 Note Off        53, 0
  20151   66.2862  0 Note On         41, 110
  20151   66.2862  0 Note On         48, 70
  20151   66.2862  0 Note On         29, 120
  20194   66.4275  0 Note Off        29, 0
  20194   66.4275  0 Note Off        48, 0
  20194   66.4275  0 Note Off        41, 0
  20270   66.6775  0 Note On         51, 70
  20270   66.6775  0 Note On         44, 110
  20270   66.6775  0 Note On         32, 120
  20313   66.8187  0 Note Off        32, 0
  20313   66.8187  0 Note Off        44, 0
  20313   66.8187  0 Note Off        51, 0
  20390   67.0725  0 Note On         53, 70
  20390   67.0725  0 Note On         46, 110
  20390   67.0725  0 Note On         34, 120
  20433   67.2138  0 Note Off        34, 0
  20433   67.2138  0 Note Off        46, 0
  20433   67.2138  0 Note Off        53, 0
  20630   67.8619  0 Note On         53, 70
  20630   67.8619  0 Note On         46, 110
  20630   67.8619  0 Note On         34, 120
  20673   68.0031  0 Note Off        34, 0
  20673   68.0031  0 Note Off        46, 0
  20673   68.0031  0 Note Off        53, 0
  20787   68.3781  0 Note On         41, 110
  20787   68.3781  0 Note On         48, 70
  20787   68.3781  0 Note On         29, 120
  20830   68.5194  0 Note Off        29, 0
  20830   68.5194  0 Note Off        48, 0
  20830   68.5194  0 Note Off        41, 0
  20908   68.7763  0 Note On         51, 70
  20908   68.7763  0 Note On         44, 110
  20908   68.7763  0 Note On         32, 120
  20951   68.9175  0 Note Off        32, 0
  20951   68.9175  0 Note Off        44, 0
  20951   68.9175  0 Note Off        51, 0
  21027   69.1675  0 Note On         53, 70
  21027   69.1675  0 Note On         46, 110
  21027   69.1675  0 Note On         34, 120
  21070   69.3094  0 Note Off        34, 0
  21070   69.3094  0 Note Off        46, 0
  21070   69.3094  0 Note Off        53, 0
  21266   69.9537  0 Note On         53, 70
  21266   69.9537  0 Note On         46, 110
  21266   69.9537  0 Note On         34, 120
  21309   70.0950  0 Note Off        34, 0
  21309   70.0950  0 Note Off        46, 0
  21309   70.0950  0 Note Off        53, 0
  21426   70.4800  0 Note On         41, 110
  21426   70.4800  0 Note On         48, 70
  21426   70.4800  0 Note On         29, 120
  21469   70.6219  0 Note Off        29, 0
  21469   70.6219  0 Note Off        48, 0
  21469   70.6219  0 Note Off        41, 0
  21544   70.8681  0 Note On         51, 70
  21544   70.8681  0 Note On         44, 110
  21544   70.8681  0 Note On         32, 120
  21588   71.0131  0 Note Off        32, 0
  21588   71.0131  0 Note Off        44, 0
  21588   71.0131  0 Note Off        51, 0
  21665   71.2662  0 Note On         53, 70
  21665   71.2662  0 Note On         46, 110
  21665   71.2662  0 Note On         34, 120
  21708   71.4075  0 Note Off        34, 0
  21708   71.4075  0 Note Off        46, 0
  21708   71.4075  0 Note Off        53, 0
  21903   72.0494  0 Note On         53, 70
  21903   72.0494  0 Note On         46, 110
  21903   72.0494  0 Note On         34, 120
  21946   72.1906  0 Note Off        34, 0
  21946   72.1906  0 Note Off        46, 0
  21946   72.1906  0 Note Off        53, 0
  22062   72.5725  0 Note On         41, 110
  22062   72.5725  0 Note On         48, 70
  22062   72.5725  0 Note On         29, 120
  22105   72.7138  0 Note Off        29, 0
  22105   72.7138  0 Note Off        48, 0
  22105   72.7138  0 Note Off        41, 0
  22183   72.9700  0 Note On         51, 70
  22183   72.9700  0 Note On         44, 110
  22183   72.9700  0 Note On         32, 120
  22226   73.1119  0 Note Off        32, 0
  22226   73.1119  0 Note Off        44, 0
  22226   73.1119  0 Note Off        51, 0
  22302   73.3619  0 Note On         53, 70
  22302   73.3619  0 Note On         46, 110
  22302   73.3619  0 Note On         34, 120
  22345   73.5031  0 Note Off        34, 0
  22345   73.5031  0 Note Off        46, 0
  22345   73.5031  0 Note Off        53, 0
  22541   74.1481  0 Note On         53, 70
  22541   74.1481  0 Note On         46, 110
  22541   74.1481  0 Note On         34, 120
  22584   74.2894  0 Note Off        34, 0
  22584   74.2894  0 Note Off        46, 0
  22584   74.2894  0 Note Off        53, 0
  22701   74.6744  0 Note On         41, 110
  22701   74.6744  0 Note On         48, 70
  22701   74.6744  0 Note On         29, 120
  22744   74.8156  0 Note Off        29, 0
  22744   74.8156  0 Note Off        48, 0
  22744   74.8156  0 Note Off        41, 0
  22819   75.0625  0 Note On         51, 70
  22819   75.0625  0 Note On         44, 110
  22819   75.0625  0 Note On         32, 120
  22863   75.2069  0 Note Off        32, 0
  22863   75.2069  0 Note Off        44, 0
  22863   75.2069  0 Note Off        51, 0
  22938   75.4537  0 Note On         53, 70
  22938   75.4537  0 Note On         46, 110
  22938   75.4537  0 Note On         34, 120
  22981   75.5950  0 Note Off        34, 0
  22981   75.5950  0 Note Off        46, 0
  22981   75.5950  0 Note Off        53, 0
  23178   76.2431  0 Note On         53, 70
  23178   76.2431  0 Note On         46, 110
  23178   76.2431  0 Note On         34, 120
  23221   76.3850  0 Note Off        34, 0
  23221   76.3850  0 Note Off        46, 0
  23221   76.3850  0 Note Off        53, 0
  23337   76.7662  0 Note On         41, 110
  23337   76.7662  0 Note On         48, 70
  23337   76.7662  0 Note On         29, 120
  23380   76.9075  0 Note Off        29, 0
  23380   76.9075  0 Note Off        48, 0
  23380   76.9075  0 Note Off        41, 0
  23456   77.1575  0 Note On         51, 70
  23456   77.1575  0 Note On         44, 110
  23456   77.1575  0 Note On         32, 120
  23499   77.2994  0 Note Off        32, 0
  23499   77.2994  0 Note Off        44, 0
  23499   77.2994  0 Note Off        51, 0
  23577   77.5556  0 Note On         53, 70
  23577   77.5556  0 Note On         46, 110
  23577   77.5556  0 Note On         34, 120
  23620   77.6975  0 Note Off        34, 0
  23620   77.6975  0 Note Off        46, 0
  23620   77.6975  0 Note Off        53, 0
  23816   78.3419  0 Note On         53, 70
  23816   78.3419  0 Note On         46, 110
  23816   78.3419  0 Note On         34, 120
  23859   78.4831  0 Note Off        34, 0
  23859   78.4831  0 Note Off        46, 0
  23859   78.4831  0 Note Off        53, 0
  23974   78.8619  0 Note On         41, 110
  23974   78.8619  0 Note On         48, 70
  23974   78.8619  0 Note On         29, 120
  24017   79.0031  0 Note Off        29, 0
  24017   79.0031  0 Note Off        48, 0
  24017   79.0031  0 Note Off        41, 0
  24094   79.2562  0 Note On         51, 70
  24094   79.2562  0 Note On         44, 110
  24094   79.2562  0 Note On         32, 120
  24138   79.4013  0 Note Off        32, 0
  24138   79.4013  0 Note Off        44, 0
  24138   79.4013  0 Note Off        51, 0
  24213   79.6481  0 Note On         53, 70
  24213   79.6481  0 Note On         46, 110
  24213   79.6481  0 Note On         34, 120
  24256   79.7894  0 Note Off        34, 0
  24256   79.7894  0 Note Off        46, 0
  24256   79.7894  0 Note Off        53, 0
  25249   83.0556  0 Note On         41, 110
  25249   83.0556  0 Note On         48, 70
  25249   83.0556  0 Note On         29, 120
  25292   83.1975  0 Note Off        29, 0
  25292   83.1975  0 Note Off        48, 0
  25292   83.1975  0 Note Off        41, 0
  25369   83.4506  0 Note On         51, 70
  25369   83.4506  0 Note On         44, 110
  25369   83.4506  0 Note On         32, 120
  25413   83.5950  0 Note Off        32, 0
  25413   83.5950  0 Note Off        44, 0
  25413   83.5950  0 Note Off        51, 0
  25488   83.8419  0 Note On         53, 70
  25488   83.8419  0 Note On         46, 110
  25488   83.8419  0 Note On         34, 120
  25531   83.9831  0 Note Off        34, 0
  25531   83.9831  0 Note Off        46, 0
  25531   83.9831  0 Note Off        53, 0
  26124   85.9344  0 Note On         53, 70
  26124   85.9344  0 Note On         46, 110
  26124   85.9344  0 Note On         34, 120
  26168   86.0787  0 Note Off        34, 0
  26168   86.0787  0 Note Off        46, 0
  26168   86.0787  0 Note Off        53, 0
  26524   87.2500  0 Note On         41, 110
  26524   87.2500  0 Note On         48, 70
  26524   87.2500  0 Note On         29, 120
  26567   87.3912  0 Note Off        29, 0
  26567   87.3912  0 Note Off        48, 0
  26567   87.3912  0 Note Off        41, 0
  26642   87.6381  0 Note On         51, 70
  26642   87.6381  0 Note On         44, 110
  26642   87.6381  0 Note On         32, 120
  26685   87.7794  0 Note Off        32, 0
  26685   87.7794  0 Note Off        44, 0
  26685   87.7794  0 Note Off        51, 0
  26763   88.0362  0 Note On         53, 70
  26763   88.0362  0 Note On         46, 110
  26763   88.0362  0 Note On         34, 120
  26806   88.1775  0 Note Off        34, 0
  26806   88.1775  0 Note Off        46, 0
  26806   88.1775  0 Note Off        53, 0
  27399   90.1281  0 Note On         53, 70
  27399   90.1281  0 Note On         46, 110
  27399   90.1281  0 Note On         34, 120
  27443   90.2731  0 Note Off        34, 0
  27443   90.2731  0 Note Off        46, 0
  27443   90.2731  0 Note Off        53, 0
  28036   92.2237  0 Note On         53, 70
  28036   92.2237  0 Note On         46, 110
  28036   92.2237  0 Note On         34, 120
  28079   92.3650  0 Note Off        34, 0
  28079   92.3650  0 Note Off        46, 0
  28079   92.3650  0 Note Off        53, 0
  28275   93.0100  0 Note On         53, 70
  28275   93.0100  0 Note On         46, 110
  28275   93.0100  0 Note On         34, 120
  28318   93.1513  0 Note Off        34, 0
  28318   93.1513  0 Note Off        46, 0
  28318   93.1513  0 Note Off        53, 0
  28435   93.5362  0 Note On         41, 110
  28435   93.5362  0 Note On         48, 70
  28435   93.5362  0 Note On         29, 120
  28478   93.6775  0 Note Off        29, 0
  28478   93.6775  0 Note Off        48, 0
  28478   93.6775  0 Note Off        41, 0
  28554   93.9275  0 Note On         51, 70
  28554   93.9275  0 Note On         44, 110
  28554   93.9275  0 Note On         32, 120
  28597   94.0687  0 Note Off        32, 0
  28597   94.0687  0 Note Off        44, 0
  28597   94.0687  0 Note Off        51, 0
  28674   94.3225  0 Note On         53, 70
  28674   94.3225  0 Note On         46, 110
  28674   94.3225  0 Note On         34, 120
  28718   94.4669  0 Note Off        34, 0
  28718   94.4669  0 Note Off        46, 0
  28718   94.4669  0 Note Off        53, 0
  28914   95.1119  0 Note On         53, 70
  28914   95.1119  0 Note On         46, 110
  28914   95.1119  0 Note On         34, 120
  28957   95.2531  0 Note Off        34, 0
  28957   95.2531  0 Note Off        46, 0
  28957   95.2531  0 Note Off        53, 0
  29071   95.6281  0 Note On         41, 110
  29071   95.6281  0 Note On         48, 70
  29071   95.6281  0 Note On         29, 120
  29114   95.7694  0 Note Off        29, 0
  29114   95.7694  0 Note Off        48, 0
  29114   95.7694  0 Note Off        41, 0
  29192   96.0263  0 Note On         51, 70
  29192   96.0263  0 Note On         44, 110
  29192   96.0263  0 Note On         32, 120
  29235   96.1675  0 Note Off        32, 0
  29235   96.1675  0 Note Off        44, 0
  29235   96.1675  0 Note Off        51, 0
  29311   96.4175  0 Note On         53, 70
  29311   96.4175  0 Note On         46, 110
  29311   96.4175  0 Note On         34, 120
  29354   96.5594  0 Note Off        34, 0
  29354   96.5594  0 Note Off        46, 0
  29354   96.5594  0 Note Off        53, 0
  29550   97.2037  0 Note On         53, 70
  29550   97.2037  0 Note On         46, 110
  29550   97.2037  0 Note On         34, 120
  29593   97.3450  0 Note Off        34, 0
  29593   97.3450  0 Note Off        46, 0
  29593   97.3450  0 Note Off        53, 0
  29710   97.7300  0 Note On         41, 110
  29710   97.7300  0 Note On         48, 70
  29710   97.7300  0 Note On         29, 120
  29753   97.8719  0 Note Off        29, 0
  29753   97.8719  0 Note Off        48, 0
  29753   97.8719  0 Note Off        41, 0
  29829   98.1219  0 Note On         51, 70
  29829   98.1219  0 Note On         44, 110
  29829   98.1219  0 Note On         32, 120
  29872   98.2631  0 Note Off        32, 0
  29872   98.2631  0 Note Off        44, 0
  29872   98.2631  0 Note Off        51, 0
  29949   98.5162  0 Note On         53, 70
  29949   98.5162  0 Note On         46, 110
  29949   98.5162  0 Note On         34, 120
  29992   98.6575  0 Note Off        34, 0
  29992   98.6575  0 Note Off        46, 0
  29992   98.6575  0 Note Off        53, 0
  30187   99.2994  0 Note On         53, 70
  30187   99.2994  0 Note On         46, 110
  30187   99.2994  0 Note On         34, 120
  30230   99.4406  0 Note Off        34, 0
  30230   99.4406  0 Note Off        46, 0
  30230   99.4406  0 Note Off        53, 0
  30346   99.8225  0 Note On         41, 110
  30346   99.8225  0 Note On         48, 70
  30346   99.8225  0 Note On         29, 120
  30389   99.9638  0 Note Off        29, 0
  30389   99.9638  0 Note Off        48, 0
  30389   99.9638  0 Note Off        41, 0
  30467  100.2200  0 Note On         51, 70
  30467  100.2200  0 Note On         44, 110
  30467  100.2200  0 Note On         32, 120
  30510  100.3619  0 Note Off        32, 0
  30510  100.3619  0 Note Off        44, 0
  30510  100.3619  0 Note Off        51, 0
  30586  100.6119  0 Note On         53, 70
  30586  100.6119  0 Note On         46, 110
  30586  100.6119  0 Note On         34, 120
  30629  100.7531  0 Note Off        34, 0
  30629  100.7531  0 Note Off        46, 0
  30629  100.7531  0 Note Off        53, 0
  30825  101.3981  0 Note On         53, 70
  30825  101.3981  0 Note On         46, 110
  30825  101.3981  0 Note On         34, 120
  30868  101.5394  0 Note Off        34, 0
  30868  101.5394  0 Note Off        46, 0
  30868  101.5394  0 Note Off        53, 0
  30985  101.9244  0 Note On         41, 110
  30985  101.9244  0 Note On         48, 70
  30985  101.9244  0 Note On         29, 120
  31028  102.0656  0 Note Off        29, 0
  31028  102.0656  0 Note Off        48, 0
  31028  102.0656  0 Note Off        41, 0
  31104  102.3156  0 Note On         51, 70
  31104  102.3156  0 Note On         44, 110
  31104  102.3156  0 Note On         32, 120
  31147  102.4569  0 Note Off        32, 0
  31147  102.4569  0 Note Off        44, 0
  31147  102.4569  0 Note Off        51, 0
  31222  102.7037  0 Note On         53, 70
  31222  102.7037  0 Note On         46, 110
  31222  102.7037  0 Note On         34, 120
  31265  102.8450  0 Note Off        34, 0
  31265  102.8450  0 Note Off        46, 0
  31265  102.8450  0 Note Off        53, 0
  31462  103.4931  0 Note On         53, 70
  31462  103.4931  0 Note On         46, 110
  31462  103.4931  0 Note On         34, 120
  31505  103.6350  0 Note Off        34, 0
  31505  103.6350  0 Note Off        46, 0
  31505  103.6350  0 Note Off        53, 0
  31621  104.0162  0 Note On         41, 110
  31621  104.0162  0 Note On         48, 70
  31621  104.0162  0 Note On         29, 120
  31664  104.1575  0 Note Off        29, 0
  31664  104.1575  0 Note Off        48, 0
  31664  104.1575  0 Note Off        41, 0
  31740  104.4075  0 Note On         51, 70
  31740  104.4075  0 Note On         44, 110
  31740  104.4075  0 Note On         32, 120
  31783  104.5494  0 Note Off        32, 0
  31783  104.5494  0 Note Off        44, 0
  31783  104.5494  0 Note Off        51, 0
  31861  104.8056  0 Note On         53, 70
  31861  104.8056  0 Note On         46, 110
  31861  104.8056  0 Note On         34, 120
  31904  104.9475  0 Note Off        34, 0
  31904  104.9475  0 Note Off        46, 0
  31904  104.9475  0 Note Off        53, 0
  32100  105.5919  0 Note On         53, 70
  32100  105.5919  0 Note On         46, 110
  32100  105.5919  0 Note On         34, 120
  32143  105.7331  0 Note Off        34, 0
  32143  105.7331  0 Note Off        46, 0
  32143  105.7331  0 Note Off        53, 0
  32258  106.1119  0 Note On         41, 110
  32258  106.1119  0 Note On         48, 70
  32258  106.1119  0 Note On         29, 120
  32301  106.2531  0 Note Off        29, 0
  32301  106.2531  0 Note Off        48, 0
  32301  106.2531  0 Note Off        41, 0
  32378  106.5062  0 Note On         51, 70
  32378  106.5062  0 Note On         44, 110
  32378  106.5062  0 Note On         32, 120
  32422  106.6513  0 Note Off        32, 0
  32422  106.6513  0 Note Off        44, 0
  32422  106.6513  0 Note Off        51, 0
  32497  106.8981  0 Note On         53, 70
  32497  106.8981  0 Note On         46, 110
  32497  106.8981  0 Note On         34, 120
  32540  107.0394  0 Note Off        34, 0
  32540  107.0394  0 Note Off        46, 0
  32540  107.0394  0 Note Off        53, 0
  32737  107.6875  0 Note On         53, 70
  32737  107.6875  0 Note On         46, 110
  32737  107.6875  0 Note On         34, 120
  32780  107.8287  0 Note Off        34, 0
  32780  107.8287  0 Note Off        46, 0
  32780  107.8287  0 Note Off        53, 0
  32896  108.2106  0 Note On         41, 110
  32896  108.2106  0 Note On         48, 70
  32896  108.2106  0 Note On         29, 120
  32939  108.3519  0 Note Off        29, 0
  32939  108.3519  0 Note Off        48, 0
  32939  108.3519  0 Note Off        41, 0
  33015  108.6019  0 Note On         51, 70
  33015  108.6019  0 Note On         44, 110
  33015  108.6019  0 Note On         32, 120
  33058  108.7431  0 Note Off        32, 0
  33058  108.7431  0 Note Off        44, 0
  33058  108.7431  0 Note Off        51, 0
  33136  109.0000  0 Note On         53, 70
  33136  109.0000  0 Note On         46, 110
  33136  109.0000  0 Note On         34, 120
  33179  109.1412  0 Note Off        34, 0
  33179  109.1412  0 Note Off        46, 0
  33179  109.1412  0 Note Off        53, 0
  33213  109.2531  0 Note On         53, 30
  33213  109.2531  0 Note On         46, 70
  33213  109.2531  0 Note On         34, 80
  33256  109.3944  0 Note Off        34, 0
  33256  109.3944  0 Note Off        46, 0
  33256  109.3944  0 Note Off        53, 0
  33373  109.7794  0 Note On         53, 70
  33373  109.7794  0 Note On         46, 110
  33373  109.7794  0 Note On         34, 120
  33416  109.9206  0 Note Off        34, 0
  33416  109.9206  0 Note Off        46, 0
  33416  109.9206  0 Note Off        53, 0
  33453  110.0425  0 Note On         53, 30
  33453  110.0425  0 Note On         46, 70
  33453  110.0425  0 Note On         34, 80
  33496  110.1838  0 Note Off        34, 0
  33496  110.1838  0 Note Off        46, 0
  33496  110.1838  0 Note Off        53, 0
  33533  110.3056  0 Note On         41, 110
  33533  110.3056  0 Note On         48, 70
  33533  110.3056  0 Note On         29, 120
  33576  110.4475  0 Note Off        29, 0
  33576  110.4475  0 Note Off        48, 0
  33576  110.4475  0 Note Off        41, 0
  33612  110.5656  0 Note On         41, 70
  33612  110.5656  0 Note On         48, 30
  33612  110.5656  0 Note On         29, 80
  33653  110.7006  0 Note On         51, 70
  33653  110.7006  0 Note On         44, 110
  33653  110.7006  0 Note On         32, 120
  33656  110.7106  0 Note Off        29, 0
  33656  110.7106  0 Note Off        48, 0
  33656  110.7106  0 Note Off        41, 0
  33697  110.8450  0 Note Off        51, 0
  33697  110.8450  0 Note Off        44, 0
  33697  110.8450  0 Note Off        32, 0
  33731  110.9569  0 Note On         51, 30
  33731  110.9569  0 Note On         44, 70
  33731  110.9569  0 Note On         32, 80
  33772  111.0919  0 Note On         53, 70
  33772  111.0919  0 Note On         46, 110
  33772  111.0919  0 Note On         34, 120
  33774  111.0987  0 Note Off        32, 0
  33774  111.0987  0 Note Off        44, 0
  33774  111.0987  0 Note Off        51, 0
  33815  111.2331  0 Note Off        53, 0
  33815  111.2331  0 Note Off        46, 0
  33815  111.2331  0 Note Off        34, 0
  33852  111.3550  0 Note On         53, 30
  33852  111.3550  0 Note On         46, 70
  33852  111.3550  0 Note On         34, 80
  33895  111.4963  0 Note Off        34, 0
  33895  111.4963  0 Note Off        46, 0
  33895  111.4963  0 Note Off        53, 0
  34012  111.8812  0 Note On         53, 70
  34012  111.8812  0 Note On         46, 110
  34012  111.8812  0 Note On         34, 120
  34055  112.0231  0 Note Off        34, 0
  34055  112.0231  0 Note Off        46, 0
  34055  112.0231  0 Note Off        53, 0
  34091  112.1412  0 Note On         53, 30
  34091  112.1412  0 Note On         46, 70
  34091  112.1412  0 Note On         34, 80
  34135  112.2862  0 Note Off        34, 0
  34135  112.2862  0 Note Off        46, 0
  34135  112.2862  0 Note Off        53, 0
  34171  112.4044  0 Note On         41, 110
  34171  112.4044  0 Note On         48, 70
  34171  112.4044  0 Note On         29, 120
  34214  112.5456  0 Note Off        29, 0
  34214  112.5456  0 Note Off        48, 0
  34214  112.5456  0 Note Off        41, 0
  34249  112.6612  0 Note On         41, 70
  34249  112.6612  0 Note On         48, 30
  34249  112.6612  0 Note On         29, 80
  34290  112.7956  0 Note On         51, 70
  34290  112.7956  0 Note On         44, 110
  34290  112.7956  0 Note On         32, 120
  34292  112.8025  0 Note Off        29, 0
  34292  112.8025  0 Note Off        48, 0
  34292  112.8025  0 Note Off        41, 0
  34333  112.9375  0 Note Off        51, 0
  34333  112.9375  0 Note Off        44, 0
  34333  112.9375  0 Note Off        32, 0
  34370  113.0588  0 Note On         51, 30
  34370  113.0588  0 Note On         44, 70
  34370  113.0588  0 Note On         32, 80
  34408  113.1838  0 Note On         53, 70
  34408  113.1838  0 Note On         46, 110
  34408  113.1838  0 Note On         34, 120
  34413  113.2006  0 Note Off        32, 0
  34413  113.2006  0 Note Off        44, 0
  34413  113.2006  0 Note Off        51, 0
  34452  113.3287  0 Note Off        53, 0
  34452  113.3287  0 Note Off        46, 0
  34452  113.3287  0 Note Off        34, 0
  34488  113.4475  0 Note On         53, 30
  34488  113.4475  0 Note On         46, 70
  34488  113.4475  0 Note On         34, 80
  34531  113.5888  0 Note Off        34, 0
  34531  113.5888  0 Note Off        46, 0
  34531  113.5888  0 Note Off        53, 0
  34648  113.9737  0 Note On         53, 70
  34648  113.9737  0 Note On         46, 110
  34648  113.9737  0 Note On         34, 120
  34691  114.1150  0 Note Off        34, 0
  34691  114.1150  0 Note Off        46, 0
  34691  114.1150  0 Note Off        53, 0
  34728  114.2369  0 Note On         53, 30
  34728  114.2369  0 Note On         46, 70
  34728  114.2369  0 Note On         34, 80
  34771  114.3781  0 Note Off        34, 0
  34771  114.3781  0 Note Off        46, 0
  34771  114.3781  0 Note Off        53, 0
  34808  114.5000  0 Note On         41, 110
  34808  114.5000  0 Note On         48, 70
  34808  114.5000  0 Note On         29, 120
  34851  114.6412  0 Note Off        29, 0
  34851  114.6412  0 Note Off        48, 0
  34851  114.6412  0 Note Off        41, 0
  34887  114.7600  0 Note On         41, 70
  34887  114.7600  0 Note On         48, 30
  34887  114.7600  0 Note On         29, 80
  34926  114.8881  0 Note On         51, 70
  34926  114.8881  0 Note On         44, 110
  34926  114.8881  0 Note On         32, 120
  34931  114.9044  0 Note Off        29, 0
  34931  114.9044  0 Note Off        48, 0
  34931  114.9044  0 Note Off        41, 0
  34969  115.0294  0 Note Off        51, 0
  34969  115.0294  0 Note Off        44, 0
  34969  115.0294  0 Note Off        32, 0
  35006  115.1513  0 Note On         51, 30
  35006  115.1513  0 Note On         44, 70
  35006  115.1513  0 Note On         32, 80
  35047  115.2862  0 Note On         53, 70
  35047  115.2862  0 Note On         46, 110
  35047  115.2862  0 Note On         34, 120
  35049  115.2925  0 Note Off        32, 0
  35049  115.2925  0 Note Off        44, 0
  35049  115.2925  0 Note Off        51, 0
  35090  115.4275  0 Note Off        53, 0
  35090  115.4275  0 Note Off        46, 0
  35090  115.4275  0 Note Off        34, 0
  35127  115.5494  0 Note On         53, 30
  35127  115.5494  0 Note On         46, 70
  35127  115.5494  0 Note On         34, 80
  35170  115.6906  0 Note Off        34, 0
  35170  115.6906  0 Note Off        46, 0
  35170  115.6906  0 Note Off        53, 0
  35284  116.0656  0 Note On         53, 70
  35284  116.0656  0 Note On         46, 110
  35284  116.0656  0 Note On         34, 120
  35328  116.2106  0 Note Off        34, 0
  35328  116.2106  0 Note Off        46, 0
  35328  116.2106  0 Note Off        53, 0
  35364  116.3287  0 Note On         53, 30
  35364  116.3287  0 Note On         46, 70
  35364  116.3287  0 Note On         34, 80
  35407  116.4700  0 Note Off        34, 0
  35407  116.4700  0 Note Off        46, 0
  35407  116.4700  0 Note Off        53, 0
  35444  116.5919  0 Note On         41, 110
  35444  116.5919  0 Note On         48, 70
  35444  116.5919  0 Note On         29, 120
  35487  116.7331  0 Note Off        29, 0
  35487  116.7331  0 Note Off        48, 0
  35487  116.7331  0 Note Off        41, 0
  35524  116.8550  0 Note On         41, 70
  35524  116.8550  0 Note On         48, 30
  35524  116.8550  0 Note On         29, 80
  35565  116.9900  0 Note On         51, 70
  35565  116.9900  0 Note On         44, 110
  35565  116.9900  0 Note On         32, 120
  35567  116.9963  0 Note Off        29, 0
  35567  116.9963  0 Note Off        48, 0
  35567  116.9963  0 Note Off        41, 0
  35608  117.1312  0 Note Off        51, 0
  35608  117.1312  0 Note Off        44, 0
  35608  117.1312  0 Note Off        32, 0
  35645  117.2531  0 Note On         51, 30
  35645  117.2531  0 Note On         44, 70
  35645  117.2531  0 Note On         32, 80
  35688  117.3944  0 Note Off        32, 0
  35688  117.3944  0 Note Off        44, 0
  35688  117.3944  0 Note Off        51, 0
  40781  134.1481  0 Note On         53, 70
  40781  134.1481  0 Note On         46, 110
  40781  134.1481  0 Note On         34, 120
  40824  134.2894  0 Note Off        34, 0
  40824  134.2894  0 Note Off        46, 0
  40824  134.2894  0 Note Off        53, 0
  41021  134.9375  0 Note On         53, 70
  41021  134.9375  0 Note On         46, 110
  41021  134.9375  0 Note On         34, 120
  41064  135.0788  0 Note Off        34, 0
  41064  135.0788  0 Note Off        46, 0
  41064  135.0788  0 Note Off        53, 0
  41180  135.4606  0 Note On         41, 110
  41180  135.4606  0 Note On         48, 70
  41180  135.4606  0 Note On         29, 120
  41223  135.6019  0 Note Off        29, 0
  41223  135.6019  0 Note Off        48, 0
  41223  135.6019  0 Note Off        41, 0
  41299  135.8519  0 Note On         51, 70
  41299  135.8519  0 Note On         44, 110
  41299  135.8519  0 Note On         32, 120
  41342  135.9931  0 Note Off        32, 0
  41342  135.9931  0 Note Off        44, 0
  41342  135.9931  0 Note Off        51, 0
  41420  136.2500  0 Note On         53, 70
  41420  136.2500  0 Note On         46, 110
  41420  136.2500  0 Note On         34, 120
  41463  136.3913  0 Note Off        34, 0
  41463  136.3913  0 Note Off        46, 0
  41463  136.3913  0 Note Off        53, 0
  41657  137.0294  0 Note On         53, 70
  41657  137.0294  0 Note On         46, 110
  41657  137.0294  0 Note On         34, 120
  41700  137.1706  0 Note Off        34, 0
  41700  137.1706  0 Note Off        46, 0
  41700  137.1706  0 Note Off        53, 0
  41817  137.5556  0 Note On         41, 110
  41817  137.5556  0 Note On         48, 70
  41817  137.5556  0 Note On         29, 120
  41860  137.6969  0 Note Off        29, 0
  41860  137.6969  0 Note Off        48, 0
  41860  137.6969  0 Note Off        41, 0
  41937  137.9506  0 Note On         51, 70
  41937  137.9506  0 Note On         44, 110
  41937  137.9506  0 Note On         32, 120
  41981  138.0950  0 Note Off        32, 0
  41981  138.0950  0 Note Off        44, 0
  41981  138.0950  0 Note Off        51, 0
  42056  138.3419  0 Note On         53, 70
  42056  138.3419  0 Note On         46, 110
  42056  138.3419  0 Note On         34, 120
  42099  138.4831  0 Note Off        34, 0
  42099  138.4831  0 Note Off        46, 0
  42099  138.4831  0 Note Off        53, 0
  42296  139.1312  0 Note On         53, 70
  42296  139.1312  0 Note On         46, 110
  42296  139.1312  0 Note On         34, 120
  42339  139.2731  0 Note Off        34, 0
  42339  139.2731  0 Note Off        46, 0
  42339  139.2731  0 Note Off        53, 0
  42455  139.6544  0 Note On         41, 110
  42455  139.6544  0 Note On         48, 70
  42455  139.6544  0 Note On         29, 120
  42498  139.7956  0 Note Off        29, 0
  42498  139.7956  0 Note Off        48, 0
  42498  139.7956  0 Note Off        41, 0
  42574  140.0456  0 Note On         51, 70
  42574  140.0456  0 Note On         44, 110
  42574  140.0456  0 Note On         32, 120
  42617  140.1875  0 Note Off        32, 0
  42617  140.1875  0 Note Off        44, 0
  42617  140.1875  0 Note Off        51, 0
  42693  140.4375  0 Note On         53, 70
  42693  140.4375  0 Note On         46, 110
  42693  140.4375  0 Note On         34, 120
  42736  140.5788  0 Note Off        34, 0
  42736  140.5788  0 Note Off        46, 0
  42736  140.5788  0 Note Off        53, 0
  42932  141.2237  0 Note On         53, 70
  42932  141.2237  0 Note On         46, 110
  42932  141.2237  0 Note On         34, 120
  42975  141.3650  0 Note Off        34, 0
  42975  141.3650  0 Note Off        46, 0
  42975  141.3650  0 Note Off        53, 0
  43092  141.7500  0 Note On         41, 110
  43092  141.7500  0 Note On         48, 70
  43092  141.7500  0 Note On         29, 120
  43135  141.8913  0 Note Off        29, 0
  43135  141.8913  0 Note Off        48, 0
  43135  141.8913  0 Note Off        41, 0
  43210  142.1381  0 Note On         51, 70
  43210  142.1381  0 Note On         44, 110
  43210  142.1381  0 Note On         32, 120
  43253  142.2794  0 Note Off        32, 0
  43253  142.2794  0 Note Off        44, 0
  43253  142.2794  0 Note Off        51, 0
  43331  142.5362  0 Note On         53, 70
  43331  142.5362  0 Note On         46, 110
  43331  142.5362  0 Note On         34, 120
  43374  142.6775  0 Note Off        34, 0
  43374  142.6775  0 Note Off        46, 0
  43374  142.6775  0 Note Off        53, 0
  43568  143.3156  0 Note On         53, 70
  43568  143.3156  0 Note On         46, 110
  43568  143.3156  0 Note On         34, 120
  43612  143.4600  0 Note Off        34, 0
  43612  143.4600  0 Note Off        46, 0
  43612  143.4600  0 Note Off        53, 0
  43728  143.8419  0 Note On         41, 110
  43728  143.8419  0 Note On         48, 70
  43728  143.8419  0 Note On         29, 120
  43771  143.9831  0 Note Off        29, 0
  43771  143.9831  0 Note Off        48, 0
  43771  143.9831  0 Note Off        41, 0
  43849  144.2400  0 Note On         51, 70
  43849  144.2400  0 Note On         44, 110
  43849  144.2400  0 Note On         32, 120
  43892  144.3812  0 Note Off        32, 0
  43892  144.3812  0 Note Off        44, 0
  43892  144.3812  0 Note Off        51, 0
  43968  144.6312  0 Note On         53, 70
  43968  144.6312  0 Note On         46, 110
  43968  144.6312  0 Note On         34, 120
  44011  144.7725  0 Note Off        34, 0
  44011  144.7725  0 Note Off        46, 0
  44011  144.7725  0 Note Off        53, 0
  44207  145.4175  0 Note On         53, 70
  44207  145.4175  0 Note On         46, 110
  44207  145.4175  0 Note On         34, 120
  44250  145.5588  0 Note Off        34, 0
  44250  145.5588  0 Note Off        46, 0
  44250  145.5588  0 Note Off        53, 0
  44367  145.9437  0 Note On         41, 110
  44367  145.9437  0 Note On         48, 70
  44367  145.9437  0 Note On         29, 120
  44410  146.0850  0 Note Off        29, 0
  44410  146.0850  0 Note Off        48, 0
  44410  146.0850  0 Note Off        41, 0
  44485  146.3319  0 Note On         51, 70
  44485  146.3319  0 Note On         44, 110
  44485  146.3319  0 Note On         32, 120
  44528  146.4737  0 Note Off        32, 0
  44528  146.4737  0 Note Off        44, 0
  44528  146.4737  0 Note Off        51, 0
  44604  146.7237  0 Note On         53, 70
  44604  146.7237  0 Note On         46, 110
  44604  146.7237  0 Note On         34, 120
  44647  146.8650  0 Note Off        34, 0
  44647  146.8650  0 Note Off        46, 0
  44647  146.8650  0 Note Off        53, 0
  44843  147.5094  0 Note On         53, 70
  44843  147.5094  0 Note On         46, 110
  44843  147.5094  0 Note On         34, 120
  44887  147.6544  0 Note Off        34, 0
  44887  147.6544  0 Note Off        46, 0
  44887  147.6544  0 Note Off        53, 0
  45003  148.0362  0 Note On         41, 110
  45003  148.0362  0 Note On         48, 70
  45003  148.0362  0 Note On         29, 120
  45046  148.1775  0 Note Off        29, 0
  45046  148.1775  0 Note Off        48, 0
  45046  148.1775  0 Note Off        41, 0
  45122  148.4275  0 Note On         51, 70
  45122  148.4275  0 Note On         44, 110
  45122  148.4275  0 Note On         32, 120
  45165  148.5687  0 Note Off        32, 0
  45165  148.5687  0 Note Off        44, 0
  45165  148.5687  0 Note Off        51, 0
  45242  148.8219  0 Note On         53, 70
  45242  148.8219  0 Note On         46, 110
  45242  148.8219  0 Note On         34, 120
  45286  148.9669  0 Note Off        34, 0
  45286  148.9669  0 Note Off        46, 0
  45286  148.9669  0 Note Off        53, 0
  45482  149.6119  0 Note On         53, 70
  45482  149.6119  0 Note On         46, 110
  45482  149.6119  0 Note On         34, 120
  45525  149.7531  0 Note Off        34, 0
  45525  149.7531  0 Note Off        46, 0
  45525  149.7531  0 Note Off        53, 0
  45639  150.1281  0 Note On         41, 110
  45639  150.1281  0 Note On         48, 70
  45639  150.1281  0 Note On         29, 120
  45683  150.2725  0 Note Off        29, 0
  45683  150.2725  0 Note Off        48, 0
  45683  150.2725  0 Note Off        41, 0
  45760  150.5263  0 Note On         51, 70
  45760  150.5263  0 Note On         44, 110
  45760  150.5263  0 Note On         32, 120
  45803  150.6675  0 Note Off        32, 0
  45803  150.6675  0 Note Off        44, 0
  45803  150.6675  0 Note Off        51, 0
  45879  150.9175  0 Note On         53, 70
  45879  150.9175  0 Note On         46, 110
  45879  150.9175  0 Note On         34, 120
  45922  151.0588  0 Note Off        34, 0
  45922  151.0588  0 Note Off        46, 0
  45922  151.0588  0 Note Off        53, 0
  46118  151.7038  0 Note On         53, 70
  46118  151.7038  0 Note On         46, 110
  46118  151.7038  0 Note On         34, 120
  46161  151.8450  0 Note Off        34, 0
  46161  151.8450  0 Note Off        46, 0
  46161  151.8450  0 Note Off        53, 0
  46278  152.2300  0 Note On         41, 110
  46278  152.2300  0 Note On         48, 70
  46278  152.2300  0 Note On         29, 120
  46321  152.3713  0 Note Off        29, 0
  46321  152.3713  0 Note Off        48, 0
  46321  152.3713  0 Note Off        41, 0
  46397  152.6213  0 Note On         51, 70
  46397  152.6213  0 Note On         44, 110
  46397  152.6213  0 Note On         32, 120
  46440  152.7631  0 Note Off        32, 0
  46440  152.7631  0 Note Off        44, 0
  46440  152.7631  0 Note Off        51, 0
  46517  153.0163  0 Note On         53, 70
  46517  153.0163  0 Note On         46, 110
  46517  153.0163  0 Note On         34, 120
  46561  153.1612  0 Note Off        34, 0
  46561  153.1612  0 Note Off        46, 0
  46561  153.1612  0 Note Off        53, 0
  46755  153.7994  0 Note On         53, 70
  46755  153.7994  0 Note On         46, 110
  46755  153.7994  0 Note On         34, 120
  46798  153.9406  0 Note Off        34, 0
  46798  153.9406  0 Note Off        46, 0
  46798  153.9406  0 Note Off        53, 0
  46914  154.3219  0 Note On         41, 110
  46914  154.3219  0 Note On         48, 70
  46914  154.3219  0 Note On         29, 120
  46958  154.4669  0 Note Off        29, 0
  46958  154.4669  0 Note Off        48, 0
  46958  154.4669  0 Note Off        41, 0
  47035  154.7200  0 Note On         51, 70
  47035  154.7200  0 Note On         44, 110
  47035  154.7200  0 Note On         32, 120
  47078  154.8619  0 Note Off        32, 0
  47078  154.8619  0 Note Off        44, 0
  47078  154.8619  0 Note Off        51, 0
  47154  155.1119  0 Note On         53, 70
  47154  155.1119  0 Note On         46, 110
  47154  155.1119  0 Note On         34, 120
  47197  155.2531  0 Note Off        34, 0
  47197  155.2531  0 Note Off        46, 0
  47197  155.2531  0 Note Off        53, 0
  47393  155.8975  0 Note On         53, 70
  47393  155.8975  0 Note On         46, 110
  47393  155.8975  0 Note On         34, 120
  47436  156.0394  0 Note Off        34, 0
  47436  156.0394  0 Note Off        46, 0
  47436  156.0394  0 Note Off        53, 0
  47553  156.4244  0 Note On         41, 110
  47553  156.4244  0 Note On         48, 70
  47553  156.4244  0 Note On         29, 120
  47596  156.5656  0 Note Off        29, 0
  47596  156.5656  0 Note Off        48, 0
  47596  156.5656  0 Note Off        41, 0
  47672  156.8156  0 Note On         51, 70
  47672  156.8156  0 Note On         44, 110
  47672  156.8156  0 Note On         32, 120
  47715  156.9569  0 Note Off        32, 0
  47715  156.9569  0 Note Off        44, 0
  47715  156.9569  0 Note Off        51, 0
  47790  157.2038  0 Note On         53, 70
  47790  157.2038  0 Note On         46, 110
  47790  157.2038  0 Note On         34, 120
  47833  157.3450  0 Note Off        34, 0
  47833  157.3450  0 Note Off        46, 0
  47833  157.3450  0 Note Off        53, 0
  48030  157.9931  0 Note On         53, 70
  48030  157.9931  0 Note On         46, 110
  48030  157.9931  0 Note On         34, 120
  48073  158.1344  0 Note Off        34, 0
  48073  158.1344  0 Note Off        46, 0
  48073  158.1344  0 Note Off        53, 0
  48189  158.5163  0 Note On         41, 110
  48189  158.5163  0 Note On         48, 70
  48189  158.5163  0 Note On         29, 120
  48232  158.6575  0 Note Off        29, 0
  48232  158.6575  0 Note Off        48, 0
  48232  158.6575  0 Note Off        41, 0
  48308  158.9075  0 Note On         51, 70
  48308  158.9075  0 Note On         44, 110
  48308  158.9075  0 Note On         32, 120
  48351  159.0494  0 Note Off        32, 0
  48351  159.0494  0 Note Off        44, 0
  48351  159.0494  0 Note Off        51, 0
  48429  159.3056  0 Note On         53, 70
  48429  159.3056  0 Note On         46, 110
  48429  159.3056  0 Note On         34, 120
  48472  159.4469  0 Note Off        34, 0
  48472  159.4469  0 Note Off        46, 0
  48472  159.4469  0 Note Off        53, 0
  48668  160.0919  0 Note On         53, 70
  48668  160.0919  0 Note On         46, 110
  48668  160.0919  0 Note On         34, 120
  48711  160.2331  0 Note Off        34, 0
  48711  160.2331  0 Note Off        46, 0
  48711  160.2331  0 Note Off        53, 0
  48826  160.6119  0 Note On         41, 110
  48826  160.6119  0 Note On         48, 70
  48826  160.6119  0 Note On         29, 120
  48869  160.7531  0 Note Off        29, 0
  48869  160.7531  0 Note Off        48, 0
  48869  160.7531  0 Note Off        41, 0
  48947  161.0094  0 Note On         51, 70
  48947  161.0094  0 Note On         44, 110
  48947  161.0094  0 Note On         32, 120
  48990  161.1513  0 Note Off        32, 0
  48990  161.1513  0 Note Off        44, 0
  48990  161.1513  0 Note Off        51, 0
  49065  161.3975  0 Note On         53, 70
  49065  161.3975  0 Note On         46, 110
  49065  161.3975  0 Note On         34, 120
  49108  161.5394  0 Note Off        34, 0
  49108  161.5394  0 Note Off        46, 0
  49108  161.5394  0 Note Off        53, 0
  49305  162.1875  0 Note On         53, 70
  49305  162.1875  0 Note On         46, 110
  49305  162.1875  0 Note On         34, 120
  49348  162.3288  0 Note Off        34, 0
  49348  162.3288  0 Note Off        46, 0
  49348  162.3288  0 Note Off        53, 0
  49464  162.7100  0 Note On         41, 110
  49464  162.7100  0 Note On         48, 70
  49464  162.7100  0 Note On         29, 120
  49507  162.8519  0 Note Off        29, 0
  49507  162.8519  0 Note Off        48, 0
  49507  162.8519  0 Note Off        41, 0
  49583  163.1019  0 Note On         51, 70
  49583  163.1019  0 Note On         44, 110
  49583  163.1019  0 Note On         32, 120
  49626  163.2431  0 Note Off        32, 0
  49626  163.2431  0 Note Off        44, 0
  49626  163.2431  0 Note Off        51, 0
  49704  163.5000  0 Note On         53, 70
  49704  163.5000  0 Note On         46, 110
  49704  163.5000  0 Note On         34, 120
  49747  163.6413  0 Note Off        34, 0
  49747  163.6413  0 Note Off        46, 0
  49747  163.6413  0 Note Off        53, 0
  49941  164.2794  0 Note On         53, 70
  49941  164.2794  0 Note On         46, 110
  49941  164.2794  0 Note On         34, 120
  49984  164.4206  0 Note Off        34, 0
  49984  164.4206  0 Note Off        46, 0
  49984  164.4206  0 Note Off        53, 0
  50101  164.8056  0 Note On         41, 110
  50101  164.8056  0 Note On         48, 70
  50101  164.8056  0 Note On         29, 120
  50144  164.9469  0 Note Off        29, 0
  50144  164.9469  0 Note Off        48, 0
  50144  164.9469  0 Note Off        41, 0
  50222  165.2038  0 Note On         51, 70
  50222  165.2038  0 Note On         44, 110
  50222  165.2038  0 Note On         32, 120
  50265  165.3450  0 Note Off        32, 0
  50265  165.3450  0 Note Off        44, 0
  50265  165.3450  0 Note Off        51, 0
  50340  165.5919  0 Note On         53, 70
  50340  165.5919  0 Note On         46, 110
  50340  165.5919  0 Note On         34, 120
  50383  165.7331  0 Note Off        34, 0
  50383  165.7331  0 Note Off        46, 0
  50383  165.7331  0 Note Off        53, 0
  50580  166.3812  0 Note On         53, 70
  50580  166.3812  0 Note On         46, 110
  50580  166.3812  0 Note On         34, 120
  50623  166.5225  0 Note Off        34, 0
  50623  166.5225  0 Note Off        46, 0
  50623  166.5225  0 Note Off        53, 0
  50739  166.9044  0 Note On         41, 110
  50739  166.9044  0 Note On         48, 70
  50739  166.9044  0 Note On         29, 120
  50782  167.0456  0 Note Off        29, 0
  50782  167.0456  0 Note Off        48, 0
  50782  167.0456  0 Note Off        41, 0
  50858  167.2956  0 Note On         51, 70
  50858  167.2956  0 Note On         44, 110
  50858  167.2956  0 Note On         32, 120
  50901  167.4375  0 Note Off        32, 0
  50901  167.4375  0 Note Off        44, 0
  50901  167.4375  0 Note Off        51, 0
  50977  167.6875  0 Note On         53, 70
  50977  167.6875  0 Note On         46, 110
  50977  167.6875  0 Note On         34, 120
  51020  167.8288  0 Note Off        34, 0
  51020  167.8288  0 Note Off        46, 0
  51020  167.8288  0 Note Off        53, 0
  51216  168.4731  0 Note On         53, 70
  51216  168.4731  0 Note On         46, 110
  51216  168.4731  0 Note On         34, 120
  51259  168.6150  0 Note Off        34, 0
  51259  168.6150  0 Note Off        46, 0
  51259  168.6150  0 Note Off        53, 0
  51376  169.0000  0 Note On         41, 110
  51376  169.0000  0 Note On         48, 70
  51376  169.0000  0 Note On         29, 120
  51419  169.1413  0 Note Off        29, 0
  51419  169.1413  0 Note Off        48, 0
  51419  169.1413  0 Note Off        41, 0
  51494  169.3881  0 Note On         51, 70
  51494  169.3881  0 Note On         44, 110
  51494  169.3881  0 Note On         32, 120
  51537  169.5294  0 Note Off        32, 0
  51537  169.5294  0 Note Off        44, 0
  51537  169.5294  0 Note Off        51, 0
  51615  169.7856  0 Note On         53, 70
  51615  169.7856  0 Note On         46, 110
  51615  169.7856  0 Note On         34, 120
  51658  169.9275  0 Note Off        34, 0
  51658  169.9275  0 Note Off        46, 0
  51658  169.9275  0 Note Off        53, 0
  51852  170.5656  0 Note On         53, 70
  51852  170.5656  0 Note On         46, 110
  51852  170.5656  0 Note On         34, 120
  51896  170.7100  0 Note Off        34, 0
  51896  170.7100  0 Note Off        46, 0
  51896  170.7100  0 Note Off        53, 0
  52012  171.0919  0 Note On         41, 110
  52012  171.0919  0 Note On         48, 70
  52012  171.0919  0 Note On         29, 120
  52055  171.2331  0 Note Off        29, 0
  52055  171.2331  0 Note Off        48, 0
  52055  171.2331  0 Note Off        41, 0
  52133  171.4900  0 Note On         51, 70
  52133  171.4900  0 Note On         44, 110
  52133  171.4900  0 Note On         32, 120
  52176  171.6312  0 Note Off        32, 0
  52176  171.6312  0 Note Off        44, 0
  52176  171.6312  0 Note Off        51, 0
  54801  180.2663  0 Note On         53, 70
  54801  180.2663  0 Note On         46, 110
  54801  180.2663  0 Note On         34, 120
  54845  180.4106  0 Note Off        34, 0
  54845  180.4106  0 Note Off        46, 0
  54845  180.4106  0 Note Off        53, 0
  55039  181.0494  0 Note On         53, 70
  55039  181.0494  0 Note On         46, 110
  55039  181.0494  0 Note On         34, 120
  55082  181.1906  0 Note Off        34, 0
  55082  181.1906  0 Note Off        46, 0
  55082  181.1906  0 Note Off        53, 0
  55198  181.5719  0 Note On         41, 110
  55198  181.5719  0 Note On         48, 70
  55198  181.5719  0 Note On         29, 120
  55242  181.7169  0 Note Off        29, 0
  55242  181.7169  0 Note Off        48, 0
  55242  181.7169  0 Note Off        41, 0
  55319  181.9700  0 Note On         51, 70
  55319  181.9700  0 Note On         44, 110
  55319  181.9700  0 Note On         32, 120
  55362  182.1119  0 Note Off        32, 0
  55362  182.1119  0 Note Off        44, 0
  55362  182.1119  0 Note Off        51, 0
  55438  182.3619  0 Note On         53, 70
  55438  182.3619  0 Note On         46, 110
  55438  182.3619  0 Note On         34, 120
  55481  182.5031  0 Note Off        34, 0
  55481  182.5031  0 Note Off        46, 0
  55481  182.5031  0 Note Off        53, 0
  55677  183.1475  0 Note On         53, 70
  55677  183.1475  0 Note On         46, 110
  55677  183.1475  0 Note On         34, 120
  55720  183.2894  0 Note Off        34, 0
  55720  183.2894  0 Note Off        46, 0
  55720  183.2894  0 Note Off        53, 0
  55837  183.6744  0 Note On         41, 110
  55837  183.6744  0 Note On         48, 70
  55837  183.6744  0 Note On         29, 120
  55880  183.8156  0 Note Off        29, 0
  55880  183.8156  0 Note Off        48, 0
  55880  183.8156  0 Note Off        41, 0
  55956  184.0656  0 Note On         51, 70
  55956  184.0656  0 Note On         44, 110
  55956  184.0656  0 Note On         32, 120
  55999  184.2069  0 Note Off        32, 0
  55999  184.2069  0 Note Off        44, 0
  55999  184.2069  0 Note Off        51, 0
  56074  184.4538  0 Note On         53, 70
  56074  184.4538  0 Note On         46, 110
  56074  184.4538  0 Note On         34, 120
  56117  184.5950  0 Note Off        34, 0
  56117  184.5950  0 Note Off        46, 0
  56117  184.5950  0 Note Off        53, 0
  56314  185.2431  0 Note On         53, 70
  56314  185.2431  0 Note On         46, 110
  56314  185.2431  0 Note On         34, 120
  56357  185.3844  0 Note Off        34, 0
  56357  185.3844  0 Note Off        46, 0
  56357  185.3844  0 Note Off        53, 0
  56473  185.7663  0 Note On         41, 110
  56473  185.7663  0 Note On         48, 70
  56473  185.7663  0 Note On         29, 120
  56517  185.9106  0 Note Off        29, 0
  56517  185.9106  0 Note Off        48, 0
  56517  185.9106  0 Note Off        41, 0
  56592  186.1575  0 Note On         51, 70
  56592  186.1575  0 Note On         44, 110
  56592  186.1575  0 Note On         32, 120
  56635  186.2994  0 Note Off        32, 0
  56635  186.2994  0 Note Off        44, 0
  56635  186.2994  0 Note Off        51, 0
  56713  186.5556  0 Note On         53, 70
  56713  186.5556  0 Note On         46, 110
  56713  186.5556  0 Note On         34, 120
  56756  186.6969  0 Note Off        34, 0
  56756  186.6969  0 Note Off        46, 0
  56756  186.6969  0 Note Off        53, 0
  56952  187.3419  0 Note On         53, 70
  56952  187.3419  0 Note On         46, 110
  56952  187.3419  0 Note On         34, 120
  56995  187.4831  0 Note Off        34, 0
  56995  187.4831  0 Note Off        46, 0
  56995  187.4831  0 Note Off        53, 0
  57110  187.8613  0 Note On         41, 110
  57110  187.8613  0 Note On         48, 70
  57110  187.8613  0 Note On         29, 120
  57153  188.0031  0 Note Off        29, 0
  57153  188.0031  0 Note Off        48, 0
  57153  188.0031  0 Note Off        41, 0
  57231  188.2594  0 Note On         51, 70
  57231  188.2594  0 Note On         44, 110
  57231  188.2594  0 Note On         32, 120
  57274  188.4013  0 Note Off        32, 0
  57274  188.4013  0 Note Off        44, 0
  57274  188.4013  0 Note Off        51, 0
  57349  188.6475  0 Note On         53, 70
  57349  188.6475  0 Note On         46, 110
  57349  188.6475  0 Note On         34, 120
  57392  188.7894  0 Note Off        34, 0
  57392  188.7894  0 Note Off        46, 0
  57392  188.7894  0 Note Off        53, 0
  57589  189.4375  0 Note On         53, 70
  57589  189.4375  0 Note On         46, 110
  57589  189.4375  0 Note On         34, 120
  57632  189.5788  0 Note Off        34, 0
  57632  189.5788  0 Note Off        46, 0
  57632  189.5788  0 Note Off        53, 0
  57748  189.9600  0 Note On         41, 110
  57748  189.9600  0 Note On         48, 70
  57748  189.9600  0 Note On         29, 120
  57792  190.1050  0 Note Off        29, 0
  57792  190.1050  0 Note Off        48, 0
  57792  190.1050  0 Note Off        41, 0
  57867  190.3519  0 Note On         51, 70
  57867  190.3519  0 Note On         44, 110
  57867  190.3519  0 Note On         32, 120
  57910  190.4931  0 Note Off        32, 0
  57910  190.4931  0 Note Off        44, 0
  57910  190.4931  0 Note Off        51, 0
  57988  190.7500  0 Note On         53, 70
  57988  190.7500  0 Note On         46, 110
  57988  190.7500  0 Note On         34, 120
  58031  190.8913  0 Note Off        34, 0
  58031  190.8913  0 Note Off        46, 0
  58031  190.8913  0 Note Off        53, 0
  58225  191.5294  0 Note On         53, 70
  58225  191.5294  0 Note On         46, 110
  58225  191.5294  0 Note On         34, 120
  58268  191.6706  0 Note Off        34, 0
  58268  191.6706  0 Note Off        46, 0
  58268  191.6706  0 Note Off        53, 0
  58385  192.0556  0 Note On         41, 110
  58385  192.0556  0 Note On         48, 70
  58385  192.0556  0 Note On         29, 120
  58428  192.1969  0 Note Off        29, 0
  58428  192.1969  0 Note Off        48, 0
  58428  192.1969  0 Note Off        41, 0
  58506  192.4538  0 Note On         51, 70
  58506  192.4538  0 Note On         44, 110
  58506  192.4538  0 Note On         32, 120
  58549  192.5950  0 Note Off        32, 0
  58549  192.5950  0 Note Off        44, 0
  58549  192.5950  0 Note Off        51, 0
  58624  192.8419  0 Note On         53, 70
  58624  192.8419  0 Note On         46, 110
  58624  192.8419  0 Note On         34, 120
  58667  192.9831  0 Note Off        34, 0
  58667  192.9831  0 Note Off        46, 0
  58667  192.9831  0 Note Off        53, 0
  58864  193.6312  0 Note On         53, 70
  58864  193.6312  0 Note On         46, 110
  58864  193.6312  0 Note On         34, 120
  58907  193.7725  0 Note Off        34, 0
  58907  193.7725  0 Note Off        46, 0
  58907  193.7725  0 Note Off        53, 0
  59023  194.1544  0 Note On         41, 110
  59023  194.1544  0 Note On         48, 70
  59023  194.1544  0 Note On         29, 120
  59066  194.2956  0 Note Off        29, 0
  59066  194.2956  0 Note Off        48, 0
  59066  194.2956  0 Note Off        41, 0
  59142  194.5456  0 Note On         51, 70
  59142  194.5456  0 Note On         44, 110
  59142  194.5456  0 Note On         32, 120
  59185  194.6875  0 Note Off        32, 0
  59185  194.6875  0 Note Off        44, 0
  59185  194.6875  0 Note Off        51, 0
  59261  194.9375  0 Note On         53, 70
  59261  194.9375  0 Note On         46, 110
  59261  194.9375  0 Note On         34, 120
  59304  195.0788  0 Note Off        34, 0
  59304  195.0788  0 Note Off        46, 0
  59304  195.0788  0 Note Off        53, 0
  59500  195.7231  0 Note On         53, 70
  59500  195.7231  0 Note On         46, 110
  59500  195.7231  0 Note On         34, 120
  59543  195.8650  0 Note Off        34, 0
  59543  195.8650  0 Note Off        46, 0
  59543  195.8650  0 Note Off        53, 0
  59660  196.2500  0 Note On         41, 110
  59660  196.2500  0 Note On         48, 70
  59660  196.2500  0 Note On         29, 120
  59703  196.3913  0 Note Off        29, 0
  59703  196.3913  0 Note Off        48, 0
  59703  196.3913  0 Note Off        41, 0
  59778  196.6381  0 Note On         51, 70
  59778  196.6381  0 Note On         44, 110
  59778  196.6381  0 Note On         32, 120
  59822  196.7825  0 Note Off        32, 0
  59822  196.7825  0 Note Off        44, 0
  59822  196.7825  0 Note Off        51, 0
  59899  197.0356  0 Note On         53, 70
  59899  197.0356  0 Note On         46, 110
  59899  197.0356  0 Note On         34, 120
  59942  197.1775  0 Note Off        34, 0
  59942  197.1775  0 Note Off        46, 0
  59942  197.1775  0 Note Off        53, 0
  60136  197.8156  0 Note On         53, 70
  60136  197.8156  0 Note On         46, 110
  60136  197.8156  0 Note On         34, 120
  60180  197.9600  0 Note Off        34, 0
  60180  197.9600  0 Note Off        46, 0
  60180  197.9600  0 Note Off        53, 0
  60296  198.3419  0 Note On         41, 110
  60296  198.3419  0 Note On         48, 70
  60296  198.3419  0 Note On         29, 120
  60339  198.4831  0 Note Off        29, 0
  60339  198.4831  0 Note Off        48, 0
  60339  198.4831  0 Note Off        41, 0
  60417  198.7400  0 Note On         51, 70
  60417  198.7400  0 Note On         44, 110
  60417  198.7400  0 Note On         32, 120
  60460  198.8812  0 Note Off        32, 0
  60460  198.8812  0 Note Off        44, 0
  60460  198.8812  0 Note Off        51, 0
  60536  199.1312  0 Note On         53, 70
  60536  199.1312  0 Note On         46, 110
  60536  199.1312  0 Note On         34, 120
  60579  199.2725  0 Note Off        34, 0
  60579  199.2725  0 Note Off        46, 0
  60579  199.2725  0 Note Off        53, 0
  60775  199.9175  0 Note On         53, 70
  60775  199.9175  0 Note On         46, 110
  60775  199.9175  0 Note On         34, 120
  60818  200.0588  0 Note Off        34, 0
  60818  200.0588  0 Note Off        46, 0
  60818  200.0588  0 Note Off        53, 0
  60935  200.4437  0 Note On         41, 110
  60935  200.4437  0 Note On         48, 70
  60935  200.4437  0 Note On         29, 120
  60978  200.5850  0 Note Off        29, 0
  60978  200.5850  0 Note Off        48, 0
  60978  200.5850  0 Note Off        41, 0
  61053  200.8319  0 Note On         51, 70
  61053  200.8319  0 Note On         44, 110
  61053  200.8319  0 Note On         32, 120
  61096  200.9731  0 Note Off        32, 0
  61096  200.9731  0 Note Off        44, 0
  61096  200.9731  0 Note Off        51, 0
  61172  201.2231  0 Note On         53, 70
  61172  201.2231  0 Note On         46, 110
  61172  201.2231  0 Note On         34, 120
  61215  201.3650  0 Note Off        34, 0
  61215  201.3650  0 Note Off        46, 0
  61215  201.3650  0 Note Off        53, 0
  61411  202.0094  0 Note On         53, 70
  61411  202.0094  0 Note On         46, 110
  61411  202.0094  0 Note On         34, 120
  61455  202.1544  0 Note Off        34, 0
  61455  202.1544  0 Note Off        46, 0
  61455  202.1544  0 Note Off        53, 0
  61571  202.5356  0 Note On         41, 110
  61571  202.5356  0 Note On         48, 70
  61571  202.5356  0 Note On         29, 120
  61614  202.6775  0 Note Off        29, 0
  61614  202.6775  0 Note Off        48, 0
  61614  202.6775  0 Note Off        41, 0
  61690  202.9275  0 Note On         51, 70
  61690  202.9275  0 Note On         44, 110
  61690  202.9275  0 Note On         32, 120
  61733  203.0687  0 Note Off        32, 0
  61733  203.0687  0 Note Off        44, 0
  61733  203.0687  0 Note Off        51, 0
  67545  222.1869  0 Note On         53, 70
  67545  222.1869  0 Note On         46, 110
  67545  222.1869  0 Note On         34, 120
  67588  222.3288  0 Note Off        34, 0
  67588  222.3288  0 Note Off        46, 0
  67588  222.3288  0 Note Off        53, 0
  67784  222.9731  0 Note On         53, 70
  67784  222.9731  0 Note On         46, 110
  67784  222.9731  0 Note On         34, 120
  67827  223.1150  0 Note Off        34, 0
  67827  223.1150  0 Note Off        46, 0
  67827  223.1150  0 Note Off        53, 0
  67944  223.4994  0 Note On         41, 110
  67944  223.4994  0 Note On         48, 70
  67944  223.4994  0 Note On         29, 120
  67987  223.6413  0 Note Off        29, 0
  67987  223.6413  0 Note Off        48, 0
  67987  223.6413  0 Note Off        41, 0
  68062  223.8881  0 Note On         51, 70
  68062  223.8881  0 Note On         44, 110
  68062  223.8881  0 Note On         32, 120
  68106  224.0325  0 Note Off        32, 0
  68106  224.0325  0 Note Off        44, 0
  68106  224.0325  0 Note Off        51, 0
  68183  224.2856  0 Note On         53, 70
  68183  224.2856  0 Note On         46, 110
  68183  224.2856  0 Note On         34, 120
  68226  224.4275  0 Note Off        34, 0
  68226  224.4275  0 Note Off        46, 0
  68226  224.4275  0 Note Off        53, 0
  68421  225.0687  0 Note On         53, 70
  68421  225.0687  0 Note On         46, 110
  68421  225.0687  0 Note On         34, 120
  68464  225.2100  0 Note Off        34, 0
  68464  225.2100  0 Note Off        46, 0
  68464  225.2100  0 Note Off        53, 0
  68580  225.5919  0 Note On         41, 110
  68580  225.5919  0 Note On         48, 70
  68580  225.5919  0 Note On         29, 120
  68623  225.7331  0 Note Off        29, 0
  68623  225.7331  0 Note Off        48, 0
  68623  225.7331  0 Note Off        41, 0
  68701  225.9900  0 Note On         51, 70
  68701  225.9900  0 Note On         44, 110
  68701  225.9900  0 Note On         32, 120
  68744  226.1312  0 Note Off        32, 0
  68744  226.1312  0 Note Off        44, 0
  68744  226.1312  0 Note Off        51, 0
  68820  226.3812  0 Note On         53, 70
  68820  226.3812  0 Note On         46, 110
  68820  226.3812  0 Note On         34, 120
  68863  226.5225  0 Note Off        34, 0
  68863  226.5225  0 Note Off        46, 0
  68863  226.5225  0 Note Off        53, 0
  69059  227.1675  0 Note On         53, 70
  69059  227.1675  0 Note On         46, 110
  69059  227.1675  0 Note On         34, 120
  69102  227.3088  0 Note Off        34, 0
  69102  227.3088  0 Note Off        46, 0
  69102  227.3088  0 Note Off        53, 0
  69219  227.6937  0 Note On         41, 110
  69219  227.6937  0 Note On         48, 70
  69219  227.6937  0 Note On         29, 120
  69262  227.8350  0 Note Off        29, 0
  69262  227.8350  0 Note Off        48, 0
  69262  227.8350  0 Note Off        41, 0
  69337  228.0819  0 Note On         51, 70
  69337  228.0819  0 Note On         44, 110
  69337  228.0819  0 Note On         32, 120
  69381  228.2269  0 Note Off        32, 0
  69381  228.2269  0 Note Off        44, 0
  69381  228.2269  0 Note Off        51, 0
  69456  228.4731  0 Note On         53, 70
  69456  228.4731  0 Note On         46, 110
  69456  228.4731  0 Note On         34, 120
  69499  228.6150  0 Note Off        34, 0
  69499  228.6150  0 Note Off        46, 0
  69499  228.6150  0 Note Off        53, 0
  69696  229.2631  0 Note On         53, 70
  69696  229.2631  0 Note On         46, 110
  69696  229.2631  0 Note On         34, 120
  69739  229.4044  0 Note Off        34, 0
  69739  229.4044  0 Note Off        46, 0
  69739  229.4044  0 Note Off        53, 0
  69855  229.7856  0 Note On         41, 110
  69855  229.7856  0 Note On         48, 70
  69855  229.7856  0 Note On         29, 120
  69898  229.9275  0 Note Off        29, 0
  69898  229.9275  0 Note Off        48, 0
  69898  229.9275  0 Note Off        41, 0
  69974  230.1775  0 Note On         51, 70
  69974  230.1775  0 Note On         44, 110
  69974  230.1775  0 Note On         32, 120
  70017  230.3187  0 Note Off        32, 0
  70017  230.3187  0 Note Off        44, 0
  70017  230.3187  0 Note Off        51, 0
  70095  230.5750  0 Note On         53, 70
  70095  230.5750  0 Note On         46, 110
  70095  230.5750  0 Note On         34, 120
  70138  230.7169  0 Note Off        34, 0
  70138  230.7169  0 Note Off        46, 0
  70138  230.7169  0 Note Off        53, 0
  70334  231.3613  0 Note On         53, 70
  70334  231.3613  0 Note On         46, 110
  70334  231.3613  0 Note On         34, 120
  70377  231.5031  0 Note Off        34, 0
  70377  231.5031  0 Note Off        46, 0
  70377  231.5031  0 Note Off        53, 0
  70492  231.8812  0 Note On         41, 110
  70492  231.8812  0 Note On         48, 70
  70492  231.8812  0 Note On         29, 120
  70535  232.0225  0 Note Off        29, 0
  70535  232.0225  0 Note Off        48, 0
  70535  232.0225  0 Note Off        41, 0
  70612  232.2763  0 Note On         51, 70
  70612  232.2763  0 Note On         44, 110
  70612  232.2763  0 Note On         32, 120
  70656  232.4206  0 Note Off        32, 0
  70656  232.4206  0 Note Off        44, 0
  70656  232.4206  0 Note Off        51, 0
  70731  232.6675  0 Note On         53, 70
  70731  232.6675  0 Note On         46, 110
  70731  232.6675  0 Note On         34, 120
  70774  232.8088  0 Note Off        34, 0
  70774  232.8088  0 Note Off        46, 0
  70774  232.8088  0 Note Off        53, 0
  70970  233.4538  0 Note On         53, 70
  70970  233.4538  0 Note On         46, 110
  70970  233.4538  0 Note On         34, 120
  71014  233.5981  0 Note Off        34, 0
  71014  233.5981  0 Note Off        46, 0
  71014  233.5981  0 Note Off        53, 0
  71130  233.9800  0 Note On         41, 110
  71130  233.9800  0 Note On         48, 70
  71130  233.9800  0 Note On         29, 120
  71173  234.1213  0 Note Off        29, 0
  71173  234.1213  0 Note Off        48, 0
  71173  234.1213  0 Note Off        41, 0
  71249  234.3713  0 Note On         51, 70
  71249  234.3713  0 Note On         44, 110
  71249  234.3713  0 Note On         32, 120
  71292  234.5125  0 Note Off        32, 0
  71292  234.5125  0 Note Off        44, 0
  71292  234.5125  0 Note Off        51, 0
  71370  234.7694  0 Note On         53, 70
  71370  234.7694  0 Note On         46, 110
  71370  234.7694  0 Note On         34, 120
  71413  234.9106  0 Note Off        34, 0
  71413  234.9106  0 Note Off        46, 0
  71413  234.9106  0 Note Off        53, 0
  71607  235.5488  0 Note On         53, 70
  71607  235.5488  0 Note On         46, 110
  71607  235.5488  0 Note On         34, 120
  71650  235.6906  0 Note Off        34, 0
  71650  235.6906  0 Note Off        46, 0
  71650  235.6906  0 Note Off        53, 0
  71767  236.0750  0 Note On         41, 110
  71767  236.0750  0 Note On         48, 70
  71767  236.0750  0 Note On         29, 120
  71810  236.2169  0 Note Off        29, 0
  71810  236.2169  0 Note Off        48, 0
  71810  236.2169  0 Note Off        41, 0
  71887  236.4700  0 Note On         51, 70
  71887  236.4700  0 Note On         44, 110
  71887  236.4700  0 Note On         32, 120
  71930  236.6113  0 Note Off        32, 0
  71930  236.6113  0 Note Off        44, 0
  71930  236.6113  0 Note Off        51, 0
  72006  236.8613  0 Note On         53, 70
  72006  236.8613  0 Note On         46, 110
  72006  236.8613  0 Note On         34, 120
  72049  237.0031  0 Note Off        34, 0
  72049  237.0031  0 Note Off        46, 0
  72049  237.0031  0 Note Off        53, 0
  72245  237.6475  0 Note On         53, 70
  72245  237.6475  0 Note On         46, 110
  72245  237.6475  0 Note On         34, 120
  72289  237.7925  0 Note Off        34, 0
  72289  237.7925  0 Note Off        46, 0
  72289  237.7925  0 Note Off        53, 0
  72405  238.1738  0 Note On         41, 110
  72405  238.1738  0 Note On         48, 70
  72405  238.1738  0 Note On         29, 120
  72448  238.3156  0 Note Off        29, 0
  72448  238.3156  0 Note Off        48, 0
  72448  238.3156  0 Note Off        41, 0
  72524  238.5656  0 Note On         51, 70
  72524  238.5656  0 Note On         44, 110
  72524  238.5656  0 Note On         32, 120
  72567  238.7069  0 Note Off        32, 0
  72567  238.7069  0 Note Off        44, 0
  72567  238.7069  0 Note Off        51, 0
  72642  238.9538  0 Note On         53, 70
  72642  238.9538  0 Note On         46, 110
  72642  238.9538  0 Note On         34, 120
  72686  239.0981  0 Note Off        34, 0
  72686  239.0981  0 Note Off        46, 0
  72686  239.0981  0 Note Off        53, 0
  72686  239.0981 -- Meta Event      End Of Track
  72686  239.0981 -- Track           End: 2
      0    0.0000 -- Track           Start: 3
      0    0.0000 -- Forced channel  1
      0    0.0000  1 Control Change  7, 100
      0    0.0000  1 Program Change  115
    476    1.5656  1 Control Change  0, 0
    478    1.5725  1 Control Change  0, 0
    481    1.5825  1 Control Change  7, 100
    483    1.5888  1 Control Change  10, 96
    485    1.5956  1 Control Change  11, 90
    487    1.6019  1 Control Change  91, 40
    487    1.6019  1 Control Change  93, 0
   3822   12.5725  1 Note On         94, 100
   3842   12.6381  1 Note Off        94, 0
   3861   12.7006  1 Note On         94, 90
   3883   12.7731  1 Note Off        94, 0
   3902   12.8356  1 Note On         94, 100
   3921   12.8981  1 Note Off        94, 0
   3941   12.9637  1 Note On         89, 80
   3960   13.0262  1 Note Off        89, 0
   4062   13.3619  1 Note On         89, 100
   4081   13.4244  1 Note Off        89, 0
   4101   13.4900  1 Note On         82, 80
   4120   13.5525  1 Note Off        82, 0
   4180   13.7500  1 Note On         89, 100
   4200   13.8156  1 Note Off        89, 0
   4219   13.8781  1 Note On         82, 80
   4241   13.9506  1 Note Off        82, 0
   4299   14.1412  1 Note On         97, 100
   4321   14.2137  1 Note Off        97, 0
   4340   14.2762  1 Note On         97, 80
   4359   14.3387  1 Note Off        97, 0
   4459   14.6675  1 Note On         94, 100
   4478   14.7300  1 Note Off        94, 0
   4500   14.8025  1 Note On         94, 90
   4519   14.8650  1 Note Off        94, 0
   4538   14.9275  1 Note On         94, 100
   4558   14.9931  1 Note Off        94, 0
   4579   15.0625  1 Note On         89, 80
   4599   15.1281  1 Note Off        89, 0
   4698   15.4537  1 Note On         89, 100
   4718   15.5200  1 Note Off        89, 0
   4737   15.5825  1 Note On         82, 80
   4759   15.6544  1 Note Off        82, 0
   4817   15.8456  1 Note On         89, 100
   4838   15.9144  1 Note Off        89, 0
   4858   15.9800  1 Note On         82, 80
   4877   16.0425  1 Note Off        82, 0
   4938   16.2431  1 Note On         97, 100
   4957   16.3056  1 Note Off        97, 0
   4976   16.3681  1 Note On         97, 80
   4996   16.4344  1 Note Off        97, 0
   5097   16.7662  1 Note On         94, 100
   5117   16.8325  1 Note Off        94, 0
   5136   16.8950  1 Note On         94, 90
   5155   16.9575  1 Note Off        94, 0
   5177   17.0294  1 Note On         94, 100
   5196   17.0919  1 Note Off        94, 0
   5216   17.1581  1 Note On         89, 80
   5235   17.2206  1 Note Off        89, 0
   5335   17.5494  1 Note On         89, 100
   5356   17.6181  1 Note Off        89, 0
   5376   17.6844  1 Note On         82, 80
   5395   17.7469  1 Note Off        82, 0
   5455   17.9438  1 Note On         89, 100
   5475   18.0100  1 Note Off        89, 0
   5494   18.0725  1 Note On         82, 80
   5514   18.1381  1 Note Off        82, 0
   5574   18.3356  1 Note On         97, 100
   5593   18.3981  1 Note Off        97, 0
   5615   18.4706  1 Note On         97, 80
   5634   18.5331  1 Note Off        97, 0
   5734   18.8619  1 Note On         94, 100
   5753   18.9244  1 Note Off        94, 0
   5772   18.9869  1 Note On         94, 90
   5794   19.0594  1 Note Off        94, 0
   5813   19.1219  1 Note On         94, 100
   5833   19.1875  1 Note Off        94, 0
   5852   19.2500  1 Note On         89, 80
   5874   19.3225  1 Note Off        89, 0
   5973   19.6481  1 Note On         89, 100
   5992   19.7106  1 Note Off        89, 0
   6012   19.7763  1 Note On         82, 80
   6031   19.8388  1 Note Off        82, 0
   6092   20.0394  1 Note On         89, 100
   6111   20.1019  1 Note Off        89, 0
   6133   20.1744  1 Note On         82, 80
   6152   20.2369  1 Note Off        82, 0
   6213   20.4375  1 Note On         97, 100
   6232   20.5000  1 Note Off        97, 0
   6251   20.5625  1 Note On         97, 80
   6271   20.6281  1 Note Off        97, 0
   6370   20.9537  1 Note On         56, 100
   6392   21.0263  1 Note Off        56, 0
   6411   21.0888  1 Note On         57, 80
   6430   21.1513  1 Note Off        57, 0
   6450   21.2169  1 Note On         58, 100
   6471   21.2862  1 Note Off        58, 0
   6491   21.3519  1 Note On         44, 80
   6510   21.4144  1 Note Off        44, 0
   6530   21.4800  1 Note On         56, 100
   6549   21.5425  1 Note Off        56, 0
   6571   21.6150  1 Note On         57, 80
   6590   21.6775  1 Note Off        57, 0
   6609   21.7400  1 Note On         58, 100
   6629   21.8056  1 Note Off        58, 0
   6650   21.8750  1 Note On         44, 80
   6670   21.9406  1 Note Off        44, 0
   6689   22.0031  1 Note On         56, 100
   6709   22.0688  1 Note Off        56, 0
   6730   22.1381  1 Note On         57, 80
   6750   22.2037  1 Note Off        57, 0
   6769   22.2662  1 Note On         58, 100
   6789   22.3325  1 Note Off        58, 0
   6808   22.3950  1 Note On         44, 80
   6830   22.4669  1 Note Off        44, 0
   6849   22.5294  1 Note On         56, 100
   6868   22.5919  1 Note Off        56, 0
   6888   22.6581  1 Note On         57, 80
   6909   22.7269  1 Note Off        57, 0
   6929   22.7925  1 Note On         58, 100
   6948   22.8550  1 Note Off        58, 0
   6968   22.9213  1 Note On         44, 80
   6989   22.9900  1 Note Off        44, 0
   7009   23.0556  1 Note On         56, 100
   7028   23.1181  1 Note Off        56, 0
   7047   23.1806  1 Note On         57, 80
   7067   23.2469  1 Note Off        57, 0
   7088   23.3156  1 Note On         58, 100
   7108   23.3813  1 Note Off        58, 0
   7127   23.4438  1 Note On         44, 80
   7147   23.5100  1 Note Off        44, 0
   7168   23.5787  1 Note On         56, 100
   7188   23.6450  1 Note Off        56, 0
   7207   23.7075  1 Note On         57, 80
   7226   23.7700  1 Note Off        57, 0
   7248   23.8419  1 Note On         58, 100
   7267   23.9044  1 Note Off        58, 0
   7287   23.9706  1 Note On         44, 80
   7306   24.0331  1 Note Off        44, 0
   7326   24.0987  1 Note On         56, 100
   7347   24.1675  1 Note Off        56, 0
   7367   24.2338  1 Note On         57, 80
   7386   24.2963  1 Note Off        57, 0
   7406   24.3619  1 Note On         58, 100
   7427   24.4306  1 Note Off        58, 0
   7447   24.4969  1 Note On         44, 80
   7466   24.5594  1 Note Off        44, 0
   7485   24.6219  1 Note On         61, 100
   7507   24.6938  1 Note Off        61, 0
   7526   24.7563  1 Note On         61, 80
   7546   24.8225  1 Note Off        61, 0
   7606   25.0200  1 Note On         44, 100
   7626   25.0856  1 Note Off        44, 0
   7645   25.1481  1 Note On         56, 100
   7664   25.2106  1 Note Off        56, 0
   7686   25.2831  1 Note On         57, 80
   7705   25.3456  1 Note Off        57, 0
   7725   25.4112  1 Note On         58, 100
   7744   25.4737  1 Note Off        58, 0
   7766   25.5463  1 Note On         44, 80
   7785   25.6088  1 Note Off        44, 0
   7805   25.6744  1 Note On         56, 100
   7824   25.7369  1 Note Off        56, 0
   7843   25.7994  1 Note On         57, 80
   7865   25.8719  1 Note Off        57, 0
   7884   25.9344  1 Note On         58, 100
   7904   26.0000  1 Note Off        58, 0
   7923   26.0625  1 Note On         44, 80
   7945   26.1350  1 Note Off        44, 0
   7964   26.1975  1 Note On         56, 100
   7984   26.2631  1 Note Off        56, 0
   8003   26.3256  1 Note On         57, 80
   8025   26.3981  1 Note Off        57, 0
   8044   26.4606  1 Note On         58, 100
   8064   26.5263  1 Note Off        58, 0
   8083   26.5888  1 Note On         44, 80
   8102   26.6513  1 Note Off        44, 0
   8124   26.7237  1 Note On         56, 100
   8143   26.7862  1 Note Off        56, 0
   8163   26.8519  1 Note On         57, 80
   8182   26.9144  1 Note Off        57, 0
   8204   26.9869  1 Note On         58, 100
   8223   27.0494  1 Note Off        58, 0
   8243   27.1150  1 Note On         44, 80
   8262   27.1775  1 Note Off        44, 0
   8284   27.2500  1 Note On         56, 100
   8303   27.3125  1 Note Off        56, 0
   8322   27.3750  1 Note On         57, 80
   8342   27.4406  1 Note Off        57, 0
   8361   27.5031  1 Note On         58, 100
   8383   27.5756  1 Note Off        58, 0
   8402   27.6381  1 Note On         44, 80
   8422   27.7037  1 Note Off        44, 0
   8441   27.7662  1 Note On         56, 100
   8463   27.8388  1 Note Off        56, 0
   8482   27.9013  1 Note On         57, 80
   8501   27.9638  1 Note Off        57, 0
   8521   28.0294  1 Note On         58, 100
   8542   28.0987  1 Note Off        58, 0
   8562   28.1644  1 Note On         44, 80
   8581   28.2269  1 Note Off        44, 0
   8601   28.2925  1 Note On         56, 100
   8620   28.3550  1 Note Off        56, 0
   8642   28.4275  1 Note On         57, 80
   8661   28.4900  1 Note Off        57, 0
   8680   28.5525  1 Note On         58, 100
   8700   28.6181  1 Note Off        58, 0
   8721   28.6875  1 Note On         44, 80
   8741   28.7531  1 Note Off        44, 0
   8760   28.8156  1 Note On         61, 100
   8780   28.8813  1 Note Off        61, 0
   8801   28.9506  1 Note On         61, 80
   8821   29.0162  1 Note Off        61, 0
   8879   29.2075  1 Note On         44, 100
   8901   29.2794  1 Note Off        44, 0
   8920   29.3419  1 Note On         56, 100
   8939   29.4044  1 Note Off        56, 0
   8959   29.4706  1 Note On         57, 80
   8980   29.5394  1 Note Off        57, 0
   9000   29.6050  1 Note On         58, 100
   9019   29.6675  1 Note Off        58, 0
   9039   29.7338  1 Note On         44, 80
   9060   29.8025  1 Note Off        44, 0
   9080   29.8681  1 Note On         56, 100
   9099   29.9306  1 Note Off        56, 0
   9118   29.9931  1 Note On         57, 80
   9138   30.0594  1 Note Off        57, 0
   9159   30.1281  1 Note On         58, 100
   9179   30.1938  1 Note Off        58, 0
   9198   30.2563  1 Note On         44, 80
   9218   30.3225  1 Note Off        44, 0
   9239   30.3912  1 Note On         56, 100
   9259   30.4575  1 Note Off        56, 0
   9278   30.5200  1 Note On         57, 80
   9297   30.5825  1 Note Off        57, 0
   9319   30.6544  1 Note On         58, 100
   9338   30.7169  1 Note Off        58, 0
   9358   30.7831  1 Note On         44, 80
   9377   30.8456  1 Note Off        44, 0
   9397   30.9112  1 Note On         56, 100
   9418   30.9800  1 Note Off        56, 0
   9438   31.0463  1 Note On         57, 80
   9457   31.1088  1 Note Off        57, 0
   9477   31.1744  1 Note On         58, 100
   9498   31.2431  1 Note Off        58, 0
   9518   31.3094  1 Note On         44, 80
   9537   31.3719  1 Note Off        44, 0
   9556   31.4344  1 Note On         56, 100
   9578   31.5063  1 Note Off        56, 0
   9597   31.5688  1 Note On         57, 80
   9617   31.6350  1 Note Off        57, 0
   9636   31.6975  1 Note On         58, 100
   9656   31.7631  1 Note Off        58, 0
   9677   31.8325  1 Note On         44, 80
   9697   31.8981  1 Note Off        44, 0
   9716   31.9606  1 Note On         56, 100
   9735   32.0231  1 Note Off        56, 0
   9757   32.0956  1 Note On         57, 80
   9776   32.1581  1 Note Off        57, 0
   9796   32.2238  1 Note On         58, 100
   9815   32.2863  1 Note Off        58, 0
   9837   32.3588  1 Note On         44, 80
   9856   32.4213  1 Note Off        44, 0
   9876   32.4869  1 Note On         56, 100
   9895   32.5494  1 Note Off        56, 0
   9914   32.6119  1 Note On         57, 80
   9936   32.6844  1 Note Off        57, 0
   9955   32.7469  1 Note On         58, 100
   9975   32.8125  1 Note Off        58, 0
   9994   32.8750  1 Note On         44, 80
  10016   32.9475  1 Note Off        44, 0
  10035   33.0100  1 Note On         61, 100
  10055   33.0756  1 Note Off        61, 0
  10074   33.1381  1 Note On         61, 80
  10096   33.2106  1 Note Off        61, 0
  10154   33.4012  1 Note On         44, 100
  10173   33.4637  1 Note Off        44, 0
  10195   33.5363  1 Note On         56, 100
  10214   33.5988  1 Note Off        56, 0
  10234   33.6644  1 Note On         57, 80
  10253   33.7269  1 Note Off        57, 0
  10275   33.7994  1 Note On         58, 100
  10294   33.8619  1 Note Off        58, 0
  10314   33.9275  1 Note On         44, 80
  10333   33.9900  1 Note Off        44, 0
  10355   34.0625  1 Note On         56, 100
  10374   34.1250  1 Note Off        56, 0
  10393   34.1875  1 Note On         57, 80
  10413   34.2531  1 Note Off        57, 0
  10432   34.3156  1 Note On         58, 100
  10454   34.3881  1 Note Off        58, 0
  10473   34.4506  1 Note On         44, 80
  10493   34.5162  1 Note Off        44, 0
  10512   34.5787  1 Note On         56, 100
  10534   34.6512  1 Note Off        56, 0
  10553   34.7137  1 Note On         57, 80
  10572   34.7762  1 Note Off        57, 0
  10592   34.8419  1 Note On         58, 100
  10613   34.9113  1 Note Off        58, 0
  10633   34.9769  1 Note On         44, 80
  10652   35.0394  1 Note Off        44, 0
  10672   35.1050  1 Note On         56, 100
  10691   35.1675  1 Note Off        56, 0
  10713   35.2400  1 Note On         57, 80
  10732   35.3025  1 Note Off        57, 0
  10752   35.3681  1 Note On         58, 100
  10771   35.4306  1 Note Off        58, 0
  10792   35.5000  1 Note On         44, 80
  10812   35.5656  1 Note Off        44, 0
  10831   35.6281  1 Note On         56, 100
  10851   35.6938  1 Note Off        56, 0
  10872   35.7631  1 Note On         57, 80
  10892   35.8287  1 Note Off        57, 0
  10911   35.8912  1 Note On         58, 100
  10931   35.9569  1 Note Off        58, 0
  10950   36.0194  1 Note On         44, 80
  10972   36.0919  1 Note Off        44, 0
  10991   36.1544  1 Note On         56, 100
  11010   36.2169  1 Note Off        56, 0
  11030   36.2831  1 Note On         57, 80
  11051   36.3519  1 Note Off        57, 0
  11071   36.4175  1 Note On         58, 100
  11090   36.4800  1 Note Off        58, 0
  11110   36.5463  1 Note On         44, 80
  11131   36.6150  1 Note Off        44, 0
  11151   36.6806  1 Note On         56, 100
  11170   36.7431  1 Note Off        56, 0
  11189   36.8056  1 Note On         57, 80
  11209   36.8719  1 Note Off        57, 0
  11230   36.9406  1 Note On         58, 100
  11250   37.0063  1 Note Off        58, 0
  11269   37.0688  1 Note On         44, 80
  11289   37.1350  1 Note Off        44, 0
  11310   37.2037  1 Note On         61, 100
  11330   37.2694  1 Note Off        61, 0
  11349   37.3319  1 Note On         61, 80
  11368   37.3944  1 Note Off        61, 0
  11429   37.5956  1 Note On         44, 100
  11448   37.6581  1 Note Off        44, 0
  11468   37.7238  1 Note On         94, 100
  11489   37.7925  1 Note Off        94, 0
  11509   37.8588  1 Note On         94, 90
  11528   37.9213  1 Note Off        94, 0
  11548   37.9869  1 Note On         94, 100
  11569   38.0556  1 Note Off        94, 0
  11589   38.1219  1 Note On         89, 80
  11608   38.1844  1 Note Off        89, 0
  11707   38.5100  1 Note On         89, 100
  11727   38.5756  1 Note Off        89, 0
  11748   38.6444  1 Note On         82, 80
  11768   38.7106  1 Note Off        82, 0
  11828   38.9081  1 Note On         89, 100
  11847   38.9706  1 Note Off        89, 0
  11867   39.0363  1 Note On         82, 80
  11886   39.0988  1 Note Off        82, 0
  11947   39.2994  1 Note On         97, 100
  11966   39.3619  1 Note Off        97, 0
  11985   39.4244  1 Note On         97, 80
  12007   39.4969  1 Note Off        97, 0
  12106   39.8225  1 Note On         94, 100
  12126   39.8881  1 Note Off        94, 0
  12145   39.9506  1 Note On         94, 90
  12167   40.0231  1 Note Off        94, 0
  12186   40.0856  1 Note On         94, 100
  12206   40.1512  1 Note Off        94, 0
  12225   40.2137  1 Note On         89, 80
  12244   40.2762  1 Note Off        89, 0
  12346   40.6119  1 Note On         89, 100
  12365   40.6744  1 Note Off        89, 0
  12385   40.7400  1 Note On         82, 80
  12404   40.8025  1 Note Off        82, 0
  12464   41.0000  1 Note On         89, 100
  12484   41.0656  1 Note Off        89, 0
  12503   41.1281  1 Note On         82, 80
  12525   41.2006  1 Note Off        82, 0
  12583   41.3912  1 Note On         97, 100
  12605   41.4637  1 Note Off        97, 0
  12624   41.5262  1 Note On         97, 80
  12643   41.5887  1 Note Off        97, 0
  12743   41.9175  1 Note On         94, 100
  12762   41.9800  1 Note Off        94, 0
  12784   42.0525  1 Note On         94, 90
  12803   42.1150  1 Note Off        94, 0
  12823   42.1806  1 Note On         94, 100
  12842   42.2431  1 Note Off        94, 0
  12864   42.3156  1 Note On         89, 80
  12883   42.3781  1 Note Off        89, 0
  12982   42.7037  1 Note On         89, 100
  13002   42.7694  1 Note Off        89, 0
  13021   42.8319  1 Note On         82, 80
  13043   42.9044  1 Note Off        82, 0
  13101   43.0956  1 Note On         89, 100
  13122   43.1644  1 Note Off        89, 0
  13142   43.2300  1 Note On         82, 80
  13161   43.2925  1 Note Off        82, 0
  13222   43.4931  1 Note On         97, 100
  13241   43.5556  1 Note Off        97, 0
  13260   43.6181  1 Note On         97, 80
  13280   43.6844  1 Note Off        97, 0
  13381   44.0162  1 Note On         94, 100
  13401   44.0819  1 Note Off        94, 0
  13420   44.1444  1 Note On         94, 90
  13440   44.2106  1 Note Off        94, 0
  13461   44.2794  1 Note On         94, 100
  13480   44.3419  1 Note Off        94, 0
  13500   44.4081  1 Note On         89, 80
  13519   44.4706  1 Note Off        89, 0
  13619   44.7994  1 Note On         89, 100
  13640   44.8681  1 Note Off        89, 0
  13660   44.9344  1 Note On         82, 80
  13679   44.9969  1 Note Off        82, 0
  13739   45.1938  1 Note On         89, 100
  13759   45.2600  1 Note Off        89, 0
  13778   45.3225  1 Note On         82, 80
  13798   45.3881  1 Note Off        82, 0
  13858   45.5856  1 Note On         97, 100
  13877   45.6481  1 Note Off        97, 0
  13899   45.7206  1 Note On         97, 80
  13918   45.7831  1 Note Off        97, 0
  14018   46.1119  1 Note On         56, 100
  14037   46.1744  1 Note Off        56, 0
  14056   46.2369  1 Note On         57, 80
  14078   46.3094  1 Note Off        57, 0
  14097   46.3719  1 Note On         58, 100
  14117   46.4375  1 Note Off        58, 0
  14136   46.5000  1 Note On         44, 80
  14158   46.5725  1 Note Off        44, 0
  14177   46.6350  1 Note On         56, 100
  14197   46.7006  1 Note Off        56, 0
  14216   46.7631  1 Note On         57, 80
  14238   46.8356  1 Note Off        57, 0
  14257   46.8981  1 Note On         58, 100
  14277   46.9637  1 Note Off        58, 0
  14296   47.0262  1 Note On         44, 80
  14315   47.0887  1 Note Off        44, 0
  14337   47.1613  1 Note On         56, 100
  14356   47.2238  1 Note Off        56, 0
  14376   47.2894  1 Note On         57, 80
  14395   47.3519  1 Note Off        57, 0
  14417   47.4244  1 Note On         58, 100
  14436   47.4869  1 Note Off        58, 0
  14456   47.5525  1 Note On         44, 80
  14475   47.6150  1 Note Off        44, 0
  14497   47.6875  1 Note On         56, 100
  14516   47.7500  1 Note Off        56, 0
  14535   47.8125  1 Note On         57, 80
  14555   47.8781  1 Note Off        57, 0
  14574   47.9406  1 Note On         58, 100
  14596   48.0131  1 Note Off        58, 0
  14615   48.0756  1 Note On         44, 80
  14635   48.1412  1 Note Off        44, 0
  14654   48.2037  1 Note On         56, 100
  14676   48.2762  1 Note Off        56, 0
  14695   48.3387  1 Note On         57, 80
  14714   48.4012  1 Note Off        57, 0
  14734   48.4669  1 Note On         58, 100
  14755   48.5363  1 Note Off        58, 0
  14775   48.6019  1 Note On         44, 80
  14794   48.6644  1 Note Off        44, 0
  14814   48.7300  1 Note On         56, 100
  14833   48.7925  1 Note Off        56, 0
  14855   48.8650  1 Note On         57, 80
  14874   48.9275  1 Note Off        57, 0
  14894   48.9931  1 Note On         58, 100
  14913   49.0556  1 Note Off        58, 0
  14935   49.1281  1 Note On         44, 80
  14954   49.1906  1 Note Off        44, 0
  14973   49.2531  1 Note On         56, 100
  14993   49.3188  1 Note Off        56, 0
  15014   49.3881  1 Note On         57, 80
  15034   49.4537  1 Note Off        57, 0
  15053   49.5162  1 Note On         58, 100
  15073   49.5819  1 Note Off        58, 0
  15092   49.6444  1 Note On         44, 80
  15114   49.7169  1 Note Off        44, 0
  15133   49.7794  1 Note On         61, 100
  15152   49.8419  1 Note Off        61, 0
  15172   49.9081  1 Note On         61, 80
  15193   49.9769  1 Note Off        61, 0
  15252   50.1713  1 Note On         44, 100
  15273   50.2400  1 Note Off        44, 0
  15293   50.3056  1 Note On         56, 100
  15312   50.3681  1 Note Off        56, 0
  15331   50.4306  1 Note On         57, 80
  15351   50.4969  1 Note Off        57, 0
  15372   50.5656  1 Note On         58, 100
  15392   50.6313  1 Note Off        58, 0
  15411   50.6938  1 Note On         44, 80
  15431   50.7600  1 Note Off        44, 0
  15452   50.8287  1 Note On         56, 100
  15472   50.8944  1 Note Off        56, 0
  15491   50.9569  1 Note On         57, 80
  15511   51.0231  1 Note Off        57, 0
  15532   51.0919  1 Note On         58, 100
  15552   51.1581  1 Note Off        58, 0
  15571   51.2206  1 Note On         44, 80
  15590   51.2831  1 Note Off        44, 0
  15610   51.3488  1 Note On         56, 100
  15631   51.4175  1 Note Off        56, 0
  15651   51.4838  1 Note On         57, 80
  15670   51.5463  1 Note Off        57, 0
  15690   51.6119  1 Note On         58, 100
  15711   51.6806  1 Note Off        58, 0
  15731   51.7469  1 Note On         44, 80
  15750   51.8094  1 Note Off        44, 0
  15769   51.8719  1 Note On         56, 100
  15791   51.9438  1 Note Off        56, 0
  15810   52.0063  1 Note On         57, 80
  15830   52.0725  1 Note Off        57, 0
  15849   52.1350  1 Note On         58, 100
  15869   52.2006  1 Note Off        58, 0
  15890   52.2694  1 Note On         44, 80
  15910   52.3356  1 Note Off        44, 0
  15929   52.3981  1 Note On         56, 100
  15948   52.4606  1 Note Off        56, 0
  15970   52.5331  1 Note On         57, 80
  15989   52.5956  1 Note Off        57, 0
  16009   52.6613  1 Note On         58, 100
  16028   52.7238  1 Note Off        58, 0
  16050   52.7963  1 Note On         44, 80
  16069   52.8588  1 Note Off        44, 0
  16089   52.9244  1 Note On         56, 100
  16108   52.9869  1 Note Off        56, 0
  16128   53.0525  1 Note On         57, 80
  16149   53.1219  1 Note Off        57, 0
  16168   53.1844  1 Note On         58, 100
  16188   53.2500  1 Note Off        58, 0
  16207   53.3125  1 Note On         44, 80
  16229   53.3850  1 Note Off        44, 0
  16248   53.4475  1 Note On         56, 100
  16268   53.5131  1 Note Off        56, 0
  16287   53.5756  1 Note On         57, 80
  16309   53.6481  1 Note Off        57, 0
  16328   53.7106  1 Note On         58, 100
  16348   53.7762  1 Note Off        58, 0
  16367   53.8387  1 Note On         44, 80
  16386   53.9012  1 Note Off        44, 0
  16408   53.9738  1 Note On         61, 100
  16427   54.0363  1 Note Off        61, 0
  16447   54.1019  1 Note On         61, 80
  16466   54.1644  1 Note Off        61, 0
  16527   54.3650  1 Note On         44, 100
  16546   54.4275  1 Note Off        44, 0
  30586  100.6119  1 Note On         56, 100
  30605  100.6744  1 Note Off        56, 0
  30625  100.7400  1 Note On         57, 80
  30646  100.8088  1 Note Off        57, 0
  30666  100.8750  1 Note On         58, 100
  30685  100.9375  1 Note Off        58, 0
  30704  101.0000  1 Note On         44, 80
  30726  101.0725  1 Note Off        44, 0
  30745  101.1350  1 Note On         56, 100
  30765  101.2006  1 Note Off        56, 0
  30784  101.2631  1 Note On         57, 80
  30806  101.3356  1 Note Off        57, 0
  30825  101.3981  1 Note On         58, 100
  30845  101.4638  1 Note Off        58, 0
  30864  101.5263  1 Note On         44, 80
  30883  101.5888  1 Note Off        44, 0
  30905  101.6612  1 Note On         56, 100
  30924  101.7237  1 Note Off        56, 0
  30944  101.7894  1 Note On         57, 80
  30963  101.8519  1 Note Off        57, 0
  30985  101.9244  1 Note On         58, 100
  31004  101.9869  1 Note Off        58, 0
  31024  102.0525  1 Note On         44, 80
  31043  102.1150  1 Note Off        44, 0
  31065  102.1875  1 Note On         56, 100
  31084  102.2500  1 Note Off        56, 0
  31104  102.3156  1 Note On         57, 80
  31123  102.3781  1 Note Off        57, 0
  31142  102.4406  1 Note On         58, 100
  31164  102.5131  1 Note Off        58, 0
  31183  102.5756  1 Note On         44, 80
  31203  102.6412  1 Note Off        44, 0
  31222  102.7037  1 Note On         56, 100
  31244  102.7763  1 Note Off        56, 0
  31263  102.8388  1 Note On         57, 80
  31283  102.9044  1 Note Off        57, 0
  31302  102.9669  1 Note On         58, 100
  31324  103.0394  1 Note Off        58, 0
  31343  103.1019  1 Note On         44, 80
  31362  103.1644  1 Note Off        44, 0
  31382  103.2300  1 Note On         56, 100
  31401  103.2925  1 Note Off        56, 0
  31423  103.3650  1 Note On         57, 80
  31442  103.4275  1 Note Off        57, 0
  31462  103.4931  1 Note On         58, 100
  31481  103.5556  1 Note Off        58, 0
  31503  103.6281  1 Note On         44, 80
  31522  103.6906  1 Note Off        44, 0
  31541  103.7531  1 Note On         56, 100
  31561  103.8187  1 Note Off        56, 0
  31582  103.8881  1 Note On         57, 80
  31602  103.9537  1 Note Off        57, 0
  31621  104.0162  1 Note On         58, 100
  31641  104.0819  1 Note Off        58, 0
  31660  104.1444  1 Note On         44, 80
  31682  104.2169  1 Note Off        44, 0
  31701  104.2794  1 Note On         61, 100
  31720  104.3419  1 Note Off        61, 0
  31740  104.4075  1 Note On         61, 80
  31761  104.4769  1 Note Off        61, 0
  31820  104.6706  1 Note On         44, 100
  31841  104.7400  1 Note Off        44, 0
  31861  104.8056  1 Note On         56, 100
  31880  104.8681  1 Note Off        56, 0
  31900  104.9338  1 Note On         57, 80
  31919  104.9963  1 Note Off        57, 0
  31941  105.0687  1 Note On         58, 100
  31960  105.1312  1 Note Off        58, 0
  31979  105.1937  1 Note On         44, 80
  31999  105.2600  1 Note Off        44, 0
  32020  105.3287  1 Note On         56, 100
  32040  105.3944  1 Note Off        56, 0
  32059  105.4569  1 Note On         57, 80
  32079  105.5231  1 Note Off        57, 0
  32100  105.5919  1 Note On         58, 100
  32120  105.6575  1 Note Off        58, 0
  32139  105.7200  1 Note On         44, 80
  32158  105.7825  1 Note Off        44, 0
  32178  105.8487  1 Note On         56, 100
  32199  105.9175  1 Note Off        56, 0
  32219  105.9831  1 Note On         57, 80
  32238  106.0456  1 Note Off        57, 0
  32258  106.1119  1 Note On         58, 100
  32279  106.1806  1 Note Off        58, 0
  32299  106.2463  1 Note On         44, 80
  32318  106.3088  1 Note Off        44, 0
  32337  106.3713  1 Note On         56, 100
  32359  106.4437  1 Note Off        56, 0
  32378  106.5062  1 Note On         57, 80
  32398  106.5725  1 Note Off        57, 0
  32417  106.6350  1 Note On         58, 100
  32437  106.7006  1 Note Off        58, 0
  32458  106.7694  1 Note On         44, 80
  32478  106.8356  1 Note Off        44, 0
  32497  106.8981  1 Note On         56, 100
  32517  106.9638  1 Note Off        56, 0
  32538  107.0325  1 Note On         57, 80
  32558  107.0987  1 Note Off        57, 0
  32577  107.1612  1 Note On         58, 100
  32596  107.2237  1 Note Off        58, 0
  32618  107.2956  1 Note On         44, 80
  32637  107.3581  1 Note Off        44, 0
  32657  107.4244  1 Note On         56, 100
  32676  107.4869  1 Note Off        56, 0
  32696  107.5525  1 Note On         57, 80
  32717  107.6213  1 Note Off        57, 0
  32737  107.6875  1 Note On         58, 100
  32756  107.7500  1 Note Off        58, 0
  32775  107.8125  1 Note On         44, 80
  32797  107.8850  1 Note Off        44, 0
  32816  107.9475  1 Note On         56, 100
  32836  108.0131  1 Note Off        56, 0
  32855  108.0756  1 Note On         57, 80
  32877  108.1481  1 Note Off        57, 0
  32896  108.2106  1 Note On         58, 100
  32916  108.2763  1 Note Off        58, 0
  32935  108.3388  1 Note On         44, 80
  32954  108.4013  1 Note Off        44, 0
  32976  108.4737  1 Note On         61, 100
  32995  108.5362  1 Note Off        61, 0
  33015  108.6019  1 Note On         61, 80
  33034  108.6644  1 Note Off        61, 0
  33095  108.8650  1 Note On         44, 100
  33114  108.9275  1 Note Off        44, 0
  43331  142.5362  1 Note On         56, 100
  43351  142.6019  1 Note Off        56, 0
  43370  142.6644  1 Note On         57, 80
  43389  142.7269  1 Note Off        57, 0
  43411  142.7994  1 Note On         58, 100
  43430  142.8619  1 Note Off        58, 0
  43450  142.9275  1 Note On         44, 80
  43469  142.9900  1 Note Off        44, 0
  43491  143.0625  1 Note On         56, 100
  43510  143.1250  1 Note Off        56, 0
  43530  143.1906  1 Note On         57, 80
  43549  143.2531  1 Note Off        57, 0
  43568  143.3156  1 Note On         58, 100
  43590  143.3881  1 Note Off        58, 0
  43609  143.4506  1 Note On         44, 80
  43629  143.5163  1 Note Off        44, 0
  43648  143.5788  1 Note On         56, 100
  43670  143.6513  1 Note Off        56, 0
  43689  143.7138  1 Note On         57, 80
  43709  143.7794  1 Note Off        57, 0
  43728  143.8419  1 Note On         58, 100
  43750  143.9144  1 Note Off        58, 0
  43769  143.9769  1 Note On         44, 80
  43788  144.0394  1 Note Off        44, 0
  43808  144.1050  1 Note On         56, 100
  43827  144.1675  1 Note Off        56, 0
  43849  144.2400  1 Note On         57, 80
  43868  144.3025  1 Note Off        57, 0
  43888  144.3681  1 Note On         58, 100
  43907  144.4306  1 Note Off        58, 0
  43929  144.5031  1 Note On         44, 80
  43948  144.5656  1 Note Off        44, 0
  43968  144.6312  1 Note On         56, 100
  43987  144.6937  1 Note Off        56, 0
  44008  144.7631  1 Note On         57, 80
  44028  144.8288  1 Note Off        57, 0
  44047  144.8913  1 Note On         58, 100
  44067  144.9569  1 Note Off        58, 0
  44086  145.0194  1 Note On         44, 80
  44108  145.0919  1 Note Off        44, 0
  44127  145.1544  1 Note On         56, 100
  44147  145.2200  1 Note Off        56, 0
  44166  145.2825  1 Note On         57, 80
  44188  145.3550  1 Note Off        57, 0
  44207  145.4175  1 Note On         58, 100
  44226  145.4800  1 Note Off        58, 0
  44246  145.5456  1 Note On         44, 80
  44267  145.6150  1 Note Off        44, 0
  44287  145.6806  1 Note On         56, 100
  44306  145.7431  1 Note Off        56, 0
  44326  145.8088  1 Note On         57, 80
  44345  145.8713  1 Note Off        57, 0
  44367  145.9437  1 Note On         58, 100
  44386  146.0062  1 Note Off        58, 0
  44405  146.0687  1 Note On         44, 80
  44425  146.1344  1 Note Off        44, 0
  44446  146.2038  1 Note On         61, 100
  44466  146.2694  1 Note Off        61, 0
  44485  146.3319  1 Note On         61, 80
  44505  146.3975  1 Note Off        61, 0
  44565  146.5950  1 Note On         44, 100
  44584  146.6575  1 Note Off        44, 0
  44584  146.6575 -- Meta Event      End Of Track
  44584  146.6575 -- Track           End: 3
      0    0.0000 -- Track           Start: 4
      0    0.0000 -- Forced channel  2
      0    0.0000  2 Control Change  7, 100
      0    0.0000  2 Program Change  61
    476    1.5656  2 Control Change  0, 0
    478    1.5725  2 Control Change  0, 0
    481    1.5825  2 Control Change  7, 100
    483    1.5888  2 Control Change  10, 64
    485    1.5956  2 Control Change  11, 90
    487    1.6019  2 Control Change  91, 50
    487    1.6019  2 Control Change  93, 100
   3822   12.5725  2 Note On         56, 100
   3822   12.5725  2 Note On         60, 100
   3822   12.5725  2 Note On         65, 100
   3904   12.8419  2 Pitch Bend      0
   3911   12.8650  2 Pitch Bend      -512
   3917   12.8850  2 Pitch Bend      -1152
   3928   12.9213  2 Pitch Bend      -2944
   3934   12.9406  2 Pitch Bend      -4096
   3941   12.9637  2 Note Off        65, 0
   3941   12.9637  2 Note Off        60, 0
   3941   12.9637  2 Note Off        56, 0
   3947   12.9838  2 Pitch Bend      0
  11468   37.7238  2 Note On         82, 110
  11468   37.7238  2 Note On         70, 110
  11496   37.8156  2 Note Off        70, 0
  11496   37.8156  2 Note Off        82, 0
  11627   38.2469  2 Note On         80, 110
  11627   38.2469  2 Note On         68, 110
  11655   38.3387  2 Note Off        68, 0
  11655   38.3387  2 Note Off        80, 0
  11748   38.6444  2 Note On         82, 110
  11748   38.6444  2 Note On         70, 110
  11774   38.7300  2 Note Off        70, 0
  11774   38.7300  2 Note Off        82, 0
  11867   39.0363  2 Note On         85, 110
  11867   39.0363  2 Note On         73, 110
  11947   39.2994  2 Note Off        73, 0
  11947   39.2994  2 Note Off        85, 0
  11947   39.2994  2 Note On         82, 110
  11947   39.2994  2 Note On         70, 110
  12026   39.5594  2 Note Off        70, 0
  12026   39.5594  2 Note Off        82, 0
  12026   39.5594  2 Note On         85, 110
  12026   39.5594  2 Note On         73, 110
  12106   39.8225  2 Note Off        73, 0
  12106   39.8225  2 Note Off        85, 0
  12106   39.8225  2 Note On         82, 110
  12106   39.8225  2 Note On         70, 110
  12132   39.9081  2 Note Off        70, 0
  12132   39.9081  2 Note Off        82, 0
  12266   40.3488  2 Note On         80, 110
  12266   40.3488  2 Note On         68, 110
  12292   40.4344  2 Note Off        68, 0
  12292   40.4344  2 Note Off        80, 0
  12385   40.7400  2 Note On         82, 110
  12385   40.7400  2 Note On         70, 110
  12410   40.8225  2 Note Off        70, 0
  12410   40.8225  2 Note Off        82, 0
  12503   41.1281  2 Note On         85, 110
  12503   41.1281  2 Note On         73, 110
  12531   41.2206  2 Note Off        73, 0
  12531   41.2206  2 Note Off        85, 0
  12544   41.2631  2 Note On         85, 110
  12544   41.2631  2 Note On         73, 110
  12570   41.3488  2 Note Off        73, 0
  12570   41.3488  2 Note Off        85, 0
  12583   41.3912  2 Note On         82, 110
  12583   41.3912  2 Note On         70, 110
  12663   41.6544  2 Note Off        70, 0
  12663   41.6544  2 Note Off        82, 0
  12663   41.6544  2 Note On         85, 110
  12663   41.6544  2 Note On         73, 110
  12743   41.9175  2 Note Off        73, 0
  12743   41.9175  2 Note Off        85, 0
  12743   41.9175  2 Note On         82, 110
  12743   41.9175  2 Note On         70, 110
  12771   42.0100  2 Note Off        70, 0
  12771   42.0100  2 Note Off        82, 0
  12902   42.4406  2 Note On         80, 110
  12902   42.4406  2 Note On         68, 110
  12928   42.5262  2 Note Off        68, 0
  12928   42.5262  2 Note Off        80, 0
  13021   42.8319  2 Note On         82, 110
  13021   42.8319  2 Note On         70, 110
  13049   42.9244  2 Note Off        70, 0
  13049   42.9244  2 Note Off        82, 0
  13301   43.7531  2 Note On         80, 110
  13301   43.7531  2 Note On         68, 110
  13327   43.8387  2 Note Off        68, 0
  13327   43.8387  2 Note Off        80, 0
  13539   44.5363  2 Note On         80, 110
  13539   44.5363  2 Note On         68, 110
  13567   44.6281  2 Note Off        68, 0
  13567   44.6281  2 Note Off        80, 0
  13660   44.9344  2 Note On         82, 110
  13660   44.9344  2 Note On         70, 110
  13685   45.0162  2 Note Off        70, 0
  13685   45.0162  2 Note Off        82, 0
  14018   46.1119  2 Note On         82, 110
  14018   46.1119  2 Note On         70, 110
  14044   46.1975  2 Note Off        70, 0
  14044   46.1975  2 Note Off        82, 0
  14177   46.6350  2 Note On         80, 110
  14177   46.6350  2 Note On         68, 110
  14203   46.7206  2 Note Off        68, 0
  14203   46.7206  2 Note Off        80, 0
  14296   47.0262  2 Note On         82, 110
  14296   47.0262  2 Note On         70, 110
  14324   47.1181  2 Note Off        70, 0
  14324   47.1181  2 Note Off        82, 0
  14417   47.4244  2 Note On         85, 110
  14417   47.4244  2 Note On         73, 110
  14497   47.6875  2 Note Off        73, 0
  14497   47.6875  2 Note Off        85, 0
  14497   47.6875  2 Note On         82, 110
  14497   47.6875  2 Note On         70, 110
  14574   47.9406  2 Note Off        70, 0
  14574   47.9406  2 Note Off        82, 0
  14574   47.9406  2 Note On         85, 110
  14574   47.9406  2 Note On         73, 110
  14654   48.2037  2 Note Off        73, 0
  14654   48.2037  2 Note Off        85, 0
  14654   48.2037  2 Note On         82, 110
  14654   48.2037  2 Note On         70, 110
  14682   48.2963  2 Note Off        70, 0
  14682   48.2963  2 Note Off        82, 0
  14814   48.7300  2 Note On         80, 110
  14814   48.7300  2 Note On         68, 110
  14842   48.8225  2 Note Off        68, 0
  14842   48.8225  2 Note Off        80, 0
  14935   49.1281  2 Note On         82, 110
  14935   49.1281  2 Note On         70, 110
  14960   49.2106  2 Note Off        70, 0
  14960   49.2106  2 Note Off        82, 0
  15053   49.5162  2 Note On         85, 110
  15053   49.5162  2 Note On         73, 110
  15079   49.6019  2 Note Off        73, 0
  15079   49.6019  2 Note Off        85, 0
  15092   49.6444  2 Note On         85, 110
  15092   49.6444  2 Note On         73, 110
  15120   49.7369  2 Note Off        73, 0
  15120   49.7369  2 Note Off        85, 0
  15133   49.7794  2 Note On         82, 110
  15133   49.7794  2 Note On         70, 110
  15213   50.0425  2 Note Off        70, 0
  15213   50.0425  2 Note Off        82, 0
  15213   50.0425  2 Note On         85, 110
  15213   50.0425  2 Note On         73, 110
  15293   50.3056  2 Note Off        73, 0
  15293   50.3056  2 Note Off        85, 0
  15293   50.3056  2 Note On         82, 110
  15293   50.3056  2 Note On         70, 110
  15319   50.3912  2 Note Off        70, 0
  15319   50.3912  2 Note Off        82, 0
  15452   50.8287  2 Note On         80, 110
  15452   50.8287  2 Note On         68, 110
  15478   50.9144  2 Note Off        68, 0
  15478   50.9144  2 Note Off        80, 0
  15571   51.2206  2 Note On         82, 110
  15571   51.2206  2 Note On         70, 110
  15597   51.3056  2 Note Off        70, 0
  15597   51.3056  2 Note Off        82, 0
  15690   51.6119  2 Note On         85, 110
  15690   51.6119  2 Note On         73, 110
  15769   51.8719  2 Note Off        73, 0
  15769   51.8719  2 Note Off        85, 0
  15769   51.8719  2 Note On         82, 110
  15769   51.8719  2 Note On         70, 110
  15849   52.1350  2 Note Off        70, 0
  15849   52.1350  2 Note Off        82, 0
  15849   52.1350  2 Note On         85, 110
  15849   52.1350  2 Note On         73, 110
  15929   52.3981  2 Note Off        73, 0
  15929   52.3981  2 Note Off        85, 0
  15929   52.3981  2 Note On         82, 110
  15929   52.3981  2 Note On         70, 110
  16248   53.4475  2 Note Off        70, 0
  16248   53.4475  2 Note Off        82, 0
  16248   53.4475  2 Note On         77, 110
  16248   53.4475  2 Note On         65, 110
  16408   53.9738  2 Note Off        65, 0
  16408   53.9738  2 Note Off        77, 0
  16408   53.9738  2 Note On         80, 110
  16408   53.9738  2 Note On         68, 110
  16568   54.5000  2 Note Off        68, 0
  16568   54.5000  2 Note Off        80, 0
  21665   71.2662  2 Note On         70, 110
  21665   71.2662  2 Note On         82, 110
  21745   71.5294  2 Note On         80, 60
  21745   71.5294  2 Note On         68, 60
  21758   71.5725  2 Note Off        82, 0
  21758   71.5725  2 Note On         78, 60
  21758   71.5725  2 Note On         66, 60
  21762   71.5856  2 Note Off        80, 0
  21762   71.5856  2 Note Off        68, 0
  21765   71.5950  2 Note Off        70, 0
  21775   71.6281  2 Note On         77, 60
  21775   71.6281  2 Note On         65, 60
  21780   71.6444  2 Note Off        78, 0
  21780   71.6444  2 Note Off        66, 0
  21788   71.6713  2 Note On         75, 60
  21788   71.6713  2 Note On         63, 60
  21790   71.6775  2 Note Off        77, 0
  21790   71.6775  2 Note Off        65, 0
  21797   71.7006  2 Note On         73, 60
  21797   71.7006  2 Note On         61, 60
  21799   71.7069  2 Note Off        75, 0
  21799   71.7069  2 Note Off        63, 0
  21808   71.7369  2 Note On         72, 60
  21808   71.7369  2 Note On         60, 60
  21810   71.7431  2 Note Off        73, 0
  21810   71.7431  2 Note Off        61, 0
  21816   71.7631  2 Note On         70, 60
  21816   71.7631  2 Note On         58, 60
  21818   71.7694  2 Note Off        72, 0
  21818   71.7694  2 Note Off        60, 0
  21844   71.8550  2 Note Off        70, 0
  21844   71.8550  2 Note Off        58, 0
  28036   92.2237  2 Note On         82, 110
  28036   92.2237  2 Note On         70, 110
  28090   92.4013  2 Note Off        70, 0
  28090   92.4013  2 Note Off        82, 0
  28275   93.0100  2 Note On         82, 110
  28275   93.0100  2 Note On         70, 110
  28329   93.1875  2 Note Off        70, 0
  28329   93.1875  2 Note Off        82, 0
  28435   93.5362  2 Note On         77, 110
  28435   93.5362  2 Note On         65, 110
  28489   93.7138  2 Note Off        65, 0
  28489   93.7138  2 Note Off        77, 0
  28554   93.9275  2 Note On         80, 110
  28554   93.9275  2 Note On         68, 110
  28608   94.1050  2 Note Off        68, 0
  28608   94.1050  2 Note Off        80, 0
  28674   94.3225  2 Note On         82, 110
  28674   94.3225  2 Note On         70, 110
  28726   94.4931  2 Note Off        70, 0
  28726   94.4931  2 Note Off        82, 0
  28914   95.1119  2 Note On         82, 110
  28914   95.1119  2 Note On         70, 110
  28966   95.2825  2 Note Off        70, 0
  28966   95.2825  2 Note Off        82, 0
  29071   95.6281  2 Note On         77, 110
  29071   95.6281  2 Note On         65, 110
  29125   95.8056  2 Note Off        65, 0
  29125   95.8056  2 Note Off        77, 0
  29192   96.0263  2 Note On         80, 110
  29192   96.0263  2 Note On         68, 110
  29244   96.1975  2 Note Off        68, 0
  29244   96.1975  2 Note Off        80, 0
  29311   96.4175  2 Note On         82, 110
  29311   96.4175  2 Note On         70, 110
  29365   96.5950  2 Note Off        70, 0
  29365   96.5950  2 Note Off        82, 0
  29550   97.2037  2 Note On         82, 110
  29550   97.2037  2 Note On         70, 110
  29604   97.3812  2 Note Off        70, 0
  29604   97.3812  2 Note Off        82, 0
  29710   97.7300  2 Note On         77, 110
  29710   97.7300  2 Note On         65, 110
  29762   97.9013  2 Note Off        65, 0
  29762   97.9013  2 Note Off        77, 0
  29829   98.1219  2 Note On         80, 110
  29829   98.1219  2 Note On         68, 110
  29882   98.2956  2 Note Off        68, 0
  29882   98.2956  2 Note Off        80, 0
  29949   98.5162  2 Note On         82, 110
  29949   98.5162  2 Note On         70, 110
  30001   98.6875  2 Note Off        70, 0
  30001   98.6875  2 Note Off        82, 0
  30187   99.2994  2 Note On         82, 110
  30187   99.2994  2 Note On         70, 110
  30241   99.4769  2 Note Off        70, 0
  30241   99.4769  2 Note Off        82, 0
  30346   99.8225  2 Note On         77, 110
  30346   99.8225  2 Note On         65, 110
  30400  100.0000  2 Note Off        65, 0
  30400  100.0000  2 Note Off        77, 0
  30467  100.2200  2 Note On         80, 110
  30467  100.2200  2 Note On         68, 110
  30519  100.3912  2 Note Off        68, 0
  30519  100.3912  2 Note Off        80, 0
  30586  100.6119  2 Note On         82, 110
  30586  100.6119  2 Note On         70, 110
  30640  100.7894  2 Note Off        70, 0
  30640  100.7894  2 Note Off        82, 0
  30825  101.3981  2 Note On         82, 110
  30825  101.3981  2 Note On         70, 110
  30877  101.5687  2 Note Off        70, 0
  30877  101.5687  2 Note Off        82, 0
  30985  101.9244  2 Note On         77, 110
  30985  101.9244  2 Note On         65, 110
  31037  102.0950  2 Note Off        65, 0
  31037  102.0950  2 Note Off        77, 0
  31104  102.3156  2 Note On         80, 110
  31104  102.3156  2 Note On         68, 110
  31157  102.4900  2 Note Off        68, 0
  31157  102.4900  2 Note Off        80, 0
  31222  102.7037  2 Note On         82, 110
  31222  102.7037  2 Note On         70, 110
  31276  102.8812  2 Note Off        70, 0
  31276  102.8812  2 Note Off        82, 0
  31462  103.4931  2 Note On         82, 110
  31462  103.4931  2 Note On         70, 110
  31516  103.6706  2 Note Off        70, 0
  31516  103.6706  2 Note Off        82, 0
  31621  104.0162  2 Note On         77, 110
  31621  104.0162  2 Note On         65, 110
  31675  104.1937  2 Note Off        65, 0
  31675  104.1937  2 Note Off        77, 0
  31740  104.4075  2 Note On         80, 110
  31740  104.4075  2 Note On         68, 110
  31794  104.5856  2 Note Off        68, 0
  31794  104.5856  2 Note Off        80, 0
  31861  104.8056  2 Note On         82, 110
  31861  104.8056  2 Note On         70, 110
  31912  104.9737  2 Note Off        70, 0
  31912  104.9737  2 Note Off        82, 0
  32100  105.5919  2 Note On         82, 110
  32100  105.5919  2 Note On         70, 110
  32152  105.7631  2 Note Off        70, 0
  32152  105.7631  2 Note Off        82, 0
  32258  106.1119  2 Note On         77, 110
  32258  106.1119  2 Note On         65, 110
  32312  106.2894  2 Note Off        65, 0
  32312  106.2894  2 Note Off        77, 0
  32378  106.5062  2 Note On         80, 110
  32378  106.5062  2 Note On         68, 110
  32430  106.6775  2 Note Off        68, 0
  32430  106.6775  2 Note Off        80, 0
  32497  106.8981  2 Note On         82, 110
  32497  106.8981  2 Note On         70, 110
  32551  107.0756  2 Note Off        70, 0
  32551  107.0756  2 Note Off        82, 0
  32737  107.6875  2 Note On         82, 110
  32737  107.6875  2 Note On         70, 110
  32791  107.8650  2 Note Off        70, 0
  32791  107.8650  2 Note Off        82, 0
  32896  108.2106  2 Note On         77, 110
  32896  108.2106  2 Note On         65, 110
  32948  108.3812  2 Note Off        65, 0
  32948  108.3812  2 Note Off        77, 0
  33015  108.6019  2 Note On         80, 110
  33015  108.6019  2 Note On         68, 110
  33069  108.7794  2 Note Off        68, 0
  33069  108.7794  2 Note Off        80, 0
  35683  117.3781  2 Note On         70, 100
  35683  117.3781  2 Note On         65, 100
  35683  117.3781  2 Note On         77, 100
  35802  117.7694  2 Note Off        77, 0
  35802  117.7694  2 Note Off        65, 0
  35802  117.7694  2 Note Off        70, 0
  40781  134.1481  2 Note On         56, 100
  40781  134.1481  2 Note On         60, 100
  40781  134.1481  2 Note On         65, 100
  40863  134.4175  2 Pitch Bend      0
  40870  134.4406  2 Pitch Bend      -512
  40876  134.4606  2 Pitch Bend      -1152
  40880  134.4737  2 Pitch Bend      -1920
  40887  134.4963  2 Pitch Bend      -2944
  40893  134.5163  2 Pitch Bend      -4096
  40902  134.5456  2 Note Off        65, 0
  40902  134.5456  2 Note Off        60, 0
  40902  134.5456  2 Note Off        56, 0
  40906  134.5588  2 Pitch Bend      0
  43331  142.5362  2 Note On         56, 100
  43331  142.5362  2 Note On         60, 100
  43331  142.5362  2 Note On         65, 100
  43411  142.7994  2 Pitch Bend      0
  43417  142.8187  2 Pitch Bend      -512
  43426  142.8487  2 Pitch Bend      -1152
  43437  142.8844  2 Pitch Bend      -2944
  43443  142.9044  2 Pitch Bend      -4096
  43450  142.9275  2 Note Off        65, 0
  43450  142.9275  2 Note Off        60, 0
  43450  142.9275  2 Note Off        56, 0
  43454  142.9406  2 Pitch Bend      0
  47154  155.1119  2 Note On         56, 100
  47154  155.1119  2 Note On         60, 100
  47154  155.1119  2 Note On         65, 100
  47236  155.3812  2 Pitch Bend      0
  47242  155.4013  2 Pitch Bend      -512
  47249  155.4244  2 Pitch Bend      -1152
  47253  155.4375  2 Pitch Bend      -1920
  47260  155.4600  2 Pitch Bend      -2944
  47266  155.4800  2 Pitch Bend      -4096
  47272  155.5000  2 Note Off        65, 0
  47272  155.5000  2 Note Off        60, 0
  47272  155.5000  2 Note Off        56, 0
  47279  155.5225  2 Pitch Bend      0
  57349  188.6475  2 Note On         82, 110
  57349  188.6475  2 Note On         70, 110
  57403  188.8256  2 Note Off        70, 0
  57403  188.8256  2 Note Off        82, 0
  57988  190.7500  2 Note On         82, 110
  57988  190.7500  2 Note On         70, 110
  58014  190.8350  2 Note Off        70, 0
  58014  190.8350  2 Note Off        82, 0
  58145  191.2663  2 Note On         80, 110
  58145  191.2663  2 Note On         68, 110
  58173  191.3581  2 Note Off        68, 0
  58173  191.3581  2 Note Off        80, 0
  58266  191.6644  2 Note On         82, 110
  58266  191.6644  2 Note On         70, 110
  58292  191.7500  2 Note Off        70, 0
  58292  191.7500  2 Note Off        82, 0
  58385  192.0556  2 Note On         85, 110
  58385  192.0556  2 Note On         73, 110
  58465  192.3187  2 Note Off        73, 0
  58465  192.3187  2 Note Off        85, 0
  58465  192.3187  2 Note On         82, 110
  58465  192.3187  2 Note On         70, 110
  58544  192.5788  2 Note Off        70, 0
  58544  192.5788  2 Note Off        82, 0
  58544  192.5788  2 Note On         85, 110
  58544  192.5788  2 Note On         73, 110
  58624  192.8419  2 Note Off        73, 0
  58624  192.8419  2 Note Off        85, 0
  58624  192.8419  2 Note On         82, 110
  58624  192.8419  2 Note On         70, 110
  58678  193.0194  2 Note Off        70, 0
  58678  193.0194  2 Note Off        82, 0
  58864  193.6312  2 Note On         82, 110
  58864  193.6312  2 Note On         70, 110
  58915  193.7988  2 Note Off        70, 0
  58915  193.7988  2 Note Off        82, 0
  59023  194.1544  2 Note On         77, 110
  59023  194.1544  2 Note On         65, 110
  59075  194.3256  2 Note Off        65, 0
  59075  194.3256  2 Note Off        77, 0
  59142  194.5456  2 Note On         80, 110
  59142  194.5456  2 Note On         68, 110
  59196  194.7231  2 Note Off        68, 0
  59196  194.7231  2 Note Off        80, 0
  59261  194.9375  2 Note On         82, 110
  59261  194.9375  2 Note On         70, 110
  59315  195.1150  2 Note Off        70, 0
  59315  195.1150  2 Note Off        82, 0
  59500  195.7231  2 Note On         82, 110
  59500  195.7231  2 Note On         70, 110
  59554  195.9013  2 Note Off        70, 0
  59554  195.9013  2 Note Off        82, 0
  59660  196.2500  2 Note On         77, 110
  59660  196.2500  2 Note On         65, 110
  59714  196.4275  2 Note Off        65, 0
  59714  196.4275  2 Note Off        77, 0
  59778  196.6381  2 Note On         80, 110
  59778  196.6381  2 Note On         68, 110
  59832  196.8156  2 Note Off        68, 0
  59832  196.8156  2 Note Off        80, 0
  59899  197.0356  2 Note On         82, 110
  59899  197.0356  2 Note On         70, 110
  59951  197.2069  2 Note Off        70, 0
  59951  197.2069  2 Note Off        82, 0
  60136  197.8156  2 Note On         82, 110
  60136  197.8156  2 Note On         70, 110
  60190  197.9931  2 Note Off        70, 0
  60190  197.9931  2 Note Off        82, 0
  60296  198.3419  2 Note On         77, 110
  60296  198.3419  2 Note On         65, 110
  60350  198.5194  2 Note Off        65, 0
  60350  198.5194  2 Note Off        77, 0
  60417  198.7400  2 Note On         80, 110
  60417  198.7400  2 Note On         68, 110
  60469  198.9106  2 Note Off        68, 0
  60469  198.9106  2 Note Off        80, 0
  60536  199.1312  2 Note On         82, 110
  60536  199.1312  2 Note On         70, 110
  60590  199.3088  2 Note Off        70, 0
  60590  199.3088  2 Note Off        82, 0
  60775  199.9175  2 Note On         82, 110
  60775  199.9175  2 Note On         70, 110
  60827  200.0888  2 Note Off        70, 0
  60827  200.0888  2 Note Off        82, 0
  60935  200.4437  2 Note On         77, 110
  60935  200.4437  2 Note On         65, 110
  60986  200.6113  2 Note Off        65, 0
  60986  200.6113  2 Note Off        77, 0
  61053  200.8319  2 Note On         80, 110
  61053  200.8319  2 Note On         68, 110
  61107  201.0094  2 Note Off        68, 0
  61107  201.0094  2 Note Off        80, 0
  61172  201.2231  2 Note On         82, 110
  61172  201.2231  2 Note On         70, 110
  61226  201.4013  2 Note Off        70, 0
  61226  201.4013  2 Note Off        82, 0
  61411  202.0094  2 Note On         82, 110
  61411  202.0094  2 Note On         70, 110
  61465  202.1875  2 Note Off        70, 0
  61465  202.1875  2 Note Off        82, 0
  61571  202.5356  2 Note On         77, 110
  61571  202.5356  2 Note On         65, 110
  61625  202.7138  2 Note Off        65, 0
  61625  202.7138  2 Note Off        77, 0
  61690  202.9275  2 Note On         80, 110
  61690  202.9275  2 Note On         68, 110
  61744  203.1050  2 Note Off        68, 0
  61744  203.1050  2 Note Off        80, 0
  62447  205.4175  2 Note On         60, 100
  62447  205.4175  2 Note On         65, 100
  62447  205.4175  2 Note On         53, 100
  62529  205.6875  2 Pitch Bend      0
  62535  205.7069  2 Pitch Bend      -512
  62542  205.7300  2 Pitch Bend      -1152
  62546  205.7431  2 Pitch Bend      -1920
  62553  205.7663  2 Pitch Bend      -2944
  62561  205.7925  2 Pitch Bend      -4096
  62568  205.8156  2 Note Off        53, 0
  62568  205.8156  2 Note Off        65, 0
  62568  205.8156  2 Note Off        60, 0
  62572  205.8288  2 Pitch Bend      0
  63722  209.6113  2 Note On         60, 100
  63722  209.6113  2 Note On         65, 100
  63722  209.6113  2 Note On         53, 100
  63804  209.8812  2 Pitch Bend      0
  63810  209.9013  2 Pitch Bend      -512
  63817  209.9238  2 Pitch Bend      -1152
  63821  209.9369  2 Pitch Bend      -1920
  63828  209.9600  2 Pitch Bend      -2944
  63834  209.9800  2 Pitch Bend      -4096
  63841  210.0031  2 Note Off        53, 0
  63841  210.0031  2 Note Off        65, 0
  63841  210.0031  2 Note Off        60, 0
  63847  210.0225  2 Pitch Bend      0
  64997  213.8056  2 Note On         60, 100
  64997  213.8056  2 Note On         65, 100
  64997  213.8056  2 Note On         53, 100
  65077  214.0687  2 Pitch Bend      0
  65085  214.0950  2 Pitch Bend      -512
  65092  214.1181  2 Pitch Bend      -1152
  65096  214.1312  2 Pitch Bend      -1920
  65103  214.1544  2 Pitch Bend      -2944
  65109  214.1738  2 Pitch Bend      -4096
  65116  214.1969  2 Note Off        53, 0
  65116  214.1969  2 Note Off        65, 0
  65116  214.1969  2 Note Off        60, 0
  65120  214.2100  2 Pitch Bend      0
  66272  217.9994  2 Note On         60, 100
  66272  217.9994  2 Note On         65, 100
  66272  217.9994  2 Note On         53, 100
  66352  218.2631  2 Pitch Bend      0
  66358  218.2825  2 Pitch Bend      -512
  66365  218.3056  2 Pitch Bend      -1152
  66371  218.3256  2 Pitch Bend      -1920
  66378  218.3481  2 Pitch Bend      -2944
  66384  218.3681  2 Pitch Bend      -4096
  66391  218.3913  2 Note Off        53, 0
  66391  218.3913  2 Note Off        65, 0
  66391  218.3913  2 Note Off        60, 0
  66395  218.4044  2 Pitch Bend      0
  67545  222.1869  2 Note On         82, 110
  67545  222.1869  2 Note On         70, 110
  67599  222.3650  2 Note Off        70, 0
  67599  222.3650  2 Note Off        82, 0
  67784  222.9731  2 Note On         82, 110
  67784  222.9731  2 Note On         70, 110
  67838  223.1513  2 Note Off        70, 0
  67838  223.1513  2 Note Off        82, 0
  67944  223.4994  2 Note On         77, 110
  67944  223.4994  2 Note On         65, 110
  67998  223.6775  2 Note Off        65, 0
  67998  223.6775  2 Note Off        77, 0
  68062  223.8881  2 Note On         80, 110
  68062  223.8881  2 Note On         68, 110
  68116  224.0656  2 Note Off        68, 0
  68116  224.0656  2 Note Off        80, 0
  68183  224.2856  2 Note On         82, 110
  68183  224.2856  2 Note On         70, 110
  68235  224.4569  2 Note Off        70, 0
  68235  224.4569  2 Note Off        82, 0
  68421  225.0687  2 Note On         82, 110
  68421  225.0687  2 Note On         70, 110
  68474  225.2431  2 Note Off        70, 0
  68474  225.2431  2 Note Off        82, 0
  68580  225.5919  2 Note On         77, 110
  68580  225.5919  2 Note On         65, 110
  68634  225.7694  2 Note Off        65, 0
  68634  225.7694  2 Note Off        77, 0
  68701  225.9900  2 Note On         80, 110
  68701  225.9900  2 Note On         68, 110
  68753  226.1606  2 Note Off        68, 0
  68753  226.1606  2 Note Off        80, 0
  68820  226.3812  2 Note On         82, 110
  68820  226.3812  2 Note On         70, 110
  68874  226.5588  2 Note Off        70, 0
  68874  226.5588  2 Note Off        82, 0
  69059  227.1675  2 Note On         82, 110
  69059  227.1675  2 Note On         70, 110
  69111  227.3388  2 Note Off        70, 0
  69111  227.3388  2 Note Off        82, 0
  69219  227.6937  2 Note On         77, 110
  69219  227.6937  2 Note On         65, 110
  69271  227.8650  2 Note Off        65, 0
  69271  227.8650  2 Note Off        77, 0
  69337  228.0819  2 Note On         80, 110
  69337  228.0819  2 Note On         68, 110
  69391  228.2594  2 Note Off        68, 0
  69391  228.2594  2 Note Off        80, 0
  69456  228.4731  2 Note On         82, 110
  69456  228.4731  2 Note On         70, 110
  69510  228.6513  2 Note Off        70, 0
  69510  228.6513  2 Note Off        82, 0
  69696  229.2631  2 Note On         82, 110
  69696  229.2631  2 Note On         70, 110
  69749  229.4369  2 Note Off        70, 0
  69749  229.4369  2 Note Off        82, 0
  69855  229.7856  2 Note On         77, 110
  69855  229.7856  2 Note On         65, 110
  69909  229.9638  2 Note Off        65, 0
  69909  229.9638  2 Note Off        77, 0
  69974  230.1775  2 Note On         80, 110
  69974  230.1775  2 Note On         68, 110
  70028  230.3550  2 Note Off        68, 0
  70028  230.3550  2 Note Off        80, 0
  70095  230.5750  2 Note On         82, 110
  70095  230.5750  2 Note On         70, 110
  70146  230.7431  2 Note Off        70, 0
  70146  230.7431  2 Note Off        82, 0
  70334  231.3613  2 Note On         82, 110
  70334  231.3613  2 Note On         70, 110
  70386  231.5325  2 Note Off        70, 0
  70386  231.5325  2 Note Off        82, 0
  70492  231.8812  2 Note On         77, 110
  70492  231.8812  2 Note On         65, 110
  70545  232.0556  2 Note Off        65, 0
  70545  232.0556  2 Note Off        77, 0
  70612  232.2763  2 Note On         80, 110
  70612  232.2763  2 Note On         68, 110
  70664  232.4469  2 Note Off        68, 0
  70664  232.4469  2 Note Off        80, 0
  70731  232.6675  2 Note On         82, 110
  70731  232.6675  2 Note On         70, 110
  70785  232.8450  2 Note Off        70, 0
  70785  232.8450  2 Note Off        82, 0
  70970  233.4538  2 Note On         82, 110
  70970  233.4538  2 Note On         70, 110
  71024  233.6312  2 Note Off        70, 0
  71024  233.6312  2 Note Off        82, 0
  71130  233.9800  2 Note On         77, 110
  71130  233.9800  2 Note On         65, 110
  71182  234.1513  2 Note Off        65, 0
  71182  234.1513  2 Note Off        77, 0
  71249  234.3713  2 Note On         80, 110
  71249  234.3713  2 Note On         68, 110
  71303  234.5488  2 Note Off        68, 0
  71303  234.5488  2 Note Off        80, 0
  71370  234.7694  2 Note On         82, 110
  71370  234.7694  2 Note On         70, 110
  71421  234.9369  2 Note Off        70, 0
  71421  234.9369  2 Note Off        82, 0
  71607  235.5488  2 Note On         82, 110
  71607  235.5488  2 Note On         70, 110
  71661  235.7269  2 Note Off        70, 0
  71661  235.7269  2 Note Off        82, 0
  71767  236.0750  2 Note On         77, 110
  71767  236.0750  2 Note On         65, 110
  71820  236.2494  2 Note Off        65, 0
  71820  236.2494  2 Note Off        77, 0
  71887  236.4700  2 Note On         80, 110
  71887  236.4700  2 Note On         68, 110
  71939  236.6413  2 Note Off        68, 0
  71939  236.6413  2 Note Off        80, 0
  72006  236.8613  2 Note On         82, 110
  72006  236.8613  2 Note On         70, 110
  72060  237.0394  2 Note Off        70, 0
  72060  237.0394  2 Note Off        82, 0
  72245  237.6475  2 Note On         82, 110
  72245  237.6475  2 Note On         70, 110
  72297  237.8187  2 Note Off        70, 0
  72297  237.8187  2 Note Off        82, 0
  72405  238.1738  2 Note On         77, 110
  72405  238.1738  2 Note On         65, 110
  72457  238.3450  2 Note Off        65, 0
  72457  238.3450  2 Note Off        77, 0
  72524  238.5656  2 Note On         80, 110
  72524  238.5656  2 Note On         68, 110
  72578  238.7431  2 Note Off        68, 0
  72578  238.7431  2 Note Off        80, 0
  72642  238.9538  2 Note On         70, 110
  72642  238.9538  2 Note On         82, 110
  72722  239.2169  2 Note On         80, 60
  72722  239.2169  2 Note On         68, 60
  72735  239.2594  2 Note Off        82, 0
  72737  239.2663  2 Note On         78, 60
  72737  239.2663  2 Note On         66, 60
  72742  239.2825  2 Note Off        80, 0
  72742  239.2825  2 Note Off        68, 0
  72744  239.2894  2 Note Off        70, 0
  72755  239.3250  2 Note On         77, 60
  72755  239.3250  2 Note On         65, 60
  72757  239.3319  2 Note Off        78, 0
  72757  239.3319  2 Note Off        66, 0
  72765  239.3581  2 Note On         75, 60
  72765  239.3581  2 Note On         63, 60
  72770  239.3744  2 Note Off        77, 0
  72770  239.3744  2 Note Off        65, 0
  72776  239.3944  2 Note On         73, 60
  72776  239.3944  2 Note On         61, 60
  72778  239.4013  2 Note Off        75, 0
  72778  239.4013  2 Note Off        63, 0
  72787  239.4306  2 Note On         72, 60
  72787  239.4306  2 Note On         60, 60
  72789  239.4369  2 Note Off        73, 0
  72789  239.4369  2 Note Off        61, 0
  72793  239.4500  2 Note On         70, 60
  72793  239.4500  2 Note On         58, 60
  72798  239.4669  2 Note Off        72, 0
  72798  239.4669  2 Note Off        60, 0
  72824  239.5525  2 Note Off        70, 0
  72824  239.5525  2 Note Off        58, 0
  72824  239.5525 -- Meta Event      End Of Track
  72824  239.5525 -- Track           End: 4
      0    0.0000 -- Track           Start: 5
      0    0.0000 -- Forced channel  3
      0    0.0000  3 Control Change  7, 100
      0    0.0000  3 Program Change  81
    476    1.5656  3 Control Change  0, 0
    478    1.5725  3 Control Change  0, 0
    481    1.5825  3 Control Change  7, 100
    483    1.5888  3 Control Change  10, 64
    485    1.5956  3 Control Change  11, 115
    487    1.6019  3 Control Change  91, 70
    487    1.6019  3 Control Change  93, 0
    636    2.0919  3 Pitch Bend      -2432
    636    2.0919  3 Note On         77, 110
    647    2.1281  3 Pitch Bend      -2176
    653    2.1481  3 Pitch Bend      -1920
    660    2.1713  3 Pitch Bend      -1664
    668    2.1975  3 Pitch Bend      -1280
    675    2.2206  3 Pitch Bend      -640
    679    2.2338  3 Pitch Bend      0
    716    2.3550  3 Note Off        77, 0
    716    2.3550  3 Note On         75, 110
    742    2.4406  3 Note Off        75, 0
    796    2.6181  3 Note On         75, 110
    875    2.8781  3 Note Off        75, 0
    875    2.8781  3 Note On         73, 110
    901    2.9638  3 Note Off        73, 0
    955    3.1412  3 Note On         77, 110
   1061    3.4900  3 Note Off        77, 0
   1113    3.6612  3 Note On         70, 110
   1272    4.1844  3 Note Off        70, 0
   3184   10.4738  3 Pitch Bend      -2432
   3184   10.4738  3 Note On         77, 110
   3194   10.5069  3 Pitch Bend      -2176
   3201   10.5294  3 Pitch Bend      -1920
   3207   10.5494  3 Pitch Bend      -1664
   3216   10.5787  3 Pitch Bend      -1280
   3223   10.6019  3 Pitch Bend      -640
   3264   10.7369  3 Note Off        77, 0
   3264   10.7369  3 Pitch Bend      0
   3264   10.7369  3 Note On         75, 110
   3292   10.8287  3 Note Off        75, 0
   3343   10.9969  3 Note On         75, 110
   3423   11.2600  3 Note Off        75, 0
   3423   11.2600  3 Note On         73, 110
   3451   11.3519  3 Note Off        73, 0
   3503   11.5231  3 Note On         77, 110
   3609   11.8719  3 Note Off        77, 0
   3663   12.0494  3 Note On         70, 110
   3822   12.5725  3 Note Off        70, 0
   6133   20.1744  3 Note On         68, 110
   6172   20.3025  3 Note Off        68, 0
   6213   20.4375  3 Note On         70, 110
   6290   20.6906  3 Note Off        70, 0
   6290   20.6906  3 Note On         68, 110
   6327   20.8125  3 Note Off        68, 0
   6338   20.8487  3 Note On         70, 110
   6484   21.3287  3 Note Off        70, 0
   6491   21.3519  3 Note On         70, 110
   6512   21.4213  3 Pitch Bend      -1024
   6519   21.4438  3 Pitch Bend      -2560
   6521   21.4506  3 Pitch Bend      -4480
   6528   21.4737  3 Pitch Bend      -5632
   6534   21.4931  3 Pitch Bend      -8192
   6564   21.5919  3 Note Off        70, 0
   6584   21.6581  3 Pitch Bend      0
   7406   24.3619  3 Note On         68, 110
   7447   24.4969  3 Note Off        68, 0
   7485   24.6219  3 Note On         70, 110
   7565   24.8850  3 Note Off        70, 0
   7565   24.8850  3 Note On         68, 110
   7602   25.0063  3 Note Off        68, 0
   7613   25.0425  3 Note On         70, 110
   7757   25.5162  3 Note Off        70, 0
   7766   25.5463  3 Note On         70, 110
   7787   25.6150  3 Pitch Bend      -1024
   7794   25.6381  3 Pitch Bend      -2560
   7796   25.6450  3 Pitch Bend      -4480
   7800   25.6581  3 Pitch Bend      -5632
   7809   25.6875  3 Pitch Bend      -8192
   7837   25.7794  3 Note Off        70, 0
   7859   25.8519  3 Pitch Bend      0
   8284   27.2500  3 Pitch Bend      -2432
   8284   27.2500  3 Note On         77, 110
   8292   27.2763  3 Pitch Bend      -2176
   8299   27.2994  3 Pitch Bend      -1920
   8305   27.3188  3 Pitch Bend      -1664
   8314   27.3487  3 Pitch Bend      -1280
   8320   27.3681  3 Pitch Bend      -640
   8361   27.5031  3 Note Off        77, 0
   8361   27.5031  3 Pitch Bend      0
   8361   27.5031  3 Note On         75, 110
   8389   27.5956  3 Note Off        75, 0
   8441   27.7662  3 Note On         75, 110
   8521   28.0294  3 Note Off        75, 0
   8521   28.0294  3 Note On         73, 110
   8549   28.1219  3 Note Off        73, 0
   8601   28.2925  3 Note On         77, 110
   8706   28.6381  3 Note Off        77, 0
   8760   28.8156  3 Note On         70, 110
   8920   29.3419  3 Note Off        70, 0
  10831   35.6281  3 Pitch Bend      -2432
  10831   35.6281  3 Note On         77, 110
  10842   35.6644  3 Pitch Bend      -2176
  10849   35.6875  3 Pitch Bend      -1920
  10855   35.7069  3 Pitch Bend      -1664
  10864   35.7369  3 Pitch Bend      -1280
  10870   35.7563  3 Pitch Bend      -640
  10911   35.8912  3 Note Off        77, 0
  10911   35.8912  3 Pitch Bend      0
  10911   35.8912  3 Note On         75, 110
  10937   35.9769  3 Note Off        75, 0
  10991   36.1544  3 Note On         75, 110
  11071   36.4175  3 Note Off        75, 0
  11071   36.4175  3 Note On         73, 110
  11097   36.5031  3 Note Off        73, 0
  11151   36.6806  3 Note On         77, 110
  11256   37.0262  3 Note Off        77, 0
  11310   37.2037  3 Note On         70, 110
  11468   37.7238  3 Note Off        70, 0
  11867   39.0363  3 Note On         70, 110
  12026   39.5594  3 Note Off        70, 0
  12503   41.1281  3 Note On         70, 110
  12663   41.6544  3 Note Off        70, 0
  13142   43.2300  3 Note On         70, 110
  13301   43.7531  3 Note Off        70, 0
  13381   44.0162  3 Pitch Bend      -2432
  13381   44.0162  3 Note On         77, 110
  13390   44.0463  3 Pitch Bend      -2176
  13396   44.0656  3 Pitch Bend      -1920
  13403   44.0887  3 Pitch Bend      -1664
  13411   44.1150  3 Pitch Bend      -1280
  13418   44.1381  3 Pitch Bend      -640
  13424   44.1581  3 Pitch Bend      0
  13461   44.2794  3 Note Off        77, 0
  13461   44.2794  3 Note On         75, 110
  13487   44.3650  3 Note Off        75, 0
  13539   44.5363  3 Note On         75, 110
  13619   44.7994  3 Note Off        75, 0
  13619   44.7994  3 Note On         73, 110
  13647   44.8912  3 Note Off        73, 0
  13698   45.0594  3 Note On         77, 110
  13806   45.4144  3 Note Off        77, 0
  13858   45.5856  3 Note On         70, 110
  14018   46.1119  3 Note Off        70, 0
  14417   47.4244  3 Note On         70, 110
  14574   47.9406  3 Note Off        70, 0
  15053   49.5162  3 Note On         70, 110
  15213   50.0425  3 Note Off        70, 0
  15690   51.6119  3 Note On         70, 110
  15849   52.1350  3 Note Off        70, 0
  15929   52.3981  3 Pitch Bend      -2432
  15929   52.3981  3 Note On         77, 110
  15940   52.4344  3 Pitch Bend      -2176
  15946   52.4537  3 Pitch Bend      -1920
  15953   52.4769  3 Pitch Bend      -1664
  15961   52.5031  3 Pitch Bend      -1280
  15968   52.5262  3 Pitch Bend      -640
  15972   52.5394  3 Pitch Bend      0
  16009   52.6613  3 Note Off        77, 0
  16009   52.6613  3 Note On         75, 110
  16035   52.7469  3 Note Off        75, 0
  16089   52.9244  3 Note On         75, 110
  16168   53.1844  3 Note Off        75, 0
  16168   53.1844  3 Note On         73, 110
  16194   53.2694  3 Note Off        73, 0
  26405   86.8581  3 Note On         68, 110
  26519   87.2331  3 Note Off        68, 0
  26524   87.2500  3 Note On         68, 110
  26547   87.3256  3 Note Off        68, 0
  26603   87.5100  3 Note On         70, 110
  26763   88.0362  3 Note Off        70, 0
  27000   88.8156  3 Pitch Bend      0
  27039   88.9437  3 Pitch Bend      -3328
  27041   88.9506  3 Note On         77, 110
  27048   88.9737  3 Pitch Bend      -2816
  27054   88.9931  3 Pitch Bend      -2176
  27061   89.0162  3 Pitch Bend      -1280
  27067   89.0362  3 Pitch Bend      -512
  27069   89.0425  3 Pitch Bend      0
  27121   89.2138  3 Note Off        77, 0
  27121   89.2138  3 Note On         73, 110
  27160   89.3419  3 Note Off        73, 0
  27160   89.3419  3 Note On         75, 110
  27182   89.4144  3 Note Off        75, 0
  27240   89.6050  3 Note On         73, 110
  27399   90.1281  3 Note Off        73, 0
  27799   91.4437  3 Note On         68, 110
  27835   91.5625  3 Note Off        68, 0
  27837   91.5687  3 Note On         68, 110
  27874   91.6906  3 Note Off        68, 0
  27917   91.8319  3 Note On         68, 110
  28010   92.1381  3 Note Off        68, 0
  28036   92.2237  3 Note On         72, 110
  28144   92.5787  3 Note Off        72, 0
  28195   92.7469  3 Note On         72, 70
  28303   93.1019  3 Note Off        72, 0
  28355   93.2731  3 Note On         72, 50
  28461   93.6219  3 Note Off        72, 0
  28515   93.7994  3 Note On         72, 30
  28620   94.1444  3 Note Off        72, 0
  28633   94.1875  3 Note On         68, 110
  28674   94.3225  3 Note Off        68, 0
  28674   94.3225  3 Note On         70, 110
  28754   94.5856  3 Note Off        70, 0
  28754   94.5856  3 Note On         68, 110
  28806   94.7562  3 Note Off        68, 0
  28834   94.8487  3 Note On         70, 70
  28914   95.1119  3 Note Off        70, 0
  28914   95.1119  3 Note On         68, 70
  28966   95.2825  3 Note Off        68, 0
  28994   95.3750  3 Note On         70, 50
  29071   95.6281  3 Note Off        70, 0
  29071   95.6281  3 Note On         68, 50
  29125   95.8056  3 Note Off        68, 0
  29151   95.8912  3 Note On         70, 30
  29231   96.1544  3 Note Off        70, 0
  29231   96.1544  3 Note On         65, 110
  29268   96.2763  3 Note Off        65, 0
  29272   96.2894  3 Note On         65, 110
  29304   96.3944  3 Note Off        65, 0
  29311   96.4175  3 Note On         68, 110
  29347   96.5362  3 Note Off        68, 0
  29352   96.5525  3 Note On         68, 110
  29427   96.7994  3 Note Off        68, 0
  29432   96.8156  3 Note On         68, 110
  29507   97.0625  3 Note Off        68, 0
  29511   97.0756  3 Note On         68, 110
  29589   97.3319  3 Note Off        68, 0
  29589   97.3319  3 Note On         70, 110
  29630   97.4669  3 Note Off        70, 0
  29949   98.5162  3 Note On         68, 110
  29986   98.6381  3 Note Off        68, 0
  29988   98.6444  3 Note On         68, 110
  30064   98.8944  3 Note Off        68, 0
  30068   98.9075  3 Note On         68, 110
  30144   99.1575  3 Note Off        68, 0
  30148   99.1706  3 Note On         68, 110
  30228   99.4338  3 Note Off        68, 0
  30228   99.4338  3 Note On         72, 110
  30387   99.9569  3 Note Off        72, 0
  30426  100.0856  3 Note On         68, 110
  30547  100.4831  3 Note Off        68, 0
  30586  100.6119  3 Note On         72, 110
  30704  101.0000  3 Note Off        72, 0
  30745  101.1350  3 Note On         72, 70
  30851  101.4831  3 Note Off        72, 0
  30905  101.6612  3 Note On         72, 50
  31011  102.0100  3 Note Off        72, 0
  31065  102.1875  3 Note On         72, 30
  31170  102.5325  3 Note Off        72, 0
  31222  102.7037  3 Pitch Bend      -3456
  31222  102.7037  3 Note On         67, 110
  31222  102.7037  3 Note On         72, 110
  31222  102.7037  3 Note On         75, 110
  31229  102.7269  3 Pitch Bend      -3200
  31237  102.7531  3 Pitch Bend      -2816
  31246  102.7825  3 Pitch Bend      -2432
  31250  102.7956  3 Pitch Bend      -2048
  31259  102.8256  3 Pitch Bend      -1536
  31261  102.8319  3 Pitch Bend      -1024
  31367  103.1806  3 Pitch Bend      0
  31373  103.2006  3 Pitch Bend      -1152
  31377  103.2138  3 Pitch Bend      -2816
  31388  103.2500  3 Pitch Bend      -6016
  31395  103.2731  3 Pitch Bend      -8192
  31503  103.6281  3 Note Off        75, 0
  31503  103.6281  3 Note Off        72, 0
  31503  103.6281  3 Note Off        67, 0
  31701  104.2794  3 Pitch Bend      0
  31781  104.5425  3 Note On         68, 110
  31818  104.6644  3 Note Off        68, 0
  31820  104.6706  3 Note On         68, 110
  31856  104.7894  3 Note Off        68, 0
  31861  104.8056  3 Note On         68, 110
  31936  105.0525  3 Note Off        68, 0
  31941  105.0687  3 Note On         68, 110
  31977  105.1875  3 Note Off        68, 0
  31979  105.1937  3 Note On         68, 110
  32057  105.4506  3 Note Off        68, 0
  32059  105.4569  3 Note On         68, 110
  32135  105.7069  3 Note Off        68, 0
  32139  105.7200  3 Note On         70, 110
  32219  105.9831  3 Note Off        70, 0
  32497  106.8981  3 Note On         68, 110
  32575  107.1544  3 Note Off        68, 0
  32577  107.1612  3 Note On         68, 110
  32614  107.2825  3 Note Off        68, 0
  32618  107.2956  3 Note On         68, 110
  32693  107.5425  3 Note Off        68, 0
  32696  107.5525  3 Note On         68, 110
  32760  107.7631  3 Pitch Bend      0
  32762  107.7694  3 Note Off        68, 0
  32775  107.8125  3 Pitch Bend      -3456
  32775  107.8125  3 Note On         72, 110
  32782  107.8356  3 Pitch Bend      -2816
  32799  107.8912  3 Pitch Bend      0
  32896  108.2106  3 Note Off        72, 0
  32896  108.2106  3 Note On         68, 110
  33136  109.0000  3 Note Off        68, 0
  35047  115.2862  3 Pitch Bend      -2432
  35047  115.2862  3 Note On         77, 110
  35056  115.3156  3 Pitch Bend      -2176
  35062  115.3356  3 Pitch Bend      -1920
  35069  115.3581  3 Pitch Bend      -1664
  35077  115.3850  3 Pitch Bend      -1280
  35084  115.4075  3 Pitch Bend      -640
  35127  115.5494  3 Note Off        77, 0
  35127  115.5494  3 Pitch Bend      0
  35127  115.5494  3 Note On         75, 110
  35153  115.6350  3 Note Off        75, 0
  35207  115.8125  3 Note On         75, 110
  35284  116.0656  3 Note Off        75, 0
  35284  116.0656  3 Note On         73, 110
  35312  116.1575  3 Note Off        73, 0
  35364  116.3287  3 Note On         77, 110
  35472  116.6838  3 Note Off        77, 0
  35524  116.8550  3 Note On         70, 110
  35683  117.3781  3 Note Off        70, 0
  35683  117.3781  3 Note On         68, 110
  35724  117.5131  3 Note Off        68, 0
  35724  117.5131  3 Note On         70, 110
  35789  117.7269  3 Note Off        70, 0
  35802  117.7694  3 Note On         73, 110
  35869  117.9900  3 Note Off        73, 0
  35882  118.0325  3 Note On         75, 110
  35923  118.1675  3 Note Off        75, 0
  36162  118.9537  3 Note On         68, 110
  36201  119.0819  3 Note Off        68, 0
  36242  119.2169  3 Note On         68, 110
  36281  119.3450  3 Note Off        68, 0
  36320  119.4737  3 Note On         68, 110
  36361  119.6081  3 Note Off        68, 0
  36361  119.6081  3 Note On         70, 110
  36428  119.8287  3 Note Off        70, 0
  36441  119.8713  3 Note On         73, 110
  36508  120.0919  3 Note Off        73, 0
  36520  120.1312  3 Note On         75, 110
  36559  120.2600  3 Note Off        75, 0
  36799  121.0494  3 Note On         68, 110
  36838  121.1775  3 Note Off        68, 0
  36879  121.3125  3 Note On         68, 110
  36917  121.4375  3 Note Off        68, 0
  36958  121.5719  3 Note On         68, 110
  36997  121.7006  3 Note Off        68, 0
  36997  121.7006  3 Note On         70, 110
  37064  121.9206  3 Note Off        70, 0
  37077  121.9638  3 Note On         73, 110
  37144  122.1838  3 Note Off        73, 0
  37157  122.2269  3 Note On         75, 110
  37198  122.3619  3 Note Off        75, 0
  37278  122.6250  3 Note On         68, 110
  37317  122.7531  3 Note Off        68, 0
  37317  122.7531  3 Note On         70, 110
  37383  122.9700  3 Note Off        70, 0
  37396  123.0131  3 Note On         73, 110
  37463  123.2331  3 Note Off        73, 0
  37476  123.2763  3 Note On         75, 110
  37515  123.4044  3 Note Off        75, 0
  37595  123.6675  3 Note On         68, 110
  37636  123.8025  3 Note Off        68, 0
  37636  123.8025  3 Note On         70, 110
  37701  124.0162  3 Note Off        70, 0
  37716  124.0656  3 Note On         73, 110
  37780  124.2763  3 Note Off        73, 0
  37795  124.3256  3 Note On         75, 110
  37834  124.4537  3 Note Off        75, 0
  37914  124.7169  3 Note On         77, 110
  37994  124.9800  3 Note On         73, 80
  38020  125.0656  3 Note Off        73, 0
  38026  125.0856  3 Note Off        77, 0
  38033  125.1081  3 Note On         75, 110
  38113  125.3713  3 Note On         70, 80
  38132  125.4338  3 Note Off        70, 0
  38141  125.4638  3 Note Off        75, 0
  38154  125.5062  3 Note On         73, 110
  38218  125.7169  3 Note Off        73, 0
  38233  125.7662  3 Note On         68, 110
  38272  125.8944  3 Note Off        68, 0
  38272  125.8944  3 Note On         70, 110
  38339  126.1150  3 Note Off        70, 0
  38352  126.1575  3 Note On         73, 110
  38419  126.3781  3 Note Off        73, 0
  38432  126.4206  3 Note On         75, 110
  38471  126.5494  3 Note Off        75, 0
  38710  127.3356  3 Note On         68, 110
  38751  127.4700  3 Note Off        68, 0
  38790  127.5987  3 Note On         68, 110
  38831  127.7331  3 Note Off        68, 0
  38870  127.8619  3 Note On         68, 110
  38909  127.9900  3 Note Off        68, 0
  38909  127.9900  3 Note On         70, 110
  38976  128.2106  3 Note Off        70, 0
  38988  128.2500  3 Note On         73, 110
  39055  128.4700  3 Note Off        73, 0
  39068  128.5131  3 Note On         75, 110
  39109  128.6481  3 Note Off        75, 0
  39349  129.4375  3 Note On         68, 110
  39388  129.5656  3 Note Off        68, 0
  39426  129.6906  3 Note On         68, 110
  39467  129.8256  3 Note Off        68, 0
  39506  129.9538  3 Note On         68, 110
  39547  130.0888  3 Note Off        68, 0
  39547  130.0888  3 Note On         70, 110
  39614  130.3088  3 Note Off        70, 0
  39627  130.3519  3 Note On         73, 110
  39694  130.5719  3 Note Off        73, 0
  39707  130.6150  3 Note On         75, 110
  39746  130.7431  3 Note Off        75, 0
  39825  131.0031  3 Note On         77, 110
  39905  131.2663  3 Note On         73, 80
  39931  131.3519  3 Note Off        73, 0
  39938  131.3750  3 Note Off        77, 0
  39944  131.3944  3 Note On         75, 110
  40024  131.6575  3 Note On         70, 80
  40046  131.7300  3 Note Off        70, 0
  40052  131.7500  3 Note Off        75, 0
  40065  131.7925  3 Note On         73, 110
  40132  132.0131  3 Note Off        73, 0
  40145  132.0556  3 Note On         68, 110
  40184  132.1838  3 Note Off        68, 0
  40184  132.1838  3 Note On         70, 110
  40250  132.4013  3 Note Off        70, 0
  40263  132.4437  3 Note On         73, 110
  40330  132.6644  3 Note Off        73, 0
  40343  132.7069  3 Note On         75, 110
  40384  132.8419  3 Note Off        75, 0
  40462  133.0987  3 Note On         77, 110
  40542  133.3619  3 Note On         73, 80
  40570  133.4538  3 Note Off        73, 0
  40576  133.4737  3 Note Off        77, 0
  40583  133.4963  3 Note On         75, 110
  40663  133.7594  3 Note On         70, 80
  40682  133.8219  3 Note Off        70, 0
  40688  133.8419  3 Note Off        75, 0
  40701  133.8844  3 Note On         73, 110
  40768  134.1050  3 Note Off        73, 0
  40781  134.1481  3 Note On         68, 110
  40822  134.2825  3 Note Off        68, 0
  40822  134.2825  3 Note On         70, 110
  40887  134.4963  3 Note Off        70, 0
  40902  134.5456  3 Note On         73, 110
  40967  134.7594  3 Note Off        73, 0
  40980  134.8025  3 Note On         75, 110
  41021  134.9375  3 Note Off        75, 0
  41420  136.2500  3 Note On         68, 110
  41459  136.3781  3 Note Off        68, 0
  41459  136.3781  3 Note On         70, 110
  41525  136.5950  3 Note Off        70, 0
  41538  136.6381  3 Note On         73, 110
  41605  136.8581  3 Note Off        73, 0
  41618  136.9013  3 Note On         75, 110
  41657  137.0294  3 Note Off        75, 0
  42056  138.3419  3 Note On         68, 110
  42095  138.4700  3 Note Off        68, 0
  42095  138.4700  3 Note On         70, 110
  42162  138.6906  3 Note Off        70, 0
  42175  138.7331  3 Note On         73, 110
  42242  138.9538  3 Note Off        73, 0
  42255  138.9963  3 Note On         75, 110
  42296  139.1312  3 Note Off        75, 0
  42375  139.3913  3 Note On         68, 110
  42414  139.5194  3 Note Off        68, 0
  42414  139.5194  3 Note On         70, 110
  42481  139.7400  3 Note Off        70, 0
  42494  139.7825  3 Note On         73, 110
  42561  140.0031  3 Note Off        73, 0
  42574  140.0456  3 Note On         75, 110
  42613  140.1744  3 Note Off        75, 0
  42693  140.4375  3 Note On         68, 110
  42734  140.5719  3 Note Off        68, 0
  42734  140.5719  3 Note On         70, 110
  42800  140.7894  3 Note Off        70, 0
  42813  140.8319  3 Note On         73, 110
  42878  141.0456  3 Note Off        73, 0
  42893  141.0950  3 Note On         75, 110
  42932  141.2237  3 Note Off        75, 0
  42973  141.3581  3 Note On         77, 110
  43012  141.4869  3 Note Off        77, 0
  43051  141.6150  3 Note On         73, 110
  43098  141.7694  3 Note Off        73, 0
  43130  141.8750  3 Note On         70, 110
  43171  142.0094  3 Note Off        70, 0
  43171  142.0094  3 Note On         73, 110
  43212  142.1444  3 Note Off        73, 0
  43251  142.2731  3 Note On         70, 110
  43288  142.3944  3 Note Off        70, 0
  43290  142.4013  3 Note On         73, 110
  43329  142.5294  3 Note Off        73, 0
  43331  142.5362  3 Note On         68, 110
  43370  142.6644  3 Note Off        68, 0
  43370  142.6644  3 Note On         70, 110
  43437  142.8844  3 Note Off        70, 0
  43450  142.9275  3 Note On         73, 110
  43517  143.1475  3 Note Off        73, 0
  43530  143.1906  3 Note On         75, 110
  43568  143.3156  3 Note Off        75, 0
  43607  143.4437  3 Pitch Bend      -1536
  43609  143.4506  3 Note On         77, 110
  43620  143.4869  3 Pitch Bend      -1280
  43627  143.5094  3 Pitch Bend      -768
  43665  143.6344  3 Note Off        77, 0
  43665  143.6344  3 Pitch Bend      0
  43689  143.7138  3 Note On         73, 110
  43735  143.8650  3 Note Off        73, 0
  43769  143.9769  3 Note On         70, 110
  43808  144.1050  3 Note Off        70, 0
  43808  144.1050  3 Note On         73, 110
  43849  144.2400  3 Note Off        73, 0
  43888  144.3681  3 Note On         70, 110
  43924  144.4869  3 Note Off        70, 0
  43929  144.5031  3 Note On         73, 100
  43965  144.6213  3 Note Off        73, 0
  44008  144.7631  3 Note On         70, 90
  44047  144.8913  3 Note Off        70, 0
  44047  144.8913  3 Note On         73, 96
  44088  145.0263  3 Note Off        73, 0
  44127  145.1544  3 Note On         70, 80
  44164  145.2763  3 Note Off        70, 0
  44166  145.2825  3 Note On         73, 90
  44205  145.4112  3 Note Off        73, 0
  44246  145.5456  3 Note On         70, 80
  44285  145.6744  3 Note Off        70, 0
  44287  145.6806  3 Note On         73, 100
  44326  145.8088  3 Note Off        73, 0
  44326  145.8088  3 Note On         75, 110
  44367  145.9437  3 Note Off        75, 0
  44405  146.0687  3 Note On         77, 110
  44453  146.2269  3 Note Off        77, 0
  44485  146.3319  3 Note On         73, 110
  44528  146.4737  3 Note Off        73, 0
  44565  146.5950  3 Note On         70, 110
  44604  146.7237  3 Pitch Bend      0
  44645  146.8581  3 Note Off        70, 0
  44645  146.8581  3 Note On         65, 110
  44684  146.9869  3 Note Off        65, 0
  44725  147.1213  3 Note On         61, 90
  44764  147.2500  3 Note Off        61, 0
  44764  147.2500  3 Note On         63, 110
  44796  147.3550  3 Note Off        63, 0
  44843  147.5094  3 Note On         63, 90
  44876  147.6181  3 Note Off        63, 0
  44923  147.7725  3 Note On         63, 109
  44949  147.8581  3 Pitch Bend      0
  44956  147.8812  3 Pitch Bend      1664
  44960  147.8944  3 Pitch Bend      3840
  44964  147.9075  3 Pitch Bend      7168
  44990  147.9931  3 Pitch Bend      5632
  44992  148.0000  3 Pitch Bend      4096
  45001  148.0294  3 Note Off        63, 0
  45038  148.1513  3 Pitch Bend      0
  45044  148.1706  3 Note On         61, 101
  45083  148.2994  3 Note Off        61, 0
  45122  148.4275  3 Note On         58, 91
  45223  148.7594  3 Pitch Bend      -512
  45230  148.7825  3 Pitch Bend      -1280
  45236  148.8025  3 Pitch Bend      -2048
  45242  148.8219  3 Note Off        58, 0
  45242  148.8219  3 Pitch Bend      -2432
  45242  148.8219  3 Note On         77, 110
  45251  148.8519  3 Pitch Bend      -2176
  45260  148.8812  3 Pitch Bend      -1920
  45266  148.9013  3 Pitch Bend      -1664
  45273  148.9244  3 Pitch Bend      -1280
  45281  148.9506  3 Pitch Bend      -640
  45322  149.0850  3 Note Off        77, 0
  45322  149.0850  3 Pitch Bend      0
  45322  149.0850  3 Note On         75, 110
  45348  149.1706  3 Note Off        75, 0
  45402  149.3487  3 Note On         75, 110
  45482  149.6119  3 Note Off        75, 0
  45482  149.6119  3 Note On         73, 110
  45508  149.6969  3 Note Off        73, 0
  45562  149.8750  3 Note On         77, 110
  45667  150.2200  3 Note Off        77, 0
  45719  150.3913  3 Note On         70, 110
  45879  150.9175  3 Note Off        70, 0
  45879  150.9175  3 Note On         68, 110
  45920  151.0525  3 Note Off        68, 0
  45920  151.0525  3 Note On         70, 110
  45985  151.2663  3 Note Off        70, 0
  46000  151.3156  3 Note On         73, 110
  46064  151.5263  3 Note Off        73, 0
  46080  151.5788  3 Note On         75, 110
  46118  151.7038  3 Note Off        75, 0
  46157  151.8319  3 Note On         77, 110
  46198  151.9669  3 Note Off        77, 0
  46237  152.0950  3 Note On         73, 110
  46284  152.2500  3 Note Off        73, 0
  46317  152.3581  3 Note On         70, 110
  46358  152.4931  3 Note Off        70, 0
  46358  152.4931  3 Note On         73, 110
  46399  152.6281  3 Note Off        73, 0
  46438  152.7562  3 Note On         70, 110
  46474  152.8750  3 Note Off        70, 0
  46476  152.8812  3 Note On         73, 110
  46515  153.0094  3 Note Off        73, 0
  46556  153.1444  3 Note On         70, 90
  46597  153.2794  3 Note Off        70, 0
  46597  153.2794  3 Note On         73, 100
  46638  153.4144  3 Note Off        73, 0
  46675  153.5362  3 Note On         70, 80
  46712  153.6575  3 Note Off        70, 0
  46716  153.6706  3 Note On         73, 90
  46755  153.7994  3 Note Off        73, 0
  46835  154.0625  3 Note On         73, 110
  46876  154.1969  3 Note Off        73, 0
  46876  154.1969  3 Note On         75, 110
  46914  154.3219  3 Note Off        75, 0
  46955  154.4569  3 Note On         77, 110
  47001  154.6081  3 Note Off        77, 0
  47035  154.7200  3 Note On         73, 110
  47115  154.9831  3 Note Off        73, 0
  47154  155.1119  3 Note On         68, 110
  47193  155.2400  3 Note Off        68, 0
  47193  155.2400  3 Note On         70, 110
  47260  155.4600  3 Note Off        70, 0
  47272  155.5000  3 Note On         73, 110
  47339  155.7200  3 Note Off        73, 0
  47352  155.7631  3 Note On         75, 110
  47393  155.8975  3 Note Off        75, 0
  47430  156.0194  3 Pitch Bend      -1536
  47432  156.0263  3 Note On         77, 110
  47443  156.0625  3 Pitch Bend      -1280
  47449  156.0819  3 Pitch Bend      -768
  47452  156.0919  3 Pitch Bend      0
  47488  156.2100  3 Note Off        77, 0
  47512  156.2894  3 Note On         73, 110
  47559  156.4437  3 Note Off        73, 0
  47592  156.5525  3 Note On         70, 110
  47633  156.6875  3 Note Off        70, 0
  47633  156.6875  3 Note On         73, 110
  47674  156.8219  3 Note Off        73, 0
  47710  156.9406  3 Note On         70, 110
  47747  157.0625  3 Note Off        70, 0
  47751  157.0756  3 Note On         73, 100
  47790  157.2038  3 Note Off        73, 0
  47831  157.3388  3 Note On         70, 90
  47870  157.4669  3 Note Off        70, 0
  47870  157.4669  3 Note On         73, 96
  47913  157.6081  3 Note Off        73, 0
  47950  157.7300  3 Note On         70, 80
  47987  157.8519  3 Note Off        70, 0
  47991  157.8650  3 Note On         73, 90
  48028  157.9869  3 Note Off        73, 0
  48071  158.1281  3 Note On         70, 80
  48107  158.2463  3 Note Off        70, 0
  48110  158.2562  3 Note On         73, 100
  48151  158.3913  3 Note Off        73, 0
  48151  158.3913  3 Note On         75, 110
  48189  158.5163  3 Note Off        75, 0
  48228  158.6444  3 Note On         77, 110
  48276  158.8025  3 Note Off        77, 0
  48308  158.9075  3 Note On         73, 110
  48351  159.0494  3 Note Off        73, 0
  48388  159.1706  3 Note On         70, 110
  48429  159.3056  3 Pitch Bend      0
  48468  159.4338  3 Note Off        70, 0
  48468  159.4338  3 Note On         65, 110
  48509  159.5687  3 Note Off        65, 0
  48547  159.6937  3 Note On         61, 90
  48588  159.8288  3 Note Off        61, 0
  48588  159.8288  3 Note On         63, 110
  48619  159.9306  3 Note Off        63, 0
  48668  160.0919  3 Note On         63, 90
  48698  160.1906  3 Note Off        63, 0
  48746  160.3487  3 Note On         63, 109
  48774  160.4406  3 Pitch Bend      0
  48778  160.4538  3 Pitch Bend      1664
  48783  160.4700  3 Pitch Bend      3840
  48787  160.4831  3 Pitch Bend      7168
  48813  160.5687  3 Pitch Bend      5632
  48817  160.5819  3 Pitch Bend      4096
  48824  160.6050  3 Note Off        63, 0
  48862  160.7300  3 Pitch Bend      0
  48867  160.7463  3 Note On         61, 101
  48906  160.8750  3 Note Off        61, 0
  48947  161.0094  3 Note On         58, 91
  49046  161.3350  3 Pitch Bend      -512
  49052  161.3550  3 Pitch Bend      -1280
  49059  161.3781  3 Pitch Bend      -2048
  49065  161.3975  3 Note Off        58, 0
  49065  161.3975  3 Pitch Bend      -2432
  49065  161.3975  3 Note On         77, 110
  49076  161.4338  3 Pitch Bend      -2176
  49082  161.4538  3 Pitch Bend      -1920
  49089  161.4769  3 Pitch Bend      -1664
  49098  161.5062  3 Pitch Bend      -1280
  49104  161.5263  3 Pitch Bend      -640
  49145  161.6612  3 Note Off        77, 0
  49145  161.6612  3 Pitch Bend      0
  49145  161.6612  3 Note On         75, 110
  49171  161.7463  3 Note Off        75, 0
  49225  161.9244  3 Note On         75, 110
  49305  162.1875  3 Note Off        75, 0
  49305  162.1875  3 Note On         73, 110
  49331  162.2725  3 Note Off        73, 0
  49384  162.4469  3 Note On         77, 110
  49490  162.7956  3 Note Off        77, 0
  49544  162.9737  3 Note On         70, 110
  49704  163.5000  3 Note Off        70, 0
  60177  197.9506  3 Note On         68, 110
  60294  198.3350  3 Note Off        68, 0
  60296  198.3419  3 Note On         68, 110
  60320  198.4206  3 Note Off        68, 0
  60376  198.6050  3 Note On         70, 110
  60536  199.1312  3 Note Off        70, 0
  60775  199.9175  3 Pitch Bend      0
  60814  200.0456  3 Pitch Bend      -3328
  60814  200.0456  3 Note On         77, 110
  60820  200.0656  3 Pitch Bend      -2816
  60835  200.1150  3 Pitch Bend      -1280
  60842  200.1381  3 Pitch Bend      -512
  60894  200.3088  3 Note Off        77, 0
  60894  200.3088  3 Pitch Bend      0
  60894  200.3088  3 Note On         73, 110
  60935  200.4437  3 Note Off        73, 0
  60935  200.4437  3 Note On         75, 110
  60954  200.5062  3 Note Off        75, 0
  61015  200.7069  3 Note On         73, 110
  61172  201.2231  3 Note Off        73, 0
  61731  203.0625  3 Note On         70, 110
  61770  203.1906  3 Note Off        70, 0
  61811  203.3256  3 Note On         77, 110
  61890  203.5850  3 Note Off        77, 0
  61890  203.5850  3 Note On         75, 110
  61916  203.6706  3 Note Off        75, 0
  61970  203.8481  3 Note On         73, 110
  62050  204.1113  3 Note Off        73, 0
  62050  204.1113  3 Note On         75, 110
  62076  204.1969  3 Note Off        75, 0
  62130  204.3750  3 Note On         77, 110
  62236  204.7231  3 Note Off        77, 0
  63086  207.5194  3 Pitch Bend      -2432
  63086  207.5194  3 Note On         77, 110
  63094  207.5456  3 Pitch Bend      -2176
  63101  207.5687  3 Pitch Bend      -1920
  63107  207.5888  3 Pitch Bend      -1664
  63116  207.6181  3 Pitch Bend      -1280
  63122  207.6381  3 Pitch Bend      -640
  63129  207.6606  3 Pitch Bend      0
  63165  207.7794  3 Note Off        77, 0
  63165  207.7794  3 Note On         75, 110
  63191  207.8650  3 Note Off        75, 0
  63243  208.0356  3 Note On         75, 110
  63323  208.2988  3 Note Off        75, 0
  63323  208.2988  3 Note On         73, 110
  63351  208.3913  3 Note Off        73, 0
  63403  208.5619  3 Note On         77, 110
  63511  208.9175  3 Note Off        77, 0
  63562  209.0850  3 Note On         70, 110
  63722  209.6113  3 Note Off        70, 0
  64358  211.7038  3 Pitch Bend      -2432
  64358  211.7038  3 Note On         77, 110
  64369  211.7400  3 Pitch Bend      -2176
  64376  211.7631  3 Pitch Bend      -1920
  64382  211.7825  3 Pitch Bend      -1664
  64391  211.8119  3 Pitch Bend      -1280
  64397  211.8319  3 Pitch Bend      -640
  64401  211.8450  3 Pitch Bend      0
  64438  211.9669  3 Note Off        77, 0
  64438  211.9669  3 Note On         75, 110
  64466  212.0588  3 Note Off        75, 0
  64518  212.2300  3 Note On         75, 110
  64598  212.4931  3 Note Off        75, 0
  64598  212.4931  3 Note On         73, 110
  64624  212.5788  3 Note Off        73, 0
  64678  212.7562  3 Note On         77, 110
  64783  213.1019  3 Note Off        77, 0
  64837  213.2794  3 Note On         70, 110
  64997  213.8056  3 Note Off        70, 0
  65633  215.8975  3 Pitch Bend      -2432
  65633  215.8975  3 Note On         77, 110
  65644  215.9338  3 Pitch Bend      -2176
  65651  215.9569  3 Pitch Bend      -1920
  65657  215.9769  3 Pitch Bend      -1664
  65666  216.0062  3 Pitch Bend      -1280
  65672  216.0263  3 Pitch Bend      -640
  65676  216.0394  3 Pitch Bend      0
  65713  216.1606  3 Note Off        77, 0
  65713  216.1606  3 Note On         75, 110
  65739  216.2463  3 Note Off        75, 0
  65793  216.4238  3 Note On         75, 110
  65873  216.6869  3 Note Off        75, 0
  65873  216.6869  3 Note On         73, 110
  65899  216.7725  3 Note Off        73, 0
  65953  216.9506  3 Note On         77, 110
  66058  217.2956  3 Note Off        77, 0
  66112  217.4731  3 Note On         70, 110
  66272  217.9994  3 Note Off        70, 0
  66908  220.0919  3 Pitch Bend      -2432
  66908  220.0919  3 Note On         77, 110
  66919  220.1281  3 Pitch Bend      -2176
  66926  220.1513  3 Pitch Bend      -1920
  66932  220.1706  3 Pitch Bend      -1664
  66941  220.2006  3 Pitch Bend      -1280
  66947  220.2200  3 Pitch Bend      -640
  66951  220.2331  3 Pitch Bend      0
  66988  220.3550  3 Note Off        77, 0
  66988  220.3550  3 Note On         75, 110
  67014  220.4406  3 Note Off        75, 0
  67068  220.6181  3 Note On         75, 110
  67148  220.8812  3 Note Off        75, 0
  67148  220.8812  3 Note On         73, 110
  67174  220.9669  3 Note Off        73, 0
  67307  221.4044  3 Note On         68, 110
  67342  221.5194  3 Note Off        68, 0
  67346  221.5325  3 Note On         68, 110
  67383  221.6544  3 Note Off        68, 0
  67426  221.7956  3 Note On         68, 110
  67519  222.1019  3 Note Off        68, 0
  67545  222.1869  3 Note On         72, 110
  67653  222.5425  3 Note Off        72, 0
  67704  222.7100  3 Note On         72, 70
  67810  223.0588  3 Note Off        72, 0
  67864  223.2363  3 Note On         72, 50
  67970  223.5850  3 Note Off        72, 0
  68024  223.7631  3 Note On         72, 30
  68129  224.1081  3 Note Off        72, 0
  68142  224.1513  3 Note On         68, 110
  68183  224.2856  3 Note Off        68, 0
  68183  224.2856  3 Note On         70, 110
  68263  224.5488  3 Note Off        70, 0
  68263  224.5488  3 Note On         68, 110
  68315  224.7200  3 Note Off        68, 0
  68343  224.8119  3 Note On         70, 70
  68421  225.0687  3 Note Off        70, 0
  68421  225.0687  3 Note On         68, 70
  68474  225.2431  3 Note Off        68, 0
  68500  225.3288  3 Note On         70, 50
  68580  225.5919  3 Note Off        70, 0
  68580  225.5919  3 Note On         68, 50
  68634  225.7694  3 Note Off        68, 0
  68660  225.8550  3 Note On         70, 30
  68740  226.1181  3 Note Off        70, 0
  68740  226.1181  3 Note On         65, 110
  68776  226.2363  3 Note Off        65, 0
  68781  226.2531  3 Note On         65, 110
  68813  226.3581  3 Note Off        65, 0
  68820  226.3812  3 Note On         68, 110
  68856  226.4994  3 Note Off        68, 0
  68861  226.5163  3 Note On         68, 110
  68936  226.7631  3 Note Off        68, 0
  68938  226.7694  3 Note On         68, 110
  69016  227.0263  3 Note Off        68, 0
  69018  227.0325  3 Note On         68, 110
  69098  227.2956  3 Note Off        68, 0
  69098  227.2956  3 Note On         70, 110
  69139  227.4306  3 Note Off        70, 0
  69456  228.4731  3 Note On         68, 110
  69493  228.5950  3 Note Off        68, 0
  69497  228.6081  3 Note On         68, 110
  69573  228.8581  3 Note Off        68, 0
  69577  228.8713  3 Note On         68, 110
  69650  229.1113  3 Note Off        68, 0
  69657  229.1344  3 Note On         68, 110
  69736  229.3944  3 Note Off        68, 0
  69736  229.3944  3 Note On         72, 110
  69896  229.9206  3 Note Off        72, 0
  69935  230.0488  3 Note On         68, 110
  70054  230.4406  3 Note Off        68, 0
  70095  230.5750  3 Note On         72, 110
  70213  230.9638  3 Note Off        72, 0
  70254  231.0981  3 Note On         72, 70
  70360  231.4469  3 Note Off        72, 0
  70414  231.6244  3 Note On         72, 50
  70520  231.9731  3 Note Off        72, 0
  70571  232.1413  3 Note On         72, 30
  70679  232.4963  3 Note Off        72, 0
  70731  232.6675  3 Pitch Bend      -3456
  70731  232.6675  3 Note On         67, 110
  70731  232.6675  3 Note On         72, 110
  70731  232.6675  3 Note On         75, 110
  70737  232.6869  3 Pitch Bend      -3200
  70746  232.7169  3 Pitch Bend      -2816
  70755  232.7463  3 Pitch Bend      -2432
  70759  232.7594  3 Pitch Bend      -2048
  70766  232.7825  3 Pitch Bend      -1536
  70770  232.7956  3 Pitch Bend      -1024
  70876  233.1444  3 Pitch Bend      0
  70880  233.1575  3 Pitch Bend      -1152
  70886  233.1775  3 Pitch Bend      -2816
  70891  233.1937  3 Pitch Bend      -4608
  70897  233.2138  3 Pitch Bend      -6016
  70904  233.2363  3 Pitch Bend      -8192
  71009  233.5819  3 Note Off        75, 0
  71009  233.5819  3 Note Off        72, 0
  71009  233.5819  3 Note Off        67, 0
  71210  234.2431  3 Pitch Bend      0
  71290  234.5062  3 Note On         68, 110
  71326  234.6244  3 Note Off        68, 0
  71329  234.6344  3 Note On         68, 110
  71365  234.7531  3 Note Off        68, 0
  71370  234.7694  3 Note On         68, 110
  71445  235.0163  3 Note Off        68, 0
  71449  235.0294  3 Note On         68, 110
  71484  235.1444  3 Note Off        68, 0
  71488  235.1575  3 Note On         68, 110
  71564  235.4075  3 Note Off        68, 0
  71568  235.4206  3 Note On         68, 110
  71644  235.6706  3 Note Off        68, 0
  71648  235.6838  3 Note On         70, 110
  71728  235.9469  3 Note Off        70, 0
  72006  236.8613  3 Note On         68, 110
  72081  237.1081  3 Note Off        68, 0
  72086  237.1244  3 Note On         68, 110
  72122  237.2431  3 Note Off        68, 0
  72125  237.2531  3 Note On         68, 110
  72202  237.5062  3 Note Off        68, 0
  72204  237.5125  3 Note On         68, 110
  72284  237.7763  3 Note Off        68, 0
  72284  237.7763  3 Note On         72, 110
  72405  238.1738  3 Note Off        72, 0
  72405  238.1738  3 Note On         68, 110
  72642  238.9538  3 Note Off        68, 0
  72642  238.9538  3 Note On         68, 110
  72683  239.0888  3 Note Off        68, 0
  72683  239.0888  3 Note On         70, 110
  72750  239.3088  3 Note Off        70, 0
  72763  239.3519  3 Note On         73, 110
  72830  239.5719  3 Note Off        73, 0
  72843  239.6150  3 Note On         75, 110
  72882  239.7431  3 Note Off        75, 0
  72921  239.8713  3 Pitch Bend      -1536
  72923  239.8781  3 Note On         77, 110
  72931  239.9044  3 Pitch Bend      -1280
  72938  239.9275  3 Pitch Bend      -768
  72942  239.9406  3 Pitch Bend      0
  72979  240.0619  3 Note Off        77, 0
  73003  240.1413  3 Note On         73, 110
  73048  240.2894  3 Note Off        73, 0
  73080  240.3944  3 Note On         70, 110
  73121  240.5294  3 Note Off        70, 0
  73121  240.5294  3 Note On         73, 110
  73162  240.6644  3 Note Off        73, 0
  73201  240.7925  3 Note On         70, 110
  73238  240.9144  3 Note Off        70, 0
  73240  240.9206  3 Note On         73, 100
  73279  241.0488  3 Note Off        73, 0
  73320  241.1838  3 Note On         70, 90
  73361  241.3187  3 Note Off        70, 0
  73361  241.3187  3 Note On         73, 96
  73402  241.4538  3 Note Off        73, 0
  73441  241.5819  3 Note On         70, 80
  73477  241.7000  3 Note Off        70, 0
  73479  241.7069  3 Note On         73, 90
  73518  241.8350  3 Note Off        73, 0
  73559  241.9700  3 Note On         70, 80
  73598  242.0981  3 Note Off        70, 0
  73598  242.0981  3 Note On         73, 100
  73639  242.2331  3 Note Off        73, 0
  73639  242.2331  3 Note On         75, 110
  73678  242.3613  3 Note Off        75, 0
  73719  242.4963  3 Note On         77, 110
  73764  242.6444  3 Note Off        77, 0
  73799  242.7594  3 Note On         73, 110
  73842  242.9013  3 Note Off        73, 0
  73879  243.0225  3 Note On         70, 110
  73917  243.1475  3 Pitch Bend      0
  73958  243.2825  3 Note Off        70, 0
  73958  243.2825  3 Note On         65, 110
  73997  243.4106  3 Note Off        65, 0
  74038  243.5456  3 Note On         61, 90
  74077  243.6738  3 Note Off        61, 0
  74077  243.6738  3 Note On         63, 110
  74109  243.7794  3 Note Off        63, 0
  74157  243.9369  3 Note On         63, 90
  74189  244.0425  3 Note Off        63, 0
  74237  244.2000  3 Note On         63, 109
  74263  244.2856  3 Pitch Bend      0
  74267  244.2988  3 Pitch Bend      1664
  74273  244.3187  3 Pitch Bend      3840
  74275  244.3250  3 Pitch Bend      7168
  74304  244.4206  3 Pitch Bend      5632
  74306  244.4275  3 Pitch Bend      4096
  74312  244.4469  3 Note Off        63, 0
  74351  244.5750  3 Pitch Bend      0
  74355  244.5888  3 Note On         61, 101
  74396  244.7231  3 Note Off        61, 0
  74435  244.8519  3 Note On         58, 91
  74534  245.1775  3 Pitch Bend      -512
  74541  245.2000  3 Pitch Bend      -1280
  74547  245.2200  3 Pitch Bend      -2048
  74556  245.2494  3 Note Off        58, 0
  74556  245.2494 -- Meta Event      End Of Track
  74556  245.2494 -- Track           End: 5
      0    0.0000 -- Track           Start: 6
      0    0.0000 -- Forced channel  4
      0    0.0000  4 Control Change  7, 100
      0    0.0000  4 Program Change  66
    476    1.5656  4 Control Change  0, 0
    478    1.5725  4 Control Change  0, 0
    481    1.5825  4 Control Change  7, 100
    483    1.5888  4 Control Change  10, 32
    485    1.5956  4 Control Change  11, 117
    487    1.6019  4 Control Change  91, 40
    487    1.6019  4 Control Change  93, 0
  38313  126.0294  4 Note On         46, 100
  38339  126.1150  4 Note Off        46, 0
  38352  126.1575  4 Note On         46, 40
  38378  126.2431  4 Note Off        46, 0
  38432  126.4206  4 Note On         46, 100
  38458  126.5062  4 Note Off        46, 0
  38471  126.5494  4 Note On         46, 40
  38499  126.6412  4 Note Off        46, 0
  38551  126.8125  4 Note On         46, 100
  38579  126.9044  4 Note Off        46, 0
  38592  126.9469  4 Note On         46, 40
  38617  127.0294  4 Note Off        46, 0
  38630  127.0719  4 Note On         58, 100
  38665  127.1875  4 Note Off        58, 0
  38671  127.2069  4 Note On         46, 100
  38671  127.2069  4 Note On         58, 40
  38697  127.2925  4 Note Off        46, 0
  38704  127.3156  4 Note Off        58, 0
  38710  127.3356  4 Note On         46, 40
  38736  127.4206  4 Note Off        46, 0
  38950  128.1250  4 Note On         58, 100
  38976  128.2106  4 Note Off        58, 0
  38988  128.2500  4 Note On         58, 40
  39016  128.3419  4 Note Off        58, 0
  39029  128.3844  4 Note On         70, 100
  39062  128.4931  4 Note Off        70, 0
  39068  128.5131  4 Note On         58, 100
  39068  128.5131  4 Note On         70, 40
  39096  128.6050  4 Note Off        58, 0
  39103  128.6281  4 Note Off        70, 0
  39109  128.6481  4 Note On         58, 40
  39135  128.7331  4 Note Off        58, 0
  39189  128.9112  4 Note On         58, 100
  39215  128.9963  4 Note Off        58, 0
  39228  129.0394  4 Note On         58, 40
  39254  129.1250  4 Note Off        58, 0
  39269  129.1744  4 Note On         70, 100
  39301  129.2794  4 Note Off        70, 0
  39308  129.3025  4 Note On         58, 100
  39308  129.3025  4 Note On         70, 40
  39334  129.3881  4 Note Off        58, 0
  39340  129.4075  4 Note Off        70, 0
  39349  129.4375  4 Note On         58, 40
  39375  129.5231  4 Note Off        58, 0
  39586  130.2169  4 Note On         46, 100
  39614  130.3088  4 Note Off        46, 0
  39627  130.3519  4 Note On         46, 40
  39653  130.4375  4 Note Off        46, 0
  39707  130.6150  4 Note On         46, 100
  39733  130.7006  4 Note Off        46, 0
  39746  130.7431  4 Note On         46, 40
  39772  130.8288  4 Note Off        46, 0
  39825  131.0031  4 Note On         46, 100
  39851  131.0888  4 Note Off        46, 0
  39866  131.1381  4 Note On         46, 40
  39892  131.2237  4 Note Off        46, 0
  39905  131.2663  4 Note On         58, 100
  39938  131.3750  4 Note Off        58, 0
  39944  131.3944  4 Note On         46, 100
  39944  131.3944  4 Note On         58, 40
  39972  131.4869  4 Note Off        46, 0
  39979  131.5094  4 Note Off        58, 0
  39985  131.5294  4 Note On         46, 40
  40011  131.6150  4 Note Off        46, 0
  40225  132.3187  4 Note On         58, 100
  40250  132.4013  4 Note Off        58, 0
  40263  132.4437  4 Note On         58, 40
  40289  132.5294  4 Note Off        58, 0
  40304  132.5788  4 Note On         70, 100
  40337  132.6875  4 Note Off        70, 0
  40343  132.7069  4 Note On         58, 100
  40343  132.7069  4 Note On         70, 40
  40369  132.7925  4 Note Off        58, 0
  40376  132.8156  4 Note Off        70, 0
  40384  132.8419  4 Note On         58, 40
  40410  132.9275  4 Note Off        58, 0
  40462  133.0987  4 Note On         58, 100
  40490  133.1906  4 Note Off        58, 0
  40503  133.2331  4 Note On         58, 40
  40529  133.3187  4 Note Off        58, 0
  40542  133.3619  4 Note On         70, 100
  40576  133.4737  4 Note Off        70, 0
  40583  133.4963  4 Note On         58, 100
  40583  133.4963  4 Note On         70, 40
  40609  133.5819  4 Note Off        58, 0
  40615  133.6019  4 Note Off        70, 0
  40622  133.6250  4 Note On         58, 40
  40650  133.7169  4 Note Off        58, 0
  48269  158.7794  4 Control Change  11, 127
  48429  159.3056  4 Note On         63, 94
  48429  159.3056  4 Note On         60, 88
  48468  159.4338  4 Note Off        60, 0
  48468  159.4338  4 Note Off        63, 0
  48468  159.4338  4 Note On         61, 80
  48468  159.4338  4 Note On         65, 92
  48496  159.5263  4 Note Off        65, 0
  48496  159.5263  4 Note Off        61, 0
  48547  159.6937  4 Note On         65, 90
  48547  159.6937  4 Note On         61, 71
  48573  159.7794  4 Note Off        61, 0
  48573  159.7794  4 Note Off        65, 0
  48627  159.9569  4 Note On         60, 72
  48627  159.9569  4 Note On         63, 88
  48653  160.0425  4 Note Off        63, 0
  48653  160.0425  4 Note Off        60, 0
  49065  161.3975  4 Note On         63, 94
  49065  161.3975  4 Note On         60, 88
  49106  161.5325  4 Note Off        60, 0
  49106  161.5325  4 Note Off        63, 0
  49106  161.5325  4 Note On         61, 80
  49106  161.5325  4 Note On         65, 92
  49132  161.6181  4 Note Off        65, 0
  49132  161.6181  4 Note Off        61, 0
  49186  161.7956  4 Note On         65, 90
  49186  161.7956  4 Note On         61, 71
  49212  161.8812  4 Note Off        61, 0
  49212  161.8812  4 Note Off        65, 0
  49264  162.0525  4 Note On         60, 72
  49264  162.0525  4 Note On         63, 88
  49292  162.1444  4 Note Off        63, 0
  49292  162.1444  4 Note Off        60, 0
  49344  162.3156  4 Note On         65, 90
  49344  162.3156  4 Note On         68, 90
  49344  162.3156  4 Note On         61, 71
  49372  162.4075  4 Note Off        61, 0
  49372  162.4075  4 Note Off        68, 0
  49372  162.4075  4 Note Off        65, 0
  49650  163.3219  4 Control Change  11, 110
  49704  163.5000  4 Note On         72, 100
  49743  163.6281  4 Note Off        72, 0
  49743  163.6281  4 Note On         73, 80
  49781  163.7531  4 Note Off        73, 0
  49781  163.7531  4 Note On         72, 100
  49822  163.8881  4 Note Off        72, 0
  49822  163.8881  4 Note On         73, 80
  49861  164.0163  4 Note Off        73, 0
  49861  164.0163  4 Note On         72, 100
  49902  164.1513  4 Note Off        72, 0
  49902  164.1513  4 Note On         73, 80
  49941  164.2794  4 Note Off        73, 0
  49941  164.2794  4 Note On         72, 100
  49982  164.4144  4 Note Off        72, 0
  49982  164.4144  4 Note On         73, 80
  50021  164.5425  4 Note Off        73, 0
  50021  164.5425  4 Note On         72, 100
  50062  164.6775  4 Note Off        72, 0
  50062  164.6775  4 Note On         73, 80
  50101  164.8056  4 Note Off        73, 0
  50101  164.8056  4 Note On         72, 100
  50142  164.9406  4 Note Off        72, 0
  50142  164.9406  4 Note On         73, 80
  50181  165.0687  4 Note Off        73, 0
  50181  165.0687  4 Note On         72, 100
  50222  165.2038  4 Note Off        72, 0
  50222  165.2038  4 Note On         73, 80
  50260  165.3288  4 Note Off        73, 0
  50260  165.3288  4 Note On         72, 100
  50299  165.4569  4 Note Off        72, 0
  50299  165.4569  4 Note On         73, 80
  50340  165.5919  4 Note Off        73, 0
  50340  165.5919  4 Note On         72, 100
  50379  165.7200  4 Note Off        72, 0
  50379  165.7200  4 Note On         73, 80
  50420  165.8550  4 Note Off        73, 0
  50420  165.8550  4 Note On         72, 100
  50459  165.9831  4 Note Off        72, 0
  50459  165.9831  4 Note On         73, 80
  50500  166.1181  4 Note Off        73, 0
  50500  166.1181  4 Note On         72, 100
  50539  166.2463  4 Note Off        72, 0
  50539  166.2463  4 Note On         73, 80
  50580  166.3812  4 Note Off        73, 0
  50580  166.3812  4 Note On         72, 100
  50618  166.5062  4 Note Off        72, 0
  50618  166.5062  4 Note On         73, 80
  50659  166.6413  4 Note Off        73, 0
  50659  166.6413  4 Note On         72, 100
  50698  166.7694  4 Note Off        72, 0
  50698  166.7694  4 Note On         73, 80
  50739  166.9044  4 Note Off        73, 0
  50739  166.9044  4 Note On         72, 100
  50778  167.0325  4 Note Off        72, 0
  50778  167.0325  4 Note On         73, 80
  50817  167.1606  4 Note Off        73, 0
  50817  167.1606  4 Note On         72, 100
  50858  167.2956  4 Note Off        72, 0
  50858  167.2956  4 Note On         73, 80
  50897  167.4244  4 Note Off        73, 0
  50897  167.4244  4 Note On         72, 100
  50938  167.5588  4 Note Off        72, 0
  50938  167.5588  4 Note On         73, 80
  50977  167.6875  4 Note Off        73, 0
  50977  167.6875  4 Note On         72, 100
  51018  167.8219  4 Note Off        72, 0
  51018  167.8219  4 Note On         73, 80
  51056  167.9469  4 Note Off        73, 0
  51056  167.9469  4 Note On         72, 100
  51097  168.0819  4 Note Off        72, 0
  51097  168.0819  4 Note On         73, 80
  51136  168.2100  4 Note Off        73, 0
  51136  168.2100  4 Note On         72, 100
  51177  168.3450  4 Note Off        72, 0
  51177  168.3450  4 Note On         73, 80
  51216  168.4731  4 Note Off        73, 0
  51216  168.4731  4 Note On         72, 100
  51257  168.6081  4 Note Off        72, 0
  51257  168.6081  4 Note On         73, 80
  51296  168.7369  4 Note Off        73, 0
  51296  168.7369  4 Note On         72, 100
  51335  168.8650  4 Note Off        72, 0
  51335  168.8650  4 Note On         73, 80
  51376  169.0000  4 Note Off        73, 0
  51376  169.0000  4 Note On         72, 100
  51415  169.1281  4 Note Off        72, 0
  51415  169.1281  4 Note On         73, 80
  51456  169.2631  4 Note Off        73, 0
  51456  169.2631  4 Note On         72, 100
  51494  169.3881  4 Note Off        72, 0
  51494  169.3881  4 Note On         73, 80
  51535  169.5225  4 Note Off        73, 0
  51535  169.5225  4 Note On         72, 100
  51574  169.6513  4 Note Off        72, 0
  51574  169.6513  4 Note On         73, 80
  51615  169.7856  4 Note Off        73, 0
  51615  169.7856  4 Note On         72, 100
  51654  169.9144  4 Note Off        72, 0
  51654  169.9144  4 Note On         73, 80
  51695  170.0494  4 Note Off        73, 0
  51695  170.0494  4 Note On         72, 100
  51734  170.1775  4 Note Off        72, 0
  51734  170.1775  4 Note On         73, 80
  51775  170.3125  4 Note Off        73, 0
  51775  170.3125  4 Note On         72, 100
  51814  170.4406  4 Note Off        72, 0
  51814  170.4406  4 Note On         73, 80
  51852  170.5656  4 Note Off        73, 0
  51852  170.5656  4 Note On         72, 100
  51893  170.7006  4 Note Off        72, 0
  51893  170.7006  4 Note On         73, 80
  51932  170.8288  4 Note Off        73, 0
  51932  170.8288  4 Note On         72, 100
  51973  170.9638  4 Note Off        72, 0
  51973  170.9638  4 Note On         73, 80
  52012  171.0919  4 Note Off        73, 0
  52012  171.0919  4 Note On         72, 100
  52053  171.2269  4 Note Off        72, 0
  52053  171.2269  4 Note On         73, 80
  52092  171.3550  4 Note Off        73, 0
  52092  171.3550  4 Note On         72, 100
  52133  171.4900  4 Note Off        72, 0
  52133  171.4900  4 Note On         73, 80
  52172  171.6181  4 Note Off        73, 0
  52172  171.6181  4 Note On         72, 100
  52213  171.7531  4 Note Off        72, 0
  52213  171.7531  4 Note On         73, 80
  52252  171.8812  4 Note Off        73, 0
  52478  172.6250  4 Control Change  11, 127
  62447  205.4175  4 Note On         65, 100
  62447  205.4175  4 Note On         56, 50
  62447  205.4175  4 Note On         53, 100
  62551  205.7594  4 Note Off        53, 0
  62551  205.7594  4 Note Off        56, 0
  62551  205.7594  4 Note Off        65, 0
  63722  209.6113  4 Note On         65, 100
  63722  209.6113  4 Note On         56, 50
  63722  209.6113  4 Note On         53, 100
  63825  209.9506  4 Note Off        53, 0
  63825  209.9506  4 Note Off        56, 0
  63825  209.9506  4 Note Off        65, 0
  64997  213.8056  4 Note On         65, 100
  64997  213.8056  4 Note On         56, 50
  64997  213.8056  4 Note On         53, 100
  65098  214.1381  4 Note Off        53, 0
  65098  214.1381  4 Note Off        56, 0
  65098  214.1381  4 Note Off        65, 0
  66272  217.9994  4 Note On         65, 100
  66272  217.9994  4 Note On         56, 50
  66272  217.9994  4 Note On         53, 100
  66373  218.3319  4 Note Off        53, 0
  66373  218.3319  4 Note Off        56, 0
  66373  218.3319  4 Note Off        65, 0
  72642  238.9538  4 Note On         58, 100
  72642  238.9538  4 Note On         70, 100
  72642  238.9538  4 Note On         65, 100
  72746  239.2956  4 Note Off        65, 0
  72746  239.2956  4 Note Off        70, 0
  72746  239.2956  4 Note Off        58, 0
  72746  239.2956 -- Meta Event      End Of Track
  72746  239.2956 -- Track           End: 6
      0    0.0000 -- Track           Start: 7
      0    0.0000 -- Forced channel  5
      0    0.0000  5 Control Change  7, 100
      0    0.0000  5 Program Change  50
    476    1.5656  5 Control Change  0, 0
    478    1.5725  5 Control Change  0, 0
    481    1.5825  5 Control Change  7, 100
    483    1.5888  5 Control Change  10, 64
    485    1.5956  5 Control Change  11, 70
    487    1.6019  5 Control Change  91, 80
    487    1.6019  5 Control Change  93, 127
   6370   20.9537  5 Note On         82, 70
  11468   37.7238  5 Note Off        82, 0
  21665   71.2662  5 Note On         82, 70
  22781   74.9375  5 Control Change  11, 90
  22938   75.4537  5 Note Off        82, 0
  22938   75.4537  5 Note On         70, 69
  24213   79.6481  5 Note Off        70, 0
  24213   79.6481  5 Note On         82, 70
  25328   83.3156  5 Note Off        82, 0
  25328   83.3156  5 Note On         80, 69
  25488   83.8419  5 Note Off        80, 0
  25488   83.8419  5 Note On         82, 70
  26763   88.0362  5 Note Off        82, 0
  26763   88.0362  5 Note On         70, 69
  27792   91.4206  5 Note Off        70, 0
  27799   91.4437  5 Note On         70, 80
  27824   91.5263  5 Note Off        70, 0
  27824   91.5263  5 Note On         73, 80
  27850   91.6119  5 Note Off        73, 0
  27850   91.6119  5 Note On         75, 80
  27878   91.7037  5 Note Off        75, 0
  27878   91.7037  5 Note On         77, 80
  27909   91.8056  5 Note Off        77, 0
  27909   91.8056  5 Note On         75, 80
  27941   91.9112  5 Note Off        75, 0
  27941   91.9112  5 Note On         73, 80
  27975   92.0231  5 Note Off        73, 0
  27975   92.0231  5 Note On         75, 80
  28008   92.1312  5 Note Off        75, 0
  28008   92.1312  5 Note On         77, 80
  28036   92.2237  5 Note Off        77, 0
  28036   92.2237  5 Note On         82, 70
  29151   95.8912  5 Note Off        82, 0
  29151   95.8912  5 Note On         80, 80
  29184   96.0000  5 Note Off        80, 0
  29184   96.0000  5 Note On         77, 80
  29216   96.1050  5 Note Off        77, 0
  29216   96.1050  5 Note On         76, 80
  29246   96.2037  5 Note On         75, 80
  29248   96.2106  5 Note Off        76, 0
  29281   96.3187  5 Note Off        75, 0
  29281   96.3187  5 Note On         73, 80
  29311   96.4175  5 Note Off        73, 0
  29311   96.4175  5 Note On         70, 69
  30340   99.8025  5 Note Off        70, 0
  30346   99.8225  5 Note On         70, 80
  30374   99.9144  5 Note Off        70, 0
  30374   99.9144  5 Note On         73, 80
  30400  100.0000  5 Note Off        73, 0
  30400  100.0000  5 Note On         75, 80
  30426  100.0856  5 Note Off        75, 0
  30426  100.0856  5 Note On         77, 80
  30458  100.1906  5 Note Off        77, 0
  30458  100.1906  5 Note On         75, 80
  30489  100.2925  5 Note Off        75, 0
  30489  100.2925  5 Note On         73, 80
  30525  100.4112  5 Note Off        73, 0
  30525  100.4112  5 Note On         75, 80
  30556  100.5131  5 Note Off        75, 0
  30556  100.5131  5 Note On         77, 80
  30586  100.6119  5 Note Off        77, 0
  30586  100.6119  5 Note On         82, 70
  31701  104.2794  5 Note Off        82, 0
  31701  104.2794  5 Note On         80, 80
  31733  104.3850  5 Note Off        80, 0
  31733  104.3850  5 Note On         77, 80
  31764  104.4869  5 Note Off        77, 0
  31764  104.4869  5 Note On         76, 80
  31796  104.5919  5 Note On         75, 80
  31798  104.5987  5 Note Off        76, 0
  31831  104.7069  5 Note Off        75, 0
  31831  104.7069  5 Note On         73, 80
  31861  104.8056  5 Note Off        73, 0
  31861  104.8056  5 Note On         70, 69
  32890  108.1906  5 Note Off        70, 0
  32896  108.2106  5 Note On         70, 80
  32922  108.2956  5 Note Off        70, 0
  32922  108.2956  5 Note On         73, 80
  32948  108.3812  5 Note Off        73, 0
  32948  108.3812  5 Note On         75, 80
  32976  108.4737  5 Note Off        75, 0
  32976  108.4737  5 Note On         77, 80
  33006  108.5725  5 Note Off        77, 0
  33006  108.5725  5 Note On         75, 80
  33039  108.6806  5 Note Off        75, 0
  33039  108.6806  5 Note On         73, 80
  33073  108.7925  5 Note Off        73, 0
  33073  108.7925  5 Note On         75, 80
  33105  108.8981  5 Note Off        75, 0
  33105  108.8981  5 Note On         77, 80
  33136  109.0000  5 Note Off        77, 0
  43648  143.5788  5 Note On         73, 70
  45879  150.9175  5 Note Off        73, 0
  45879  150.9175 -- Meta Event      End Of Track
  45879  150.9175 -- Track           End: 7
      0    0.0000 -- Track           Start: 8
      0    0.0000 -- Forced channel  6
      0    0.0000  6 Control Change  7, 100
      0    0.0000  6 Program Change  17
    476    1.5656  6 Control Change  0, 0
    478    1.5725  6 Control Change  0, 0
    481    1.5825  6 Control Change  7, 100
    483    1.5888  6 Control Change  10, 64
    485    1.5956  6 Control Change  11, 100
    487    1.6019  6 Control Change  91, 24
    487    1.6019  6 Control Change  93, 50
  16568   54.5000  6 Note On         73, 100
  16568   54.5000  6 Note On         61, 100
  16568   54.5000  6 Note On         65, 100
  16593   54.5819  6 Note Off        65, 0
  16593   54.5819  6 Note Off        61, 0
  16593   54.5819  6 Note Off        73, 0
  16606   54.6250  6 Note On         73, 50
  16606   54.6250  6 Note On         61, 50
  16606   54.6250  6 Note On         65, 50
  16632   54.7106  6 Note Off        65, 0
  16632   54.7106  6 Note Off        61, 0
  16632   54.7106  6 Note Off        73, 0
  16686   54.8881  6 Note On         75, 100
  16686   54.8881  6 Note On         65, 100
  16686   54.8881  6 Note On         63, 100
  16712   54.9738  6 Note Off        63, 0
  16712   54.9738  6 Note Off        65, 0
  16712   54.9738  6 Note Off        75, 0
  16725   55.0162  6 Note On         75, 50
  16725   55.0162  6 Note On         65, 50
  16725   55.0162  6 Note On         63, 50
  16753   55.1088  6 Note Off        63, 0
  16753   55.1088  6 Note Off        65, 0
  16753   55.1088  6 Note Off        75, 0
  16805   55.2794  6 Note On         65, 100
  16805   55.2794  6 Note On         73, 100
  16805   55.2794  6 Note On         61, 100
  16833   55.3719  6 Note Off        61, 0
  16833   55.3719  6 Note Off        73, 0
  16833   55.3719  6 Note Off        65, 0
  16846   55.4144  6 Note On         65, 50
  16846   55.4144  6 Note On         73, 50
  16846   55.4144  6 Note On         61, 50
  16872   55.5000  6 Note Off        61, 0
  16872   55.5000  6 Note Off        73, 0
  16872   55.5000  6 Note Off        65, 0
  16926   55.6775  6 Note On         63, 100
  16926   55.6775  6 Note On         75, 100
  16926   55.6775  6 Note On         65, 100
  16952   55.7631  6 Note Off        65, 0
  16952   55.7631  6 Note Off        75, 0
  16952   55.7631  6 Note Off        63, 0
  16965   55.8056  6 Note On         63, 50
  16965   55.8056  6 Note On         75, 50
  16965   55.8056  6 Note On         65, 50
  16990   55.8881  6 Note Off        65, 0
  16990   55.8881  6 Note Off        75, 0
  16990   55.8881  6 Note Off        63, 0
  17044   56.0656  6 Note On         61, 100
  17044   56.0656  6 Note On         65, 100
  17044   56.0656  6 Note On         73, 100
  17070   56.1512  6 Note Off        73, 0
  17070   56.1512  6 Note Off        65, 0
  17070   56.1512  6 Note Off        61, 0
  17085   56.2006  6 Note On         61, 50
  17085   56.2006  6 Note On         65, 50
  17085   56.2006  6 Note On         73, 50
  17111   56.2863  6 Note Off        73, 0
  17111   56.2863  6 Note Off        65, 0
  17111   56.2863  6 Note Off        61, 0
  17124   56.3287  6 Note On         75, 100
  17124   56.3287  6 Note On         63, 100
  17124   56.3287  6 Note On         65, 100
  17150   56.4144  6 Note Off        65, 0
  17150   56.4144  6 Note Off        63, 0
  17150   56.4144  6 Note Off        75, 0
  17163   56.4569  6 Note On         75, 50
  17163   56.4569  6 Note On         63, 50
  17163   56.4569  6 Note On         65, 50
  17191   56.5494  6 Note Off        65, 0
  17191   56.5494  6 Note Off        63, 0
  17191   56.5494  6 Note Off        75, 0
  17204   56.5919  6 Note On         73, 100
  17204   56.5919  6 Note On         65, 100
  17204   56.5919  6 Note On         61, 100
  17230   56.6775  6 Note Off        61, 0
  17230   56.6775  6 Note Off        65, 0
  17230   56.6775  6 Note Off        73, 0
  17243   56.7200  6 Note On         73, 50
  17243   56.7200  6 Note On         65, 50
  17243   56.7200  6 Note On         61, 50
  17271   56.8125  6 Note Off        61, 0
  17271   56.8125  6 Note Off        65, 0
  17271   56.8125  6 Note Off        73, 0
  17323   56.9838  6 Note On         75, 100
  17323   56.9838  6 Note On         65, 100
  17323   56.9838  6 Note On         63, 100
  17351   57.0756  6 Note Off        63, 0
  17351   57.0756  6 Note Off        65, 0
  17351   57.0756  6 Note Off        75, 0
  17364   57.1181  6 Note On         75, 50
  17364   57.1181  6 Note On         65, 50
  17364   57.1181  6 Note On         63, 50
  17390   57.2037  6 Note Off        63, 0
  17390   57.2037  6 Note Off        65, 0
  17390   57.2037  6 Note Off        75, 0
  17443   57.3781  6 Note On         61, 100
  17443   57.3781  6 Note On         73, 100
  17443   57.3781  6 Note On         65, 100
  17469   57.4637  6 Note Off        65, 0
  17469   57.4637  6 Note Off        73, 0
  17469   57.4637  6 Note Off        61, 0
  17482   57.5063  6 Note On         61, 50
  17482   57.5063  6 Note On         73, 50
  17482   57.5063  6 Note On         65, 50
  17508   57.5919  6 Note Off        65, 0
  17508   57.5919  6 Note Off        73, 0
  17508   57.5919  6 Note Off        61, 0
  17562   57.7694  6 Note On         63, 100
  17562   57.7694  6 Note On         65, 100
  17562   57.7694  6 Note On         75, 100
  17588   57.8550  6 Note Off        75, 0
  17588   57.8550  6 Note Off        65, 0
  17588   57.8550  6 Note Off        63, 0
  17603   57.9044  6 Note On         63, 50
  17603   57.9044  6 Note On         65, 50
  17603   57.9044  6 Note On         75, 50
  17629   57.9900  6 Note Off        75, 0
  17629   57.9900  6 Note Off        65, 0
  17629   57.9900  6 Note Off        63, 0
  17642   58.0325  6 Note On         73, 100
  17642   58.0325  6 Note On         61, 100
  17642   58.0325  6 Note On         65, 100
  17668   58.1181  6 Note Off        65, 0
  17668   58.1181  6 Note Off        61, 0
  17668   58.1181  6 Note Off        73, 0
  17681   58.1613  6 Note On         73, 50
  17681   58.1613  6 Note On         61, 50
  17681   58.1613  6 Note On         65, 50
  17709   58.2531  6 Note Off        65, 0
  17709   58.2531  6 Note Off        61, 0
  17709   58.2531  6 Note Off        73, 0
  17722   58.2963  6 Note On         63, 100
  17722   58.2963  6 Note On         75, 100
  17722   58.2963  6 Note On         65, 100
  17748   58.3813  6 Note Off        65, 0
  17748   58.3813  6 Note Off        75, 0
  17748   58.3813  6 Note Off        63, 0
  17761   58.4244  6 Note On         63, 50
  17761   58.4244  6 Note On         75, 50
  17761   58.4244  6 Note On         65, 50
  17789   58.5162  6 Note Off        65, 0
  17789   58.5162  6 Note Off        75, 0
  17789   58.5162  6 Note Off        63, 0
  17840   58.6844  6 Note On         73, 100
  17840   58.6844  6 Note On         61, 100
  17840   58.6844  6 Note On         65, 100
  17868   58.7762  6 Note Off        65, 0
  17868   58.7762  6 Note Off        61, 0
  17868   58.7762  6 Note Off        73, 0
  17881   58.8188  6 Note On         73, 50
  17881   58.8188  6 Note On         61, 50
  17881   58.8188  6 Note On         65, 50
  17907   58.9044  6 Note Off        65, 0
  17907   58.9044  6 Note Off        61, 0
  17907   58.9044  6 Note Off        73, 0
  17961   59.0819  6 Note On         75, 100
  17961   59.0819  6 Note On         65, 100
  17961   59.0819  6 Note On         63, 100
  17987   59.1675  6 Note Off        63, 0
  17987   59.1675  6 Note Off        65, 0
  17987   59.1675  6 Note Off        75, 0
  18000   59.2106  6 Note On         75, 50
  18000   59.2106  6 Note On         65, 50
  18000   59.2106  6 Note On         63, 50
  18026   59.2963  6 Note Off        63, 0
  18026   59.2963  6 Note Off        65, 0
  18026   59.2963  6 Note Off        75, 0
  18080   59.4738  6 Note On         65, 100
  18080   59.4738  6 Note On         73, 100
  18080   59.4738  6 Note On         61, 100
  18106   59.5594  6 Note Off        61, 0
  18106   59.5594  6 Note Off        73, 0
  18106   59.5594  6 Note Off        65, 0
  18121   59.6088  6 Note On         65, 50
  18121   59.6088  6 Note On         73, 50
  18121   59.6088  6 Note On         61, 50
  18147   59.6938  6 Note Off        61, 0
  18147   59.6938  6 Note Off        73, 0
  18147   59.6938  6 Note Off        65, 0
  18199   59.8650  6 Note On         63, 100
  18199   59.8650  6 Note On         75, 100
  18199   59.8650  6 Note On         65, 100
  18227   59.9569  6 Note Off        65, 0
  18227   59.9569  6 Note Off        75, 0
  18227   59.9569  6 Note Off        63, 0
  18240   60.0000  6 Note On         63, 50
  18240   60.0000  6 Note On         75, 50
  18240   60.0000  6 Note On         65, 50
  18265   60.0819  6 Note Off        65, 0
  18265   60.0819  6 Note Off        75, 0
  18265   60.0819  6 Note Off        63, 0
  18319   60.2600  6 Note On         61, 100
  18319   60.2600  6 Note On         65, 100
  18319   60.2600  6 Note On         73, 100
  18345   60.3450  6 Note Off        73, 0
  18345   60.3450  6 Note Off        65, 0
  18345   60.3450  6 Note Off        61, 0
  18358   60.3881  6 Note On         61, 50
  18358   60.3881  6 Note On         65, 50
  18358   60.3881  6 Note On         73, 50
  18386   60.4800  6 Note Off        73, 0
  18386   60.4800  6 Note Off        65, 0
  18386   60.4800  6 Note Off        61, 0
  18399   60.5231  6 Note On         75, 100
  18399   60.5231  6 Note On         63, 100
  18399   60.5231  6 Note On         65, 100
  18425   60.6088  6 Note Off        65, 0
  18425   60.6088  6 Note Off        63, 0
  18425   60.6088  6 Note Off        75, 0
  18438   60.6512  6 Note On         75, 50
  18438   60.6512  6 Note On         63, 50
  18438   60.6512  6 Note On         65, 50
  18466   60.7431  6 Note Off        65, 0
  18466   60.7431  6 Note Off        63, 0
  18466   60.7431  6 Note Off        75, 0
  18479   60.7863  6 Note On         73, 100
  18479   60.7863  6 Note On         65, 100
  18479   60.7863  6 Note On         61, 100
  18505   60.8719  6 Note Off        61, 0
  18505   60.8719  6 Note Off        65, 0
  18505   60.8719  6 Note Off        73, 0
  18518   60.9144  6 Note On         73, 50
  18518   60.9144  6 Note On         65, 50
  18518   60.9144  6 Note On         61, 50
  18544   61.0000  6 Note Off        61, 0
  18544   61.0000  6 Note Off        65, 0
  18544   61.0000  6 Note Off        73, 0
  18598   61.1775  6 Note On         75, 100
  18598   61.1775  6 Note On         65, 100
  18598   61.1775  6 Note On         63, 100
  18624   61.2631  6 Note Off        63, 0
  18624   61.2631  6 Note Off        65, 0
  18624   61.2631  6 Note Off        75, 0
  18639   61.3125  6 Note On         75, 50
  18639   61.3125  6 Note On         65, 50
  18639   61.3125  6 Note On         63, 50
  18664   61.3944  6 Note Off        63, 0
  18664   61.3944  6 Note Off        65, 0
  18664   61.3944  6 Note Off        75, 0
  18716   61.5656  6 Note On         61, 100
  18716   61.5656  6 Note On         73, 100
  18716   61.5656  6 Note On         65, 100
  18744   61.6575  6 Note Off        65, 0
  18744   61.6575  6 Note Off        73, 0
  18744   61.6575  6 Note Off        61, 0
  18757   61.7006  6 Note On         61, 50
  18757   61.7006  6 Note On         73, 50
  18757   61.7006  6 Note On         65, 50
  18783   61.7863  6 Note Off        65, 0
  18783   61.7863  6 Note Off        73, 0
  18783   61.7863  6 Note Off        61, 0
  18837   61.9637  6 Note On         63, 100
  18837   61.9637  6 Note On         65, 100
  18837   61.9637  6 Note On         75, 100
  18863   62.0494  6 Note Off        75, 0
  18863   62.0494  6 Note Off        65, 0
  18863   62.0494  6 Note Off        63, 0
  18876   62.0919  6 Note On         63, 50
  18876   62.0919  6 Note On         65, 50
  18876   62.0919  6 Note On         75, 50
  18904   62.1844  6 Note Off        75, 0
  18904   62.1844  6 Note Off        65, 0
  18904   62.1844  6 Note Off        63, 0
  18917   62.2269  6 Note On         73, 100
  18917   62.2269  6 Note On         61, 100
  18917   62.2269  6 Note On         65, 100
  18943   62.3125  6 Note Off        65, 0
  18943   62.3125  6 Note Off        61, 0
  18943   62.3125  6 Note Off        73, 0
  18956   62.3550  6 Note On         73, 50
  18956   62.3550  6 Note On         61, 50
  18956   62.3550  6 Note On         65, 50
  18984   62.4475  6 Note Off        65, 0
  18984   62.4475  6 Note Off        61, 0
  18984   62.4475  6 Note Off        73, 0
  18997   62.4900  6 Note On         63, 100
  18997   62.4900  6 Note On         75, 100
  18997   62.4900  6 Note On         65, 100
  19023   62.5756  6 Note Off        65, 0
  19023   62.5756  6 Note Off        75, 0
  19023   62.5756  6 Note Off        63, 0
  19036   62.6181  6 Note On         63, 50
  19036   62.6181  6 Note On         75, 50
  19036   62.6181  6 Note On         65, 50
  19061   62.7006  6 Note Off        65, 0
  19061   62.7006  6 Note Off        75, 0
  19061   62.7006  6 Note Off        63, 0
  19115   62.8781  6 Note On         73, 100
  19115   62.8781  6 Note On         61, 100
  19115   62.8781  6 Note On         65, 100
  19141   62.9637  6 Note Off        65, 0
  19141   62.9637  6 Note Off        61, 0
  19141   62.9637  6 Note Off        73, 0
  19156   63.0131  6 Note On         73, 50
  19156   63.0131  6 Note On         61, 50
  19156   63.0131  6 Note On         65, 50
  19182   63.0988  6 Note Off        65, 0
  19182   63.0988  6 Note Off        61, 0
  19182   63.0988  6 Note Off        73, 0
  19234   63.2694  6 Note On         75, 100
  19234   63.2694  6 Note On         65, 100
  19234   63.2694  6 Note On         63, 100
  19262   63.3619  6 Note Off        63, 0
  19262   63.3619  6 Note Off        65, 0
  19262   63.3619  6 Note Off        75, 0
  19275   63.4044  6 Note On         75, 50
  19275   63.4044  6 Note On         65, 50
  19275   63.4044  6 Note On         63, 50
  19301   63.4900  6 Note Off        63, 0
  19301   63.4900  6 Note Off        65, 0
  19301   63.4900  6 Note Off        75, 0
  19355   63.6675  6 Note On         65, 100
  19355   63.6675  6 Note On         73, 100
  19355   63.6675  6 Note On         61, 100
  19381   63.7531  6 Note Off        61, 0
  19381   63.7531  6 Note Off        73, 0
  19381   63.7531  6 Note Off        65, 0
  19394   63.7963  6 Note On         65, 50
  19394   63.7963  6 Note On         73, 50
  19394   63.7963  6 Note On         61, 50
  19422   63.8881  6 Note Off        61, 0
  19422   63.8881  6 Note Off        73, 0
  19422   63.8881  6 Note Off        65, 0
  19473   64.0556  6 Note On         63, 100
  19473   64.0556  6 Note On         75, 100
  19473   64.0556  6 Note On         65, 100
  19502   64.1513  6 Note Off        65, 0
  19502   64.1513  6 Note Off        75, 0
  19502   64.1513  6 Note Off        63, 0
  19514   64.1906  6 Note On         63, 50
  19514   64.1906  6 Note On         75, 50
  19514   64.1906  6 Note On         65, 50
  19540   64.2763  6 Note Off        65, 0
  19540   64.2763  6 Note Off        75, 0
  19540   64.2763  6 Note Off        63, 0
  19594   64.4537  6 Note On         61, 100
  19594   64.4537  6 Note On         65, 100
  19594   64.4537  6 Note On         73, 100
  19620   64.5394  6 Note Off        73, 0
  19620   64.5394  6 Note Off        65, 0
  19620   64.5394  6 Note Off        61, 0
  19633   64.5819  6 Note On         61, 50
  19633   64.5819  6 Note On         65, 50
  19633   64.5819  6 Note On         73, 50
  19659   64.6675  6 Note Off        73, 0
  19659   64.6675  6 Note Off        65, 0
  19659   64.6675  6 Note Off        61, 0
  19674   64.7169  6 Note On         75, 100
  19674   64.7169  6 Note On         63, 100
  19674   64.7169  6 Note On         65, 100
  19700   64.8025  6 Note Off        65, 0
  19700   64.8025  6 Note Off        63, 0
  19700   64.8025  6 Note Off        75, 0
  19713   64.8450  6 Note On         75, 50
  19713   64.8450  6 Note On         63, 50
  19713   64.8450  6 Note On         65, 50
  19739   64.9306  6 Note Off        65, 0
  19739   64.9306  6 Note Off        63, 0
  19739   64.9306  6 Note Off        75, 0
  19752   64.9737  6 Note On         73, 100
  19752   64.9737  6 Note On         65, 100
  19752   64.9737  6 Note On         61, 100
  19780   65.0656  6 Note Off        61, 0
  19780   65.0656  6 Note Off        65, 0
  19780   65.0656  6 Note Off        73, 0
  19793   65.1088  6 Note On         73, 50
  19793   65.1088  6 Note On         65, 50
  19793   65.1088  6 Note On         61, 50
  19819   65.1937  6 Note Off        61, 0
  19819   65.1937  6 Note Off        65, 0
  19819   65.1937  6 Note Off        73, 0
  19873   65.3719  6 Note On         75, 100
  19873   65.3719  6 Note On         65, 100
  19873   65.3719  6 Note On         63, 100
  19898   65.4537  6 Note Off        63, 0
  19898   65.4537  6 Note Off        65, 0
  19898   65.4537  6 Note Off        75, 0
  19911   65.4969  6 Note On         75, 50
  19911   65.4969  6 Note On         65, 50
  19911   65.4969  6 Note On         63, 50
  19939   65.5888  6 Note Off        63, 0
  19939   65.5888  6 Note Off        65, 0
  19939   65.5888  6 Note Off        75, 0
  19991   65.7600  6 Note On         61, 100
  19991   65.7600  6 Note On         73, 100
  19991   65.7600  6 Note On         65, 100
  20019   65.8519  6 Note Off        65, 0
  20019   65.8519  6 Note Off        73, 0
  20019   65.8519  6 Note Off        61, 0
  20032   65.8944  6 Note On         61, 50
  20032   65.8944  6 Note On         73, 50
  20032   65.8944  6 Note On         65, 50
  20058   65.9800  6 Note Off        65, 0
  20058   65.9800  6 Note Off        73, 0
  20058   65.9800  6 Note Off        61, 0
  20112   66.1575  6 Note On         63, 100
  20112   66.1575  6 Note On         65, 100
  20112   66.1575  6 Note On         75, 100
  20138   66.2431  6 Note Off        75, 0
  20138   66.2431  6 Note Off        65, 0
  20138   66.2431  6 Note Off        63, 0
  20151   66.2862  6 Note On         63, 50
  20151   66.2862  6 Note On         65, 50
  20151   66.2862  6 Note On         75, 50
  20177   66.3719  6 Note Off        75, 0
  20177   66.3719  6 Note Off        65, 0
  20177   66.3719  6 Note Off        63, 0
  20192   66.4213  6 Note On         73, 100
  20192   66.4213  6 Note On         61, 100
  20192   66.4213  6 Note On         65, 100
  20218   66.5062  6 Note Off        65, 0
  20218   66.5062  6 Note Off        61, 0
  20218   66.5062  6 Note Off        73, 0
  20231   66.5494  6 Note On         73, 50
  20231   66.5494  6 Note On         61, 50
  20231   66.5494  6 Note On         65, 50
  20257   66.6350  6 Note Off        65, 0
  20257   66.6350  6 Note Off        61, 0
  20257   66.6350  6 Note Off        73, 0
  20270   66.6775  6 Note On         63, 100
  20270   66.6775  6 Note On         75, 100
  20270   66.6775  6 Note On         65, 100
  20298   66.7694  6 Note Off        65, 0
  20298   66.7694  6 Note Off        75, 0
  20298   66.7694  6 Note Off        63, 0
  20311   66.8125  6 Note On         63, 50
  20311   66.8125  6 Note On         75, 50
  20311   66.8125  6 Note On         65, 50
  20336   66.8944  6 Note Off        65, 0
  20336   66.8944  6 Note Off        75, 0
  20336   66.8944  6 Note Off        63, 0
  20390   67.0725  6 Note On         73, 100
  20390   67.0725  6 Note On         61, 100
  20390   67.0725  6 Note On         65, 100
  20416   67.1575  6 Note Off        65, 0
  20416   67.1575  6 Note Off        61, 0
  20416   67.1575  6 Note Off        73, 0
  20429   67.2006  6 Note On         73, 50
  20429   67.2006  6 Note On         61, 50
  20429   67.2006  6 Note On         65, 50
  20457   67.2925  6 Note Off        65, 0
  20457   67.2925  6 Note Off        61, 0
  20457   67.2925  6 Note Off        73, 0
  20509   67.4638  6 Note On         75, 100
  20509   67.4638  6 Note On         65, 100
  20509   67.4638  6 Note On         63, 100
  20537   67.5556  6 Note Off        63, 0
  20537   67.5556  6 Note Off        65, 0
  20537   67.5556  6 Note Off        75, 0
  20550   67.5987  6 Note On         75, 50
  20550   67.5987  6 Note On         65, 50
  20550   67.5987  6 Note On         63, 50
  20576   67.6844  6 Note Off        63, 0
  20576   67.6844  6 Note Off        65, 0
  20576   67.6844  6 Note Off        75, 0
  20630   67.8619  6 Note On         65, 100
  20630   67.8619  6 Note On         73, 100
  20630   67.8619  6 Note On         61, 100
  20656   67.9475  6 Note Off        61, 0
  20656   67.9475  6 Note Off        73, 0
  20656   67.9475  6 Note Off        65, 0
  20669   67.9900  6 Note On         65, 50
  20669   67.9900  6 Note On         73, 50
  20669   67.9900  6 Note On         61, 50
  20695   68.0756  6 Note Off        61, 0
  20695   68.0756  6 Note Off        73, 0
  20695   68.0756  6 Note Off        65, 0
  20748   68.2500  6 Note On         63, 100
  20748   68.2500  6 Note On         75, 100
  20748   68.2500  6 Note On         65, 100
  20774   68.3356  6 Note Off        65, 0
  20774   68.3356  6 Note Off        75, 0
  20774   68.3356  6 Note Off        63, 0
  20787   68.3781  6 Note On         63, 50
  20787   68.3781  6 Note On         75, 50
  20787   68.3781  6 Note On         65, 50
  20815   68.4700  6 Note Off        65, 0
  20815   68.4700  6 Note Off        75, 0
  20815   68.4700  6 Note Off        63, 0
  20867   68.6412  6 Note On         61, 100
  20867   68.6412  6 Note On         65, 100
  20867   68.6412  6 Note On         73, 100
  20895   68.7338  6 Note Off        73, 0
  20895   68.7338  6 Note Off        65, 0
  20895   68.7338  6 Note Off        61, 0
  20908   68.7763  6 Note On         61, 50
  20908   68.7763  6 Note On         65, 50
  20908   68.7763  6 Note On         73, 50
  20934   68.8619  6 Note Off        73, 0
  20934   68.8619  6 Note Off        65, 0
  20934   68.8619  6 Note Off        61, 0
  20947   68.9044  6 Note On         75, 100
  20947   68.9044  6 Note On         63, 100
  20947   68.9044  6 Note On         65, 100
  20975   68.9969  6 Note Off        65, 0
  20975   68.9969  6 Note Off        63, 0
  20975   68.9969  6 Note Off        75, 0
  20988   69.0394  6 Note On         75, 50
  20988   69.0394  6 Note On         63, 50
  20988   69.0394  6 Note On         65, 50
  21014   69.1250  6 Note Off        65, 0
  21014   69.1250  6 Note Off        63, 0
  21014   69.1250  6 Note Off        75, 0
  21027   69.1675  6 Note On         73, 100
  21027   69.1675  6 Note On         65, 100
  21027   69.1675  6 Note On         61, 100
  21055   69.2600  6 Note Off        61, 0
  21055   69.2600  6 Note Off        65, 0
  21055   69.2600  6 Note Off        73, 0
  21068   69.3025  6 Note On         73, 50
  21068   69.3025  6 Note On         65, 50
  21068   69.3025  6 Note On         61, 50
  21094   69.3881  6 Note Off        61, 0
  21094   69.3881  6 Note Off        65, 0
  21094   69.3881  6 Note Off        73, 0
  21148   69.5656  6 Note On         75, 100
  21148   69.5656  6 Note On         65, 100
  21148   69.5656  6 Note On         63, 100
  21173   69.6481  6 Note Off        63, 0
  21173   69.6481  6 Note Off        65, 0
  21173   69.6481  6 Note Off        75, 0
  21186   69.6906  6 Note On         75, 50
  21186   69.6906  6 Note On         65, 50
  21186   69.6906  6 Note On         63, 50
  21212   69.7763  6 Note Off        63, 0
  21212   69.7763  6 Note Off        65, 0
  21212   69.7763  6 Note Off        75, 0
  21266   69.9537  6 Note On         61, 100
  21266   69.9537  6 Note On         73, 100
  21266   69.9537  6 Note On         65, 100
  21292   70.0394  6 Note Off        65, 0
  21292   70.0394  6 Note Off        73, 0
  21292   70.0394  6 Note Off        61, 0
  21305   70.0819  6 Note On         61, 50
  21305   70.0819  6 Note On         73, 50
  21305   70.0819  6 Note On         65, 50
  21333   70.1744  6 Note Off        65, 0
  21333   70.1744  6 Note Off        73, 0
  21333   70.1744  6 Note Off        61, 0
  21385   70.3450  6 Note On         63, 100
  21385   70.3450  6 Note On         65, 100
  21385   70.3450  6 Note On         75, 100
  21413   70.4375  6 Note Off        75, 0
  21413   70.4375  6 Note Off        65, 0
  21413   70.4375  6 Note Off        63, 0
  21426   70.4800  6 Note On         63, 50
  21426   70.4800  6 Note On         65, 50
  21426   70.4800  6 Note On         75, 50
  21452   70.5656  6 Note Off        75, 0
  21452   70.5656  6 Note Off        65, 0
  21452   70.5656  6 Note Off        63, 0
  21465   70.6088  6 Note On         73, 100
  21465   70.6088  6 Note On         61, 100
  21465   70.6088  6 Note On         65, 100
  21493   70.7006  6 Note Off        65, 0
  21493   70.7006  6 Note Off        61, 0
  21493   70.7006  6 Note Off        73, 0
  21506   70.7431  6 Note On         73, 50
  21506   70.7431  6 Note On         61, 50
  21506   70.7431  6 Note On         65, 50
  21532   70.8287  6 Note Off        65, 0
  21532   70.8287  6 Note Off        61, 0
  21532   70.8287  6 Note Off        73, 0
  21544   70.8681  6 Note On         63, 100
  21544   70.8681  6 Note On         75, 100
  21544   70.8681  6 Note On         65, 100
  21573   70.9638  6 Note Off        65, 0
  21573   70.9638  6 Note Off        75, 0
  21573   70.9638  6 Note Off        63, 0
  21585   71.0031  6 Note On         63, 50
  21585   71.0031  6 Note On         75, 50
  21585   71.0031  6 Note On         65, 50
  21611   71.0888  6 Note Off        65, 0
  21611   71.0888  6 Note Off        75, 0
  21611   71.0888  6 Note Off        63, 0
  21665   71.2662  6 Note On         73, 100
  21665   71.2662  6 Note On         61, 100
  21665   71.2662  6 Note On         65, 100
  21691   71.3519  6 Note Off        65, 0
  21691   71.3519  6 Note Off        61, 0
  21691   71.3519  6 Note Off        73, 0
  21704   71.3944  6 Note On         73, 50
  21704   71.3944  6 Note On         61, 50
  21704   71.3944  6 Note On         65, 50
  21730   71.4800  6 Note Off        65, 0
  21730   71.4800  6 Note Off        61, 0
  21730   71.4800  6 Note Off        73, 0
  21784   71.6575  6 Note On         75, 100
  21784   71.6575  6 Note On         65, 100
  21784   71.6575  6 Note On         63, 100
  21810   71.7431  6 Note Off        63, 0
  21810   71.7431  6 Note Off        65, 0
  21810   71.7431  6 Note Off        75, 0
  21823   71.7862  6 Note On         75, 50
  21823   71.7862  6 Note On         65, 50
  21823   71.7862  6 Note On         63, 50
  21851   71.8781  6 Note Off        63, 0
  21851   71.8781  6 Note Off        65, 0
  21851   71.8781  6 Note Off        75, 0
  21903   72.0494  6 Note On         65, 100
  21903   72.0494  6 Note On         73, 100
  21903   72.0494  6 Note On         61, 100
  21931   72.1412  6 Note Off        61, 0
  21931   72.1412  6 Note Off        73, 0
  21931   72.1412  6 Note Off        65, 0
  21944   72.1844  6 Note On         65, 50
  21944   72.1844  6 Note On         73, 50
  21944   72.1844  6 Note On         61, 50
  21969   72.2662  6 Note Off        61, 0
  21969   72.2662  6 Note Off        73, 0
  21969   72.2662  6 Note Off        65, 0
  22023   72.4437  6 Note On         63, 100
  22023   72.4437  6 Note On         75, 100
  22023   72.4437  6 Note On         65, 100
  22049   72.5294  6 Note Off        65, 0
  22049   72.5294  6 Note Off        75, 0
  22049   72.5294  6 Note Off        63, 0
  22062   72.5725  6 Note On         63, 50
  22062   72.5725  6 Note On         75, 50
  22062   72.5725  6 Note On         65, 50
  22090   72.6644  6 Note Off        65, 0
  22090   72.6644  6 Note Off        75, 0
  22090   72.6644  6 Note Off        63, 0
  22142   72.8356  6 Note On         61, 100
  22142   72.8356  6 Note On         65, 100
  22142   72.8356  6 Note On         73, 100
  22168   72.9213  6 Note Off        73, 0
  22168   72.9213  6 Note Off        65, 0
  22168   72.9213  6 Note Off        61, 0
  22183   72.9700  6 Note On         61, 50
  22183   72.9700  6 Note On         65, 50
  22183   72.9700  6 Note On         73, 50
  22209   73.0556  6 Note Off        73, 0
  22209   73.0556  6 Note Off        65, 0
  22209   73.0556  6 Note Off        61, 0
  22222   73.0987  6 Note On         75, 100
  22222   73.0987  6 Note On         63, 100
  22222   73.0987  6 Note On         65, 100
  22248   73.1844  6 Note Off        65, 0
  22248   73.1844  6 Note Off        63, 0
  22248   73.1844  6 Note Off        75, 0
  22263   73.2338  6 Note On         75, 50
  22263   73.2338  6 Note On         63, 50
  22263   73.2338  6 Note On         65, 50
  22289   73.3187  6 Note Off        65, 0
  22289   73.3187  6 Note Off        63, 0
  22289   73.3187  6 Note Off        75, 0
  22302   73.3619  6 Note On         73, 100
  22302   73.3619  6 Note On         65, 100
  22302   73.3619  6 Note On         61, 100
  22328   73.4475  6 Note Off        61, 0
  22328   73.4475  6 Note Off        65, 0
  22328   73.4475  6 Note Off        73, 0
  22341   73.4900  6 Note On         73, 50
  22341   73.4900  6 Note On         65, 50
  22341   73.4900  6 Note On         61, 50
  22369   73.5819  6 Note Off        61, 0
  22369   73.5819  6 Note Off        65, 0
  22369   73.5819  6 Note Off        73, 0
  22420   73.7500  6 Note On         75, 100
  22420   73.7500  6 Note On         65, 100
  22420   73.7500  6 Note On         63, 100
  22448   73.8419  6 Note Off        63, 0
  22448   73.8419  6 Note Off        65, 0
  22448   73.8419  6 Note Off        75, 0
  22461   73.8850  6 Note On         75, 50
  22461   73.8850  6 Note On         65, 50
  22461   73.8850  6 Note On         63, 50
  22487   73.9700  6 Note Off        63, 0
  22487   73.9700  6 Note Off        65, 0
  22487   73.9700  6 Note Off        75, 0
  22541   74.1481  6 Note On         61, 100
  22541   74.1481  6 Note On         73, 100
  22541   74.1481  6 Note On         65, 100
  22567   74.2338  6 Note Off        65, 0
  22567   74.2338  6 Note Off        73, 0
  22567   74.2338  6 Note Off        61, 0
  22580   74.2763  6 Note On         61, 50
  22580   74.2763  6 Note On         73, 50
  22580   74.2763  6 Note On         65, 50
  22608   74.3681  6 Note Off        65, 0
  22608   74.3681  6 Note Off        73, 0
  22608   74.3681  6 Note Off        61, 0
  22660   74.5394  6 Note On         63, 100
  22660   74.5394  6 Note On         65, 100
  22660   74.5394  6 Note On         75, 100
  22686   74.6250  6 Note Off        75, 0
  22686   74.6250  6 Note Off        65, 0
  22686   74.6250  6 Note Off        63, 0
  22701   74.6744  6 Note On         63, 50
  22701   74.6744  6 Note On         65, 50
  22701   74.6744  6 Note On         75, 50
  22727   74.7600  6 Note Off        75, 0
  22727   74.7600  6 Note Off        65, 0
  22727   74.7600  6 Note Off        63, 0
  22740   74.8025  6 Note On         73, 100
  22740   74.8025  6 Note On         61, 100
  22740   74.8025  6 Note On         65, 100
  22766   74.8881  6 Note Off        65, 0
  22766   74.8881  6 Note Off        61, 0
  22766   74.8881  6 Note Off        73, 0
  22781   74.9375  6 Note On         73, 50
  22781   74.9375  6 Note On         61, 50
  22781   74.9375  6 Note On         65, 50
  22807   75.0231  6 Note Off        65, 0
  22807   75.0231  6 Note Off        61, 0
  22807   75.0231  6 Note Off        73, 0
  22819   75.0625  6 Note On         63, 100
  22819   75.0625  6 Note On         75, 100
  22819   75.0625  6 Note On         65, 100
  22845   75.1481  6 Note Off        65, 0
  22845   75.1481  6 Note Off        75, 0
  22845   75.1481  6 Note Off        63, 0
  22858   75.1906  6 Note On         63, 50
  22858   75.1906  6 Note On         75, 50
  22858   75.1906  6 Note On         65, 50
  22886   75.2825  6 Note Off        65, 0
  22886   75.2825  6 Note Off        75, 0
  22886   75.2825  6 Note Off        63, 0
  22938   75.4537  6 Note On         73, 100
  22938   75.4537  6 Note On         61, 100
  22938   75.4537  6 Note On         65, 100
  22966   75.5463  6 Note Off        65, 0
  22966   75.5463  6 Note Off        61, 0
  22966   75.5463  6 Note Off        73, 0
  22979   75.5888  6 Note On         73, 50
  22979   75.5888  6 Note On         61, 50
  22979   75.5888  6 Note On         65, 50
  23005   75.6744  6 Note Off        65, 0
  23005   75.6744  6 Note Off        61, 0
  23005   75.6744  6 Note Off        73, 0
  23059   75.8519  6 Note On         75, 100
  23059   75.8519  6 Note On         65, 100
  23059   75.8519  6 Note On         63, 100
  23085   75.9375  6 Note Off        63, 0
  23085   75.9375  6 Note Off        65, 0
  23085   75.9375  6 Note Off        75, 0
  23098   75.9800  6 Note On         75, 50
  23098   75.9800  6 Note On         65, 50
  23098   75.9800  6 Note On         63, 50
  23126   76.0725  6 Note Off        63, 0
  23126   76.0725  6 Note Off        65, 0
  23126   76.0725  6 Note Off        75, 0
  23178   76.2431  6 Note On         65, 100
  23178   76.2431  6 Note On         73, 100
  23178   76.2431  6 Note On         61, 100
  23203   76.3256  6 Note Off        61, 0
  23203   76.3256  6 Note Off        73, 0
  23203   76.3256  6 Note Off        65, 0
  23219   76.3781  6 Note On         65, 50
  23219   76.3781  6 Note On         73, 50
  23219   76.3781  6 Note On         61, 50
  23244   76.4606  6 Note Off        61, 0
  23244   76.4606  6 Note Off        73, 0
  23244   76.4606  6 Note Off        65, 0
  23298   76.6381  6 Note On         63, 100
  23298   76.6381  6 Note On         75, 100
  23298   76.6381  6 Note On         65, 100
  23324   76.7237  6 Note Off        65, 0
  23324   76.7237  6 Note Off        75, 0
  23324   76.7237  6 Note Off        63, 0
  23337   76.7662  6 Note On         63, 50
  23337   76.7662  6 Note On         75, 50
  23337   76.7662  6 Note On         65, 50
  23363   76.8519  6 Note Off        65, 0
  23363   76.8519  6 Note Off        75, 0
  23363   76.8519  6 Note Off        63, 0
  23417   77.0294  6 Note On         61, 100
  23417   77.0294  6 Note On         65, 100
  23417   77.0294  6 Note On         73, 100
  23443   77.1150  6 Note Off        73, 0
  23443   77.1150  6 Note Off        65, 0
  23443   77.1150  6 Note Off        61, 0
  23456   77.1575  6 Note On         61, 50
  23456   77.1575  6 Note On         65, 50
  23456   77.1575  6 Note On         73, 50
  23484   77.2500  6 Note Off        73, 0
  23484   77.2500  6 Note Off        65, 0
  23484   77.2500  6 Note Off        61, 0
  23497   77.2925  6 Note On         75, 100
  23497   77.2925  6 Note On         63, 100
  23497   77.2925  6 Note On         65, 100
  23523   77.3781  6 Note Off        65, 0
  23523   77.3781  6 Note Off        63, 0
  23523   77.3781  6 Note Off        75, 0
  23536   77.4206  6 Note On         75, 50
  23536   77.4206  6 Note On         63, 50
  23536   77.4206  6 Note On         65, 50
  23564   77.5131  6 Note Off        65, 0
  23564   77.5131  6 Note Off        63, 0
  23564   77.5131  6 Note Off        75, 0
  23577   77.5556  6 Note On         73, 100
  23577   77.5556  6 Note On         65, 100
  23577   77.5556  6 Note On         61, 100
  23603   77.6412  6 Note Off        61, 0
  23603   77.6412  6 Note Off        65, 0
  23603   77.6412  6 Note Off        73, 0
  23616   77.6844  6 Note On         73, 50
  23616   77.6844  6 Note On         65, 50
  23616   77.6844  6 Note On         61, 50
  23644   77.7763  6 Note Off        61, 0
  23644   77.7763  6 Note Off        65, 0
  23644   77.7763  6 Note Off        73, 0
  23695   77.9437  6 Note On         75, 100
  23695   77.9437  6 Note On         65, 100
  23695   77.9437  6 Note On         63, 100
  23721   78.0294  6 Note Off        63, 0
  23721   78.0294  6 Note Off        65, 0
  23721   78.0294  6 Note Off        75, 0
  23736   78.0787  6 Note On         75, 50
  23736   78.0787  6 Note On         65, 50
  23736   78.0787  6 Note On         63, 50
  23762   78.1644  6 Note Off        63, 0
  23762   78.1644  6 Note Off        65, 0
  23762   78.1644  6 Note Off        75, 0
  23816   78.3419  6 Note On         61, 100
  23816   78.3419  6 Note On         73, 100
  23816   78.3419  6 Note On         65, 100
  23842   78.4275  6 Note Off        65, 0
  23842   78.4275  6 Note Off        73, 0
  23842   78.4275  6 Note Off        61, 0
  23855   78.4700  6 Note On         61, 50
  23855   78.4700  6 Note On         73, 50
  23855   78.4700  6 Note On         65, 50
  23881   78.5556  6 Note Off        65, 0
  23881   78.5556  6 Note Off        73, 0
  23881   78.5556  6 Note Off        61, 0
  23935   78.7331  6 Note On         63, 100
  23935   78.7331  6 Note On         65, 100
  23935   78.7331  6 Note On         75, 100
  23961   78.8187  6 Note Off        75, 0
  23961   78.8187  6 Note Off        65, 0
  23961   78.8187  6 Note Off        63, 0
  23974   78.8619  6 Note On         63, 50
  23974   78.8619  6 Note On         65, 50
  23974   78.8619  6 Note On         75, 50
  24002   78.9537  6 Note Off        75, 0
  24002   78.9537  6 Note Off        65, 0
  24002   78.9537  6 Note Off        63, 0
  24015   78.9969  6 Note On         73, 100
  24015   78.9969  6 Note On         61, 100
  24015   78.9969  6 Note On         65, 100
  24040   79.0787  6 Note Off        65, 0
  24040   79.0787  6 Note Off        61, 0
  24040   79.0787  6 Note Off        73, 0
  24053   79.1219  6 Note On         73, 50
  24053   79.1219  6 Note On         61, 50
  24053   79.1219  6 Note On         65, 50
  24081   79.2138  6 Note Off        65, 0
  24081   79.2138  6 Note Off        61, 0
  24081   79.2138  6 Note Off        73, 0
  24094   79.2562  6 Note On         63, 100
  24094   79.2562  6 Note On         75, 100
  24094   79.2562  6 Note On         65, 100
  24120   79.3419  6 Note Off        65, 0
  24120   79.3419  6 Note Off        75, 0
  24120   79.3419  6 Note Off        63, 0
  24133   79.3850  6 Note On         63, 50
  24133   79.3850  6 Note On         75, 50
  24133   79.3850  6 Note On         65, 50
  24161   79.4769  6 Note Off        65, 0
  24161   79.4769  6 Note Off        75, 0
  24161   79.4769  6 Note Off        63, 0
  24213   79.6481  6 Note On         73, 100
  24213   79.6481  6 Note On         61, 100
  24213   79.6481  6 Note On         65, 100
  24239   79.7331  6 Note Off        65, 0
  24239   79.7331  6 Note Off        61, 0
  24239   79.7331  6 Note Off        73, 0
  24254   79.7825  6 Note On         73, 50
  24254   79.7825  6 Note On         61, 50
  24254   79.7825  6 Note On         65, 50
  24280   79.8681  6 Note Off        65, 0
  24280   79.8681  6 Note Off        61, 0
  24280   79.8681  6 Note Off        73, 0
  24334   80.0456  6 Note On         75, 100
  24334   80.0456  6 Note On         65, 100
  24334   80.0456  6 Note On         63, 100
  24360   80.1312  6 Note Off        63, 0
  24360   80.1312  6 Note Off        65, 0
  24360   80.1312  6 Note Off        75, 0
  24373   80.1744  6 Note On         75, 50
  24373   80.1744  6 Note On         65, 50
  24373   80.1744  6 Note On         63, 50
  24399   80.2600  6 Note Off        63, 0
  24399   80.2600  6 Note Off        65, 0
  24399   80.2600  6 Note Off        75, 0
  24453   80.4375  6 Note On         65, 100
  24453   80.4375  6 Note On         73, 100
  24453   80.4375  6 Note On         61, 100
  24478   80.5194  6 Note Off        61, 0
  24478   80.5194  6 Note Off        73, 0
  24478   80.5194  6 Note Off        65, 0
  24491   80.5625  6 Note On         65, 50
  24491   80.5625  6 Note On         73, 50
  24491   80.5625  6 Note On         61, 50
  24519   80.6544  6 Note Off        61, 0
  24519   80.6544  6 Note Off        73, 0
  24519   80.6544  6 Note Off        65, 0
  24571   80.8256  6 Note On         63, 100
  24571   80.8256  6 Note On         75, 100
  24571   80.8256  6 Note On         65, 100
  24599   80.9175  6 Note Off        65, 0
  24599   80.9175  6 Note Off        75, 0
  24599   80.9175  6 Note Off        63, 0
  24612   80.9606  6 Note On         63, 50
  24612   80.9606  6 Note On         75, 50
  24612   80.9606  6 Note On         65, 50
  24638   81.0456  6 Note Off        65, 0
  24638   81.0456  6 Note Off        75, 0
  24638   81.0456  6 Note Off        63, 0
  24692   81.2237  6 Note On         61, 100
  24692   81.2237  6 Note On         65, 100
  24692   81.2237  6 Note On         73, 100
  24718   81.3094  6 Note Off        73, 0
  24718   81.3094  6 Note Off        65, 0
  24718   81.3094  6 Note Off        61, 0
  24731   81.3519  6 Note On         61, 50
  24731   81.3519  6 Note On         65, 50
  24731   81.3519  6 Note On         73, 50
  24757   81.4375  6 Note Off        73, 0
  24757   81.4375  6 Note Off        65, 0
  24757   81.4375  6 Note Off        61, 0
  24772   81.4869  6 Note On         75, 100
  24772   81.4869  6 Note On         63, 100
  24772   81.4869  6 Note On         65, 100
  24798   81.5725  6 Note Off        65, 0
  24798   81.5725  6 Note Off        63, 0
  24798   81.5725  6 Note Off        75, 0
  24811   81.6150  6 Note On         75, 50
  24811   81.6150  6 Note On         63, 50
  24811   81.6150  6 Note On         65, 50
  24837   81.7006  6 Note Off        65, 0
  24837   81.7006  6 Note Off        63, 0
  24837   81.7006  6 Note Off        75, 0
  24852   81.7500  6 Note On         73, 100
  24852   81.7500  6 Note On         65, 100
  24852   81.7500  6 Note On         61, 100
  24878   81.8356  6 Note Off        61, 0
  24878   81.8356  6 Note Off        65, 0
  24878   81.8356  6 Note Off        73, 0
  24890   81.8750  6 Note On         73, 50
  24890   81.8750  6 Note On         65, 50
  24890   81.8750  6 Note On         61, 50
  24916   81.9606  6 Note Off        61, 0
  24916   81.9606  6 Note Off        65, 0
  24916   81.9606  6 Note Off        73, 0
  24970   82.1381  6 Note On         75, 100
  24970   82.1381  6 Note On         65, 100
  24970   82.1381  6 Note On         63, 100
  24996   82.2237  6 Note Off        63, 0
  24996   82.2237  6 Note Off        65, 0
  24996   82.2237  6 Note Off        75, 0
  25009   82.2662  6 Note On         75, 50
  25009   82.2662  6 Note On         65, 50
  25009   82.2662  6 Note On         63, 50
  25037   82.3581  6 Note Off        63, 0
  25037   82.3581  6 Note Off        65, 0
  25037   82.3581  6 Note Off        75, 0
  25089   82.5294  6 Note On         61, 100
  25089   82.5294  6 Note On         73, 100
  25089   82.5294  6 Note On         65, 100
  25117   82.6219  6 Note Off        65, 0
  25117   82.6219  6 Note Off        73, 0
  25117   82.6219  6 Note Off        61, 0
  25130   82.6644  6 Note On         61, 50
  25130   82.6644  6 Note On         73, 50
  25130   82.6644  6 Note On         65, 50
  25156   82.7500  6 Note Off        65, 0
  25156   82.7500  6 Note Off        73, 0
  25156   82.7500  6 Note Off        61, 0
  25210   82.9275  6 Note On         63, 100
  25210   82.9275  6 Note On         65, 100
  25210   82.9275  6 Note On         75, 100
  25236   83.0131  6 Note Off        75, 0
  25236   83.0131  6 Note Off        65, 0
  25236   83.0131  6 Note Off        63, 0
  25249   83.0556  6 Note On         63, 50
  25249   83.0556  6 Note On         65, 50
  25249   83.0556  6 Note On         75, 50
  25274   83.1381  6 Note Off        75, 0
  25274   83.1381  6 Note Off        65, 0
  25274   83.1381  6 Note Off        63, 0
  25290   83.1906  6 Note On         73, 100
  25290   83.1906  6 Note On         61, 100
  25290   83.1906  6 Note On         65, 100
  25315   83.2731  6 Note Off        65, 0
  25315   83.2731  6 Note Off        61, 0
  25315   83.2731  6 Note Off        73, 0
  25328   83.3156  6 Note On         73, 50
  25328   83.3156  6 Note On         61, 50
  25328   83.3156  6 Note On         65, 50
  25354   83.4013  6 Note Off        65, 0
  25354   83.4013  6 Note Off        61, 0
  25354   83.4013  6 Note Off        73, 0
  25369   83.4506  6 Note On         63, 100
  25369   83.4506  6 Note On         75, 100
  25369   83.4506  6 Note On         65, 100
  25395   83.5362  6 Note Off        65, 0
  25395   83.5362  6 Note Off        75, 0
  25395   83.5362  6 Note Off        63, 0
  25408   83.5787  6 Note On         63, 50
  25408   83.5787  6 Note On         75, 50
  25408   83.5787  6 Note On         65, 50
  25434   83.6644  6 Note Off        65, 0
  25434   83.6644  6 Note Off        75, 0
  25434   83.6644  6 Note Off        63, 0
  25488   83.8419  6 Note On         73, 100
  25488   83.8419  6 Note On         61, 100
  25488   83.8419  6 Note On         65, 100
  25514   83.9275  6 Note Off        65, 0
  25514   83.9275  6 Note Off        61, 0
  25514   83.9275  6 Note Off        73, 0
  25527   83.9700  6 Note On         73, 50
  25527   83.9700  6 Note On         61, 50
  25527   83.9700  6 Note On         65, 50
  25555   84.0625  6 Note Off        65, 0
  25555   84.0625  6 Note Off        61, 0
  25555   84.0625  6 Note Off        73, 0
  25607   84.2331  6 Note On         75, 100
  25607   84.2331  6 Note On         65, 100
  25607   84.2331  6 Note On         63, 100
  25635   84.3256  6 Note Off        63, 0
  25635   84.3256  6 Note Off        65, 0
  25635   84.3256  6 Note Off        75, 0
  25648   84.3681  6 Note On         75, 50
  25648   84.3681  6 Note On         65, 50
  25648   84.3681  6 Note On         63, 50
  25674   84.4537  6 Note Off        63, 0
  25674   84.4537  6 Note Off        65, 0
  25674   84.4537  6 Note Off        75, 0
  25728   84.6312  6 Note On         65, 100
  25728   84.6312  6 Note On         73, 100
  25728   84.6312  6 Note On         61, 100
  25753   84.7138  6 Note Off        61, 0
  25753   84.7138  6 Note Off        73, 0
  25753   84.7138  6 Note Off        65, 0
  25766   84.7562  6 Note On         65, 50
  25766   84.7562  6 Note On         73, 50
  25766   84.7562  6 Note On         61, 50
  25792   84.8419  6 Note Off        61, 0
  25792   84.8419  6 Note Off        73, 0
  25792   84.8419  6 Note Off        65, 0
  26124   85.9344  6 Note On         73, 100
  26124   85.9344  6 Note On         65, 100
  26124   85.9344  6 Note On         61, 100
  26152   86.0263  6 Note Off        61, 0
  26152   86.0263  6 Note Off        65, 0
  26152   86.0263  6 Note Off        73, 0
  26165   86.0687  6 Note On         73, 50
  26165   86.0687  6 Note On         65, 50
  26165   86.0687  6 Note On         61, 50
  26191   86.1544  6 Note Off        61, 0
  26191   86.1544  6 Note Off        65, 0
  26191   86.1544  6 Note Off        73, 0
  26245   86.3319  6 Note On         75, 100
  26245   86.3319  6 Note On         65, 100
  26245   86.3319  6 Note On         63, 100
  26271   86.4175  6 Note Off        63, 0
  26271   86.4175  6 Note Off        65, 0
  26271   86.4175  6 Note Off        75, 0
  26284   86.4606  6 Note On         75, 50
  26284   86.4606  6 Note On         65, 50
  26284   86.4606  6 Note On         63, 50
  26310   86.5456  6 Note Off        63, 0
  26310   86.5456  6 Note Off        65, 0
  26310   86.5456  6 Note Off        75, 0
  26364   86.7237  6 Note On         61, 100
  26364   86.7237  6 Note On         73, 100
  26364   86.7237  6 Note On         65, 100
  26390   86.8094  6 Note Off        65, 0
  26390   86.8094  6 Note Off        73, 0
  26390   86.8094  6 Note Off        61, 0
  26405   86.8581  6 Note On         61, 50
  26405   86.8581  6 Note On         73, 50
  26405   86.8581  6 Note On         65, 50
  26431   86.9437  6 Note Off        65, 0
  26431   86.9437  6 Note Off        73, 0
  26431   86.9437  6 Note Off        61, 0
  26763   88.0362  6 Note On         73, 100
  26763   88.0362  6 Note On         61, 100
  26763   88.0362  6 Note On         65, 100
  26789   88.1219  6 Note Off        65, 0
  26789   88.1219  6 Note Off        61, 0
  26789   88.1219  6 Note Off        73, 0
  26802   88.1644  6 Note On         73, 50
  26802   88.1644  6 Note On         61, 50
  26802   88.1644  6 Note On         65, 50
  26828   88.2500  6 Note Off        65, 0
  26828   88.2500  6 Note Off        61, 0
  26828   88.2500  6 Note Off        73, 0
  26882   88.4275  6 Note On         75, 100
  26882   88.4275  6 Note On         65, 100
  26882   88.4275  6 Note On         63, 100
  26908   88.5131  6 Note Off        63, 0
  26908   88.5131  6 Note Off        65, 0
  26908   88.5131  6 Note Off        75, 0
  26923   88.5625  6 Note On         75, 50
  26923   88.5625  6 Note On         65, 50
  26923   88.5625  6 Note On         63, 50
  26949   88.6481  6 Note Off        63, 0
  26949   88.6481  6 Note Off        65, 0
  26949   88.6481  6 Note Off        75, 0
  27000   88.8156  6 Note On         65, 100
  27000   88.8156  6 Note On         73, 100
  27000   88.8156  6 Note On         61, 100
  27028   88.9075  6 Note Off        61, 0
  27028   88.9075  6 Note Off        73, 0
  27028   88.9075  6 Note Off        65, 0
  27041   88.9506  6 Note On         65, 50
  27041   88.9506  6 Note On         73, 50
  27041   88.9506  6 Note On         61, 50
  27067   89.0362  6 Note Off        61, 0
  27067   89.0362  6 Note Off        73, 0
  27067   89.0362  6 Note Off        65, 0
  27399   90.1281  6 Note On         73, 100
  27399   90.1281  6 Note On         65, 100
  27399   90.1281  6 Note On         61, 100
  27425   90.2138  6 Note Off        61, 0
  27425   90.2138  6 Note Off        65, 0
  27425   90.2138  6 Note Off        73, 0
  27440   90.2631  6 Note On         73, 50
  27440   90.2631  6 Note On         65, 50
  27440   90.2631  6 Note On         61, 50
  27466   90.3487  6 Note Off        61, 0
  27466   90.3487  6 Note Off        65, 0
  27466   90.3487  6 Note Off        73, 0
  27518   90.5194  6 Note On         75, 100
  27518   90.5194  6 Note On         65, 100
  27518   90.5194  6 Note On         63, 100
  27546   90.6119  6 Note Off        63, 0
  27546   90.6119  6 Note Off        65, 0
  27546   90.6119  6 Note Off        75, 0
  27559   90.6544  6 Note On         75, 50
  27559   90.6544  6 Note On         65, 50
  27559   90.6544  6 Note On         63, 50
  27585   90.7400  6 Note Off        63, 0
  27585   90.7400  6 Note Off        65, 0
  27585   90.7400  6 Note Off        75, 0
  27639   90.9175  6 Note On         61, 100
  27639   90.9175  6 Note On         73, 100
  27639   90.9175  6 Note On         65, 100
  27665   91.0031  6 Note Off        65, 0
  27665   91.0031  6 Note Off        73, 0
  27665   91.0031  6 Note Off        61, 0
  27678   91.0456  6 Note On         61, 50
  27678   91.0456  6 Note On         73, 50
  27678   91.0456  6 Note On         65, 50
  27706   91.1381  6 Note Off        65, 0
  27706   91.1381  6 Note Off        73, 0
  27706   91.1381  6 Note Off        61, 0
  52252  171.8812  6 Note On         73, 100
  52252  171.8812  6 Note On         61, 100
  52252  171.8812  6 Note On         65, 100
  52277  171.9638  6 Note Off        65, 0
  52277  171.9638  6 Note Off        61, 0
  52277  171.9638  6 Note Off        73, 0
  52293  172.0163  6 Note On         73, 50
  52293  172.0163  6 Note On         61, 50
  52293  172.0163  6 Note On         65, 50
  52318  172.0981  6 Note Off        65, 0
  52318  172.0981  6 Note Off        61, 0
  52318  172.0981  6 Note Off        73, 0
  52370  172.2694  6 Note On         75, 100
  52370  172.2694  6 Note On         65, 100
  52370  172.2694  6 Note On         63, 100
  52398  172.3619  6 Note Off        63, 0
  52398  172.3619  6 Note Off        65, 0
  52398  172.3619  6 Note Off        75, 0
  52411  172.4044  6 Note On         75, 50
  52411  172.4044  6 Note On         65, 50
  52411  172.4044  6 Note On         63, 50
  52437  172.4900  6 Note Off        63, 0
  52437  172.4900  6 Note Off        65, 0
  52437  172.4900  6 Note Off        75, 0
  52491  172.6675  6 Note On         65, 100
  52491  172.6675  6 Note On         73, 100
  52491  172.6675  6 Note On         61, 100
  52517  172.7531  6 Note Off        61, 0
  52517  172.7531  6 Note Off        73, 0
  52517  172.7531  6 Note Off        65, 0
  52530  172.7956  6 Note On         65, 50
  52530  172.7956  6 Note On         73, 50
  52530  172.7956  6 Note On         61, 50
  52558  172.8881  6 Note Off        61, 0
  52558  172.8881  6 Note Off        73, 0
  52558  172.8881  6 Note Off        65, 0
  52610  173.0588  6 Note On         63, 100
  52610  173.0588  6 Note On         75, 100
  52610  173.0588  6 Note On         65, 100
  52638  173.1513  6 Note Off        65, 0
  52638  173.1513  6 Note Off        75, 0
  52638  173.1513  6 Note Off        63, 0
  52651  173.1937  6 Note On         63, 50
  52651  173.1937  6 Note On         75, 50
  52651  173.1937  6 Note On         65, 50
  52677  173.2794  6 Note Off        65, 0
  52677  173.2794  6 Note Off        75, 0
  52677  173.2794  6 Note Off        63, 0
  52730  173.4538  6 Note On         61, 100
  52730  173.4538  6 Note On         65, 100
  52730  173.4538  6 Note On         73, 100
  52756  173.5394  6 Note Off        73, 0
  52756  173.5394  6 Note Off        65, 0
  52756  173.5394  6 Note Off        61, 0
  52769  173.5819  6 Note On         61, 50
  52769  173.5819  6 Note On         65, 50
  52769  173.5819  6 Note On         73, 50
  52795  173.6675  6 Note Off        73, 0
  52795  173.6675  6 Note Off        65, 0
  52795  173.6675  6 Note Off        61, 0
  52810  173.7169  6 Note On         75, 100
  52810  173.7169  6 Note On         63, 100
  52810  173.7169  6 Note On         65, 100
  52836  173.8025  6 Note Off        65, 0
  52836  173.8025  6 Note Off        63, 0
  52836  173.8025  6 Note Off        75, 0
  52849  173.8450  6 Note On         75, 50
  52849  173.8450  6 Note On         63, 50
  52849  173.8450  6 Note On         65, 50
  52875  173.9306  6 Note Off        65, 0
  52875  173.9306  6 Note Off        63, 0
  52875  173.9306  6 Note Off        75, 0
  52888  173.9731  6 Note On         73, 100
  52888  173.9731  6 Note On         65, 100
  52888  173.9731  6 Note On         61, 100
  52916  174.0656  6 Note Off        61, 0
  52916  174.0656  6 Note Off        65, 0
  52916  174.0656  6 Note Off        73, 0
  52929  174.1081  6 Note On         73, 50
  52929  174.1081  6 Note On         65, 50
  52929  174.1081  6 Note On         61, 50
  52955  174.1937  6 Note Off        61, 0
  52955  174.1937  6 Note Off        65, 0
  52955  174.1937  6 Note Off        73, 0
  53009  174.3713  6 Note On         75, 100
  53009  174.3713  6 Note On         65, 100
  53009  174.3713  6 Note On         63, 100
  53035  174.4569  6 Note Off        63, 0
  53035  174.4569  6 Note Off        65, 0
  53035  174.4569  6 Note Off        75, 0
  53048  174.5000  6 Note On         75, 50
  53048  174.5000  6 Note On         65, 50
  53048  174.5000  6 Note On         63, 50
  53076  174.5919  6 Note Off        63, 0
  53076  174.5919  6 Note Off        65, 0
  53076  174.5919  6 Note Off        75, 0
  53127  174.7594  6 Note On         61, 100
  53127  174.7594  6 Note On         73, 100
  53127  174.7594  6 Note On         65, 100
  53155  174.8519  6 Note Off        65, 0
  53155  174.8519  6 Note Off        73, 0
  53155  174.8519  6 Note Off        61, 0
  53168  174.8944  6 Note On         61, 50
  53168  174.8944  6 Note On         73, 50
  53168  174.8944  6 Note On         65, 50
  53194  174.9800  6 Note Off        65, 0
  53194  174.9800  6 Note Off        73, 0
  53194  174.9800  6 Note Off        61, 0
  53248  175.1575  6 Note On         63, 100
  53248  175.1575  6 Note On         65, 100
  53248  175.1575  6 Note On         75, 100
  53274  175.2431  6 Note Off        75, 0
  53274  175.2431  6 Note Off        65, 0
  53274  175.2431  6 Note Off        63, 0
  53287  175.2856  6 Note On         63, 50
  53287  175.2856  6 Note On         65, 50
  53287  175.2856  6 Note On         75, 50
  53313  175.3713  6 Note Off        75, 0
  53313  175.3713  6 Note Off        65, 0
  53313  175.3713  6 Note Off        63, 0
  53328  175.4206  6 Note On         73, 100
  53328  175.4206  6 Note On         61, 100
  53328  175.4206  6 Note On         65, 100
  53354  175.5062  6 Note Off        65, 0
  53354  175.5062  6 Note Off        61, 0
  53354  175.5062  6 Note Off        73, 0
  53367  175.5494  6 Note On         73, 50
  53367  175.5494  6 Note On         61, 50
  53367  175.5494  6 Note On         65, 50
  53393  175.6344  6 Note Off        65, 0
  53393  175.6344  6 Note Off        61, 0
  53393  175.6344  6 Note Off        73, 0
  53406  175.6775  6 Note On         63, 100
  53406  175.6775  6 Note On         75, 100
  53406  175.6775  6 Note On         65, 100
  53434  175.7694  6 Note Off        65, 0
  53434  175.7694  6 Note Off        75, 0
  53434  175.7694  6 Note Off        63, 0
  53447  175.8125  6 Note On         63, 50
  53447  175.8125  6 Note On         75, 50
  53447  175.8125  6 Note On         65, 50
  53473  175.8975  6 Note Off        65, 0
  53473  175.8975  6 Note Off        75, 0
  53473  175.8975  6 Note Off        63, 0
  53527  176.0756  6 Note On         73, 100
  53527  176.0756  6 Note On         61, 100
  53527  176.0756  6 Note On         65, 100
  53552  176.1575  6 Note Off        65, 0
  53552  176.1575  6 Note Off        61, 0
  53552  176.1575  6 Note Off        73, 0
  53565  176.2006  6 Note On         73, 50
  53565  176.2006  6 Note On         61, 50
  53565  176.2006  6 Note On         65, 50
  53593  176.2925  6 Note Off        65, 0
  53593  176.2925  6 Note Off        61, 0
  53593  176.2925  6 Note Off        73, 0
  53645  176.4638  6 Note On         75, 100
  53645  176.4638  6 Note On         65, 100
  53645  176.4638  6 Note On         63, 100
  53673  176.5556  6 Note Off        63, 0
  53673  176.5556  6 Note Off        65, 0
  53673  176.5556  6 Note Off        75, 0
  53686  176.5981  6 Note On         75, 50
  53686  176.5981  6 Note On         65, 50
  53686  176.5981  6 Note On         63, 50
  53712  176.6838  6 Note Off        63, 0
  53712  176.6838  6 Note Off        65, 0
  53712  176.6838  6 Note Off        75, 0
  53766  176.8619  6 Note On         65, 100
  53766  176.8619  6 Note On         73, 100
  53766  176.8619  6 Note On         61, 100
  53792  176.9469  6 Note Off        61, 0
  53792  176.9469  6 Note Off        73, 0
  53792  176.9469  6 Note Off        65, 0
  53805  176.9900  6 Note On         65, 50
  53805  176.9900  6 Note On         73, 50
  53805  176.9900  6 Note On         61, 50
  53831  177.0756  6 Note Off        61, 0
  53831  177.0756  6 Note Off        73, 0
  53831  177.0756  6 Note Off        65, 0
  53885  177.2531  6 Note On         63, 100
  53885  177.2531  6 Note On         75, 100
  53885  177.2531  6 Note On         65, 100
  53911  177.3388  6 Note Off        65, 0
  53911  177.3388  6 Note Off        75, 0
  53911  177.3388  6 Note Off        63, 0
  53923  177.3781  6 Note On         63, 50
  53923  177.3781  6 Note On         75, 50
  53923  177.3781  6 Note On         65, 50
  53952  177.4731  6 Note Off        65, 0
  53952  177.4731  6 Note Off        75, 0
  53952  177.4731  6 Note Off        63, 0
  54003  177.6413  6 Note On         61, 100
  54003  177.6413  6 Note On         65, 100
  54003  177.6413  6 Note On         73, 100
  54031  177.7331  6 Note Off        73, 0
  54031  177.7331  6 Note Off        65, 0
  54031  177.7331  6 Note Off        61, 0
  54044  177.7763  6 Note On         61, 50
  54044  177.7763  6 Note On         65, 50
  54044  177.7763  6 Note On         73, 50
  54070  177.8619  6 Note Off        73, 0
  54070  177.8619  6 Note Off        65, 0
  54070  177.8619  6 Note Off        61, 0
  54083  177.9044  6 Note On         75, 100
  54083  177.9044  6 Note On         63, 100
  54083  177.9044  6 Note On         65, 100
  54111  177.9963  6 Note Off        65, 0
  54111  177.9963  6 Note Off        63, 0
  54111  177.9963  6 Note Off        75, 0
  54124  178.0394  6 Note On         75, 50
  54124  178.0394  6 Note On         63, 50
  54124  178.0394  6 Note On         65, 50
  54150  178.1250  6 Note Off        65, 0
  54150  178.1250  6 Note Off        63, 0
  54150  178.1250  6 Note Off        75, 0
  54163  178.1675  6 Note On         73, 100
  54163  178.1675  6 Note On         65, 100
  54163  178.1675  6 Note On         61, 100
  54191  178.2594  6 Note Off        61, 0
  54191  178.2594  6 Note Off        65, 0
  54191  178.2594  6 Note Off        73, 0
  54204  178.3025  6 Note On         73, 50
  54204  178.3025  6 Note On         65, 50
  54204  178.3025  6 Note On         61, 50
  54230  178.3881  6 Note Off        61, 0
  54230  178.3881  6 Note Off        65, 0
  54230  178.3881  6 Note Off        73, 0
  54284  178.5656  6 Note On         75, 100
  54284  178.5656  6 Note On         65, 100
  54284  178.5656  6 Note On         63, 100
  54310  178.6513  6 Note Off        63, 0
  54310  178.6513  6 Note Off        65, 0
  54310  178.6513  6 Note Off        75, 0
  54323  178.6937  6 Note On         75, 50
  54323  178.6937  6 Note On         65, 50
  54323  178.6937  6 Note On         63, 50
  54348  178.7763  6 Note Off        63, 0
  54348  178.7763  6 Note Off        65, 0
  54348  178.7763  6 Note Off        75, 0
  54402  178.9538  6 Note On         61, 100
  54402  178.9538  6 Note On         73, 100
  54402  178.9538  6 Note On         65, 100
  54428  179.0394  6 Note Off        65, 0
  54428  179.0394  6 Note Off        73, 0
  54428  179.0394  6 Note Off        61, 0
  54441  179.0819  6 Note On         61, 50
  54441  179.0819  6 Note On         73, 50
  54441  179.0819  6 Note On         65, 50
  54469  179.1744  6 Note Off        65, 0
  54469  179.1744  6 Note Off        73, 0
  54469  179.1744  6 Note Off        61, 0
  54521  179.3450  6 Note On         63, 100
  54521  179.3450  6 Note On         65, 100
  54521  179.3450  6 Note On         75, 100
  54549  179.4375  6 Note Off        75, 0
  54549  179.4375  6 Note Off        65, 0
  54549  179.4375  6 Note Off        63, 0
  54562  179.4800  6 Note On         63, 50
  54562  179.4800  6 Note On         65, 50
  54562  179.4800  6 Note On         75, 50
  54588  179.5656  6 Note Off        75, 0
  54588  179.5656  6 Note Off        65, 0
  54588  179.5656  6 Note Off        63, 0
  54601  179.6081  6 Note On         73, 100
  54601  179.6081  6 Note On         61, 100
  54601  179.6081  6 Note On         65, 100
  54629  179.7006  6 Note Off        65, 0
  54629  179.7006  6 Note Off        61, 0
  54629  179.7006  6 Note Off        73, 0
  54642  179.7431  6 Note On         73, 50
  54642  179.7431  6 Note On         61, 50
  54642  179.7431  6 Note On         65, 50
  54668  179.8288  6 Note Off        65, 0
  54668  179.8288  6 Note Off        61, 0
  54668  179.8288  6 Note Off        73, 0
  54681  179.8713  6 Note On         63, 100
  54681  179.8713  6 Note On         75, 100
  54681  179.8713  6 Note On         65, 100
  54709  179.9638  6 Note Off        65, 0
  54709  179.9638  6 Note Off        75, 0
  54709  179.9638  6 Note Off        63, 0
  54722  180.0062  6 Note On         63, 50
  54722  180.0062  6 Note On         75, 50
  54722  180.0062  6 Note On         65, 50
  54748  180.0919  6 Note Off        65, 0
  54748  180.0919  6 Note Off        75, 0
  54748  180.0919  6 Note Off        63, 0
  54801  180.2663  6 Note On         73, 100
  54801  180.2663  6 Note On         61, 100
  54801  180.2663  6 Note On         65, 100
  54827  180.3519  6 Note Off        65, 0
  54827  180.3519  6 Note Off        61, 0
  54827  180.3519  6 Note Off        73, 0
  54840  180.3944  6 Note On         73, 50
  54840  180.3944  6 Note On         61, 50
  54840  180.3944  6 Note On         65, 50
  54866  180.4800  6 Note Off        65, 0
  54866  180.4800  6 Note Off        61, 0
  54866  180.4800  6 Note Off        73, 0
  54920  180.6575  6 Note On         75, 100
  54920  180.6575  6 Note On         65, 100
  54920  180.6575  6 Note On         63, 100
  54946  180.7431  6 Note Off        63, 0
  54946  180.7431  6 Note Off        65, 0
  54946  180.7431  6 Note Off        75, 0
  54959  180.7856  6 Note On         75, 50
  54959  180.7856  6 Note On         65, 50
  54959  180.7856  6 Note On         63, 50
  54987  180.8781  6 Note Off        63, 0
  54987  180.8781  6 Note Off        65, 0
  54987  180.8781  6 Note Off        75, 0
  55039  181.0494  6 Note On         65, 100
  55039  181.0494  6 Note On         73, 100
  55039  181.0494  6 Note On         61, 100
  55067  181.1413  6 Note Off        61, 0
  55067  181.1413  6 Note Off        73, 0
  55067  181.1413  6 Note Off        65, 0
  55080  181.1838  6 Note On         65, 50
  55080  181.1838  6 Note On         73, 50
  55080  181.1838  6 Note On         61, 50
  55106  181.2694  6 Note Off        61, 0
  55106  181.2694  6 Note Off        73, 0
  55106  181.2694  6 Note Off        65, 0
  55160  181.4469  6 Note On         63, 100
  55160  181.4469  6 Note On         75, 100
  55160  181.4469  6 Note On         65, 100
  55185  181.5294  6 Note Off        65, 0
  55185  181.5294  6 Note Off        75, 0
  55185  181.5294  6 Note Off        63, 0
  55198  181.5719  6 Note On         63, 50
  55198  181.5719  6 Note On         75, 50
  55198  181.5719  6 Note On         65, 50
  55226  181.6644  6 Note Off        65, 0
  55226  181.6644  6 Note Off        75, 0
  55226  181.6644  6 Note Off        63, 0
  55278  181.8350  6 Note On         61, 100
  55278  181.8350  6 Note On         65, 100
  55278  181.8350  6 Note On         73, 100
  55304  181.9206  6 Note Off        73, 0
  55304  181.9206  6 Note Off        65, 0
  55304  181.9206  6 Note Off        61, 0
  55319  181.9700  6 Note On         61, 50
  55319  181.9700  6 Note On         65, 50
  55319  181.9700  6 Note On         73, 50
  55345  182.0556  6 Note Off        73, 0
  55345  182.0556  6 Note Off        65, 0
  55345  182.0556  6 Note Off        61, 0
  55358  182.0981  6 Note On         75, 100
  55358  182.0981  6 Note On         63, 100
  55358  182.0981  6 Note On         65, 100
  55384  182.1838  6 Note Off        65, 0
  55384  182.1838  6 Note Off        63, 0
  55384  182.1838  6 Note Off        75, 0
  55399  182.2331  6 Note On         75, 50
  55399  182.2331  6 Note On         63, 50
  55399  182.2331  6 Note On         65, 50
  55425  182.3187  6 Note Off        65, 0
  55425  182.3187  6 Note Off        63, 0
  55425  182.3187  6 Note Off        75, 0
  55438  182.3619  6 Note On         73, 100
  55438  182.3619  6 Note On         65, 100
  55438  182.3619  6 Note On         61, 100
  55464  182.4469  6 Note Off        61, 0
  55464  182.4469  6 Note Off        65, 0
  55464  182.4469  6 Note Off        73, 0
  55477  182.4900  6 Note On         73, 50
  55477  182.4900  6 Note On         65, 50
  55477  182.4900  6 Note On         61, 50
  55505  182.5819  6 Note Off        61, 0
  55505  182.5819  6 Note Off        65, 0
  55505  182.5819  6 Note Off        73, 0
  55557  182.7531  6 Note On         75, 100
  55557  182.7531  6 Note On         65, 100
  55557  182.7531  6 Note On         63, 100
  55585  182.8450  6 Note Off        63, 0
  55585  182.8450  6 Note Off        65, 0
  55585  182.8450  6 Note Off        75, 0
  55598  182.8881  6 Note On         75, 50
  55598  182.8881  6 Note On         65, 50
  55598  182.8881  6 Note On         63, 50
  55623  182.9700  6 Note Off        63, 0
  55623  182.9700  6 Note Off        65, 0
  55623  182.9700  6 Note Off        75, 0
  55677  183.1475  6 Note On         61, 100
  55677  183.1475  6 Note On         73, 100
  55677  183.1475  6 Note On         65, 100
  55703  183.2331  6 Note Off        65, 0
  55703  183.2331  6 Note Off        73, 0
  55703  183.2331  6 Note Off        61, 0
  55716  183.2763  6 Note On         61, 50
  55716  183.2763  6 Note On         73, 50
  55716  183.2763  6 Note On         65, 50
  55744  183.3681  6 Note Off        65, 0
  55744  183.3681  6 Note Off        73, 0
  55744  183.3681  6 Note Off        61, 0
  55796  183.5394  6 Note On         63, 100
  55796  183.5394  6 Note On         65, 100
  55796  183.5394  6 Note On         75, 100
  55822  183.6250  6 Note Off        75, 0
  55822  183.6250  6 Note Off        65, 0
  55822  183.6250  6 Note Off        63, 0
  55837  183.6744  6 Note On         63, 50
  55837  183.6744  6 Note On         65, 50
  55837  183.6744  6 Note On         75, 50
  55863  183.7594  6 Note Off        75, 0
  55863  183.7594  6 Note Off        65, 0
  55863  183.7594  6 Note Off        63, 0
  55876  183.8025  6 Note On         73, 100
  55876  183.8025  6 Note On         61, 100
  55876  183.8025  6 Note On         65, 100
  55902  183.8881  6 Note Off        65, 0
  55902  183.8881  6 Note Off        61, 0
  55902  183.8881  6 Note Off        73, 0
  55917  183.9375  6 Note On         73, 50
  55917  183.9375  6 Note On         61, 50
  55917  183.9375  6 Note On         65, 50
  55943  184.0225  6 Note Off        65, 0
  55943  184.0225  6 Note Off        61, 0
  55943  184.0225  6 Note Off        73, 0
  55956  184.0656  6 Note On         63, 100
  55956  184.0656  6 Note On         75, 100
  55956  184.0656  6 Note On         65, 100
  55982  184.1513  6 Note Off        65, 0
  55982  184.1513  6 Note Off        75, 0
  55982  184.1513  6 Note Off        63, 0
  55994  184.1906  6 Note On         63, 50
  55994  184.1906  6 Note On         75, 50
  55994  184.1906  6 Note On         65, 50
  56023  184.2856  6 Note Off        65, 0
  56023  184.2856  6 Note Off        75, 0
  56023  184.2856  6 Note Off        63, 0
  56074  184.4538  6 Note On         73, 100
  56074  184.4538  6 Note On         61, 100
  56074  184.4538  6 Note On         65, 100
  56102  184.5456  6 Note Off        65, 0
  56102  184.5456  6 Note Off        61, 0
  56102  184.5456  6 Note Off        73, 0
  56115  184.5888  6 Note On         73, 50
  56115  184.5888  6 Note On         61, 50
  56115  184.5888  6 Note On         65, 50
  56141  184.6744  6 Note Off        65, 0
  56141  184.6744  6 Note Off        61, 0
  56141  184.6744  6 Note Off        73, 0
  56195  184.8519  6 Note On         75, 100
  56195  184.8519  6 Note On         65, 100
  56195  184.8519  6 Note On         63, 100
  56221  184.9375  6 Note Off        63, 0
  56221  184.9375  6 Note Off        65, 0
  56221  184.9375  6 Note Off        75, 0
  56234  184.9800  6 Note On         75, 50
  56234  184.9800  6 Note On         65, 50
  56234  184.9800  6 Note On         63, 50
  56262  185.0719  6 Note Off        63, 0
  56262  185.0719  6 Note Off        65, 0
  56262  185.0719  6 Note Off        75, 0
  56314  185.2431  6 Note On         65, 100
  56314  185.2431  6 Note On         73, 100
  56314  185.2431  6 Note On         61, 100
  56340  185.3288  6 Note Off        61, 0
  56340  185.3288  6 Note Off        73, 0
  56340  185.3288  6 Note Off        65, 0
  56355  185.3781  6 Note On         65, 50
  56355  185.3781  6 Note On         73, 50
  56355  185.3781  6 Note On         61, 50
  56381  185.4638  6 Note Off        61, 0
  56381  185.4638  6 Note Off        73, 0
  56381  185.4638  6 Note Off        65, 0
  56435  185.6413  6 Note On         63, 100
  56435  185.6413  6 Note On         75, 100
  56435  185.6413  6 Note On         65, 100
  56460  185.7231  6 Note Off        65, 0
  56460  185.7231  6 Note Off        75, 0
  56460  185.7231  6 Note Off        63, 0
  56473  185.7663  6 Note On         63, 50
  56473  185.7663  6 Note On         75, 50
  56473  185.7663  6 Note On         65, 50
  56499  185.8519  6 Note Off        65, 0
  56499  185.8519  6 Note Off        75, 0
  56499  185.8519  6 Note Off        63, 0
  56553  186.0294  6 Note On         61, 100
  56553  186.0294  6 Note On         65, 100
  56553  186.0294  6 Note On         73, 100
  56579  186.1150  6 Note Off        73, 0
  56579  186.1150  6 Note Off        65, 0
  56579  186.1150  6 Note Off        61, 0
  56592  186.1575  6 Note On         61, 50
  56592  186.1575  6 Note On         65, 50
  56592  186.1575  6 Note On         73, 50
  56620  186.2500  6 Note Off        73, 0
  56620  186.2500  6 Note Off        65, 0
  56620  186.2500  6 Note Off        61, 0
  56633  186.2925  6 Note On         75, 100
  56633  186.2925  6 Note On         63, 100
  56633  186.2925  6 Note On         65, 100
  56659  186.3781  6 Note Off        65, 0
  56659  186.3781  6 Note Off        63, 0
  56659  186.3781  6 Note Off        75, 0
  56672  186.4206  6 Note On         75, 50
  56672  186.4206  6 Note On         63, 50
  56672  186.4206  6 Note On         65, 50
  56700  186.5131  6 Note Off        65, 0
  56700  186.5131  6 Note Off        63, 0
  56700  186.5131  6 Note Off        75, 0
  56713  186.5556  6 Note On         73, 100
  56713  186.5556  6 Note On         65, 100
  56713  186.5556  6 Note On         61, 100
  56739  186.6413  6 Note Off        61, 0
  56739  186.6413  6 Note Off        65, 0
  56739  186.6413  6 Note Off        73, 0
  56752  186.6838  6 Note On         73, 50
  56752  186.6838  6 Note On         65, 50
  56752  186.6838  6 Note On         61, 50
  56780  186.7763  6 Note Off        61, 0
  56780  186.7763  6 Note Off        65, 0
  56780  186.7763  6 Note Off        73, 0
  56832  186.9469  6 Note On         75, 100
  56832  186.9469  6 Note On         65, 100
  56832  186.9469  6 Note On         63, 100
  56857  187.0294  6 Note Off        63, 0
  56857  187.0294  6 Note Off        65, 0
  56857  187.0294  6 Note Off        75, 0
  56872  187.0788  6 Note On         75, 50
  56872  187.0788  6 Note On         65, 50
  56872  187.0788  6 Note On         63, 50
  56898  187.1644  6 Note Off        63, 0
  56898  187.1644  6 Note Off        65, 0
  56898  187.1644  6 Note Off        75, 0
  56952  187.3419  6 Note On         61, 100
  56952  187.3419  6 Note On         73, 100
  56952  187.3419  6 Note On         65, 100
  56978  187.4275  6 Note Off        65, 0
  56978  187.4275  6 Note Off        73, 0
  56978  187.4275  6 Note Off        61, 0
  56991  187.4700  6 Note On         61, 50
  56991  187.4700  6 Note On         73, 50
  56991  187.4700  6 Note On         65, 50
  57017  187.5556  6 Note Off        65, 0
  57017  187.5556  6 Note Off        73, 0
  57017  187.5556  6 Note Off        61, 0
  57071  187.7331  6 Note On         63, 100
  57071  187.7331  6 Note On         65, 100
  57071  187.7331  6 Note On         75, 100
  57097  187.8187  6 Note Off        75, 0
  57097  187.8187  6 Note Off        65, 0
  57097  187.8187  6 Note Off        63, 0
  57110  187.8613  6 Note On         63, 50
  57110  187.8613  6 Note On         65, 50
  57110  187.8613  6 Note On         75, 50
  57138  187.9538  6 Note Off        75, 0
  57138  187.9538  6 Note Off        65, 0
  57138  187.9538  6 Note Off        63, 0
  57151  187.9963  6 Note On         73, 100
  57151  187.9963  6 Note On         61, 100
  57151  187.9963  6 Note On         65, 100
  57177  188.0819  6 Note Off        65, 0
  57177  188.0819  6 Note Off        61, 0
  57177  188.0819  6 Note Off        73, 0
  57190  188.1250  6 Note On         73, 50
  57190  188.1250  6 Note On         61, 50
  57190  188.1250  6 Note On         65, 50
  57218  188.2169  6 Note Off        65, 0
  57218  188.2169  6 Note Off        61, 0
  57218  188.2169  6 Note Off        73, 0
  57231  188.2594  6 Note On         63, 100
  57231  188.2594  6 Note On         75, 100
  57231  188.2594  6 Note On         65, 100
  57256  188.3419  6 Note Off        65, 0
  57256  188.3419  6 Note Off        75, 0
  57256  188.3419  6 Note Off        63, 0
  57269  188.3844  6 Note On         63, 50
  57269  188.3844  6 Note On         75, 50
  57269  188.3844  6 Note On         65, 50
  57297  188.4769  6 Note Off        65, 0
  57297  188.4769  6 Note Off        75, 0
  57297  188.4769  6 Note Off        63, 0
  57349  188.6475  6 Note On         73, 100
  57349  188.6475  6 Note On         61, 100
  57349  188.6475  6 Note On         65, 100
  57375  188.7331  6 Note Off        65, 0
  57375  188.7331  6 Note Off        61, 0
  57375  188.7331  6 Note Off        73, 0
  57390  188.7825  6 Note On         73, 50
  57390  188.7825  6 Note On         61, 50
  57390  188.7825  6 Note On         65, 50
  57416  188.8681  6 Note Off        65, 0
  57416  188.8681  6 Note Off        61, 0
  57416  188.8681  6 Note Off        73, 0
  57470  189.0456  6 Note On         75, 100
  57470  189.0456  6 Note On         65, 100
  57470  189.0456  6 Note On         63, 100
  57496  189.1312  6 Note Off        63, 0
  57496  189.1312  6 Note Off        65, 0
  57496  189.1312  6 Note Off        75, 0
  57509  189.1738  6 Note On         75, 50
  57509  189.1738  6 Note On         65, 50
  57509  189.1738  6 Note On         63, 50
  57535  189.2594  6 Note Off        63, 0
  57535  189.2594  6 Note Off        65, 0
  57535  189.2594  6 Note Off        75, 0
  57589  189.4375  6 Note On         65, 100
  57589  189.4375  6 Note On         73, 100
  57589  189.4375  6 Note On         61, 100
  57615  189.5225  6 Note Off        61, 0
  57615  189.5225  6 Note Off        73, 0
  57615  189.5225  6 Note Off        65, 0
  57628  189.5656  6 Note On         65, 50
  57628  189.5656  6 Note On         73, 50
  57628  189.5656  6 Note On         61, 50
  57656  189.6575  6 Note Off        61, 0
  57656  189.6575  6 Note Off        73, 0
  57656  189.6575  6 Note Off        65, 0
  57707  189.8256  6 Note On         63, 100
  57707  189.8256  6 Note On         75, 100
  57707  189.8256  6 Note On         65, 100
  57735  189.9175  6 Note Off        65, 0
  57735  189.9175  6 Note Off        75, 0
  57735  189.9175  6 Note Off        63, 0
  57748  189.9600  6 Note On         63, 50
  57748  189.9600  6 Note On         75, 50
  57748  189.9600  6 Note On         65, 50
  57774  190.0456  6 Note Off        65, 0
  57774  190.0456  6 Note Off        75, 0
  57774  190.0456  6 Note Off        63, 0
  57828  190.2231  6 Note On         61, 100
  57828  190.2231  6 Note On         65, 100
  57828  190.2231  6 Note On         73, 100
  57854  190.3088  6 Note Off        73, 0
  57854  190.3088  6 Note Off        65, 0
  57854  190.3088  6 Note Off        61, 0
  57867  190.3519  6 Note On         61, 50
  57867  190.3519  6 Note On         65, 50
  57867  190.3519  6 Note On         73, 50
  57893  190.4375  6 Note Off        73, 0
  57893  190.4375  6 Note Off        65, 0
  57893  190.4375  6 Note Off        61, 0
  57908  190.4863  6 Note On         75, 100
  57908  190.4863  6 Note On         63, 100
  57908  190.4863  6 Note On         65, 100
  57934  190.5719  6 Note Off        65, 0
  57934  190.5719  6 Note Off        63, 0
  57934  190.5719  6 Note Off        75, 0
  57947  190.6150  6 Note On         75, 50
  57947  190.6150  6 Note On         63, 50
  57947  190.6150  6 Note On         65, 50
  57973  190.7006  6 Note Off        65, 0
  57973  190.7006  6 Note Off        63, 0
  57973  190.7006  6 Note Off        75, 0
  57988  190.7500  6 Note On         73, 100
  57988  190.7500  6 Note On         65, 100
  57988  190.7500  6 Note On         61, 100
  58014  190.8350  6 Note Off        61, 0
  58014  190.8350  6 Note Off        65, 0
  58014  190.8350  6 Note Off        73, 0
  58027  190.8781  6 Note On         73, 50
  58027  190.8781  6 Note On         65, 50
  58027  190.8781  6 Note On         61, 50
  58053  190.9638  6 Note Off        61, 0
  58053  190.9638  6 Note Off        65, 0
  58053  190.9638  6 Note Off        73, 0
  58106  191.1381  6 Note On         75, 100
  58106  191.1381  6 Note On         65, 100
  58106  191.1381  6 Note On         63, 100
  58132  191.2231  6 Note Off        63, 0
  58132  191.2231  6 Note Off        65, 0
  58132  191.2231  6 Note Off        75, 0
  58145  191.2663  6 Note On         75, 50
  58145  191.2663  6 Note On         65, 50
  58145  191.2663  6 Note On         63, 50
  58173  191.3581  6 Note Off        63, 0
  58173  191.3581  6 Note Off        65, 0
  58173  191.3581  6 Note Off        75, 0
  58225  191.5294  6 Note On         61, 100
  58225  191.5294  6 Note On         73, 100
  58225  191.5294  6 Note On         65, 100
  58253  191.6213  6 Note Off        65, 0
  58253  191.6213  6 Note Off        73, 0
  58253  191.6213  6 Note Off        61, 0
  58266  191.6644  6 Note On         61, 50
  58266  191.6644  6 Note On         73, 50
  58266  191.6644  6 Note On         65, 50
  58292  191.7500  6 Note Off        65, 0
  58292  191.7500  6 Note Off        73, 0
  58292  191.7500  6 Note Off        61, 0
  58346  191.9275  6 Note On         63, 100
  58346  191.9275  6 Note On         65, 100
  58346  191.9275  6 Note On         75, 100
  58372  192.0131  6 Note Off        75, 0
  58372  192.0131  6 Note Off        65, 0
  58372  192.0131  6 Note Off        63, 0
  58385  192.0556  6 Note On         63, 50
  58385  192.0556  6 Note On         65, 50
  58385  192.0556  6 Note On         75, 50
  58411  192.1413  6 Note Off        75, 0
  58411  192.1413  6 Note Off        65, 0
  58411  192.1413  6 Note Off        63, 0
  58426  192.1906  6 Note On         73, 100
  58426  192.1906  6 Note On         61, 100
  58426  192.1906  6 Note On         65, 100
  58452  192.2763  6 Note Off        65, 0
  58452  192.2763  6 Note Off        61, 0
  58452  192.2763  6 Note Off        73, 0
  58465  192.3187  6 Note On         73, 50
  58465  192.3187  6 Note On         61, 50
  58465  192.3187  6 Note On         65, 50
  58490  192.4013  6 Note Off        65, 0
  58490  192.4013  6 Note Off        61, 0
  58490  192.4013  6 Note Off        73, 0
  58506  192.4538  6 Note On         63, 100
  58506  192.4538  6 Note On         75, 100
  58506  192.4538  6 Note On         65, 100
  58531  192.5356  6 Note Off        65, 0
  58531  192.5356  6 Note Off        75, 0
  58531  192.5356  6 Note Off        63, 0
  58544  192.5788  6 Note On         63, 50
  58544  192.5788  6 Note On         75, 50
  58544  192.5788  6 Note On         65, 50
  58570  192.6644  6 Note Off        65, 0
  58570  192.6644  6 Note Off        75, 0
  58570  192.6644  6 Note Off        63, 0
  58624  192.8419  6 Note On         73, 100
  58624  192.8419  6 Note On         61, 100
  58624  192.8419  6 Note On         65, 100
  58650  192.9275  6 Note Off        65, 0
  58650  192.9275  6 Note Off        61, 0
  58650  192.9275  6 Note Off        73, 0
  58663  192.9700  6 Note On         73, 50
  58663  192.9700  6 Note On         61, 50
  58663  192.9700  6 Note On         65, 50
  58691  193.0625  6 Note Off        65, 0
  58691  193.0625  6 Note Off        61, 0
  58691  193.0625  6 Note Off        73, 0
  58743  193.2331  6 Note On         75, 100
  58743  193.2331  6 Note On         65, 100
  58743  193.2331  6 Note On         63, 100
  58771  193.3256  6 Note Off        63, 0
  58771  193.3256  6 Note Off        65, 0
  58771  193.3256  6 Note Off        75, 0
  58784  193.3681  6 Note On         75, 50
  58784  193.3681  6 Note On         65, 50
  58784  193.3681  6 Note On         63, 50
  58810  193.4538  6 Note Off        63, 0
  58810  193.4538  6 Note Off        65, 0
  58810  193.4538  6 Note Off        75, 0
  58864  193.6312  6 Note On         65, 100
  58864  193.6312  6 Note On         73, 100
  58864  193.6312  6 Note On         61, 100
  58890  193.7169  6 Note Off        61, 0
  58890  193.7169  6 Note Off        73, 0
  58890  193.7169  6 Note Off        65, 0
  58903  193.7594  6 Note On         65, 50
  58903  193.7594  6 Note On         73, 50
  58903  193.7594  6 Note On         61, 50
  58928  193.8419  6 Note Off        61, 0
  58928  193.8419  6 Note Off        73, 0
  58928  193.8419  6 Note Off        65, 0
  58982  194.0194  6 Note On         63, 100
  58982  194.0194  6 Note On         75, 100
  58982  194.0194  6 Note On         65, 100
  59008  194.1050  6 Note Off        65, 0
  59008  194.1050  6 Note Off        75, 0
  59008  194.1050  6 Note Off        63, 0
  59023  194.1544  6 Note On         63, 50
  59023  194.1544  6 Note On         75, 50
  59023  194.1544  6 Note On         65, 50
  59049  194.2400  6 Note Off        65, 0
  59049  194.2400  6 Note Off        75, 0
  59049  194.2400  6 Note Off        63, 0
  59101  194.4106  6 Note On         61, 100
  59101  194.4106  6 Note On         65, 100
  59101  194.4106  6 Note On         73, 100
  59129  194.5031  6 Note Off        73, 0
  59129  194.5031  6 Note Off        65, 0
  59129  194.5031  6 Note Off        61, 0
  59142  194.5456  6 Note On         61, 50
  59142  194.5456  6 Note On         65, 50
  59142  194.5456  6 Note On         73, 50
  59168  194.6312  6 Note Off        73, 0
  59168  194.6312  6 Note Off        65, 0
  59168  194.6312  6 Note Off        61, 0
  59181  194.6738  6 Note On         75, 100
  59181  194.6738  6 Note On         63, 100
  59181  194.6738  6 Note On         65, 100
  59209  194.7663  6 Note Off        65, 0
  59209  194.7663  6 Note Off        63, 0
  59209  194.7663  6 Note Off        75, 0
  59222  194.8088  6 Note On         75, 50
  59222  194.8088  6 Note On         63, 50
  59222  194.8088  6 Note On         65, 50
  59248  194.8944  6 Note Off        65, 0
  59248  194.8944  6 Note Off        63, 0
  59248  194.8944  6 Note Off        75, 0
  59261  194.9375  6 Note On         73, 100
  59261  194.9375  6 Note On         65, 100
  59261  194.9375  6 Note On         61, 100
  59289  195.0294  6 Note Off        61, 0
  59289  195.0294  6 Note Off        65, 0
  59289  195.0294  6 Note Off        73, 0
  59302  195.0719  6 Note On         73, 50
  59302  195.0719  6 Note On         65, 50
  59302  195.0719  6 Note On         61, 50
  59328  195.1575  6 Note Off        61, 0
  59328  195.1575  6 Note Off        65, 0
  59328  195.1575  6 Note Off        73, 0
  59381  195.3319  6 Note On         75, 100
  59381  195.3319  6 Note On         65, 100
  59381  195.3319  6 Note On         63, 100
  59407  195.4175  6 Note Off        63, 0
  59407  195.4175  6 Note Off        65, 0
  59407  195.4175  6 Note Off        75, 0
  59420  195.4600  6 Note On         75, 50
  59420  195.4600  6 Note On         65, 50
  59420  195.4600  6 Note On         63, 50
  59446  195.5456  6 Note Off        63, 0
  59446  195.5456  6 Note Off        65, 0
  59446  195.5456  6 Note Off        75, 0
  59500  195.7231  6 Note On         61, 100
  59500  195.7231  6 Note On         73, 100
  59500  195.7231  6 Note On         65, 100
  59526  195.8088  6 Note Off        65, 0
  59526  195.8088  6 Note Off        73, 0
  59526  195.8088  6 Note Off        61, 0
  59541  195.8581  6 Note On         61, 50
  59541  195.8581  6 Note On         73, 50
  59541  195.8581  6 Note On         65, 50
  59567  195.9437  6 Note Off        65, 0
  59567  195.9437  6 Note Off        73, 0
  59567  195.9437  6 Note Off        61, 0
  59619  196.1150  6 Note On         63, 100
  59619  196.1150  6 Note On         65, 100
  59619  196.1150  6 Note On         75, 100
  59647  196.2069  6 Note Off        75, 0
  59647  196.2069  6 Note Off        65, 0
  59647  196.2069  6 Note Off        63, 0
  59660  196.2500  6 Note On         63, 50
  59660  196.2500  6 Note On         65, 50
  59660  196.2500  6 Note On         75, 50
  59686  196.3350  6 Note Off        75, 0
  59686  196.3350  6 Note Off        65, 0
  59686  196.3350  6 Note Off        63, 0
  59699  196.3781  6 Note On         73, 100
  59699  196.3781  6 Note On         61, 100
  59699  196.3781  6 Note On         65, 100
  59727  196.4700  6 Note Off        65, 0
  59727  196.4700  6 Note Off        61, 0
  59727  196.4700  6 Note Off        73, 0
  59740  196.5131  6 Note On         73, 50
  59740  196.5131  6 Note On         61, 50
  59740  196.5131  6 Note On         65, 50
  59765  196.5950  6 Note Off        65, 0
  59765  196.5950  6 Note Off        61, 0
  59765  196.5950  6 Note Off        73, 0
  59778  196.6381  6 Note On         63, 100
  59778  196.6381  6 Note On         75, 100
  59778  196.6381  6 Note On         65, 100
  59806  196.7300  6 Note Off        65, 0
  59806  196.7300  6 Note Off        75, 0
  59806  196.7300  6 Note Off        63, 0
  59819  196.7725  6 Note On         63, 50
  59819  196.7725  6 Note On         75, 50
  59819  196.7725  6 Note On         65, 50
  59845  196.8581  6 Note Off        65, 0
  59845  196.8581  6 Note Off        75, 0
  59845  196.8581  6 Note Off        63, 0
  59899  197.0356  6 Note On         73, 100
  59899  197.0356  6 Note On         61, 100
  59899  197.0356  6 Note On         65, 100
  59925  197.1213  6 Note Off        65, 0
  59925  197.1213  6 Note Off        61, 0
  59925  197.1213  6 Note Off        73, 0
  59938  197.1644  6 Note On         73, 50
  59938  197.1644  6 Note On         61, 50
  59938  197.1644  6 Note On         65, 50
  59964  197.2500  6 Note Off        65, 0
  59964  197.2500  6 Note Off        61, 0
  59964  197.2500  6 Note Off        73, 0
  60018  197.4275  6 Note On         75, 100
  60018  197.4275  6 Note On         65, 100
  60018  197.4275  6 Note On         63, 100
  60044  197.5131  6 Note Off        63, 0
  60044  197.5131  6 Note Off        65, 0
  60044  197.5131  6 Note Off        75, 0
  60059  197.5625  6 Note On         75, 50
  60059  197.5625  6 Note On         65, 50
  60059  197.5625  6 Note On         63, 50
  60085  197.6475  6 Note Off        63, 0
  60085  197.6475  6 Note Off        65, 0
  60085  197.6475  6 Note Off        75, 0
  60136  197.8156  6 Note On         65, 100
  60136  197.8156  6 Note On         73, 100
  60136  197.8156  6 Note On         61, 100
  60165  197.9106  6 Note Off        61, 0
  60165  197.9106  6 Note Off        73, 0
  60165  197.9106  6 Note Off        65, 0
  60177  197.9506  6 Note On         65, 50
  60177  197.9506  6 Note On         73, 50
  60177  197.9506  6 Note On         61, 50
  60203  198.0356  6 Note Off        61, 0
  60203  198.0356  6 Note Off        73, 0
  60203  198.0356  6 Note Off        65, 0
  60257  198.2138  6 Note On         63, 100
  60257  198.2138  6 Note On         75, 100
  60257  198.2138  6 Note On         65, 100
  60283  198.2988  6 Note Off        65, 0
  60283  198.2988  6 Note Off        75, 0
  60283  198.2988  6 Note Off        63, 0
  60296  198.3419  6 Note On         63, 50
  60296  198.3419  6 Note On         75, 50
  60296  198.3419  6 Note On         65, 50
  60324  198.4338  6 Note Off        65, 0
  60324  198.4338  6 Note Off        75, 0
  60324  198.4338  6 Note Off        63, 0
  60376  198.6050  6 Note On         61, 100
  60376  198.6050  6 Note On         65, 100
  60376  198.6050  6 Note On         73, 100
  60404  198.6969  6 Note Off        73, 0
  60404  198.6969  6 Note Off        65, 0
  60404  198.6969  6 Note Off        61, 0
  60417  198.7400  6 Note On         61, 50
  60417  198.7400  6 Note On         65, 50
  60417  198.7400  6 Note On         73, 50
  60443  198.8256  6 Note Off        73, 0
  60443  198.8256  6 Note Off        65, 0
  60443  198.8256  6 Note Off        61, 0
  60456  198.8681  6 Note On         75, 100
  60456  198.8681  6 Note On         63, 100
  60456  198.8681  6 Note On         65, 100
  60482  198.9538  6 Note Off        65, 0
  60482  198.9538  6 Note Off        63, 0
  60482  198.9538  6 Note Off        75, 0
  60497  199.0031  6 Note On         75, 50
  60497  199.0031  6 Note On         63, 50
  60497  199.0031  6 Note On         65, 50
  60523  199.0888  6 Note Off        65, 0
  60523  199.0888  6 Note Off        63, 0
  60523  199.0888  6 Note Off        75, 0
  60536  199.1312  6 Note On         73, 100
  60536  199.1312  6 Note On         65, 100
  60536  199.1312  6 Note On         61, 100
  60561  199.2138  6 Note Off        61, 0
  60561  199.2138  6 Note Off        65, 0
  60561  199.2138  6 Note Off        73, 0
  60577  199.2663  6 Note On         73, 50
  60577  199.2663  6 Note On         65, 50
  60577  199.2663  6 Note On         61, 50
  60602  199.3481  6 Note Off        61, 0
  60602  199.3481  6 Note Off        65, 0
  60602  199.3481  6 Note Off        73, 0
  60654  199.5194  6 Note On         75, 100
  60654  199.5194  6 Note On         65, 100
  60654  199.5194  6 Note On         63, 100
  60682  199.6113  6 Note Off        63, 0
  60682  199.6113  6 Note Off        65, 0
  60682  199.6113  6 Note Off        75, 0
  60695  199.6544  6 Note On         75, 50
  60695  199.6544  6 Note On         65, 50
  60695  199.6544  6 Note On         63, 50
  60721  199.7400  6 Note Off        63, 0
  60721  199.7400  6 Note Off        65, 0
  60721  199.7400  6 Note Off        75, 0
  60775  199.9175  6 Note On         61, 100
  60775  199.9175  6 Note On         73, 100
  60775  199.9175  6 Note On         65, 100
  60801  200.0031  6 Note Off        65, 0
  60801  200.0031  6 Note Off        73, 0
  60801  200.0031  6 Note Off        61, 0
  60814  200.0456  6 Note On         61, 50
  60814  200.0456  6 Note On         73, 50
  60814  200.0456  6 Note On         65, 50
  60842  200.1381  6 Note Off        65, 0
  60842  200.1381  6 Note Off        73, 0
  60842  200.1381  6 Note Off        61, 0
  60894  200.3088  6 Note On         63, 100
  60894  200.3088  6 Note On         65, 100
  60894  200.3088  6 Note On         75, 100
  60922  200.4013  6 Note Off        75, 0
  60922  200.4013  6 Note Off        65, 0
  60922  200.4013  6 Note Off        63, 0
  60935  200.4437  6 Note On         63, 50
  60935  200.4437  6 Note On         65, 50
  60935  200.4437  6 Note On         75, 50
  60961  200.5294  6 Note Off        75, 0
  60961  200.5294  6 Note Off        65, 0
  60961  200.5294  6 Note Off        63, 0
  60974  200.5719  6 Note On         73, 100
  60974  200.5719  6 Note On         61, 100
  60974  200.5719  6 Note On         65, 100
  60999  200.6544  6 Note Off        65, 0
  60999  200.6544  6 Note Off        61, 0
  60999  200.6544  6 Note Off        73, 0
  61015  200.7069  6 Note On         73, 50
  61015  200.7069  6 Note On         61, 50
  61015  200.7069  6 Note On         65, 50
  61040  200.7894  6 Note Off        65, 0
  61040  200.7894  6 Note Off        61, 0
  61040  200.7894  6 Note Off        73, 0
  61053  200.8319  6 Note On         63, 100
  61053  200.8319  6 Note On         75, 100
  61053  200.8319  6 Note On         65, 100
  61079  200.9175  6 Note Off        65, 0
  61079  200.9175  6 Note Off        75, 0
  61079  200.9175  6 Note Off        63, 0
  61094  200.9669  6 Note On         63, 50
  61094  200.9669  6 Note On         75, 50
  61094  200.9669  6 Note On         65, 50
  61120  201.0525  6 Note Off        65, 0
  61120  201.0525  6 Note Off        75, 0
  61120  201.0525  6 Note Off        63, 0
  61172  201.2231  6 Note On         73, 100
  61172  201.2231  6 Note On         61, 100
  61172  201.2231  6 Note On         65, 100
  61200  201.3156  6 Note Off        65, 0
  61200  201.3156  6 Note Off        61, 0
  61200  201.3156  6 Note Off        73, 0
  61213  201.3581  6 Note On         73, 50
  61213  201.3581  6 Note On         61, 50
  61213  201.3581  6 Note On         65, 50
  61239  201.4437  6 Note Off        65, 0
  61239  201.4437  6 Note Off        61, 0
  61239  201.4437  6 Note Off        73, 0
  61293  201.6213  6 Note On         75, 100
  61293  201.6213  6 Note On         65, 100
  61293  201.6213  6 Note On         63, 100
  61319  201.7069  6 Note Off        63, 0
  61319  201.7069  6 Note Off        65, 0
  61319  201.7069  6 Note Off        75, 0
  61332  201.7500  6 Note On         75, 50
  61332  201.7500  6 Note On         65, 50
  61332  201.7500  6 Note On         63, 50
  61360  201.8419  6 Note Off        63, 0
  61360  201.8419  6 Note Off        65, 0
  61360  201.8419  6 Note Off        75, 0
  61411  202.0094  6 Note On         65, 100
  61411  202.0094  6 Note On         73, 100
  61411  202.0094  6 Note On         61, 100
  61440  202.1050  6 Note Off        61, 0
  61440  202.1050  6 Note Off        73, 0
  61440  202.1050  6 Note Off        65, 0
  61452  202.1444  6 Note On         65, 50
  61452  202.1444  6 Note On         73, 50
  61452  202.1444  6 Note On         61, 50
  61478  202.2300  6 Note Off        61, 0
  61478  202.2300  6 Note Off        73, 0
  61478  202.2300  6 Note Off        65, 0
  61532  202.4075  6 Note On         63, 100
  61532  202.4075  6 Note On         75, 100
  61532  202.4075  6 Note On         65, 100
  61558  202.4931  6 Note Off        65, 0
  61558  202.4931  6 Note Off        75, 0
  61558  202.4931  6 Note Off        63, 0
  61571  202.5356  6 Note On         63, 50
  61571  202.5356  6 Note On         75, 50
  61571  202.5356  6 Note On         65, 50
  61597  202.6213  6 Note Off        65, 0
  61597  202.6213  6 Note Off        75, 0
  61597  202.6213  6 Note Off        63, 0
  61651  202.7988  6 Note On         61, 100
  61651  202.7988  6 Note On         65, 100
  61651  202.7988  6 Note On         73, 100
  61677  202.8844  6 Note Off        73, 0
  61677  202.8844  6 Note Off        65, 0
  61677  202.8844  6 Note Off        61, 0
  61690  202.9275  6 Note On         61, 50
  61690  202.9275  6 Note On         65, 50
  61690  202.9275  6 Note On         73, 50
  61718  203.0194  6 Note Off        73, 0
  61718  203.0194  6 Note Off        65, 0
  61718  203.0194  6 Note Off        61, 0
  61731  203.0625  6 Note On         75, 100
  61731  203.0625  6 Note On         63, 100
  61731  203.0625  6 Note On         65, 100
  61757  203.1475  6 Note Off        65, 0
  61757  203.1475  6 Note Off        63, 0
  61757  203.1475  6 Note Off        75, 0
  61770  203.1906  6 Note On         75, 50
  61770  203.1906  6 Note On         63, 50
  61770  203.1906  6 Note On         65, 50
  61798  203.2825  6 Note Off        65, 0
  61798  203.2825  6 Note Off        63, 0
  61798  203.2825  6 Note Off        75, 0
  61798  203.2825 -- Meta Event      End Of Track
  61798  203.2825 -- Track           End: 8
      0    0.0000 -- Track           Start: 9
      0    0.0000 -- Forced channel  7
      0    0.0000  7 Control Change  7, 100
      0    0.0000  7 Program Change  117
    476    1.5656  7 Control Change  0, 0
    478    1.5725  7 Control Change  0, 0
    481    1.5825  7 Control Change  7, 100
    483    1.5888  7 Control Change  10, 64
    485    1.5956  7 Control Change  11, 117
    487    1.6019  7 Control Change  91, 40
    487    1.6019  7 Control Change  93, 0
   6096   20.0525  7 Note On         60, 120
   6115   20.1150  7 Note Off        60, 0
   6133   20.1744  7 Note On         54, 120
   6152   20.2369  7 Note Off        54, 0
   6213   20.4375  7 Note On         48, 120
   6232   20.5000  7 Note Off        48, 0
   8361   27.5031  7 Note On         60, 120
   8383   27.5756  7 Note Off        60, 0
   8441   27.7662  7 Note On         60, 120
   8463   27.8388  7 Note Off        60, 0
   8482   27.9013  7 Note On         54, 120
   8501   27.9638  7 Note Off        54, 0
   8680   28.5525  7 Note On         48, 120
   8700   28.6181  7 Note Off        48, 0
   8801   28.9506  7 Note On         42, 120
   8821   29.0162  7 Note Off        42, 0
  10991   36.1544  7 Note On         60, 120
  11010   36.2169  7 Note Off        60, 0
  11034   36.2963  7 Note On         60, 100
  11054   36.3619  7 Note Off        60, 0
  11071   36.4175  7 Note On         60, 110
  11090   36.4800  7 Note Off        60, 0
  11114   36.5594  7 Note On         60, 100
  11133   36.6219  7 Note Off        60, 0
  11151   36.6806  7 Note On         54, 120
  11170   36.7431  7 Note Off        54, 0
  11194   36.8225  7 Note On         54, 100
  11213   36.8850  7 Note Off        54, 0
  11230   36.9406  7 Note On         54, 110
  11250   37.0063  7 Note Off        54, 0
  11310   37.2037  7 Note On         48, 120
  11330   37.2694  7 Note Off        48, 0
  11353   37.3456  7 Note On         48, 100
  11373   37.4113  7 Note Off        48, 0
  11390   37.4669  7 Note On         48, 110
  11409   37.5294  7 Note Off        48, 0
  13539   44.5363  7 Note On         54, 120
  13560   44.6050  7 Note Off        54, 0
  13580   44.6713  7 Note On         60, 100
  13599   44.7338  7 Note Off        60, 0
  13619   44.7994  7 Note On         60, 110
  13640   44.8681  7 Note Off        60, 0
  13660   44.9344  7 Note On         54, 100
  13679   44.9969  7 Note Off        54, 0
  13698   45.0594  7 Note On         54, 120
  13720   45.1313  7 Note Off        54, 0
  13739   45.1938  7 Note On         54, 100
  13759   45.2600  7 Note Off        54, 0
  13778   45.3225  7 Note On         48, 110
  13798   45.3881  7 Note Off        48, 0
  13858   45.5856  7 Note On         48, 120
  13877   45.6481  7 Note Off        48, 0
  13899   45.7206  7 Note On         48, 100
  13918   45.7831  7 Note Off        48, 0
  13938   45.8488  7 Note On         42, 110
  13957   45.9113  7 Note Off        42, 0
  16248   53.4475  7 Note On         60, 120
  16268   53.5131  7 Note Off        60, 0
  16274   53.5331  7 Note On         54, 110
  16294   53.5988  7 Note Off        54, 0
  16300   53.6181  7 Note On         42, 100
  16322   53.6906  7 Note Off        42, 0
  16328   53.7106  7 Note On         54, 100
  16348   53.7762  7 Note Off        54, 0
  16408   53.9738  7 Note On         48, 120
  16427   54.0363  7 Note Off        48, 0
  16453   54.1219  7 Note On         60, 127
  16473   54.1875  7 Note Off        60, 0
  21227   69.8256  7 Note On         60, 120
  21247   69.8912  7 Note Off        60, 0
  21266   69.9537  7 Note On         54, 110
  21286   70.0194  7 Note Off        54, 0
  21309   70.0950  7 Note On         49, 110
  21329   70.1612  7 Note Off        49, 0
  21426   70.4800  7 Note On         49, 120
  21445   70.5425  7 Note Off        49, 0
  21469   70.6219  7 Note On         42, 110
  21488   70.6844  7 Note Off        42, 0
  21585   71.0031  7 Note On         54, 120
  21605   71.0687  7 Note Off        54, 0
  27758   91.3094  7 Note On         60, 120
  27777   91.3719  7 Note Off        60, 0
  27799   91.4437  7 Note On         42, 110
  27818   91.5062  7 Note Off        42, 0
  27917   91.8319  7 Note On         54, 120
  27937   91.8981  7 Note Off        54, 0
  30346   99.8225  7 Note On         60, 120
  30366   99.8881  7 Note Off        60, 0
  30374   99.9144  7 Note On         54, 110
  30394   99.9800  7 Note Off        54, 0
  30400  100.0000  7 Note On         48, 110
  30420  100.0656  7 Note Off        48, 0
  30426  100.0856  7 Note On         42, 110
  30446  100.1513  7 Note Off        42, 0
  30506  100.3487  7 Note On         60, 120
  30525  100.4112  7 Note Off        60, 0
  30532  100.4338  7 Note On         54, 110
  30553  100.5031  7 Note Off        54, 0
  30560  100.5263  7 Note On         48, 110
  30579  100.5888  7 Note Off        48, 0
  35284  116.0656  7 Note On         48, 120
  35306  116.1381  7 Note Off        48, 0
  35325  116.2006  7 Note On         42, 120
  35345  116.2662  7 Note Off        42, 0
  40542  133.3619  7 Note On         60, 120
  40563  133.4306  7 Note Off        60, 0
  40570  133.4538  7 Note On         54, 100
  40589  133.5163  7 Note Off        54, 0
  40596  133.5394  7 Note On         48, 100
  40615  133.6019  7 Note Off        48, 0
  40622  133.6250  7 Note On         42, 100
  40643  133.6937  7 Note Off        42, 0
  45281  148.9506  7 Note On         60, 120
  45303  149.0225  7 Note Off        60, 0
  45361  149.2138  7 Note On         60, 120
  45381  149.2794  7 Note Off        60, 0
  45402  149.3487  7 Note On         42, 120
  45422  149.4144  7 Note Off        42, 0
  45441  149.4769  7 Note On         54, 120
  45460  149.5394  7 Note Off        54, 0
  45521  149.7400  7 Note On         54, 120
  45540  149.8025  7 Note Off        54, 0
  45601  150.0031  7 Note On         48, 120
  45620  150.0656  7 Note Off        48, 0
  45639  150.1281  7 Note On         42, 120
  45661  150.2006  7 Note Off        42, 0
  45760  150.5263  7 Note On         54, 120
  45780  150.5919  7 Note Off        54, 0
  51775  170.3125  7 Note On         60, 120
  51794  170.3750  7 Note Off        60, 0
  51818  170.4538  7 Note On         60, 100
  51837  170.5163  7 Note Off        60, 0
  51852  170.5656  7 Note On         60, 110
  51874  170.6381  7 Note Off        60, 0
  51896  170.7100  7 Note On         60, 100
  51917  170.7794  7 Note Off        60, 0
  51932  170.8288  7 Note On         54, 120
  51954  170.9013  7 Note Off        54, 0
  51975  170.9700  7 Note On         54, 100
  51997  171.0425  7 Note Off        54, 0
  52012  171.0919  7 Note On         54, 110
  52034  171.1644  7 Note Off        54, 0
  52055  171.2331  7 Note On         54, 100
  52077  171.3056  7 Note Off        54, 0
  52092  171.3550  7 Note On         48, 120
  52111  171.4175  7 Note Off        48, 0
  52135  171.4963  7 Note On         48, 100
  52154  171.5588  7 Note Off        48, 0
  52172  171.6181  7 Note On         48, 110
  52191  171.6806  7 Note Off        48, 0
  52215  171.7594  7 Note On         48, 100
  52234  171.8219  7 Note Off        48, 0
  67307  221.4044  7 Note On         42, 120
  67327  221.4700  7 Note Off        42, 0
  67385  221.6606  7 Note On         60, 120
  67407  221.7331  7 Note Off        60, 0
  67426  221.7956  7 Note On         60, 110
  67445  221.8581  7 Note Off        60, 0
  67465  221.9238  7 Note On         54, 120
  67486  221.9931  7 Note Off        54, 0
  72006  236.8613  7 Note On         54, 120
  72025  236.9238  7 Note Off        54, 0
  72049  237.0031  7 Note On         54, 100
  72069  237.0687  7 Note Off        54, 0
  72086  237.1244  7 Note On         54, 110
  72105  237.1869  7 Note Off        54, 0
  72129  237.2663  7 Note On         54, 100
  72148  237.3288  7 Note Off        54, 0
  72166  237.3875  7 Note On         60, 120
  72185  237.4500  7 Note Off        60, 0
  72209  237.5294  7 Note On         60, 100
  72228  237.5919  7 Note Off        60, 0
  72245  237.6475  7 Note On         60, 110
  72265  237.7138  7 Note Off        60, 0
  72289  237.7925  7 Note On         60, 100
  72308  237.8550  7 Note Off        60, 0
  72325  237.9106  7 Note On         48, 120
  72345  237.9769  7 Note Off        48, 0
  72368  238.0525  7 Note On         48, 100
  72388  238.1181  7 Note Off        48, 0
  72405  238.1738  7 Note On         48, 110
  72424  238.2363  7 Note Off        48, 0
  72448  238.3156  7 Note On         48, 100
  72468  238.3812  7 Note Off        48, 0
  72485  238.4369  7 Note On         42, 120
  72504  238.4994  7 Note Off        42, 0
  72528  238.5788  7 Note On         42, 100
  72547  238.6413  7 Note Off        42, 0
  72563  238.6937  7 Note On         42, 110
  72584  238.7625  7 Note Off        42, 0
  72606  238.8350  7 Note On         42, 100
  72627  238.9044  7 Note Off        42, 0
  72627  238.9044 -- Meta Event      End Of Track
  72627  238.9044 -- Track           End: 9
      0    0.0000 -- Track           Start: 10
      0    0.0000 -- Forced channel  8
      0    0.0000  8 Control Change  7, 100
      0    0.0000  8 Program Change  119
    476    1.5656  8 Control Change  0, 0
    478    1.5725  8 Control Change  0, 0
    481    1.5825  8 Control Change  7, 100
    483    1.5888  8 Control Change  10, 64
    485    1.5956  8 Control Change  11, 116
    487    1.6019  8 Control Change  91, 70
    487    1.6019  8 Control Change  93, 0
   1592    5.2369  8 Note On         48, 110
   1751    5.7600  8 Note Off        48, 0
   2228    7.3288  8 Note On         48, 110
   2388    7.8550  8 Note Off        48, 0
   2867    9.4306  8 Note On         48, 110
   3026    9.9537  8 Note Off        48, 0
   3503   11.5231  8 Note On         48, 110
   3663   12.0494  8 Note Off        48, 0
   4142   13.6250  8 Note On         48, 110
   4299   14.1412  8 Note Off        48, 0
   4778   15.7169  8 Note On         48, 110
   4938   16.2431  8 Note Off        48, 0
   5414   17.8094  8 Note On         48, 110
   5574   18.3356  8 Note Off        48, 0
   6053   19.9112  8 Note On         48, 110
   6213   20.4375  8 Note Off        48, 0
   6689   22.0031  8 Note On         48, 110
   6849   22.5294  8 Note Off        48, 0
   7326   24.0987  8 Note On         48, 110
   7485   24.6219  8 Note Off        48, 0
   7964   26.1975  8 Note On         48, 110
   8124   26.7237  8 Note Off        48, 0
   8601   28.2925  8 Note On         48, 110
   8760   28.8156  8 Note Off        48, 0
   9239   30.3912  8 Note On         48, 110
   9397   30.9112  8 Note Off        48, 0
   9876   32.4869  8 Note On         48, 110
  10035   33.0100  8 Note Off        48, 0
  10512   34.5787  8 Note On         48, 110
  10672   35.1050  8 Note Off        48, 0
  11151   36.6806  8 Note On         48, 110
  11310   37.2037  8 Note Off        48, 0
  11787   38.7731  8 Note On         48, 110
  11947   39.2994  8 Note Off        48, 0
  12426   40.8750  8 Note On         48, 110
  12583   41.3912  8 Note Off        48, 0
  13062   42.9669  8 Note On         48, 110
  13222   43.4931  8 Note Off        48, 0
  13698   45.0594  8 Note On         48, 110
  13858   45.5856  8 Note Off        48, 0
  14337   47.1613  8 Note On         48, 110
  14497   47.6875  8 Note Off        48, 0
  14973   49.2531  8 Note On         48, 110
  15133   49.7794  8 Note Off        48, 0
  15610   51.3488  8 Note On         48, 110
  15769   51.8719  8 Note Off        48, 0
  16248   53.4475  8 Note On         48, 110
  16408   53.9738  8 Note Off        48, 0
  16885   55.5425  8 Note On         48, 110
  17044   56.0656  8 Note Off        48, 0
  17523   57.6412  8 Note On         48, 110
  17681   58.1613  8 Note Off        48, 0
  18160   59.7369  8 Note On         48, 110
  18319   60.2600  8 Note Off        48, 0
  18796   61.8287  8 Note On         48, 110
  18956   62.3550  8 Note Off        48, 0
  19435   63.9306  8 Note On         48, 110
  19594   64.4537  8 Note Off        48, 0
  20071   66.0231  8 Note On         48, 110
  20231   66.5494  8 Note Off        48, 0
  20710   68.1250  8 Note On         48, 110
  20867   68.6412  8 Note Off        48, 0
  21346   70.2169  8 Note On         48, 110
  21506   70.7431  8 Note Off        48, 0
  21982   72.3094  8 Note On         48, 110
  22142   72.8356  8 Note Off        48, 0
  22621   74.4112  8 Note On         48, 110
  22781   74.9375  8 Note Off        48, 0
  23257   76.5031  8 Note On         48, 110
  23417   77.0294  8 Note Off        48, 0
  23894   78.5987  8 Note On         48, 110
  24053   79.1219  8 Note Off        48, 0
  24532   80.6975  8 Note On         48, 110
  24692   81.2237  8 Note Off        48, 0
  25169   82.7925  8 Note On         48, 110
  25328   83.3156  8 Note Off        48, 0
  25807   84.8912  8 Note On         48, 110
  25965   85.4112  8 Note Off        48, 0
  26444   86.9869  8 Note On         48, 110
  26603   87.5100  8 Note Off        48, 0
  27080   89.0787  8 Note On         48, 110
  27240   89.6050  8 Note Off        48, 0
  27719   91.1806  8 Note On         48, 110
  27878   91.7037  8 Note Off        48, 0
  28355   93.2731  8 Note On         48, 110
  28515   93.7994  8 Note Off        48, 0
  28994   95.3750  8 Note On         48, 110
  29151   95.8912  8 Note Off        48, 0
  29630   97.4669  8 Note On         48, 110
  29790   97.9931  8 Note Off        48, 0
  30266   99.5588  8 Note On         48, 110
  30426  100.0856  8 Note Off        48, 0
  30905  101.6612  8 Note On         48, 110
  31065  102.1875  8 Note Off        48, 0
  31541  103.7531  8 Note On         48, 110
  31701  104.2794  8 Note Off        48, 0
  32178  105.8487  8 Note On         48, 110
  32337  106.3713  8 Note Off        48, 0
  32816  107.9475  8 Note On         48, 110
  32976  108.4737  8 Note Off        48, 0
  33453  110.0425  8 Note On         48, 110
  33612  110.5656  8 Note Off        48, 0
  34091  112.1412  8 Note On         48, 110
  34249  112.6612  8 Note Off        48, 0
  34728  114.2369  8 Note On         48, 110
  34887  114.7600  8 Note Off        48, 0
  35364  116.3287  8 Note On         48, 110
  35524  116.8550  8 Note Off        48, 0
  36003  118.4306  8 Note On         48, 110
  36162  118.9537  8 Note Off        48, 0
  36639  120.5231  8 Note On         48, 110
  36799  121.0494  8 Note Off        48, 0
  37278  122.6250  8 Note On         48, 110
  37435  123.1412  8 Note Off        48, 0
  37914  124.7169  8 Note On         48, 110
  38074  125.2431  8 Note Off        48, 0
  38551  126.8125  8 Note On         48, 110
  38710  127.3356  8 Note Off        48, 0
  39189  128.9112  8 Note On         48, 110
  39349  129.4375  8 Note Off        48, 0
  39825  131.0031  8 Note On         48, 110
  39985  131.5294  8 Note Off        48, 0
  40462  133.0987  8 Note On         48, 110
  40622  133.6250  8 Note Off        48, 0
  41100  135.1969  8 Note On         48, 110
  41260  135.7237  8 Note Off        48, 0
  41737  137.2925  8 Note On         48, 110
  41896  137.8156  8 Note Off        48, 0
  42375  139.3913  8 Note On         48, 110
  42533  139.9112  8 Note Off        48, 0
  43012  141.4869  8 Note On         48, 110
  43171  142.0094  8 Note Off        48, 0
  43648  143.5788  8 Note On         48, 110
  43808  144.1050  8 Note Off        48, 0
  44287  145.6806  8 Note On         48, 110
  44446  146.2038  8 Note Off        48, 0
  44923  147.7725  8 Note On         48, 110
  45083  148.2994  8 Note Off        48, 0
  45562  149.8750  8 Note On         48, 110
  45719  150.3913  8 Note Off        48, 0
  46198  151.9669  8 Note On         48, 110
  46358  152.4931  8 Note Off        48, 0
  46835  154.0625  8 Note On         48, 110
  46994  154.5850  8 Note Off        48, 0
  47473  156.1612  8 Note On         48, 110
  47633  156.6875  8 Note Off        48, 0
  48110  158.2562  8 Note On         48, 110
  48269  158.7794  8 Note Off        48, 0
  48746  160.3487  8 Note On         48, 110
  48906  160.8750  8 Note Off        48, 0
  49384  162.4469  8 Note On         48, 110
  49544  162.9737  8 Note Off        48, 0
  50021  164.5425  8 Note On         48, 110
  50181  165.0687  8 Note Off        48, 0
  50659  166.6413  8 Note On         48, 110
  50817  167.1606  8 Note Off        48, 0
  51296  168.7369  8 Note On         48, 110
  51456  169.2631  8 Note Off        48, 0
  51932  170.8288  8 Note On         48, 110
  52092  171.3550  8 Note Off        48, 0
  52571  172.9306  8 Note On         48, 110
  52730  173.4538  8 Note Off        48, 0
  53207  175.0225  8 Note On         48, 110
  53367  175.5494  8 Note Off        48, 0
  53846  177.1250  8 Note On         48, 110
  54003  177.6413  8 Note Off        48, 0
  54482  179.2169  8 Note On         48, 110
  54642  179.7431  8 Note Off        48, 0
  55119  181.3125  8 Note On         48, 110
  55278  181.8350  8 Note Off        48, 0
  55757  183.4106  8 Note On         48, 110
  55917  183.9375  8 Note Off        48, 0
  56394  185.5062  8 Note On         48, 110
  56553  186.0294  8 Note Off        48, 0
  57030  187.5981  8 Note On         48, 110
  57190  188.1250  8 Note Off        48, 0
  57669  189.7006  8 Note On         48, 110
  57828  190.2231  8 Note Off        48, 0
  58305  191.7925  8 Note On         48, 110
  58465  192.3187  8 Note Off        48, 0
  58944  193.8944  8 Note On         48, 110
  59101  194.4106  8 Note Off        48, 0
  59580  195.9863  8 Note On         48, 110
  59740  196.5131  8 Note Off        48, 0
  60216  198.0788  8 Note On         48, 110
  60376  198.6050  8 Note Off        48, 0
  60855  200.1806  8 Note On         48, 110
  61015  200.7069  8 Note Off        48, 0
  61491  202.2725  8 Note On         48, 110
  61651  202.7988  8 Note Off        48, 0
  62130  204.3750  8 Note On         48, 110
  62287  204.8913  8 Note Off        48, 0
  62766  206.4669  8 Note On         48, 110
  62926  206.9931  8 Note Off        48, 0
  63403  208.5619  8 Note On         48, 110
  63562  209.0850  8 Note Off        48, 0
  64041  210.6606  8 Note On         48, 110
  64201  211.1869  8 Note Off        48, 0
  64678  212.7562  8 Note On         48, 110
  64837  213.2794  8 Note Off        48, 0
  65314  214.8481  8 Note On         48, 110
  65474  215.3744  8 Note Off        48, 0
  65953  216.9506  8 Note On         48, 110
  66112  217.4731  8 Note Off        48, 0
  66589  219.0425  8 Note On         48, 110
  66749  219.5687  8 Note Off        48, 0
  67228  221.1444  8 Note On         48, 110
  67385  221.6606  8 Note Off        48, 0
  67864  223.2363  8 Note On         48, 110
  68024  223.7631  8 Note Off        48, 0
  68500  225.3288  8 Note On         48, 110
  68660  225.8550  8 Note Off        48, 0
  69139  227.4306  8 Note On         48, 110
  69299  227.9569  8 Note Off        48, 0
  69775  229.5225  8 Note On         48, 110
  69935  230.0488  8 Note Off        48, 0
  70414  231.6244  8 Note On         48, 110
  70571  232.1413  8 Note Off        48, 0
  71050  233.7169  8 Note On         48, 110
  71210  234.2431  8 Note Off        48, 0
  71687  235.8119  8 Note On         48, 110
  71846  236.3350  8 Note Off        48, 0
  71846  236.3350 -- Meta Event      End Of Track
  71846  236.3350 -- Track           End: 10
      0    0.0000 -- Track           Start: 11
      0    0.0000 -- Forced channel  9
      0    0.0000  9 Control Change  7, 100
      0    0.0000  9 Program Change  25
    476    1.5656  9 Control Change  0, 0
    476    1.5656  9 Control Change  0, 0
    478    1.5725  9 Control Change  0, 0
    478    1.5725  9 Control Change  0, 0
    481    1.5825  9 Control Change  7, 100
    481    1.5825  9 Control Change  7, 100
    483    1.5888  9 Control Change  10, 64
    483    1.5888  9 Control Change  10, 64
    485    1.5956  9 Control Change  11, 127
    485    1.5956  9 Control Change  11, 117
    487    1.6019  9 Control Change  91, 60
    487    1.6019  9 Control Change  91, 15
    487    1.6019  9 Control Change  93, 0
    487    1.6019  9 Control Change  93, 0
   3822   12.5725  9 Note On         36, 120
   3822   12.5725  9 Note On         44, 100
   3842   12.6381  9 Note Off        44, 0
   3842   12.6381  9 Note Off        36, 0
   3861   12.7006  9 Note On         36, 80
   3861   12.7006  9 Note On         44, 100
   3883   12.7731  9 Note Off        44, 0
   3883   12.7731  9 Note Off        36, 0
   3902   12.8356  9 Note On         44, 100
   3902   12.8356  9 Note On         67, 100
   3921   12.8981  9 Note Off        67, 0
   3921   12.8981  9 Note Off        44, 0
   3941   12.9637  9 Note On         36, 100
   3941   12.9637  9 Note On         44, 100
   3960   13.0262  9 Note Off        44, 0
   3960   13.0262  9 Note Off        36, 0
   3982   13.0988  9 Note On         40, 110
   3982   13.0988  9 Note On         46, 80
   4001   13.1613  9 Note Off        46, 0
   4001   13.1613  9 Note Off        40, 0
   4021   13.2269  9 Note On         44, 8
   4021   13.2269  9 Note On         67, 100
   4029   13.2531  9 Note Off        44, 0
   4040   13.2894  9 Note Off        67, 0
   4062   13.3619  9 Note On         44, 100
   4081   13.4244  9 Note Off        44, 0
   4101   13.4900  9 Note On         44, 100
   4120   13.5525  9 Note Off        44, 0
   4142   13.6250  9 Note On         46, 80
   4142   13.6250  9 Note On         67, 100
   4161   13.6875  9 Note Off        67, 0
   4161   13.6875  9 Note Off        46, 0
   4180   13.7500  9 Note On         44, 8
   4189   13.7794  9 Note Off        44, 0
   4219   13.8781  9 Note On         36, 110
   4219   13.8781  9 Note On         44, 100
   4241   13.9506  9 Note Off        44, 0
   4241   13.9506  9 Note Off        36, 0
   4260   14.0131  9 Note On         44, 100
   4280   14.0787  9 Note Off        44, 0
   4299   14.1412  9 Note On         67, 100
   4299   14.1412  9 Note On         40, 110
   4299   14.1412  9 Note On         46, 80
   4321   14.2137  9 Note Off        46, 0
   4321   14.2137  9 Note Off        40, 0
   4321   14.2137  9 Note Off        67, 0
   4340   14.2762  9 Note On         35, 90
   4340   14.2762  9 Note On         44, 8
   4349   14.3056  9 Note Off        44, 0
   4359   14.3387  9 Note Off        35, 0
   4379   14.4044  9 Note On         46, 100
   4400   14.4738  9 Note Off        46, 0
   4420   14.5394  9 Note On         67, 100
   4439   14.6019  9 Note Off        67, 0
   4459   14.6675  9 Note On         36, 120
   4459   14.6675  9 Note On         44, 100
   4478   14.7300  9 Note Off        44, 0
   4478   14.7300  9 Note Off        36, 0
   4500   14.8025  9 Note On         36, 80
   4500   14.8025  9 Note On         44, 100
   4519   14.8650  9 Note Off        44, 0
   4519   14.8650  9 Note Off        36, 0
   4538   14.9275  9 Note On         44, 100
   4538   14.9275  9 Note On         67, 100
   4558   14.9931  9 Note Off        67, 0
   4558   14.9931  9 Note Off        44, 0
   4579   15.0625  9 Note On         36, 100
   4579   15.0625  9 Note On         44, 100
   4599   15.1281  9 Note Off        44, 0
   4599   15.1281  9 Note Off        36, 0
   4618   15.1906  9 Note On         40, 110
   4618   15.1906  9 Note On         46, 80
   4638   15.2562  9 Note Off        46, 0
   4638   15.2562  9 Note Off        40, 0
   4659   15.3256  9 Note On         44, 8
   4659   15.3256  9 Note On         67, 100
   4666   15.3488  9 Note Off        44, 0
   4679   15.3912  9 Note Off        67, 0
   4698   15.4537  9 Note On         44, 100
   4718   15.5200  9 Note Off        44, 0
   4737   15.5825  9 Note On         38, 100
   4737   15.5825  9 Note On         44, 100
   4759   15.6544  9 Note Off        44, 0
   4759   15.6544  9 Note Off        38, 0
   4778   15.7169  9 Note On         67, 100
   4778   15.7169  9 Note On         46, 80
   4797   15.7794  9 Note Off        46, 0
   4797   15.7794  9 Note Off        67, 0
   4817   15.8456  9 Note On         44, 8
   4825   15.8719  9 Note Off        44, 0
   4858   15.9800  9 Note On         36, 110
   4858   15.9800  9 Note On         44, 100
   4877   16.0425  9 Note Off        44, 0
   4877   16.0425  9 Note Off        36, 0
   4897   16.1088  9 Note On         44, 100
   4918   16.1775  9 Note Off        44, 0
   4938   16.2431  9 Note On         40, 110
   4938   16.2431  9 Note On         67, 100
   4938   16.2431  9 Note On         46, 80
   4957   16.3056  9 Note Off        46, 0
   4957   16.3056  9 Note Off        67, 0
   4957   16.3056  9 Note Off        40, 0
   4976   16.3681  9 Note On         44, 8
   4976   16.3681  9 Note On         35, 90
   4985   16.3981  9 Note Off        44, 0
   4996   16.4344  9 Note Off        35, 0
   5017   16.5031  9 Note On         46, 100
   5037   16.5688  9 Note Off        46, 0
   5056   16.6313  9 Note On         67, 100
   5076   16.6975  9 Note Off        67, 0
   5097   16.7662  9 Note On         36, 120
   5097   16.7662  9 Note On         44, 100
   5117   16.8325  9 Note Off        44, 0
   5117   16.8325  9 Note Off        36, 0
   5136   16.8950  9 Note On         36, 80
   5136   16.8950  9 Note On         44, 100
   5155   16.9575  9 Note Off        44, 0
   5155   16.9575  9 Note Off        36, 0
   5177   17.0294  9 Note On         44, 100
   5177   17.0294  9 Note On         67, 100
   5196   17.0919  9 Note Off        67, 0
   5196   17.0919  9 Note Off        44, 0
   5216   17.1581  9 Note On         36, 100
   5216   17.1581  9 Note On         44, 100
   5235   17.2206  9 Note Off        44, 0
   5235   17.2206  9 Note Off        36, 0
   5255   17.2862  9 Note On         40, 110
   5255   17.2862  9 Note On         46, 80
   5276   17.3550  9 Note Off        46, 0
   5276   17.3550  9 Note Off        40, 0
   5296   17.4213  9 Note On         44, 8
   5296   17.4213  9 Note On         67, 100
   5304   17.4475  9 Note Off        44, 0
   5315   17.4838  9 Note Off        67, 0
   5335   17.5494  9 Note On         44, 100
   5356   17.6181  9 Note Off        44, 0
   5376   17.6844  9 Note On         38, 90
   5376   17.6844  9 Note On         44, 100
   5395   17.7469  9 Note Off        44, 0
   5395   17.7469  9 Note Off        38, 0
   5414   17.8094  9 Note On         67, 100
   5414   17.8094  9 Note On         46, 80
   5436   17.8813  9 Note Off        46, 0
   5436   17.8813  9 Note Off        67, 0
   5455   17.9438  9 Note On         44, 8
   5464   17.9737  9 Note Off        44, 0
   5494   18.0725  9 Note On         36, 110
   5494   18.0725  9 Note On         44, 100
   5514   18.1381  9 Note Off        44, 0
   5514   18.1381  9 Note Off        36, 0
   5535   18.2075  9 Note On         44, 100
   5555   18.2731  9 Note Off        44, 0
   5574   18.3356  9 Note On         40, 110
   5574   18.3356  9 Note On         67, 100
   5574   18.3356  9 Note On         46, 80
   5593   18.3981  9 Note Off        46, 0
   5593   18.3981  9 Note Off        67, 0
   5593   18.3981  9 Note Off        40, 0
   5615   18.4706  9 Note On         44, 8
   5615   18.4706  9 Note On         35, 90
   5621   18.4900  9 Note Off        44, 0
   5634   18.5331  9 Note Off        35, 0
   5654   18.5987  9 Note On         46, 100
   5673   18.6612  9 Note Off        46, 0
   5695   18.7338  9 Note On         67, 100
   5714   18.7963  9 Note Off        67, 0
   5734   18.8619  9 Note On         36, 120
   5734   18.8619  9 Note On         44, 100
   5753   18.9244  9 Note Off        44, 0
   5753   18.9244  9 Note Off        36, 0
   5772   18.9869  9 Note On         36, 80
   5772   18.9869  9 Note On         44, 100
   5794   19.0594  9 Note Off        44, 0
   5794   19.0594  9 Note Off        36, 0
   5813   19.1219  9 Note On         44, 100
   5813   19.1219  9 Note On         67, 100
   5833   19.1875  9 Note Off        67, 0
   5833   19.1875  9 Note Off        44, 0
   5852   19.2500  9 Note On         36, 100
   5852   19.2500  9 Note On         44, 100
   5874   19.3225  9 Note Off        44, 0
   5874   19.3225  9 Note Off        36, 0
   5893   19.3850  9 Note On         40, 110
   5893   19.3850  9 Note On         46, 80
   5913   19.4506  9 Note Off        46, 0
   5913   19.4506  9 Note Off        40, 0
   5932   19.5131  9 Note On         44, 8
   5932   19.5131  9 Note On         67, 100
   5941   19.5425  9 Note Off        44, 0
   5954   19.5856  9 Note Off        67, 0
   5973   19.6481  9 Note On         44, 100
   5992   19.7106  9 Note Off        44, 0
   6012   19.7763  9 Note On         38, 100
   6012   19.7763  9 Note On         44, 100
   6031   19.8388  9 Note Off        44, 0
   6031   19.8388  9 Note Off        38, 0
   6053   19.9112  9 Note On         67, 100
   6053   19.9112  9 Note On         46, 80
   6072   19.9737  9 Note Off        46, 0
   6072   19.9737  9 Note Off        67, 0
   6092   20.0394  9 Note On         44, 8
   6100   20.0656  9 Note Off        44, 0
   6133   20.1744  9 Note On         36, 110
   6133   20.1744  9 Note On         44, 100
   6152   20.2369  9 Note Off        44, 0
   6152   20.2369  9 Note Off        36, 0
   6172   20.3025  9 Note On         44, 100
   6191   20.3650  9 Note Off        44, 0
   6213   20.4375  9 Note On         40, 110
   6213   20.4375  9 Note On         67, 100
   6213   20.4375  9 Note On         46, 80
   6232   20.5000  9 Note Off        46, 0
   6232   20.5000  9 Note Off        67, 0
   6232   20.5000  9 Note Off        40, 0
   6251   20.5625  9 Note On         44, 8
   6251   20.5625  9 Note On         35, 90
   6260   20.5919  9 Note Off        44, 0
   6271   20.6281  9 Note Off        35, 0
   6290   20.6906  9 Note On         46, 100
   6312   20.7631  9 Note Off        46, 0
   6331   20.8256  9 Note On         67, 100
   6351   20.8912  9 Note Off        67, 0
   6370   20.9537  9 Note On         36, 120
   6370   20.9537  9 Note On         44, 100
   6392   21.0263  9 Note Off        44, 0
   6392   21.0263  9 Note Off        36, 0
   6411   21.0888  9 Note On         36, 80
   6411   21.0888  9 Note On         44, 100
   6430   21.1513  9 Note Off        44, 0
   6430   21.1513  9 Note Off        36, 0
   6450   21.2169  9 Note On         44, 100
   6450   21.2169  9 Note On         67, 100
   6471   21.2862  9 Note Off        67, 0
   6471   21.2862  9 Note Off        44, 0
   6491   21.3519  9 Note On         36, 100
   6491   21.3519  9 Note On         44, 100
   6510   21.4144  9 Note Off        44, 0
   6510   21.4144  9 Note Off        36, 0
   6530   21.4800  9 Note On         40, 110
   6530   21.4800  9 Note On         46, 80
   6549   21.5425  9 Note Off        46, 0
   6549   21.5425  9 Note Off        40, 0
   6571   21.6150  9 Note On         44, 8
   6571   21.6150  9 Note On         67, 100
   6579   21.6412  9 Note Off        44, 0
   6590   21.6775  9 Note Off        67, 0
   6609   21.7400  9 Note On         44, 100
   6629   21.8056  9 Note Off        44, 0
   6650   21.8750  9 Note On         38, 90
   6650   21.8750  9 Note On         44, 100
   6670   21.9406  9 Note Off        44, 0
   6670   21.9406  9 Note Off        38, 0
   6689   22.0031  9 Note On         67, 100
   6689   22.0031  9 Note On         46, 80
   6709   22.0688  9 Note Off        46, 0
   6709   22.0688  9 Note Off        67, 0
   6730   22.1381  9 Note On         44, 8
   6737   22.1612  9 Note Off        44, 0
   6769   22.2662  9 Note On         36, 110
   6769   22.2662  9 Note On         44, 100
   6789   22.3325  9 Note Off        44, 0
   6789   22.3325  9 Note Off        36, 0
   6808   22.3950  9 Note On         44, 100
   6830   22.4669  9 Note Off        44, 0
   6849   22.5294  9 Note On         40, 110
   6849   22.5294  9 Note On         67, 100
   6849   22.5294  9 Note On         46, 80
   6868   22.5919  9 Note Off        46, 0
   6868   22.5919  9 Note Off        67, 0
   6868   22.5919  9 Note Off        40, 0
   6888   22.6581  9 Note On         44, 8
   6888   22.6581  9 Note On         35, 90
   6896   22.6844  9 Note Off        44, 0
   6909   22.7269  9 Note Off        35, 0
   6929   22.7925  9 Note On         46, 100
   6948   22.8550  9 Note Off        46, 0
   6968   22.9213  9 Note On         67, 100
   6989   22.9900  9 Note Off        67, 0
   7009   23.0556  9 Note On         36, 120
   7009   23.0556  9 Note On         44, 100
   7028   23.1181  9 Note Off        44, 0
   7028   23.1181  9 Note Off        36, 0
   7047   23.1806  9 Note On         36, 80
   7047   23.1806  9 Note On         44, 100
   7067   23.2469  9 Note Off        44, 0
   7067   23.2469  9 Note Off        36, 0
   7088   23.3156  9 Note On         44, 100
   7088   23.3156  9 Note On         67, 100
   7108   23.3813  9 Note Off        67, 0
   7108   23.3813  9 Note Off        44, 0
   7127   23.4438  9 Note On         36, 100
   7127   23.4438  9 Note On         44, 100
   7147   23.5100  9 Note Off        44, 0
   7147   23.5100  9 Note Off        36, 0
   7168   23.5787  9 Note On         40, 110
   7168   23.5787  9 Note On         46, 80
   7188   23.6450  9 Note Off        46, 0
   7188   23.6450  9 Note Off        40, 0
   7207   23.7075  9 Note On         44, 8
   7207   23.7075  9 Note On         67, 100
   7216   23.7369  9 Note Off        44, 0
   7226   23.7700  9 Note Off        67, 0
   7248   23.8419  9 Note On         44, 100
   7267   23.9044  9 Note Off        44, 0
   7287   23.9706  9 Note On         38, 100
   7287   23.9706  9 Note On         44, 100
   7306   24.0331  9 Note Off        44, 0
   7306   24.0331  9 Note Off        38, 0
   7326   24.0987  9 Note On         67, 100
   7326   24.0987  9 Note On         46, 80
   7347   24.1675  9 Note Off        46, 0
   7347   24.1675  9 Note Off        67, 0
   7367   24.2338  9 Note On         44, 8
   7375   24.2600  9 Note Off        44, 0
   7406   24.3619  9 Note On         36, 110
   7406   24.3619  9 Note On         44, 100
   7427   24.4306  9 Note Off        44, 0
   7427   24.4306  9 Note Off        36, 0
   7447   24.4969  9 Note On         44, 100
   7466   24.5594  9 Note Off        44, 0
   7485   24.6219  9 Note On         40, 110
   7485   24.6219  9 Note On         67, 100
   7485   24.6219  9 Note On         46, 80
   7507   24.6938  9 Note Off        46, 0
   7507   24.6938  9 Note Off        67, 0
   7507   24.6938  9 Note Off        40, 0
   7526   24.7563  9 Note On         44, 8
   7526   24.7563  9 Note On         35, 90
   7535   24.7862  9 Note Off        44, 0
   7546   24.8225  9 Note Off        35, 0
   7565   24.8850  9 Note On         46, 100
   7585   24.9506  9 Note Off        46, 0
   7606   25.0200  9 Note On         67, 100
   7626   25.0856  9 Note Off        67, 0
   7645   25.1481  9 Note On         36, 120
   7645   25.1481  9 Note On         44, 100
   7664   25.2106  9 Note Off        44, 0
   7664   25.2106  9 Note Off        36, 0
   7686   25.2831  9 Note On         36, 80
   7686   25.2831  9 Note On         44, 100
   7705   25.3456  9 Note Off        44, 0
   7705   25.3456  9 Note Off        36, 0
   7725   25.4112  9 Note On         44, 100
   7725   25.4112  9 Note On         67, 100
   7744   25.4737  9 Note Off        67, 0
   7744   25.4737  9 Note Off        44, 0
   7766   25.5463  9 Note On         36, 100
   7766   25.5463  9 Note On         44, 100
   7785   25.6088  9 Note Off        44, 0
   7785   25.6088  9 Note Off        36, 0
   7805   25.6744  9 Note On         40, 110
   7805   25.6744  9 Note On         46, 80
   7824   25.7369  9 Note Off        46, 0
   7824   25.7369  9 Note Off        40, 0
   7843   25.7994  9 Note On         44, 8
   7843   25.7994  9 Note On         67, 100
   7852   25.8287  9 Note Off        44, 0
   7865   25.8719  9 Note Off        67, 0
   7884   25.9344  9 Note On         44, 100
   7904   26.0000  9 Note Off        44, 0
   7923   26.0625  9 Note On         38, 90
   7923   26.0625  9 Note On         44, 100
   7945   26.1350  9 Note Off        44, 0
   7945   26.1350  9 Note Off        38, 0
   7964   26.1975  9 Note On         67, 100
   7964   26.1975  9 Note On         46, 80
   7984   26.2631  9 Note Off        46, 0
   7984   26.2631  9 Note Off        67, 0
   8003   26.3256  9 Note On         44, 8
   8012   26.3550  9 Note Off        44, 0
   8044   26.4606  9 Note On         36, 110
   8044   26.4606  9 Note On         44, 100
   8064   26.5263  9 Note Off        44, 0
   8064   26.5263  9 Note Off        36, 0
   8083   26.5888  9 Note On         44, 100
   8102   26.6513  9 Note Off        44, 0
   8124   26.7237  9 Note On         40, 110
   8124   26.7237  9 Note On         67, 100
   8124   26.7237  9 Note On         46, 80
   8143   26.7862  9 Note Off        46, 0
   8143   26.7862  9 Note Off        67, 0
   8143   26.7862  9 Note Off        40, 0
   8163   26.8519  9 Note On         44, 8
   8163   26.8519  9 Note On         35, 90
   8171   26.8781  9 Note Off        44, 0
   8182   26.9144  9 Note Off        35, 0
   8204   26.9869  9 Note On         46, 100
   8223   27.0494  9 Note Off        46, 0
   8243   27.1150  9 Note On         67, 100
   8262   27.1775  9 Note Off        67, 0
   8284   27.2500  9 Note On         36, 120
   8284   27.2500  9 Note On         44, 100
   8303   27.3125  9 Note Off        44, 0
   8303   27.3125  9 Note Off        36, 0
   8322   27.3750  9 Note On         36, 80
   8322   27.3750  9 Note On         44, 100
   8342   27.4406  9 Note Off        44, 0
   8342   27.4406  9 Note Off        36, 0
   8361   27.5031  9 Note On         44, 100
   8361   27.5031  9 Note On         67, 100
   8383   27.5756  9 Note Off        67, 0
   8383   27.5756  9 Note Off        44, 0
   8402   27.6381  9 Note On         36, 100
   8402   27.6381  9 Note On         44, 100
   8422   27.7037  9 Note Off        44, 0
   8422   27.7037  9 Note Off        36, 0
   8441   27.7662  9 Note On         40, 110
   8441   27.7662  9 Note On         46, 80
   8463   27.8388  9 Note Off        46, 0
   8463   27.8388  9 Note Off        40, 0
   8482   27.9013  9 Note On         44, 8
   8482   27.9013  9 Note On         67, 100
   8491   27.9306  9 Note Off        44, 0
   8501   27.9638  9 Note Off        67, 0
   8521   28.0294  9 Note On         44, 100
   8542   28.0987  9 Note Off        44, 0
   8562   28.1644  9 Note On         38, 100
   8562   28.1644  9 Note On         44, 100
   8581   28.2269  9 Note Off        44, 0
   8581   28.2269  9 Note Off        38, 0
   8601   28.2925  9 Note On         67, 100
   8601   28.2925  9 Note On         46, 80
   8620   28.3550  9 Note Off        46, 0
   8620   28.3550  9 Note Off        67, 0
   8642   28.4275  9 Note On         44, 8
   8650   28.4537  9 Note Off        44, 0
   8680   28.5525  9 Note On         36, 110
   8680   28.5525  9 Note On         44, 100
   8700   28.6181  9 Note Off        44, 0
   8700   28.6181  9 Note Off        36, 0
   8721   28.6875  9 Note On         44, 100
   8741   28.7531  9 Note Off        44, 0
   8760   28.8156  9 Note On         40, 110
   8760   28.8156  9 Note On         67, 100
   8760   28.8156  9 Note On         46, 80
   8780   28.8813  9 Note Off        46, 0
   8780   28.8813  9 Note Off        67, 0
   8780   28.8813  9 Note Off        40, 0
   8801   28.9506  9 Note On         44, 8
   8801   28.9506  9 Note On         35, 90
   8808   28.9737  9 Note Off        44, 0
   8821   29.0162  9 Note Off        35, 0
   8840   29.0787  9 Note On         46, 100
   8860   29.1450  9 Note Off        46, 0
   8879   29.2075  9 Note On         67, 100
   8901   29.2794  9 Note Off        67, 0
   8920   29.3419  9 Note On         36, 120
   8920   29.3419  9 Note On         44, 100
   8939   29.4044  9 Note Off        44, 0
   8939   29.4044  9 Note Off        36, 0
   8959   29.4706  9 Note On         36, 80
   8959   29.4706  9 Note On         44, 100
   8980   29.5394  9 Note Off        44, 0
   8980   29.5394  9 Note Off        36, 0
   9000   29.6050  9 Note On         44, 100
   9000   29.6050  9 Note On         67, 100
   9019   29.6675  9 Note Off        67, 0
   9019   29.6675  9 Note Off        44, 0
   9039   29.7338  9 Note On         36, 100
   9039   29.7338  9 Note On         44, 100
   9060   29.8025  9 Note Off        44, 0
   9060   29.8025  9 Note Off        36, 0
   9080   29.8681  9 Note On         40, 110
   9080   29.8681  9 Note On         46, 80
   9099   29.9306  9 Note Off        46, 0
   9099   29.9306  9 Note Off        40, 0
   9118   29.9931  9 Note On         44, 8
   9118   29.9931  9 Note On         67, 100
   9127   30.0231  9 Note Off        44, 0
   9138   30.0594  9 Note Off        67, 0
   9159   30.1281  9 Note On         44, 100
   9179   30.1938  9 Note Off        44, 0
   9198   30.2563  9 Note On         44, 100
   9218   30.3225  9 Note Off        44, 0
   9239   30.3912  9 Note On         46, 80
   9239   30.3912  9 Note On         67, 100
   9259   30.4575  9 Note Off        67, 0
   9259   30.4575  9 Note Off        46, 0
   9278   30.5200  9 Note On         44, 8
   9287   30.5494  9 Note Off        44, 0
   9319   30.6544  9 Note On         36, 110
   9319   30.6544  9 Note On         44, 100
   9338   30.7169  9 Note Off        44, 0
   9338   30.7169  9 Note Off        36, 0
   9358   30.7831  9 Note On         44, 100
   9377   30.8456  9 Note Off        44, 0
   9397   30.9112  9 Note On         67, 100
   9397   30.9112  9 Note On         40, 110
   9397   30.9112  9 Note On         46, 80
   9418   30.9800  9 Note Off        46, 0
   9418   30.9800  9 Note Off        40, 0
   9418   30.9800  9 Note Off        67, 0
   9438   31.0463  9 Note On         35, 90
   9438   31.0463  9 Note On         44, 8
   9446   31.0725  9 Note Off        44, 0
   9457   31.1088  9 Note Off        35, 0
   9477   31.1744  9 Note On         46, 100
   9498   31.2431  9 Note Off        46, 0
   9518   31.3094  9 Note On         67, 100
   9537   31.3719  9 Note Off        67, 0
   9556   31.4344  9 Note On         36, 120
   9556   31.4344  9 Note On         44, 100
   9578   31.5063  9 Note Off        44, 0
   9578   31.5063  9 Note Off        36, 0
   9597   31.5688  9 Note On         36, 80
   9597   31.5688  9 Note On         44, 100
   9617   31.6350  9 Note Off        44, 0
   9617   31.6350  9 Note Off        36, 0
   9636   31.6975  9 Note On         44, 100
   9636   31.6975  9 Note On         67, 100
   9656   31.7631  9 Note Off        67, 0
   9656   31.7631  9 Note Off        44, 0
   9677   31.8325  9 Note On         36, 100
   9677   31.8325  9 Note On         44, 100
   9697   31.8981  9 Note Off        44, 0
   9697   31.8981  9 Note Off        36, 0
   9716   31.9606  9 Note On         40, 110
   9716   31.9606  9 Note On         46, 80
   9735   32.0231  9 Note Off        46, 0
   9735   32.0231  9 Note Off        40, 0
   9757   32.0956  9 Note On         44, 8
   9757   32.0956  9 Note On         67, 100
   9763   32.1150  9 Note Off        44, 0
   9776   32.1581  9 Note Off        67, 0
   9796   32.2238  9 Note On         44, 100
   9815   32.2863  9 Note Off        44, 0
   9837   32.3588  9 Note On         38, 100
   9837   32.3588  9 Note On         44, 100
   9856   32.4213  9 Note Off        44, 0
   9856   32.4213  9 Note Off        38, 0
   9876   32.4869  9 Note On         67, 100
   9876   32.4869  9 Note On         46, 80
   9895   32.5494  9 Note Off        46, 0
   9895   32.5494  9 Note Off        67, 0
   9914   32.6119  9 Note On         44, 8
   9923   32.6412  9 Note Off        44, 0
   9955   32.7469  9 Note On         36, 110
   9955   32.7469  9 Note On         44, 100
   9975   32.8125  9 Note Off        44, 0
   9975   32.8125  9 Note Off        36, 0
   9994   32.8750  9 Note On         44, 100
  10016   32.9475  9 Note Off        44, 0
  10035   33.0100  9 Note On         40, 110
  10035   33.0100  9 Note On         67, 100
  10035   33.0100  9 Note On         46, 80
  10055   33.0756  9 Note Off        46, 0
  10055   33.0756  9 Note Off        67, 0
  10055   33.0756  9 Note Off        40, 0
  10074   33.1381  9 Note On         44, 8
  10074   33.1381  9 Note On         35, 90
  10083   33.1675  9 Note Off        44, 0
  10096   33.2106  9 Note Off        35, 0
  10115   33.2731  9 Note On         46, 100
  10135   33.3387  9 Note Off        46, 0
  10154   33.4012  9 Note On         67, 100
  10173   33.4637  9 Note Off        67, 0
  10195   33.5363  9 Note On         36, 120
  10195   33.5363  9 Note On         44, 100
  10214   33.5988  9 Note Off        44, 0
  10214   33.5988  9 Note Off        36, 0
  10234   33.6644  9 Note On         36, 80
  10234   33.6644  9 Note On         44, 100
  10253   33.7269  9 Note Off        44, 0
  10253   33.7269  9 Note Off        36, 0
  10275   33.7994  9 Note On         44, 100
  10275   33.7994  9 Note On         67, 100
  10294   33.8619  9 Note Off        67, 0
  10294   33.8619  9 Note Off        44, 0
  10314   33.9275  9 Note On         36, 100
  10314   33.9275  9 Note On         44, 100
  10333   33.9900  9 Note Off        44, 0
  10333   33.9900  9 Note Off        36, 0
  10355   34.0625  9 Note On         40, 110
  10355   34.0625  9 Note On         46, 80
  10374   34.1250  9 Note Off        46, 0
  10374   34.1250  9 Note Off        40, 0
  10393   34.1875  9 Note On         44, 8
  10393   34.1875  9 Note On         67, 100
  10402   34.2169  9 Note Off        44, 0
  10413   34.2531  9 Note Off        67, 0
  10432   34.3156  9 Note On         44, 100
  10454   34.3881  9 Note Off        44, 0
  10473   34.4506  9 Note On         38, 90
  10473   34.4506  9 Note On         44, 100
  10493   34.5162  9 Note Off        44, 0
  10493   34.5162  9 Note Off        38, 0
  10512   34.5787  9 Note On         67, 100
  10512   34.5787  9 Note On         46, 80
  10534   34.6512  9 Note Off        46, 0
  10534   34.6512  9 Note Off        67, 0
  10553   34.7137  9 Note On         44, 8
  10562   34.7431  9 Note Off        44, 0
  10592   34.8419  9 Note On         36, 110
  10592   34.8419  9 Note On         44, 100
  10613   34.9113  9 Note Off        44, 0
  10613   34.9113  9 Note Off        36, 0
  10633   34.9769  9 Note On         44, 100
  10652   35.0394  9 Note Off        44, 0
  10672   35.1050  9 Note On         40, 110
  10672   35.1050  9 Note On         67, 100
  10672   35.1050  9 Note On         46, 80
  10691   35.1675  9 Note Off        46, 0
  10691   35.1675  9 Note Off        67, 0
  10691   35.1675  9 Note Off        40, 0
  10713   35.2400  9 Note On         44, 8
  10713   35.2400  9 Note On         35, 90
  10721   35.2662  9 Note Off        44, 0
  10732   35.3025  9 Note Off        35, 0
  10752   35.3681  9 Note On         46, 100
  10771   35.4306  9 Note Off        46, 0
  10792   35.5000  9 Note On         67, 100
  10812   35.5656  9 Note Off        67, 0
  10831   35.6281  9 Note On         36, 120
  10831   35.6281  9 Note On         44, 100
  10851   35.6938  9 Note Off        44, 0
  10851   35.6938  9 Note Off        36, 0
  10872   35.7631  9 Note On         36, 80
  10872   35.7631  9 Note On         44, 100
  10892   35.8287  9 Note Off        44, 0
  10892   35.8287  9 Note Off        36, 0
  10911   35.8912  9 Note On         44, 100
  10911   35.8912  9 Note On         67, 100
  10931   35.9569  9 Note Off        67, 0
  10931   35.9569  9 Note Off        44, 0
  10950   36.0194  9 Note On         36, 100
  10950   36.0194  9 Note On         44, 100
  10972   36.0919  9 Note Off        44, 0
  10972   36.0919  9 Note Off        36, 0
  10991   36.1544  9 Note On         40, 110
  10991   36.1544  9 Note On         46, 80
  11010   36.2169  9 Note Off        46, 0
  11010   36.2169  9 Note Off        40, 0
  11030   36.2831  9 Note On         44, 8
  11030   36.2831  9 Note On         67, 100
  11038   36.3094  9 Note Off        44, 0
  11051   36.3519  9 Note Off        67, 0
  11071   36.4175  9 Note On         44, 100
  11090   36.4800  9 Note Off        44, 0
  11110   36.5463  9 Note On         38, 100
  11110   36.5463  9 Note On         44, 100
  11131   36.6150  9 Note Off        44, 0
  11131   36.6150  9 Note Off        38, 0
  11151   36.6806  9 Note On         67, 100
  11151   36.6806  9 Note On         46, 80
  11170   36.7431  9 Note Off        46, 0
  11170   36.7431  9 Note Off        67, 0
  11189   36.8056  9 Note On         44, 8
  11198   36.8356  9 Note Off        44, 0
  11230   36.9406  9 Note On         36, 110
  11230   36.9406  9 Note On         44, 100
  11250   37.0063  9 Note Off        44, 0
  11250   37.0063  9 Note Off        36, 0
  11269   37.0688  9 Note On         44, 100
  11289   37.1350  9 Note Off        44, 0
  11310   37.2037  9 Note On         40, 110
  11310   37.2037  9 Note On         67, 100
  11310   37.2037  9 Note On         46, 80
  11330   37.2694  9 Note Off        46, 0
  11330   37.2694  9 Note Off        67, 0
  11330   37.2694  9 Note Off        40, 0
  11349   37.3319  9 Note On         44, 8
  11349   37.3319  9 Note On         35, 90
  11358   37.3619  9 Note Off        44, 0
  11368   37.3944  9 Note Off        35, 0
  11390   37.4669  9 Note On         46, 100
  11409   37.5294  9 Note Off        46, 0
  11429   37.5956  9 Note On         67, 100
  11448   37.6581  9 Note Off        67, 0
  11468   37.7238  9 Note On         57, 100
  11468   37.7238  9 Note On         36, 120
  11468   37.7238  9 Note On         44, 100
  11489   37.7925  9 Note Off        44, 0
  11489   37.7925  9 Note Off        36, 0
  11489   37.7925  9 Note Off        57, 0
  11509   37.8588  9 Note On         36, 80
  11509   37.8588  9 Note On         44, 100
  11528   37.9213  9 Note Off        44, 0
  11528   37.9213  9 Note Off        36, 0
  11548   37.9869  9 Note On         44, 100
  11548   37.9869  9 Note On         67, 100
  11569   38.0556  9 Note Off        67, 0
  11569   38.0556  9 Note Off        44, 0
  11589   38.1219  9 Note On         36, 100
  11589   38.1219  9 Note On         44, 100
  11608   38.1844  9 Note Off        44, 0
  11608   38.1844  9 Note Off        36, 0
  11627   38.2469  9 Note On         40, 110
  11627   38.2469  9 Note On         46, 80
  11649   38.3188  9 Note Off        46, 0
  11649   38.3188  9 Note Off        40, 0
  11668   38.3813  9 Note On         44, 8
  11668   38.3813  9 Note On         67, 100
  11677   38.4113  9 Note Off        44, 0
  11688   38.4475  9 Note Off        67, 0
  11707   38.5100  9 Note On         44, 100
  11727   38.5756  9 Note Off        44, 0
  11748   38.6444  9 Note On         38, 90
  11748   38.6444  9 Note On         44, 100
  11768   38.7106  9 Note Off        44, 0
  11768   38.7106  9 Note Off        38, 0
  11787   38.7731  9 Note On         67, 100
  11787   38.7731  9 Note On         46, 80
  11806   38.8356  9 Note Off        46, 0
  11806   38.8356  9 Note Off        67, 0
  11828   38.9081  9 Note On         44, 8
  11834   38.9275  9 Note Off        44, 0
  11867   39.0363  9 Note On         36, 110
  11867   39.0363  9 Note On         44, 100
  11886   39.0988  9 Note Off        44, 0
  11886   39.0988  9 Note Off        36, 0
  11908   39.1713  9 Note On         44, 100
  11927   39.2338  9 Note Off        44, 0
  11947   39.2994  9 Note On         40, 110
  11947   39.2994  9 Note On         67, 100
  11947   39.2994  9 Note On         46, 80
  11966   39.3619  9 Note Off        46, 0
  11966   39.3619  9 Note Off        67, 0
  11966   39.3619  9 Note Off        40, 0
  11985   39.4244  9 Note On         44, 8
  11985   39.4244  9 Note On         35, 90
  11994   39.4537  9 Note Off        44, 0
  12007   39.4969  9 Note Off        35, 0
  12026   39.5594  9 Note On         46, 100
  12046   39.6250  9 Note Off        46, 0
  12065   39.6875  9 Note On         67, 100
  12087   39.7600  9 Note Off        67, 0
  12106   39.8225  9 Note On         36, 120
  12106   39.8225  9 Note On         44, 100
  12126   39.8881  9 Note Off        44, 0
  12126   39.8881  9 Note Off        36, 0
  12145   39.9506  9 Note On         36, 80
  12145   39.9506  9 Note On         44, 100
  12167   40.0231  9 Note Off        44, 0
  12167   40.0231  9 Note Off        36, 0
  12186   40.0856  9 Note On         44, 100
  12186   40.0856  9 Note On         67, 100
  12206   40.1512  9 Note Off        67, 0
  12206   40.1512  9 Note Off        44, 0
  12225   40.2137  9 Note On         36, 100
  12225   40.2137  9 Note On         44, 100
  12244   40.2762  9 Note Off        44, 0
  12244   40.2762  9 Note Off        36, 0
  12266   40.3488  9 Note On         40, 110
  12266   40.3488  9 Note On         46, 80
  12285   40.4113  9 Note Off        46, 0
  12285   40.4113  9 Note Off        40, 0
  12305   40.4769  9 Note On         44, 8
  12305   40.4769  9 Note On         67, 100
  12313   40.5031  9 Note Off        44, 0
  12324   40.5394  9 Note Off        67, 0
  12346   40.6119  9 Note On         44, 100
  12365   40.6744  9 Note Off        44, 0
  12385   40.7400  9 Note On         38, 100
  12385   40.7400  9 Note On         44, 100
  12404   40.8025  9 Note Off        44, 0
  12404   40.8025  9 Note Off        38, 0
  12426   40.8750  9 Note On         67, 100
  12426   40.8750  9 Note On         46, 80
  12445   40.9375  9 Note Off        46, 0
  12445   40.9375  9 Note Off        67, 0
  12464   41.0000  9 Note On         44, 8
  12473   41.0294  9 Note Off        44, 0
  12503   41.1281  9 Note On         36, 110
  12503   41.1281  9 Note On         44, 100
  12525   41.2006  9 Note Off        44, 0
  12525   41.2006  9 Note Off        36, 0
  12544   41.2631  9 Note On         44, 100
  12564   41.3287  9 Note Off        44, 0
  12583   41.3912  9 Note On         40, 110
  12583   41.3912  9 Note On         67, 100
  12583   41.3912  9 Note On         46, 80
  12605   41.4637  9 Note Off        46, 0
  12605   41.4637  9 Note Off        67, 0
  12605   41.4637  9 Note Off        40, 0
  12624   41.5262  9 Note On         44, 8
  12624   41.5262  9 Note On         35, 90
  12633   41.5556  9 Note Off        44, 0
  12643   41.5887  9 Note Off        35, 0
  12663   41.6544  9 Note On         46, 100
  12684   41.7238  9 Note Off        46, 0
  12704   41.7894  9 Note On         67, 100
  12723   41.8519  9 Note Off        67, 0
  12743   41.9175  9 Note On         36, 120
  12743   41.9175  9 Note On         44, 100
  12762   41.9800  9 Note Off        44, 0
  12762   41.9800  9 Note Off        36, 0
  12784   42.0525  9 Note On         36, 80
  12784   42.0525  9 Note On         44, 100
  12803   42.1150  9 Note Off        44, 0
  12803   42.1150  9 Note Off        36, 0
  12823   42.1806  9 Note On         44, 100
  12823   42.1806  9 Note On         67, 100
  12842   42.2431  9 Note Off        67, 0
  12842   42.2431  9 Note Off        44, 0
  12864   42.3156  9 Note On         36, 100
  12864   42.3156  9 Note On         44, 100
  12883   42.3781  9 Note Off        44, 0
  12883   42.3781  9 Note Off        36, 0
  12902   42.4406  9 Note On         40, 110
  12902   42.4406  9 Note On         46, 80
  12922   42.5063  9 Note Off        46, 0
  12922   42.5063  9 Note Off        40, 0
  12943   42.5756  9 Note On         44, 8
  12943   42.5756  9 Note On         67, 100
  12950   42.5988  9 Note Off        44, 0
  12963   42.6412  9 Note Off        67, 0
  12982   42.7037  9 Note On         44, 100
  13002   42.7694  9 Note Off        44, 0
  13021   42.8319  9 Note On         38, 90
  13021   42.8319  9 Note On         44, 100
  13043   42.9044  9 Note Off        44, 0
  13043   42.9044  9 Note Off        38, 0
  13062   42.9669  9 Note On         67, 100
  13062   42.9669  9 Note On         46, 80
  13081   43.0294  9 Note Off        46, 0
  13081   43.0294  9 Note Off        67, 0
  13101   43.0956  9 Note On         44, 8
  13109   43.1219  9 Note Off        44, 0
  13142   43.2300  9 Note On         36, 110
  13142   43.2300  9 Note On         44, 100
  13161   43.2925  9 Note Off        44, 0
  13161   43.2925  9 Note Off        36, 0
  13181   43.3588  9 Note On         44, 100
  13202   43.4275  9 Note Off        44, 0
  13222   43.4931  9 Note On         40, 110
  13222   43.4931  9 Note On         67, 100
  13222   43.4931  9 Note On         46, 80
  13241   43.5556  9 Note Off        46, 0
  13241   43.5556  9 Note Off        67, 0
  13241   43.5556  9 Note Off        40, 0
  13260   43.6181  9 Note On         44, 8
  13260   43.6181  9 Note On         35, 90
  13269   43.6481  9 Note Off        44, 0
  13280   43.6844  9 Note Off        35, 0
  13301   43.7531  9 Note On         46, 100
  13321   43.8188  9 Note Off        46, 0
  13340   43.8813  9 Note On         67, 100
  13360   43.9475  9 Note Off        67, 0
  13381   44.0162  9 Note On         36, 120
  13381   44.0162  9 Note On         44, 100
  13401   44.0819  9 Note Off        44, 0
  13401   44.0819  9 Note Off        36, 0
  13420   44.1444  9 Note On         36, 80
  13420   44.1444  9 Note On         44, 100
  13440   44.2106  9 Note Off        44, 0
  13440   44.2106  9 Note Off        36, 0
  13461   44.2794  9 Note On         44, 100
  13461   44.2794  9 Note On         67, 100
  13480   44.3419  9 Note Off        67, 0
  13480   44.3419  9 Note Off        44, 0
  13500   44.4081  9 Note On         36, 100
  13500   44.4081  9 Note On         44, 100
  13519   44.4706  9 Note Off        44, 0
  13519   44.4706  9 Note Off        36, 0
  13539   44.5363  9 Note On         40, 110
  13539   44.5363  9 Note On         46, 80
  13560   44.6050  9 Note Off        46, 0
  13560   44.6050  9 Note Off        40, 0
  13580   44.6713  9 Note On         44, 8
  13580   44.6713  9 Note On         67, 100
  13588   44.6975  9 Note Off        44, 0
  13599   44.7338  9 Note Off        67, 0
  13619   44.7994  9 Note On         44, 100
  13640   44.8681  9 Note Off        44, 0
  13660   44.9344  9 Note On         38, 100
  13660   44.9344  9 Note On         44, 100
  13679   44.9969  9 Note Off        44, 0
  13679   44.9969  9 Note Off        38, 0
  13698   45.0594  9 Note On         67, 100
  13698   45.0594  9 Note On         46, 80
  13720   45.1313  9 Note Off        46, 0
  13720   45.1313  9 Note Off        67, 0
  13739   45.1938  9 Note On         44, 8
  13748   45.2238  9 Note Off        44, 0
  13778   45.3225  9 Note On         36, 110
  13778   45.3225  9 Note On         44, 100
  13798   45.3881  9 Note Off        44, 0
  13798   45.3881  9 Note Off        36, 0
  13819   45.4569  9 Note On         44, 100
  13839   45.5231  9 Note Off        44, 0
  13858   45.5856  9 Note On         40, 110
  13858   45.5856  9 Note On         67, 100
  13858   45.5856  9 Note On         46, 80
  13877   45.6481  9 Note Off        46, 0
  13877   45.6481  9 Note Off        67, 0
  13877   45.6481  9 Note Off        40, 0
  13899   45.7206  9 Note On         44, 8
  13899   45.7206  9 Note On         35, 90
  13905   45.7400  9 Note Off        44, 0
  13918   45.7831  9 Note Off        35, 0
  13938   45.8488  9 Note On         46, 100
  13957   45.9113  9 Note Off        46, 0
  13979   45.9838  9 Note On         67, 100
  13998   46.0463  9 Note Off        67, 0
  14018   46.1119  9 Note On         36, 120
  14018   46.1119  9 Note On         44, 100
  14037   46.1744  9 Note Off        44, 0
  14037   46.1744  9 Note Off        36, 0
  14056   46.2369  9 Note On         36, 80
  14056   46.2369  9 Note On         44, 100
  14078   46.3094  9 Note Off        44, 0
  14078   46.3094  9 Note Off        36, 0
  14097   46.3719  9 Note On         44, 100
  14097   46.3719  9 Note On         67, 100
  14117   46.4375  9 Note Off        67, 0
  14117   46.4375  9 Note Off        44, 0
  14136   46.5000  9 Note On         36, 100
  14136   46.5000  9 Note On         44, 100
  14158   46.5725  9 Note Off        44, 0
  14158   46.5725  9 Note Off        36, 0
  14177   46.6350  9 Note On         40, 110
  14177   46.6350  9 Note On         46, 80
  14197   46.7006  9 Note Off        46, 0
  14197   46.7006  9 Note Off        40, 0
  14216   46.7631  9 Note On         44, 8
  14216   46.7631  9 Note On         67, 100
  14225   46.7925  9 Note Off        44, 0
  14238   46.8356  9 Note Off        67, 0
  14257   46.8981  9 Note On         44, 100
  14277   46.9637  9 Note Off        44, 0
  14296   47.0262  9 Note On         44, 100
  14315   47.0887  9 Note Off        44, 0
  14337   47.1613  9 Note On         46, 80
  14337   47.1613  9 Note On         67, 100
  14356   47.2238  9 Note Off        67, 0
  14356   47.2238  9 Note Off        46, 0
  14376   47.2894  9 Note On         44, 8
  14384   47.3156  9 Note Off        44, 0
  14417   47.4244  9 Note On         36, 110
  14417   47.4244  9 Note On         44, 100
  14436   47.4869  9 Note Off        44, 0
  14436   47.4869  9 Note Off        36, 0
  14456   47.5525  9 Note On         44, 100
  14475   47.6150  9 Note Off        44, 0
  14497   47.6875  9 Note On         67, 100
  14497   47.6875  9 Note On         40, 110
  14497   47.6875  9 Note On         46, 80
  14516   47.7500  9 Note Off        46, 0
  14516   47.7500  9 Note Off        40, 0
  14516   47.7500  9 Note Off        67, 0
  14535   47.8125  9 Note On         35, 90
  14535   47.8125  9 Note On         44, 8
  14544   47.8419  9 Note Off        44, 0
  14555   47.8781  9 Note Off        35, 0
  14574   47.9406  9 Note On         46, 100
  14596   48.0131  9 Note Off        46, 0
  14615   48.0756  9 Note On         67, 100
  14635   48.1412  9 Note Off        67, 0
  14654   48.2037  9 Note On         36, 120
  14654   48.2037  9 Note On         44, 100
  14676   48.2762  9 Note Off        44, 0
  14676   48.2762  9 Note Off        36, 0
  14695   48.3387  9 Note On         36, 80
  14695   48.3387  9 Note On         44, 100
  14714   48.4012  9 Note Off        44, 0
  14714   48.4012  9 Note Off        36, 0
  14734   48.4669  9 Note On         44, 100
  14734   48.4669  9 Note On         67, 100
  14755   48.5363  9 Note Off        67, 0
  14755   48.5363  9 Note Off        44, 0
  14775   48.6019  9 Note On         36, 100
  14775   48.6019  9 Note On         44, 100
  14794   48.6644  9 Note Off        44, 0
  14794   48.6644  9 Note Off        36, 0
  14814   48.7300  9 Note On         40, 110
  14814   48.7300  9 Note On         46, 80
  14833   48.7925  9 Note Off        46, 0
  14833   48.7925  9 Note Off        40, 0
  14855   48.8650  9 Note On         44, 8
  14855   48.8650  9 Note On         67, 100
  14863   48.8912  9 Note Off        44, 0
  14874   48.9275  9 Note Off        67, 0
  14894   48.9931  9 Note On         44, 100
  14913   49.0556  9 Note Off        44, 0
  14935   49.1281  9 Note On         38, 100
  14935   49.1281  9 Note On         44, 100
  14954   49.1906  9 Note Off        44, 0
  14954   49.1906  9 Note Off        38, 0
  14973   49.2531  9 Note On         67, 100
  14973   49.2531  9 Note On         46, 80
  14993   49.3188  9 Note Off        46, 0
  14993   49.3188  9 Note Off        67, 0
  15014   49.3881  9 Note On         44, 8
  15021   49.4113  9 Note Off        44, 0
  15053   49.5162  9 Note On         36, 110
  15053   49.5162  9 Note On         44, 100
  15073   49.5819  9 Note Off        44, 0
  15073   49.5819  9 Note Off        36, 0
  15092   49.6444  9 Note On         44, 100
  15114   49.7169  9 Note Off        44, 0
  15133   49.7794  9 Note On         40, 110
  15133   49.7794  9 Note On         67, 100
  15133   49.7794  9 Note On         46, 80
  15152   49.8419  9 Note Off        46, 0
  15152   49.8419  9 Note Off        67, 0
  15152   49.8419  9 Note Off        40, 0
  15172   49.9081  9 Note On         44, 8
  15172   49.9081  9 Note On         35, 90
  15180   49.9344  9 Note Off        44, 0
  15193   49.9769  9 Note Off        35, 0
  15213   50.0425  9 Note On         46, 100
  15232   50.1050  9 Note Off        46, 0
  15252   50.1713  9 Note On         67, 100
  15273   50.2400  9 Note Off        67, 0
  15293   50.3056  9 Note On         36, 120
  15293   50.3056  9 Note On         44, 100
  15312   50.3681  9 Note Off        44, 0
  15312   50.3681  9 Note Off        36, 0
  15331   50.4306  9 Note On         36, 80
  15331   50.4306  9 Note On         44, 100
  15351   50.4969  9 Note Off        44, 0
  15351   50.4969  9 Note Off        36, 0
  15372   50.5656  9 Note On         44, 100
  15372   50.5656  9 Note On         67, 100
  15392   50.6313  9 Note Off        67, 0
  15392   50.6313  9 Note Off        44, 0
  15411   50.6938  9 Note On         36, 100
  15411   50.6938  9 Note On         44, 100
  15431   50.7600  9 Note Off        44, 0
  15431   50.7600  9 Note Off        36, 0
  15452   50.8287  9 Note On         40, 110
  15452   50.8287  9 Note On         46, 80
  15472   50.8944  9 Note Off        46, 0
  15472   50.8944  9 Note Off        40, 0
  15491   50.9569  9 Note On         44, 8
  15491   50.9569  9 Note On         67, 100
  15500   50.9869  9 Note Off        44, 0
  15511   51.0231  9 Note Off        67, 0
  15532   51.0919  9 Note On         44, 100
  15552   51.1581  9 Note Off        44, 0
  15571   51.2206  9 Note On         38, 90
  15571   51.2206  9 Note On         44, 100
  15590   51.2831  9 Note Off        44, 0
  15590   51.2831  9 Note Off        38, 0
  15610   51.3488  9 Note On         67, 100
  15610   51.3488  9 Note On         46, 80
  15631   51.4175  9 Note Off        46, 0
  15631   51.4175  9 Note Off        67, 0
  15651   51.4838  9 Note On         44, 8
  15659   51.5100  9 Note Off        44, 0
  15690   51.6119  9 Note On         36, 110
  15690   51.6119  9 Note On         44, 100
  15711   51.6806  9 Note Off        44, 0
  15711   51.6806  9 Note Off        36, 0
  15731   51.7469  9 Note On         44, 100
  15750   51.8094  9 Note Off        44, 0
  15769   51.8719  9 Note On         40, 110
  15769   51.8719  9 Note On         67, 100
  15769   51.8719  9 Note On         46, 80
  15791   51.9438  9 Note Off        46, 0
  15791   51.9438  9 Note Off        67, 0
  15791   51.9438  9 Note Off        40, 0
  15810   52.0063  9 Note On         44, 8
  15810   52.0063  9 Note On         35, 90
  15819   52.0363  9 Note Off        44, 0
  15830   52.0725  9 Note Off        35, 0
  15849   52.1350  9 Note On         46, 100
  15869   52.2006  9 Note Off        46, 0
  15890   52.2694  9 Note On         67, 100
  15910   52.3356  9 Note Off        67, 0
  15929   52.3981  9 Note On         36, 120
  15929   52.3981  9 Note On         44, 100
  15948   52.4606  9 Note Off        44, 0
  15948   52.4606  9 Note Off        36, 0
  15970   52.5331  9 Note On         36, 80
  15970   52.5331  9 Note On         44, 100
  15989   52.5956  9 Note Off        44, 0
  15989   52.5956  9 Note Off        36, 0
  16009   52.6613  9 Note On         44, 100
  16009   52.6613  9 Note On         67, 100
  16028   52.7238  9 Note Off        67, 0
  16028   52.7238  9 Note Off        44, 0
  16050   52.7963  9 Note On         36, 100
  16050   52.7963  9 Note On         44, 100
  16069   52.8588  9 Note Off        44, 0
  16069   52.8588  9 Note Off        36, 0
  16089   52.9244  9 Note On         40, 110
  16089   52.9244  9 Note On         46, 80
  16108   52.9869  9 Note Off        46, 0
  16108   52.9869  9 Note Off        40, 0
  16128   53.0525  9 Note On         44, 8
  16128   53.0525  9 Note On         67, 100
  16136   53.0787  9 Note Off        44, 0
  16149   53.1219  9 Note Off        67, 0
  16168   53.1844  9 Note On         44, 100
  16188   53.2500  9 Note Off        44, 0
  16207   53.3125  9 Note On         38, 100
  16207   53.3125  9 Note On         44, 100
  16229   53.3850  9 Note Off        44, 0
  16229   53.3850  9 Note Off        38, 0
  16248   53.4475  9 Note On         67, 100
  16248   53.4475  9 Note On         46, 80
  16268   53.5131  9 Note Off        46, 0
  16268   53.5131  9 Note Off        67, 0
  16287   53.5756  9 Note On         44, 8
  16296   53.6050  9 Note Off        44, 0
  16328   53.7106  9 Note On         36, 110
  16328   53.7106  9 Note On         44, 100
  16348   53.7762  9 Note Off        44, 0
  16348   53.7762  9 Note Off        36, 0
  16367   53.8387  9 Note On         44, 100
  16386   53.9012  9 Note Off        44, 0
  16408   53.9738  9 Note On         40, 110
  16408   53.9738  9 Note On         67, 100
  16408   53.9738  9 Note On         46, 80
  16427   54.0363  9 Note Off        46, 0
  16427   54.0363  9 Note Off        67, 0
  16427   54.0363  9 Note Off        40, 0
  16447   54.1019  9 Note On         44, 8
  16447   54.1019  9 Note On         35, 90
  16455   54.1281  9 Note Off        44, 0
  16466   54.1644  9 Note Off        35, 0
  16488   54.2369  9 Note On         46, 100
  16507   54.2994  9 Note Off        46, 0
  16527   54.3650  9 Note On         67, 100
  16546   54.4275  9 Note Off        67, 0
  16568   54.5000  9 Note On         36, 120
  16568   54.5000  9 Note On         57, 100
  16568   54.5000  9 Note On         44, 100
  16587   54.5625  9 Note Off        44, 0
  16587   54.5625  9 Note Off        57, 0
  16587   54.5625  9 Note Off        36, 0
  16606   54.6250  9 Note On         36, 80
  16606   54.6250  9 Note On         44, 100
  16626   54.6906  9 Note Off        44, 0
  16626   54.6906  9 Note Off        36, 0
  16645   54.7531  9 Note On         44, 100
  16645   54.7531  9 Note On         67, 100
  16667   54.8256  9 Note Off        67, 0
  16667   54.8256  9 Note Off        44, 0
  16686   54.8881  9 Note On         36, 100
  16686   54.8881  9 Note On         44, 100
  16706   54.9537  9 Note Off        44, 0
  16706   54.9537  9 Note Off        36, 0
  16725   55.0162  9 Note On         40, 110
  16725   55.0162  9 Note On         46, 80
  16747   55.0887  9 Note Off        46, 0
  16747   55.0887  9 Note Off        40, 0
  16766   55.1512  9 Note On         44, 8
  16766   55.1512  9 Note On         67, 100
  16775   55.1806  9 Note Off        44, 0
  16785   55.2137  9 Note Off        67, 0
  16805   55.2794  9 Note On         44, 100
  16826   55.3488  9 Note Off        44, 0
  16846   55.4144  9 Note On         44, 100
  16865   55.4769  9 Note Off        44, 0
  16885   55.5425  9 Note On         46, 80
  16885   55.5425  9 Note On         67, 100
  16904   55.6050  9 Note Off        67, 0
  16904   55.6050  9 Note Off        46, 0
  16926   55.6775  9 Note On         44, 8
  16934   55.7037  9 Note Off        44, 0
  16965   55.8056  9 Note On         36, 110
  16965   55.8056  9 Note On         44, 100
  16984   55.8681  9 Note Off        44, 0
  16984   55.8681  9 Note Off        36, 0
  17006   55.9406  9 Note On         44, 100
  17025   56.0031  9 Note Off        44, 0
  17044   56.0656  9 Note On         67, 100
  17044   56.0656  9 Note On         40, 110
  17044   56.0656  9 Note On         46, 80
  17064   56.1313  9 Note Off        46, 0
  17064   56.1313  9 Note Off        40, 0
  17064   56.1313  9 Note Off        67, 0
  17085   56.2006  9 Note On         35, 90
  17085   56.2006  9 Note On         44, 8
  17092   56.2238  9 Note Off        44, 0
  17105   56.2662  9 Note Off        35, 0
  17124   56.3287  9 Note On         46, 100
  17144   56.3944  9 Note Off        46, 0
  17163   56.4569  9 Note On         67, 100
  17185   56.5294  9 Note Off        67, 0
  17204   56.5919  9 Note On         36, 120
  17204   56.5919  9 Note On         44, 100
  17223   56.6544  9 Note Off        44, 0
  17223   56.6544  9 Note Off        36, 0
  17243   56.7200  9 Note On         36, 80
  17243   56.7200  9 Note On         44, 100
  17264   56.7894  9 Note Off        44, 0
  17264   56.7894  9 Note Off        36, 0
  17284   56.8550  9 Note On         44, 100
  17284   56.8550  9 Note On         67, 100
  17303   56.9175  9 Note Off        67, 0
  17303   56.9175  9 Note Off        44, 0
  17323   56.9838  9 Note On         36, 100
  17323   56.9838  9 Note On         44, 100
  17344   57.0525  9 Note Off        44, 0
  17344   57.0525  9 Note Off        36, 0
  17364   57.1181  9 Note On         40, 110
  17364   57.1181  9 Note On         46, 80
  17383   57.1806  9 Note Off        46, 0
  17383   57.1806  9 Note Off        40, 0
  17402   57.2431  9 Note On         44, 8
  17402   57.2431  9 Note On         67, 100
  17411   57.2731  9 Note Off        44, 0
  17422   57.3094  9 Note Off        67, 0
  17443   57.3781  9 Note On         44, 100
  17463   57.4438  9 Note Off        44, 0
  17482   57.5063  9 Note On         38, 100
  17482   57.5063  9 Note On         44, 100
  17502   57.5725  9 Note Off        44, 0
  17502   57.5725  9 Note Off        38, 0
  17523   57.6412  9 Note On         67, 100
  17523   57.6412  9 Note On         46, 80
  17543   57.7069  9 Note Off        46, 0
  17543   57.7069  9 Note Off        67, 0
  17562   57.7694  9 Note On         44, 8
  17571   57.7994  9 Note Off        44, 0
  17603   57.9044  9 Note On         36, 110
  17603   57.9044  9 Note On         44, 100
  17623   57.9700  9 Note Off        44, 0
  17623   57.9700  9 Note Off        36, 0
  17642   58.0325  9 Note On         44, 100
  17661   58.0950  9 Note Off        44, 0
  17681   58.1613  9 Note On         40, 110
  17681   58.1613  9 Note On         67, 100
  17681   58.1613  9 Note On         46, 80
  17702   58.2300  9 Note Off        46, 0
  17702   58.2300  9 Note Off        67, 0
  17702   58.2300  9 Note Off        40, 0
  17722   58.2963  9 Note On         44, 8
  17722   58.2963  9 Note On         35, 90
  17730   58.3225  9 Note Off        44, 0
  17741   58.3588  9 Note Off        35, 0
  17761   58.4244  9 Note On         46, 100
  17782   58.4931  9 Note Off        46, 0
  17802   58.5594  9 Note On         67, 100
  17821   58.6219  9 Note Off        67, 0
  17840   58.6844  9 Note On         36, 120
  17840   58.6844  9 Note On         44, 100
  17862   58.7563  9 Note Off        44, 0
  17862   58.7563  9 Note Off        36, 0
  17881   58.8188  9 Note On         36, 80
  17881   58.8188  9 Note On         44, 100
  17901   58.8850  9 Note Off        44, 0
  17901   58.8850  9 Note Off        36, 0
  17920   58.9475  9 Note On         44, 100
  17920   58.9475  9 Note On         67, 100
  17940   59.0131  9 Note Off        67, 0
  17940   59.0131  9 Note Off        44, 0
  17961   59.0819  9 Note On         36, 100
  17961   59.0819  9 Note On         44, 100
  17981   59.1481  9 Note Off        44, 0
  17981   59.1481  9 Note Off        36, 0
  18000   59.2106  9 Note On         40, 110
  18000   59.2106  9 Note On         46, 80
  18019   59.2731  9 Note Off        46, 0
  18019   59.2731  9 Note Off        40, 0
  18041   59.3450  9 Note On         44, 8
  18041   59.3450  9 Note On         67, 100
  18048   59.3681  9 Note Off        44, 0
  18060   59.4075  9 Note Off        67, 0
  18080   59.4738  9 Note On         44, 100
  18099   59.5363  9 Note Off        44, 0
  18121   59.6088  9 Note On         38, 90
  18121   59.6088  9 Note On         44, 100
  18140   59.6713  9 Note Off        44, 0
  18140   59.6713  9 Note Off        38, 0
  18160   59.7369  9 Note On         67, 100
  18160   59.7369  9 Note On         46, 80
  18179   59.7994  9 Note Off        46, 0
  18179   59.7994  9 Note Off        67, 0
  18199   59.8650  9 Note On         44, 8
  18207   59.8912  9 Note Off        44, 0
  18240   60.0000  9 Note On         36, 110
  18240   60.0000  9 Note On         44, 100
  18259   60.0625  9 Note Off        44, 0
  18259   60.0625  9 Note Off        36, 0
  18278   60.1250  9 Note On         44, 100
  18300   60.1975  9 Note Off        44, 0
  18319   60.2600  9 Note On         40, 110
  18319   60.2600  9 Note On         67, 100
  18319   60.2600  9 Note On         46, 80
  18339   60.3256  9 Note Off        46, 0
  18339   60.3256  9 Note Off        67, 0
  18339   60.3256  9 Note Off        40, 0
  18358   60.3881  9 Note On         44, 8
  18358   60.3881  9 Note On         35, 90
  18367   60.4175  9 Note Off        44, 0
  18380   60.4606  9 Note Off        35, 0
  18399   60.5231  9 Note On         46, 100
  18419   60.5887  9 Note Off        46, 0
  18438   60.6512  9 Note On         67, 100
  18457   60.7137  9 Note Off        67, 0
  18479   60.7863  9 Note On         36, 120
  18479   60.7863  9 Note On         44, 100
  18498   60.8488  9 Note Off        44, 0
  18498   60.8488  9 Note Off        36, 0
  18518   60.9144  9 Note On         36, 80
  18518   60.9144  9 Note On         44, 100
  18537   60.9769  9 Note Off        44, 0
  18537   60.9769  9 Note Off        36, 0
  18559   61.0494  9 Note On         44, 100
  18559   61.0494  9 Note On         67, 100
  18578   61.1119  9 Note Off        67, 0
  18578   61.1119  9 Note Off        44, 0
  18598   61.1775  9 Note On         36, 100
  18598   61.1775  9 Note On         44, 100
  18617   61.2400  9 Note Off        44, 0
  18617   61.2400  9 Note Off        36, 0
  18639   61.3125  9 Note On         40, 110
  18639   61.3125  9 Note On         46, 80
  18658   61.3750  9 Note Off        46, 0
  18658   61.3750  9 Note Off        40, 0
  18677   61.4375  9 Note On         44, 8
  18677   61.4375  9 Note On         67, 100
  18686   61.4669  9 Note Off        44, 0
  18697   61.5031  9 Note Off        67, 0
  18716   61.5656  9 Note On         44, 100
  18738   61.6381  9 Note Off        44, 0
  18757   61.7006  9 Note On         38, 100
  18757   61.7006  9 Note On         44, 100
  18777   61.7662  9 Note Off        44, 0
  18777   61.7662  9 Note Off        38, 0
  18796   61.8287  9 Note On         67, 100
  18796   61.8287  9 Note On         46, 80
  18818   61.9012  9 Note Off        46, 0
  18818   61.9012  9 Note Off        67, 0
  18837   61.9637  9 Note On         44, 8
  18846   61.9931  9 Note Off        44, 0
  18876   62.0919  9 Note On         36, 110
  18876   62.0919  9 Note On         44, 100
  18897   62.1613  9 Note Off        44, 0
  18897   62.1613  9 Note Off        36, 0
  18917   62.2269  9 Note On         44, 100
  18936   62.2894  9 Note Off        44, 0
  18956   62.3550  9 Note On         40, 110
  18956   62.3550  9 Note On         67, 100
  18956   62.3550  9 Note On         46, 80
  18975   62.4175  9 Note Off        46, 0
  18975   62.4175  9 Note Off        67, 0
  18975   62.4175  9 Note Off        40, 0
  18997   62.4900  9 Note On         44, 8
  18997   62.4900  9 Note On         35, 90
  19005   62.5162  9 Note Off        44, 0
  19016   62.5525  9 Note Off        35, 0
  19036   62.6181  9 Note On         46, 100
  19055   62.6806  9 Note Off        46, 0
  19077   62.7531  9 Note On         67, 100
  19096   62.8156  9 Note Off        67, 0
  19115   62.8781  9 Note On         36, 120
  19115   62.8781  9 Note On         44, 100
  19135   62.9438  9 Note Off        44, 0
  19135   62.9438  9 Note Off        36, 0
  19156   63.0131  9 Note On         36, 80
  19156   63.0131  9 Note On         44, 100
  19176   63.0787  9 Note Off        44, 0
  19176   63.0787  9 Note Off        36, 0
  19195   63.1412  9 Note On         44, 100
  19195   63.1412  9 Note On         67, 100
  19215   63.2069  9 Note Off        67, 0
  19215   63.2069  9 Note Off        44, 0
  19234   63.2694  9 Note On         36, 100
  19234   63.2694  9 Note On         44, 100
  19256   63.3419  9 Note Off        44, 0
  19256   63.3419  9 Note Off        36, 0
  19275   63.4044  9 Note On         40, 110
  19275   63.4044  9 Note On         46, 80
  19294   63.4669  9 Note Off        46, 0
  19294   63.4669  9 Note Off        40, 0
  19314   63.5325  9 Note On         44, 8
  19314   63.5325  9 Note On         67, 100
  19322   63.5594  9 Note Off        44, 0
  19335   63.6019  9 Note Off        67, 0
  19355   63.6675  9 Note On         44, 100
  19374   63.7300  9 Note Off        44, 0
  19394   63.7963  9 Note On         38, 90
  19394   63.7963  9 Note On         44, 100
  19415   63.8650  9 Note Off        44, 0
  19415   63.8650  9 Note Off        38, 0
  19435   63.9306  9 Note On         67, 100
  19435   63.9306  9 Note On         46, 80
  19454   63.9931  9 Note Off        46, 0
  19454   63.9931  9 Note Off        67, 0
  19473   64.0556  9 Note On         44, 8
  19482   64.0856  9 Note Off        44, 0
  19514   64.1906  9 Note On         36, 110
  19514   64.1906  9 Note On         44, 100
  19534   64.2562  9 Note Off        44, 0
  19534   64.2562  9 Note Off        36, 0
  19553   64.3187  9 Note On         44, 100
  19573   64.3850  9 Note Off        44, 0
  19594   64.4537  9 Note On         40, 110
  19594   64.4537  9 Note On         67, 100
  19594   64.4537  9 Note On         46, 80
  19614   64.5194  9 Note Off        46, 0
  19614   64.5194  9 Note Off        67, 0
  19614   64.5194  9 Note Off        40, 0
  19633   64.5819  9 Note On         44, 8
  19633   64.5819  9 Note On         35, 90
  19642   64.6119  9 Note Off        44, 0
  19653   64.6481  9 Note Off        35, 0
  19674   64.7169  9 Note On         46, 100
  19694   64.7825  9 Note Off        46, 0
  19713   64.8450  9 Note On         67, 100
  19732   64.9075  9 Note Off        67, 0
  19752   64.9737  9 Note On         36, 120
  19752   64.9737  9 Note On         44, 100
  19773   65.0425  9 Note Off        44, 0
  19773   65.0425  9 Note Off        36, 0
  19793   65.1088  9 Note On         36, 80
  19793   65.1088  9 Note On         44, 100
  19812   65.1713  9 Note Off        44, 0
  19812   65.1713  9 Note Off        36, 0
  19832   65.2369  9 Note On         44, 100
  19832   65.2369  9 Note On         67, 100
  19853   65.3056  9 Note Off        67, 0
  19853   65.3056  9 Note Off        44, 0
  19873   65.3719  9 Note On         36, 100
  19873   65.3719  9 Note On         44, 100
  19892   65.4344  9 Note Off        44, 0
  19892   65.4344  9 Note Off        36, 0
  19911   65.4969  9 Note On         40, 110
  19911   65.4969  9 Note On         46, 80
  19933   65.5687  9 Note Off        46, 0
  19933   65.5687  9 Note Off        40, 0
  19952   65.6312  9 Note On         44, 8
  19952   65.6312  9 Note On         67, 100
  19961   65.6612  9 Note Off        44, 0
  19972   65.6975  9 Note Off        67, 0
  19991   65.7600  9 Note On         44, 100
  20011   65.8256  9 Note Off        44, 0
  20032   65.8944  9 Note On         38, 100
  20032   65.8944  9 Note On         44, 100
  20052   65.9606  9 Note Off        44, 0
  20052   65.9606  9 Note Off        38, 0
  20071   66.0231  9 Note On         67, 100
  20071   66.0231  9 Note On         46, 80
  20090   66.0856  9 Note Off        46, 0
  20090   66.0856  9 Note Off        67, 0
  20112   66.1575  9 Note On         44, 8
  20119   66.1806  9 Note Off        44, 0
  20151   66.2862  9 Note On         36, 110
  20151   66.2862  9 Note On         44, 100
  20170   66.3487  9 Note Off        44, 0
  20170   66.3487  9 Note Off        36, 0
  20192   66.4213  9 Note On         44, 100
  20211   66.4838  9 Note Off        44, 0
  20231   66.5494  9 Note On         40, 110
  20231   66.5494  9 Note On         67, 100
  20231   66.5494  9 Note On         46, 80
  20250   66.6119  9 Note Off        46, 0
  20250   66.6119  9 Note Off        67, 0
  20250   66.6119  9 Note Off        40, 0
  20270   66.6775  9 Note On         44, 8
  20270   66.6775  9 Note On         35, 90
  20278   66.7037  9 Note Off        44, 0
  20291   66.7469  9 Note Off        35, 0
  20311   66.8125  9 Note On         46, 100
  20330   66.8750  9 Note Off        46, 0
  20349   66.9375  9 Note On         67, 100
  20371   67.0100  9 Note Off        67, 0
  20390   67.0725  9 Note On         36, 120
  20390   67.0725  9 Note On         44, 100
  20410   67.1381  9 Note Off        44, 0
  20410   67.1381  9 Note Off        36, 0
  20429   67.2006  9 Note On         36, 80
  20429   67.2006  9 Note On         44, 100
  20451   67.2731  9 Note Off        44, 0
  20451   67.2731  9 Note Off        36, 0
  20470   67.3356  9 Note On         44, 100
  20470   67.3356  9 Note On         67, 100
  20490   67.4013  9 Note Off        67, 0
  20490   67.4013  9 Note Off        44, 0
  20509   67.4638  9 Note On         36, 100
  20509   67.4638  9 Note On         44, 100
  20528   67.5263  9 Note Off        44, 0
  20528   67.5263  9 Note Off        36, 0
  20550   67.5987  9 Note On         40, 110
  20550   67.5987  9 Note On         46, 80
  20569   67.6612  9 Note Off        46, 0
  20569   67.6612  9 Note Off        40, 0
  20589   67.7269  9 Note On         44, 8
  20589   67.7269  9 Note On         67, 100
  20597   67.7531  9 Note Off        44, 0
  20608   67.7894  9 Note Off        67, 0
  20630   67.8619  9 Note On         44, 100
  20649   67.9244  9 Note Off        44, 0
  20669   67.9900  9 Note On         38, 90
  20669   67.9900  9 Note On         44, 100
  20688   68.0525  9 Note Off        44, 0
  20688   68.0525  9 Note Off        38, 0
  20710   68.1250  9 Note On         67, 100
  20710   68.1250  9 Note On         46, 80
  20729   68.1875  9 Note Off        46, 0
  20729   68.1875  9 Note Off        67, 0
  20748   68.2500  9 Note On         44, 8
  20757   68.2794  9 Note Off        44, 0
  20787   68.3781  9 Note On         36, 110
  20787   68.3781  9 Note On         44, 100
  20809   68.4506  9 Note Off        44, 0
  20809   68.4506  9 Note Off        36, 0
  20828   68.5131  9 Note On         44, 100
  20848   68.5787  9 Note Off        44, 0
  20867   68.6412  9 Note On         40, 110
  20867   68.6412  9 Note On         67, 100
  20867   68.6412  9 Note On         46, 80
  20889   68.7138  9 Note Off        46, 0
  20889   68.7138  9 Note Off        67, 0
  20889   68.7138  9 Note Off        40, 0
  20908   68.7763  9 Note On         44, 8
  20908   68.7763  9 Note On         35, 90
  20917   68.8056  9 Note Off        44, 0
  20928   68.8419  9 Note Off        35, 0
  20947   68.9044  9 Note On         46, 100
  20968   68.9737  9 Note Off        46, 0
  20988   69.0394  9 Note On         67, 100
  21007   69.1019  9 Note Off        67, 0
  21027   69.1675  9 Note On         36, 120
  21027   69.1675  9 Note On         44, 100
  21046   69.2300  9 Note Off        44, 0
  21046   69.2300  9 Note Off        36, 0
  21068   69.3025  9 Note On         36, 80
  21068   69.3025  9 Note On         44, 100
  21087   69.3650  9 Note Off        44, 0
  21087   69.3650  9 Note Off        36, 0
  21107   69.4306  9 Note On         44, 100
  21107   69.4306  9 Note On         67, 100
  21126   69.4931  9 Note Off        67, 0
  21126   69.4931  9 Note Off        44, 0
  21148   69.5656  9 Note On         36, 100
  21148   69.5656  9 Note On         44, 100
  21167   69.6281  9 Note Off        44, 0
  21167   69.6281  9 Note Off        36, 0
  21186   69.6906  9 Note On         40, 110
  21186   69.6906  9 Note On         46, 80
  21206   69.7562  9 Note Off        46, 0
  21206   69.7562  9 Note Off        40, 0
  21227   69.8256  9 Note On         44, 8
  21227   69.8256  9 Note On         67, 100
  21234   69.8487  9 Note Off        44, 0
  21247   69.8912  9 Note Off        67, 0
  21266   69.9537  9 Note On         44, 100
  21286   70.0194  9 Note Off        44, 0
  21305   70.0819  9 Note On         38, 100
  21305   70.0819  9 Note On         44, 100
  21327   70.1544  9 Note Off        44, 0
  21327   70.1544  9 Note Off        38, 0
  21346   70.2169  9 Note On         67, 100
  21346   70.2169  9 Note On         46, 80
  21365   70.2794  9 Note Off        46, 0
  21365   70.2794  9 Note Off        67, 0
  21385   70.3450  9 Note On         44, 8
  21393   70.3719  9 Note Off        44, 0
  21426   70.4800  9 Note On         36, 110
  21426   70.4800  9 Note On         44, 100
  21445   70.5425  9 Note Off        44, 0
  21445   70.5425  9 Note Off        36, 0
  21465   70.6088  9 Note On         44, 100
  21486   70.6775  9 Note Off        44, 0
  21506   70.7431  9 Note On         40, 110
  21506   70.7431  9 Note On         67, 100
  21506   70.7431  9 Note On         46, 80
  21525   70.8056  9 Note Off        46, 0
  21525   70.8056  9 Note Off        67, 0
  21525   70.8056  9 Note Off        40, 0
  21544   70.8681  9 Note On         44, 8
  21544   70.8681  9 Note On         35, 90
  21553   70.8981  9 Note Off        44, 0
  21564   70.9344  9 Note Off        35, 0
  21585   71.0031  9 Note On         46, 100
  21605   71.0687  9 Note Off        46, 0
  21624   71.1312  9 Note On         67, 100
  21644   71.1975  9 Note Off        67, 0
  21665   71.2662  9 Note On         36, 120
  21665   71.2662  9 Note On         57, 100
  21665   71.2662  9 Note On         44, 100
  21685   71.3319  9 Note Off        44, 0
  21685   71.3319  9 Note Off        57, 0
  21685   71.3319  9 Note Off        36, 0
  21704   71.3944  9 Note On         36, 80
  21704   71.3944  9 Note On         44, 100
  21724   71.4606  9 Note Off        44, 0
  21724   71.4606  9 Note Off        36, 0
  21745   71.5294  9 Note On         44, 100
  21745   71.5294  9 Note On         67, 100
  21765   71.5950  9 Note Off        67, 0
  21765   71.5950  9 Note Off        44, 0
  21784   71.6575  9 Note On         36, 100
  21784   71.6575  9 Note On         44, 100
  21803   71.7200  9 Note Off        44, 0
  21803   71.7200  9 Note Off        36, 0
  21823   71.7862  9 Note On         40, 110
  21823   71.7862  9 Note On         46, 80
  21844   71.8550  9 Note Off        46, 0
  21844   71.8550  9 Note Off        40, 0
  21864   71.9213  9 Note On         44, 8
  21864   71.9213  9 Note On         67, 100
  21872   71.9475  9 Note Off        44, 0
  21883   71.9838  9 Note Off        67, 0
  21903   72.0494  9 Note On         44, 100
  21924   72.1181  9 Note Off        44, 0
  21944   72.1844  9 Note On         44, 100
  21963   72.2469  9 Note Off        44, 0
  21982   72.3094  9 Note On         46, 80
  21982   72.3094  9 Note On         67, 100
  22004   72.3812  9 Note Off        67, 0
  22004   72.3812  9 Note Off        46, 0
  22023   72.4437  9 Note On         44, 8
  22032   72.4737  9 Note Off        44, 0
  22062   72.5725  9 Note On         36, 110
  22062   72.5725  9 Note On         44, 100
  22082   72.6381  9 Note Off        44, 0
  22082   72.6381  9 Note Off        36, 0
  22103   72.7069  9 Note On         44, 100
  22123   72.7731  9 Note Off        44, 0
  22142   72.8356  9 Note On         67, 100
  22142   72.8356  9 Note On         40, 110
  22142   72.8356  9 Note On         46, 80
  22161   72.8981  9 Note Off        46, 0
  22161   72.8981  9 Note Off        40, 0
  22161   72.8981  9 Note Off        67, 0
  22183   72.9700  9 Note On         35, 90
  22183   72.9700  9 Note On         44, 8
  22190   72.9931  9 Note Off        44, 0
  22202   73.0325  9 Note Off        35, 0
  22222   73.0987  9 Note On         46, 100
  22241   73.1612  9 Note Off        46, 0
  22263   73.2338  9 Note On         67, 100
  22282   73.2963  9 Note Off        67, 0
  22302   73.3619  9 Note On         36, 120
  22302   73.3619  9 Note On         44, 100
  22321   73.4244  9 Note Off        44, 0
  22321   73.4244  9 Note Off        36, 0
  22341   73.4900  9 Note On         36, 80
  22341   73.4900  9 Note On         44, 100
  22362   73.5594  9 Note Off        44, 0
  22362   73.5594  9 Note Off        36, 0
  22382   73.6250  9 Note On         44, 100
  22382   73.6250  9 Note On         67, 100
  22401   73.6875  9 Note Off        67, 0
  22401   73.6875  9 Note Off        44, 0
  22420   73.7500  9 Note On         36, 100
  22420   73.7500  9 Note On         44, 100
  22442   73.8225  9 Note Off        44, 0
  22442   73.8225  9 Note Off        36, 0
  22461   73.8850  9 Note On         40, 110
  22461   73.8850  9 Note On         46, 80
  22481   73.9506  9 Note Off        46, 0
  22481   73.9506  9 Note Off        40, 0
  22500   74.0131  9 Note On         44, 8
  22500   74.0131  9 Note On         67, 100
  22509   74.0425  9 Note Off        44, 0
  22522   74.0856  9 Note Off        67, 0
  22541   74.1481  9 Note On         44, 100
  22561   74.2138  9 Note Off        44, 0
  22580   74.2763  9 Note On         38, 100
  22580   74.2763  9 Note On         44, 100
  22599   74.3388  9 Note Off        44, 0
  22599   74.3388  9 Note Off        38, 0
  22621   74.4112  9 Note On         67, 100
  22621   74.4112  9 Note On         46, 80
  22640   74.4737  9 Note Off        46, 0
  22640   74.4737  9 Note Off        67, 0
  22660   74.5394  9 Note On         44, 8
  22668   74.5656  9 Note Off        44, 0
  22701   74.6744  9 Note On         36, 110
  22701   74.6744  9 Note On         44, 100
  22720   74.7369  9 Note Off        44, 0
  22720   74.7369  9 Note Off        36, 0
  22740   74.8025  9 Note On         44, 100
  22759   74.8650  9 Note Off        44, 0
  22781   74.9375  9 Note On         40, 110
  22781   74.9375  9 Note On         67, 100
  22781   74.9375  9 Note On         46, 80
  22800   75.0000  9 Note Off        46, 0
  22800   75.0000  9 Note Off        67, 0
  22800   75.0000  9 Note Off        40, 0
  22819   75.0625  9 Note On         44, 8
  22819   75.0625  9 Note On         35, 90
  22828   75.0919  9 Note Off        44, 0
  22839   75.1281  9 Note Off        35, 0
  22858   75.1906  9 Note On         46, 100
  22880   75.2631  9 Note Off        46, 0
  22899   75.3256  9 Note On         67, 100
  22919   75.3912  9 Note Off        67, 0
  22938   75.4537  9 Note On         36, 120
  22938   75.4537  9 Note On         44, 100
  22960   75.5263  9 Note Off        44, 0
  22960   75.5263  9 Note Off        36, 0
  22979   75.5888  9 Note On         36, 80
  22979   75.5888  9 Note On         44, 100
  22999   75.6544  9 Note Off        44, 0
  22999   75.6544  9 Note Off        36, 0
  23018   75.7169  9 Note On         44, 100
  23018   75.7169  9 Note On         67, 100
  23040   75.7894  9 Note Off        67, 0
  23040   75.7894  9 Note Off        44, 0
  23059   75.8519  9 Note On         36, 100
  23059   75.8519  9 Note On         44, 100
  23078   75.9144  9 Note Off        44, 0
  23078   75.9144  9 Note Off        36, 0
  23098   75.9800  9 Note On         40, 110
  23098   75.9800  9 Note On         46, 80
  23117   76.0425  9 Note Off        46, 0
  23117   76.0425  9 Note Off        40, 0
  23139   76.1150  9 Note On         44, 8
  23139   76.1150  9 Note On         67, 100
  23147   76.1412  9 Note Off        44, 0
  23158   76.1775  9 Note Off        67, 0
  23178   76.2431  9 Note On         44, 100
  23197   76.3056  9 Note Off        44, 0
  23219   76.3781  9 Note On         38, 90
  23219   76.3781  9 Note On         44, 100
  23238   76.4406  9 Note Off        44, 0
  23238   76.4406  9 Note Off        38, 0
  23257   76.5031  9 Note On         67, 100
  23257   76.5031  9 Note On         46, 80
  23277   76.5687  9 Note Off        46, 0
  23277   76.5687  9 Note Off        67, 0
  23298   76.6381  9 Note On         44, 8
  23305   76.6612  9 Note Off        44, 0
  23337   76.7662  9 Note On         36, 110
  23337   76.7662  9 Note On         44, 100
  23357   76.8319  9 Note Off        44, 0
  23357   76.8319  9 Note Off        36, 0
  23376   76.8944  9 Note On         44, 100
  23398   76.9669  9 Note Off        44, 0
  23417   77.0294  9 Note On         40, 110
  23417   77.0294  9 Note On         67, 100
  23417   77.0294  9 Note On         46, 80
  23436   77.0919  9 Note Off        46, 0
  23436   77.0919  9 Note Off        67, 0
  23436   77.0919  9 Note Off        40, 0
  23456   77.1575  9 Note On         44, 8
  23456   77.1575  9 Note On         35, 90
  23464   77.1844  9 Note Off        44, 0
  23477   77.2269  9 Note Off        35, 0
  23497   77.2925  9 Note On         46, 100
  23516   77.3550  9 Note Off        46, 0
  23536   77.4206  9 Note On         67, 100
  23557   77.4900  9 Note Off        67, 0
  23577   77.5556  9 Note On         36, 120
  23577   77.5556  9 Note On         44, 100
  23596   77.6181  9 Note Off        44, 0
  23596   77.6181  9 Note Off        36, 0
  23616   77.6844  9 Note On         36, 80
  23616   77.6844  9 Note On         44, 100
  23635   77.7469  9 Note Off        44, 0
  23635   77.7469  9 Note Off        36, 0
  23656   77.8156  9 Note On         44, 100
  23656   77.8156  9 Note On         67, 100
  23676   77.8812  9 Note Off        67, 0
  23676   77.8812  9 Note Off        44, 0
  23695   77.9437  9 Note On         36, 100
  23695   77.9437  9 Note On         44, 100
  23715   78.0100  9 Note Off        44, 0
  23715   78.0100  9 Note Off        36, 0
  23736   78.0787  9 Note On         40, 110
  23736   78.0787  9 Note On         46, 80
  23756   78.1444  9 Note Off        46, 0
  23756   78.1444  9 Note Off        40, 0
  23775   78.2069  9 Note On         44, 8
  23775   78.2069  9 Note On         67, 100
  23784   78.2369  9 Note Off        44, 0
  23795   78.2731  9 Note Off        67, 0
  23816   78.3419  9 Note On         44, 100
  23836   78.4075  9 Note Off        44, 0
  23855   78.4700  9 Note On         38, 100
  23855   78.4700  9 Note On         44, 100
  23874   78.5325  9 Note Off        44, 0
  23874   78.5325  9 Note Off        38, 0
  23894   78.5987  9 Note On         67, 100
  23894   78.5987  9 Note On         46, 80
  23915   78.6675  9 Note Off        46, 0
  23915   78.6675  9 Note Off        67, 0
  23935   78.7331  9 Note On         44, 8
  23943   78.7600  9 Note Off        44, 0
  23974   78.8619  9 Note On         36, 110
  23974   78.8619  9 Note On         44, 100
  23995   78.9306  9 Note Off        44, 0
  23995   78.9306  9 Note Off        36, 0
  24015   78.9969  9 Note On         44, 100
  24034   79.0594  9 Note Off        44, 0
  24053   79.1219  9 Note On         40, 110
  24053   79.1219  9 Note On         67, 100
  24053   79.1219  9 Note On         46, 80
  24075   79.1937  9 Note Off        46, 0
  24075   79.1937  9 Note Off        67, 0
  24075   79.1937  9 Note Off        40, 0
  24094   79.2562  9 Note On         44, 8
  24094   79.2562  9 Note On         35, 90
  24103   79.2862  9 Note Off        44, 0
  24114   79.3225  9 Note Off        35, 0
  24133   79.3850  9 Note On         46, 100
  24153   79.4506  9 Note Off        46, 0
  24174   79.5194  9 Note On         67, 100
  24194   79.5856  9 Note Off        67, 0
  24213   79.6481  9 Note On         36, 120
  24213   79.6481  9 Note On         44, 100
  24232   79.7106  9 Note Off        44, 0
  24232   79.7106  9 Note Off        36, 0
  24254   79.7825  9 Note On         36, 80
  24254   79.7825  9 Note On         44, 100
  24273   79.8450  9 Note Off        44, 0
  24273   79.8450  9 Note Off        36, 0
  24293   79.9112  9 Note On         44, 100
  24293   79.9112  9 Note On         67, 100
  24312   79.9737  9 Note Off        67, 0
  24312   79.9737  9 Note Off        44, 0
  24334   80.0456  9 Note On         36, 100
  24334   80.0456  9 Note On         44, 100
  24353   80.1081  9 Note Off        44, 0
  24353   80.1081  9 Note Off        36, 0
  24373   80.1744  9 Note On         40, 110
  24373   80.1744  9 Note On         46, 80
  24392   80.2369  9 Note Off        46, 0
  24392   80.2369  9 Note Off        40, 0
  24412   80.3025  9 Note On         44, 8
  24412   80.3025  9 Note On         67, 100
  24420   80.3287  9 Note Off        44, 0
  24433   80.3719  9 Note Off        67, 0
  24453   80.4375  9 Note On         44, 100
  24472   80.5000  9 Note Off        44, 0
  24491   80.5625  9 Note On         38, 90
  24491   80.5625  9 Note On         44, 100
  24513   80.6350  9 Note Off        44, 0
  24513   80.6350  9 Note Off        38, 0
  24532   80.6975  9 Note On         67, 100
  24532   80.6975  9 Note On         46, 80
  24552   80.7631  9 Note Off        46, 0
  24552   80.7631  9 Note Off        67, 0
  24571   80.8256  9 Note On         44, 8
  24580   80.8550  9 Note Off        44, 0
  24612   80.9606  9 Note On         36, 110
  24612   80.9606  9 Note On         44, 100
  24632   81.0263  9 Note Off        44, 0
  24632   81.0263  9 Note Off        36, 0
  24651   81.0888  9 Note On         44, 100
  24670   81.1513  9 Note Off        44, 0
  24692   81.2237  9 Note On         40, 110
  24692   81.2237  9 Note On         67, 100
  24692   81.2237  9 Note On         46, 80
  24711   81.2862  9 Note Off        46, 0
  24711   81.2862  9 Note Off        67, 0
  24711   81.2862  9 Note Off        40, 0
  24731   81.3519  9 Note On         44, 8
  24731   81.3519  9 Note On         35, 90
  24739   81.3781  9 Note Off        44, 0
  24750   81.4144  9 Note Off        35, 0
  24772   81.4869  9 Note On         46, 100
  24791   81.5494  9 Note Off        46, 0
  24811   81.6150  9 Note On         67, 100
  24830   81.6775  9 Note Off        67, 0
  24852   81.7500  9 Note On         36, 120
  24852   81.7500  9 Note On         44, 100
  24871   81.8125  9 Note Off        44, 0
  24871   81.8125  9 Note Off        36, 0
  24890   81.8750  9 Note On         36, 80
  24890   81.8750  9 Note On         44, 100
  24910   81.9406  9 Note Off        44, 0
  24910   81.9406  9 Note Off        36, 0
  24929   82.0031  9 Note On         44, 100
  24929   82.0031  9 Note On         67, 100
  24951   82.0756  9 Note Off        67, 0
  24951   82.0756  9 Note Off        44, 0
  24970   82.1381  9 Note On         36, 100
  24970   82.1381  9 Note On         44, 100
  24990   82.2037  9 Note Off        44, 0
  24990   82.2037  9 Note Off        36, 0
  25009   82.2662  9 Note On         40, 110
  25009   82.2662  9 Note On         46, 80
  25031   82.3388  9 Note Off        46, 0
  25031   82.3388  9 Note Off        40, 0
  25050   82.4013  9 Note On         44, 8
  25050   82.4013  9 Note On         67, 100
  25059   82.4306  9 Note Off        44, 0
  25070   82.4669  9 Note Off        67, 0
  25089   82.5294  9 Note On         44, 100
  25111   82.6019  9 Note Off        44, 0
  25130   82.6644  9 Note On         38, 100
  25130   82.6644  9 Note On         44, 100
  25149   82.7269  9 Note Off        44, 0
  25149   82.7269  9 Note Off        38, 0
  25169   82.7925  9 Note On         67, 100
  25169   82.7925  9 Note On         46, 80
  25188   82.8550  9 Note Off        46, 0
  25188   82.8550  9 Note Off        67, 0
  25210   82.9275  9 Note On         44, 8
  25218   82.9537  9 Note Off        44, 0
  25249   83.0556  9 Note On         36, 110
  25249   83.0556  9 Note On         44, 100
  25268   83.1181  9 Note Off        44, 0
  25268   83.1181  9 Note Off        36, 0
  25290   83.1906  9 Note On         44, 100
  25309   83.2531  9 Note Off        44, 0
  25328   83.3156  9 Note On         40, 110
  25328   83.3156  9 Note On         67, 100
  25328   83.3156  9 Note On         46, 80
  25348   83.3812  9 Note Off        46, 0
  25348   83.3812  9 Note Off        67, 0
  25348   83.3812  9 Note Off        40, 0
  25369   83.4506  9 Note On         44, 8
  25369   83.4506  9 Note On         35, 90
  25376   83.4737  9 Note Off        44, 0
  25389   83.5162  9 Note Off        35, 0
  25408   83.5787  9 Note On         46, 100
  25428   83.6444  9 Note Off        46, 0
  25447   83.7069  9 Note On         67, 100
  25469   83.7794  9 Note Off        67, 0
  25488   83.8419  9 Note On         36, 120
  25488   83.8419  9 Note On         44, 100
  25507   83.9044  9 Note Off        44, 0
  25507   83.9044  9 Note Off        36, 0
  25527   83.9700  9 Note On         36, 80
  25527   83.9700  9 Note On         44, 100
  25548   84.0394  9 Note Off        44, 0
  25548   84.0394  9 Note Off        36, 0
  25568   84.1050  9 Note On         44, 100
  25568   84.1050  9 Note On         67, 100
  25587   84.1675  9 Note Off        67, 0
  25587   84.1675  9 Note Off        44, 0
  25607   84.2331  9 Note On         36, 100
  25607   84.2331  9 Note On         44, 100
  25628   84.3025  9 Note Off        44, 0
  25628   84.3025  9 Note Off        36, 0
  25648   84.3681  9 Note On         40, 110
  25648   84.3681  9 Note On         46, 80
  25667   84.4306  9 Note Off        46, 0
  25667   84.4306  9 Note Off        40, 0
  25687   84.4969  9 Note On         44, 8
  25687   84.4969  9 Note On         67, 100
  25695   84.5231  9 Note Off        44, 0
  25706   84.5594  9 Note Off        67, 0
  25728   84.6312  9 Note On         44, 100
  25747   84.6937  9 Note Off        44, 0
  25766   84.7562  9 Note On         38, 90
  25766   84.7562  9 Note On         44, 100
  25786   84.8225  9 Note Off        44, 0
  25786   84.8225  9 Note Off        38, 0
  25807   84.8912  9 Note On         67, 100
  25807   84.8912  9 Note On         46, 80
  25827   84.9569  9 Note Off        46, 0
  25827   84.9569  9 Note Off        67, 0
  25846   85.0194  9 Note On         44, 8
  25855   85.0494  9 Note Off        44, 0
  25887   85.1544  9 Note On         36, 110
  25887   85.1544  9 Note On         44, 100
  25907   85.2200  9 Note Off        44, 0
  25907   85.2200  9 Note Off        36, 0
  25926   85.2825  9 Note On         44, 100
  25945   85.3450  9 Note Off        44, 0
  25965   85.4112  9 Note On         40, 110
  25965   85.4112  9 Note On         67, 100
  25965   85.4112  9 Note On         46, 80
  25986   85.4800  9 Note Off        46, 0
  25986   85.4800  9 Note Off        67, 0
  25986   85.4800  9 Note Off        40, 0
  26006   85.5456  9 Note On         44, 8
  26006   85.5456  9 Note On         35, 90
  26014   85.5725  9 Note Off        44, 0
  26025   85.6081  9 Note Off        35, 0
  26045   85.6744  9 Note On         46, 100
  26066   85.7431  9 Note Off        46, 0
  26086   85.8094  9 Note On         67, 100
  26105   85.8719  9 Note Off        67, 0
  26124   85.9344  9 Note On         36, 120
  26124   85.9344  9 Note On         44, 100
  26146   86.0062  9 Note Off        44, 0
  26146   86.0062  9 Note Off        36, 0
  26165   86.0687  9 Note On         36, 80
  26165   86.0687  9 Note On         44, 100
  26185   86.1350  9 Note Off        44, 0
  26185   86.1350  9 Note Off        36, 0
  26204   86.1975  9 Note On         44, 100
  26204   86.1975  9 Note On         67, 100
  26224   86.2631  9 Note Off        67, 0
  26224   86.2631  9 Note Off        44, 0
  26245   86.3319  9 Note On         36, 100
  26245   86.3319  9 Note On         44, 100
  26265   86.3981  9 Note Off        44, 0
  26265   86.3981  9 Note Off        36, 0
  26284   86.4606  9 Note On         40, 110
  26284   86.4606  9 Note On         46, 80
  26304   86.5263  9 Note Off        46, 0
  26304   86.5263  9 Note Off        40, 0
  26325   86.5950  9 Note On         44, 8
  26325   86.5950  9 Note On         67, 100
  26332   86.6181  9 Note Off        44, 0
  26344   86.6575  9 Note Off        67, 0
  26364   86.7237  9 Note On         44, 100
  26383   86.7862  9 Note Off        44, 0
  26405   86.8581  9 Note On         38, 100
  26405   86.8581  9 Note On         44, 100
  26424   86.9206  9 Note Off        44, 0
  26424   86.9206  9 Note Off        38, 0
  26444   86.9869  9 Note On         67, 100
  26444   86.9869  9 Note On         46, 80
  26463   87.0494  9 Note Off        46, 0
  26463   87.0494  9 Note Off        67, 0
  26483   87.1150  9 Note On         44, 8
  26491   87.1412  9 Note Off        44, 0
  26524   87.2500  9 Note On         36, 110
  26524   87.2500  9 Note On         44, 100
  26543   87.3125  9 Note Off        44, 0
  26543   87.3125  9 Note Off        36, 0
  26562   87.3750  9 Note On         44, 100
  26584   87.4475  9 Note Off        44, 0
  26603   87.5100  9 Note On         40, 110
  26603   87.5100  9 Note On         67, 100
  26603   87.5100  9 Note On         46, 80
  26623   87.5756  9 Note Off        46, 0
  26623   87.5756  9 Note Off        67, 0
  26623   87.5756  9 Note Off        40, 0
  26642   87.6381  9 Note On         44, 8
  26642   87.6381  9 Note On         35, 90
  26651   87.6675  9 Note Off        44, 0
  26664   87.7106  9 Note Off        35, 0
  26683   87.7731  9 Note On         46, 100
  26703   87.8388  9 Note Off        46, 0
  26722   87.9013  9 Note On         67, 100
  26741   87.9638  9 Note Off        67, 0
  26763   88.0362  9 Note On         36, 120
  26763   88.0362  9 Note On         44, 100
  26782   88.0987  9 Note Off        44, 0
  26782   88.0987  9 Note Off        36, 0
  26802   88.1644  9 Note On         36, 80
  26802   88.1644  9 Note On         44, 100
  26821   88.2269  9 Note Off        44, 0
  26821   88.2269  9 Note Off        36, 0
  26843   88.2994  9 Note On         44, 100
  26843   88.2994  9 Note On         67, 100
  26862   88.3619  9 Note Off        67, 0
  26862   88.3619  9 Note Off        44, 0
  26882   88.4275  9 Note On         36, 100
  26882   88.4275  9 Note On         44, 100
  26901   88.4900  9 Note Off        44, 0
  26901   88.4900  9 Note Off        36, 0
  26923   88.5625  9 Note On         40, 110
  26923   88.5625  9 Note On         46, 80
  26942   88.6250  9 Note Off        46, 0
  26942   88.6250  9 Note Off        40, 0
  26961   88.6875  9 Note On         44, 8
  26961   88.6875  9 Note On         67, 100
  26970   88.7169  9 Note Off        44, 0
  26981   88.7531  9 Note Off        67, 0
  27000   88.8156  9 Note On         44, 100
  27022   88.8881  9 Note Off        44, 0
  27041   88.9506  9 Note On         44, 100
  27061   89.0162  9 Note Off        44, 0
  27080   89.0787  9 Note On         46, 80
  27080   89.0787  9 Note On         67, 100
  27102   89.1513  9 Note Off        67, 0
  27102   89.1513  9 Note Off        46, 0
  27121   89.2138  9 Note On         44, 8
  27130   89.2431  9 Note Off        44, 0
  27160   89.3419  9 Note On         36, 110
  27160   89.3419  9 Note On         44, 100
  27182   89.4144  9 Note Off        44, 0
  27182   89.4144  9 Note Off        36, 0
  27201   89.4769  9 Note On         44, 100
  27220   89.5394  9 Note Off        44, 0
  27240   89.6050  9 Note On         67, 100
  27240   89.6050  9 Note On         40, 110
  27240   89.6050  9 Note On         46, 80
  27259   89.6675  9 Note Off        46, 0
  27259   89.6675  9 Note Off        40, 0
  27259   89.6675  9 Note Off        67, 0
  27281   89.7400  9 Note On         35, 90
  27281   89.7400  9 Note On         44, 8
  27289   89.7662  9 Note Off        44, 0
  27300   89.8025  9 Note Off        35, 0
  27320   89.8681  9 Note On         46, 100
  27339   89.9306  9 Note Off        46, 0
  27361   90.0031  9 Note On         67, 100
  27380   90.0656  9 Note Off        67, 0
  27399   90.1281  9 Note On         36, 120
  27399   90.1281  9 Note On         44, 100
  27419   90.1937  9 Note Off        44, 0
  27419   90.1937  9 Note Off        36, 0
  27440   90.2631  9 Note On         36, 80
  27440   90.2631  9 Note On         44, 100
  27460   90.3287  9 Note Off        44, 0
  27460   90.3287  9 Note Off        36, 0
  27479   90.3912  9 Note On         44, 100
  27479   90.3912  9 Note On         67, 100
  27499   90.4569  9 Note Off        67, 0
  27499   90.4569  9 Note Off        44, 0
  27518   90.5194  9 Note On         36, 100
  27518   90.5194  9 Note On         44, 100
  27540   90.5919  9 Note Off        44, 0
  27540   90.5919  9 Note Off        36, 0
  27559   90.6544  9 Note On         40, 110
  27559   90.6544  9 Note On         46, 80
  27578   90.7169  9 Note Off        46, 0
  27578   90.7169  9 Note Off        40, 0
  27598   90.7825  9 Note On         44, 8
  27598   90.7825  9 Note On         67, 100
  27607   90.8125  9 Note Off        44, 0
  27619   90.8519  9 Note Off        67, 0
  27639   90.9175  9 Note On         44, 100
  27658   90.9800  9 Note Off        44, 0
  27678   91.0456  9 Note On         38, 100
  27678   91.0456  9 Note On         44, 100
  27699   91.1150  9 Note Off        44, 0
  27699   91.1150  9 Note Off        38, 0
  27719   91.1806  9 Note On         67, 100
  27719   91.1806  9 Note On         46, 80
  27738   91.2431  9 Note Off        46, 0
  27738   91.2431  9 Note Off        67, 0
  27758   91.3094  9 Note On         44, 8
  27766   91.3356  9 Note Off        44, 0
  27799   91.4437  9 Note On         36, 110
  27799   91.4437  9 Note On         44, 100
  27818   91.5062  9 Note Off        44, 0
  27818   91.5062  9 Note Off        36, 0
  27837   91.5687  9 Note On         44, 100
  27857   91.6350  9 Note Off        44, 0
  27878   91.7037  9 Note On         40, 110
  27878   91.7037  9 Note On         67, 100
  27878   91.7037  9 Note On         46, 80
  27898   91.7694  9 Note Off        46, 0
  27898   91.7694  9 Note Off        67, 0
  27898   91.7694  9 Note Off        40, 0
  27917   91.8319  9 Note On         44, 8
  27917   91.8319  9 Note On         35, 90
  27926   91.8619  9 Note Off        44, 0
  27937   91.8981  9 Note Off        35, 0
  27958   91.9669  9 Note On         46, 100
  27978   92.0325  9 Note Off        46, 0
  27997   92.0950  9 Note On         67, 100
  28016   92.1575  9 Note Off        67, 0
  28036   92.2237  9 Note On         36, 120
  28036   92.2237  9 Note On         57, 100
  28036   92.2237  9 Note On         44, 100
  28057   92.2925  9 Note Off        44, 0
  28057   92.2925  9 Note Off        57, 0
  28057   92.2925  9 Note Off        36, 0
  28077   92.3581  9 Note On         36, 80
  28077   92.3581  9 Note On         44, 100
  28096   92.4206  9 Note Off        44, 0
  28096   92.4206  9 Note Off        36, 0
  28116   92.4869  9 Note On         44, 100
  28116   92.4869  9 Note On         67, 100
  28137   92.5556  9 Note Off        67, 0
  28137   92.5556  9 Note Off        44, 0
  28157   92.6219  9 Note On         36, 100
  28157   92.6219  9 Note On         44, 100
  28176   92.6844  9 Note Off        44, 0
  28176   92.6844  9 Note Off        36, 0
  28195   92.7469  9 Note On         40, 110
  28195   92.7469  9 Note On         46, 80
  28217   92.8187  9 Note Off        46, 0
  28217   92.8187  9 Note Off        40, 0
  28236   92.8812  9 Note On         44, 8
  28236   92.8812  9 Note On         67, 100
  28245   92.9112  9 Note Off        44, 0
  28256   92.9475  9 Note Off        67, 0
  28275   93.0100  9 Note On         44, 100
  28295   93.0756  9 Note Off        44, 0
  28316   93.1444  9 Note On         38, 90
  28316   93.1444  9 Note On         44, 100
  28336   93.2106  9 Note Off        44, 0
  28336   93.2106  9 Note Off        38, 0
  28355   93.2731  9 Note On         67, 100
  28355   93.2731  9 Note On         46, 80
  28375   93.3388  9 Note Off        46, 0
  28375   93.3388  9 Note Off        67, 0
  28396   93.4075  9 Note On         44, 8
  28403   93.4306  9 Note Off        44, 0
  28435   93.5362  9 Note On         36, 110
  28435   93.5362  9 Note On         44, 100
  28454   93.5987  9 Note Off        44, 0
  28454   93.5987  9 Note Off        36, 0
  28476   93.6706  9 Note On         44, 100
  28495   93.7331  9 Note Off        44, 0
  28515   93.7994  9 Note On         40, 110
  28515   93.7994  9 Note On         67, 100
  28515   93.7994  9 Note On         46, 80
  28534   93.8619  9 Note Off        46, 0
  28534   93.8619  9 Note Off        67, 0
  28534   93.8619  9 Note Off        40, 0
  28554   93.9275  9 Note On         44, 8
  28554   93.9275  9 Note On         35, 90
  28562   93.9537  9 Note Off        44, 0
  28575   93.9969  9 Note Off        35, 0
  28595   94.0625  9 Note On         46, 100
  28614   94.1250  9 Note Off        46, 0
  28633   94.1875  9 Note On         67, 100
  28655   94.2600  9 Note Off        67, 0
  28674   94.3225  9 Note On         36, 120
  28674   94.3225  9 Note On         44, 100
  28694   94.3881  9 Note Off        44, 0
  28694   94.3881  9 Note Off        36, 0
  28713   94.4506  9 Note On         36, 80
  28713   94.4506  9 Note On         44, 100
  28735   94.5231  9 Note Off        44, 0
  28735   94.5231  9 Note Off        36, 0
  28754   94.5856  9 Note On         44, 100
  28754   94.5856  9 Note On         67, 100
  28774   94.6513  9 Note Off        67, 0
  28774   94.6513  9 Note Off        44, 0
  28793   94.7138  9 Note On         36, 100
  28793   94.7138  9 Note On         44, 100
  28812   94.7763  9 Note Off        44, 0
  28812   94.7763  9 Note Off        36, 0
  28834   94.8487  9 Note On         40, 110
  28834   94.8487  9 Note On         46, 80
  28853   94.9112  9 Note Off        46, 0
  28853   94.9112  9 Note Off        40, 0
  28873   94.9769  9 Note On         44, 8
  28873   94.9769  9 Note On         67, 100
  28881   95.0031  9 Note Off        44, 0
  28892   95.0394  9 Note Off        67, 0
  28914   95.1119  9 Note On         44, 100
  28933   95.1744  9 Note Off        44, 0
  28953   95.2400  9 Note On         38, 100
  28953   95.2400  9 Note On         44, 100
  28972   95.3025  9 Note Off        44, 0
  28972   95.3025  9 Note Off        38, 0
  28994   95.3750  9 Note On         67, 100
  28994   95.3750  9 Note On         46, 80
  29013   95.4375  9 Note Off        46, 0
  29013   95.4375  9 Note Off        67, 0
  29032   95.5000  9 Note On         44, 8
  29041   95.5294  9 Note Off        44, 0
  29071   95.6281  9 Note On         36, 110
  29071   95.6281  9 Note On         44, 100
  29093   95.7006  9 Note Off        44, 0
  29093   95.7006  9 Note Off        36, 0
  29112   95.7631  9 Note On         44, 100
  29132   95.8287  9 Note Off        44, 0
  29151   95.8912  9 Note On         40, 110
  29151   95.8912  9 Note On         67, 100
  29151   95.8912  9 Note On         46, 80
  29173   95.9638  9 Note Off        46, 0
  29173   95.9638  9 Note Off        67, 0
  29173   95.9638  9 Note Off        40, 0
  29192   96.0263  9 Note On         44, 8
  29192   96.0263  9 Note On         35, 90
  29201   96.0556  9 Note Off        44, 0
  29212   96.0919  9 Note Off        35, 0
  29231   96.1544  9 Note On         46, 100
  29253   96.2269  9 Note Off        46, 0
  29272   96.2894  9 Note On         67, 100
  29291   96.3519  9 Note Off        67, 0
  29311   96.4175  9 Note On         36, 120
  29311   96.4175  9 Note On         44, 100
  29330   96.4800  9 Note Off        44, 0
  29330   96.4800  9 Note Off        36, 0
  29352   96.5525  9 Note On         36, 80
  29352   96.5525  9 Note On         44, 100
  29371   96.6150  9 Note Off        44, 0
  29371   96.6150  9 Note Off        36, 0
  29391   96.6806  9 Note On         44, 100
  29391   96.6806  9 Note On         67, 100
  29410   96.7431  9 Note Off        67, 0
  29410   96.7431  9 Note Off        44, 0
  29432   96.8156  9 Note On         36, 100
  29432   96.8156  9 Note On         44, 100
  29451   96.8781  9 Note Off        44, 0
  29451   96.8781  9 Note Off        36, 0
  29470   96.9406  9 Note On         40, 110
  29470   96.9406  9 Note On         46, 80
  29490   97.0062  9 Note Off        46, 0
  29490   97.0062  9 Note Off        40, 0
  29511   97.0756  9 Note On         44, 8
  29511   97.0756  9 Note On         67, 100
  29518   97.0987  9 Note Off        44, 0
  29531   97.1412  9 Note Off        67, 0
  29550   97.2037  9 Note On         44, 100
  29570   97.2694  9 Note Off        44, 0
  29589   97.3319  9 Note On         38, 90
  29589   97.3319  9 Note On         44, 100
  29611   97.4044  9 Note Off        44, 0
  29611   97.4044  9 Note Off        38, 0
  29630   97.4669  9 Note On         67, 100
  29630   97.4669  9 Note On         46, 80
  29649   97.5294  9 Note Off        46, 0
  29649   97.5294  9 Note Off        67, 0
  29669   97.5950  9 Note On         44, 8
  29678   97.6250  9 Note Off        44, 0
  29710   97.7300  9 Note On         36, 110
  29710   97.7300  9 Note On         44, 100
  29729   97.7925  9 Note Off        44, 0
  29729   97.7925  9 Note Off        36, 0
  29749   97.8581  9 Note On         44, 100
  29770   97.9275  9 Note Off        44, 0
  29790   97.9931  9 Note On         40, 110
  29790   97.9931  9 Note On         67, 100
  29790   97.9931  9 Note On         46, 80
  29809   98.0556  9 Note Off        46, 0
  29809   98.0556  9 Note Off        67, 0
  29809   98.0556  9 Note Off        40, 0
  29829   98.1219  9 Note On         44, 8
  29829   98.1219  9 Note On         35, 90
  29837   98.1481  9 Note Off        44, 0
  29848   98.1844  9 Note Off        35, 0
  29870   98.2562  9 Note On         46, 100
  29889   98.3187  9 Note Off        46, 0
  29908   98.3812  9 Note On         67, 100
  29928   98.4475  9 Note Off        67, 0
  29949   98.5162  9 Note On         36, 120
  29949   98.5162  9 Note On         44, 100
  29969   98.5819  9 Note Off        44, 0
  29969   98.5819  9 Note Off        36, 0
  29988   98.6444  9 Note On         36, 80
  29988   98.6444  9 Note On         44, 100
  30008   98.7106  9 Note Off        44, 0
  30008   98.7106  9 Note Off        36, 0
  30029   98.7794  9 Note On         44, 100
  30029   98.7794  9 Note On         67, 100
  30049   98.8450  9 Note Off        67, 0
  30049   98.8450  9 Note Off        44, 0
  30068   98.9075  9 Note On         36, 100
  30068   98.9075  9 Note On         44, 100
  30087   98.9700  9 Note Off        44, 0
  30087   98.9700  9 Note Off        36, 0
  30107   99.0362  9 Note On         40, 110
  30107   99.0362  9 Note On         46, 80
  30128   99.1050  9 Note Off        46, 0
  30128   99.1050  9 Note Off        40, 0
  30148   99.1706  9 Note On         44, 8
  30148   99.1706  9 Note On         67, 100
  30156   99.1975  9 Note Off        44, 0
  30167   99.2331  9 Note Off        67, 0
  30187   99.2994  9 Note On         44, 100
  30208   99.3681  9 Note Off        44, 0
  30228   99.4338  9 Note On         38, 100
  30228   99.4338  9 Note On         44, 100
  30247   99.4963  9 Note Off        44, 0
  30247   99.4963  9 Note Off        38, 0
  30266   99.5588  9 Note On         67, 100
  30266   99.5588  9 Note On         46, 80
  30288   99.6312  9 Note Off        46, 0
  30288   99.6312  9 Note Off        67, 0
  30307   99.6937  9 Note On         44, 8
  30316   99.7237  9 Note Off        44, 0
  30346   99.8225  9 Note On         36, 110
  30346   99.8225  9 Note On         44, 100
  30366   99.8881  9 Note Off        44, 0
  30366   99.8881  9 Note Off        36, 0
  30387   99.9569  9 Note On         44, 100
  30407  100.0231  9 Note Off        44, 0
  30426  100.0856  9 Note On         40, 110
  30426  100.0856  9 Note On         67, 100
  30426  100.0856  9 Note On         46, 80
  30446  100.1513  9 Note Off        46, 0
  30446  100.1513  9 Note Off        67, 0
  30446  100.1513  9 Note Off        40, 0
  30467  100.2200  9 Note On         44, 8
  30467  100.2200  9 Note On         35, 90
  30474  100.2431  9 Note Off        44, 0
  30487  100.2862  9 Note Off        35, 0
  30506  100.3487  9 Note On         46, 100
  30525  100.4112  9 Note Off        46, 0
  30547  100.4831  9 Note On         67, 100
  30566  100.5456  9 Note Off        67, 0
  30586  100.6119  9 Note On         36, 120
  30586  100.6119  9 Note On         44, 100
  30605  100.6744  9 Note Off        44, 0
  30605  100.6744  9 Note Off        36, 0
  30625  100.7400  9 Note On         36, 80
  30625  100.7400  9 Note On         44, 100
  30646  100.8088  9 Note Off        44, 0
  30646  100.8088  9 Note Off        36, 0
  30666  100.8750  9 Note On         44, 100
  30666  100.8750  9 Note On         67, 100
  30685  100.9375  9 Note Off        67, 0
  30685  100.9375  9 Note Off        44, 0
  30704  101.0000  9 Note On         36, 100
  30704  101.0000  9 Note On         44, 100
  30726  101.0725  9 Note Off        44, 0
  30726  101.0725  9 Note Off        36, 0
  30745  101.1350  9 Note On         40, 110
  30745  101.1350  9 Note On         46, 80
  30765  101.2006  9 Note Off        46, 0
  30765  101.2006  9 Note Off        40, 0
  30784  101.2631  9 Note On         44, 8
  30784  101.2631  9 Note On         67, 100
  30793  101.2925  9 Note Off        44, 0
  30806  101.3356  9 Note Off        67, 0
  30825  101.3981  9 Note On         44, 100
  30845  101.4638  9 Note Off        44, 0
  30864  101.5263  9 Note On         38, 90
  30864  101.5263  9 Note On         44, 100
  30883  101.5888  9 Note Off        44, 0
  30883  101.5888  9 Note Off        38, 0
  30905  101.6612  9 Note On         67, 100
  30905  101.6612  9 Note On         46, 80
  30924  101.7237  9 Note Off        46, 0
  30924  101.7237  9 Note Off        67, 0
  30944  101.7894  9 Note On         44, 8
  30952  101.8156  9 Note Off        44, 0
  30985  101.9244  9 Note On         36, 110
  30985  101.9244  9 Note On         44, 100
  31004  101.9869  9 Note Off        44, 0
  31004  101.9869  9 Note Off        36, 0
  31024  102.0525  9 Note On         44, 100
  31043  102.1150  9 Note Off        44, 0
  31065  102.1875  9 Note On         40, 110
  31065  102.1875  9 Note On         67, 100
  31065  102.1875  9 Note On         46, 80
  31084  102.2500  9 Note Off        46, 0
  31084  102.2500  9 Note Off        67, 0
  31084  102.2500  9 Note Off        40, 0
  31104  102.3156  9 Note On         44, 8
  31104  102.3156  9 Note On         35, 90
  31112  102.3419  9 Note Off        44, 0
  31123  102.3781  9 Note Off        35, 0
  31142  102.4406  9 Note On         46, 100
  31164  102.5131  9 Note Off        46, 0
  31183  102.5756  9 Note On         67, 100
  31203  102.6412  9 Note Off        67, 0
  31222  102.7037  9 Note On         36, 120
  31222  102.7037  9 Note On         44, 100
  31244  102.7763  9 Note Off        44, 0
  31244  102.7763  9 Note Off        36, 0
  31263  102.8388  9 Note On         36, 80
  31263  102.8388  9 Note On         44, 100
  31283  102.9044  9 Note Off        44, 0
  31283  102.9044  9 Note Off        36, 0
  31302  102.9669  9 Note On         44, 100
  31302  102.9669  9 Note On         67, 100
  31324  103.0394  9 Note Off        67, 0
  31324  103.0394  9 Note Off        44, 0
  31343  103.1019  9 Note On         36, 100
  31343  103.1019  9 Note On         44, 100
  31362  103.1644  9 Note Off        44, 0
  31362  103.1644  9 Note Off        36, 0
  31382  103.2300  9 Note On         40, 110
  31382  103.2300  9 Note On         46, 80
  31401  103.2925  9 Note Off        46, 0
  31401  103.2925  9 Note Off        40, 0
  31423  103.3650  9 Note On         44, 8
  31423  103.3650  9 Note On         67, 100
  31431  103.3912  9 Note Off        44, 0
  31442  103.4275  9 Note Off        67, 0
  31462  103.4931  9 Note On         44, 100
  31481  103.5556  9 Note Off        44, 0
  31503  103.6281  9 Note On         38, 100
  31503  103.6281  9 Note On         44, 100
  31522  103.6906  9 Note Off        44, 0
  31522  103.6906  9 Note Off        38, 0
  31541  103.7531  9 Note On         67, 100
  31541  103.7531  9 Note On         46, 80
  31561  103.8187  9 Note Off        46, 0
  31561  103.8187  9 Note Off        67, 0
  31582  103.8881  9 Note On         44, 8
  31589  103.9112  9 Note Off        44, 0
  31621  104.0162  9 Note On         36, 110
  31621  104.0162  9 Note On         44, 100
  31641  104.0819  9 Note Off        44, 0
  31641  104.0819  9 Note Off        36, 0
  31660  104.1444  9 Note On         44, 100
  31682  104.2169  9 Note Off        44, 0
  31701  104.2794  9 Note On         40, 110
  31701  104.2794  9 Note On         67, 100
  31701  104.2794  9 Note On         46, 80
  31720  104.3419  9 Note Off        46, 0
  31720  104.3419  9 Note Off        67, 0
  31720  104.3419  9 Note Off        40, 0
  31740  104.4075  9 Note On         44, 8
  31740  104.4075  9 Note On         35, 90
  31749  104.4375  9 Note Off        44, 0
  31761  104.4769  9 Note Off        35, 0
  31781  104.5425  9 Note On         46, 100
  31800  104.6050  9 Note Off        46, 0
  31820  104.6706  9 Note On         67, 100
  31841  104.7400  9 Note Off        67, 0
  31861  104.8056  9 Note On         36, 120
  31861  104.8056  9 Note On         44, 100
  31880  104.8681  9 Note Off        44, 0
  31880  104.8681  9 Note Off        36, 0
  31900  104.9338  9 Note On         36, 80
  31900  104.9338  9 Note On         44, 100
  31919  104.9963  9 Note Off        44, 0
  31919  104.9963  9 Note Off        36, 0
  31941  105.0687  9 Note On         44, 100
  31941  105.0687  9 Note On         67, 100
  31960  105.1312  9 Note Off        67, 0
  31960  105.1312  9 Note Off        44, 0
  31979  105.1937  9 Note On         36, 100
  31979  105.1937  9 Note On         44, 100
  31999  105.2600  9 Note Off        44, 0
  31999  105.2600  9 Note Off        36, 0
  32020  105.3287  9 Note On         40, 110
  32020  105.3287  9 Note On         46, 80
  32040  105.3944  9 Note Off        46, 0
  32040  105.3944  9 Note Off        40, 0
  32059  105.4569  9 Note On         44, 8
  32059  105.4569  9 Note On         67, 100
  32068  105.4869  9 Note Off        44, 0
  32079  105.5231  9 Note Off        67, 0
  32100  105.5919  9 Note On         44, 100
  32120  105.6575  9 Note Off        44, 0
  32139  105.7200  9 Note On         38, 90
  32139  105.7200  9 Note On         44, 100
  32158  105.7825  9 Note Off        44, 0
  32158  105.7825  9 Note Off        38, 0
  32178  105.8487  9 Note On         67, 100
  32178  105.8487  9 Note On         46, 80
  32199  105.9175  9 Note Off        46, 0
  32199  105.9175  9 Note Off        67, 0
  32219  105.9831  9 Note On         44, 8
  32227  106.0100  9 Note Off        44, 0
  32258  106.1119  9 Note On         36, 110
  32258  106.1119  9 Note On         44, 100
  32279  106.1806  9 Note Off        44, 0
  32279  106.1806  9 Note Off        36, 0
  32299  106.2463  9 Note On         44, 100
  32318  106.3088  9 Note Off        44, 0
  32337  106.3713  9 Note On         40, 110
  32337  106.3713  9 Note On         67, 100
  32337  106.3713  9 Note On         46, 80
  32359  106.4437  9 Note Off        46, 0
  32359  106.4437  9 Note Off        67, 0
  32359  106.4437  9 Note Off        40, 0
  32378  106.5062  9 Note On         44, 8
  32378  106.5062  9 Note On         35, 90
  32387  106.5362  9 Note Off        44, 0
  32398  106.5725  9 Note Off        35, 0
  32417  106.6350  9 Note On         46, 100
  32437  106.7006  9 Note Off        46, 0
  32458  106.7694  9 Note On         67, 100
  32478  106.8356  9 Note Off        67, 0
  32497  106.8981  9 Note On         36, 120
  32497  106.8981  9 Note On         44, 100
  32517  106.9638  9 Note Off        44, 0
  32517  106.9638  9 Note Off        36, 0
  32538  107.0325  9 Note On         36, 80
  32538  107.0325  9 Note On         44, 100
  32558  107.0987  9 Note Off        44, 0
  32558  107.0987  9 Note Off        36, 0
  32577  107.1612  9 Note On         44, 100
  32577  107.1612  9 Note On         67, 100
  32596  107.2237  9 Note Off        67, 0
  32596  107.2237  9 Note Off        44, 0
  32618  107.2956  9 Note On         36, 100
  32618  107.2956  9 Note On         44, 100
  32637  107.3581  9 Note Off        44, 0
  32637  107.3581  9 Note Off        36, 0
  32657  107.4244  9 Note On         40, 110
  32657  107.4244  9 Note On         46, 80
  32676  107.4869  9 Note Off        46, 0
  32676  107.4869  9 Note Off        40, 0
  32696  107.5525  9 Note On         44, 8
  32696  107.5525  9 Note On         67, 100
  32704  107.5787  9 Note Off        44, 0
  32717  107.6213  9 Note Off        67, 0
  32737  107.6875  9 Note On         44, 100
  32756  107.7500  9 Note Off        44, 0
  32775  107.8125  9 Note On         38, 100
  32775  107.8125  9 Note On         44, 100
  32797  107.8850  9 Note Off        44, 0
  32797  107.8850  9 Note Off        38, 0
  32816  107.9475  9 Note On         67, 100
  32816  107.9475  9 Note On         46, 80
  32836  108.0131  9 Note Off        46, 0
  32836  108.0131  9 Note Off        67, 0
  32855  108.0756  9 Note On         44, 8
  32864  108.1050  9 Note Off        44, 0
  32896  108.2106  9 Note On         36, 110
  32896  108.2106  9 Note On         44, 100
  32916  108.2763  9 Note Off        44, 0
  32916  108.2763  9 Note Off        36, 0
  32935  108.3388  9 Note On         44, 100
  32954  108.4013  9 Note Off        44, 0
  32976  108.4737  9 Note On         40, 110
  32976  108.4737  9 Note On         67, 100
  32976  108.4737  9 Note On         46, 80
  32995  108.5362  9 Note Off        46, 0
  32995  108.5362  9 Note Off        67, 0
  32995  108.5362  9 Note Off        40, 0
  33015  108.6019  9 Note On         44, 8
  33015  108.6019  9 Note On         35, 90
  33024  108.6312  9 Note Off        44, 0
  33034  108.6644  9 Note Off        35, 0
  33056  108.7369  9 Note On         46, 100
  33075  108.7994  9 Note Off        46, 0
  33095  108.8650  9 Note On         67, 100
  33114  108.9275  9 Note Off        67, 0
  34408  113.1838  9 Note On         44, 100
  34408  113.1838  9 Note On         35, 100
  34430  113.2562  9 Note Off        35, 0
  34430  113.2562  9 Note Off        44, 0
  34488  113.4475  9 Note On         44, 80
  34508  113.5131  9 Note Off        44, 0
  34568  113.7106  9 Note On         40, 110
  34568  113.7106  9 Note On         44, 100
  34588  113.7763  9 Note Off        44, 0
  34588  113.7763  9 Note Off        40, 0
  34648  113.9737  9 Note On         44, 80
  34667  114.0362  9 Note Off        44, 0
  34689  114.1081  9 Note On         38, 100
  34708  114.1706  9 Note Off        38, 0
  34728  114.2369  9 Note On         44, 100
  34747  114.2994  9 Note Off        44, 0
  34767  114.3650  9 Note On         35, 100
  34788  114.4338  9 Note Off        35, 0
  34808  114.5000  9 Note On         35, 80
  34808  114.5000  9 Note On         44, 80
  34827  114.5625  9 Note Off        44, 0
  34827  114.5625  9 Note Off        35, 0
  34887  114.7600  9 Note On         40, 110
  34887  114.7600  9 Note On         44, 100
  34907  114.8256  9 Note Off        44, 0
  34907  114.8256  9 Note Off        40, 0
  34926  114.8881  9 Note On         35, 100
  34948  114.9606  9 Note Off        35, 0
  34967  115.0231  9 Note On         44, 80
  34987  115.0888  9 Note Off        44, 0
  35047  115.2862  9 Note On         35, 100
  35047  115.2862  9 Note On         44, 100
  35066  115.3487  9 Note Off        44, 0
  35066  115.3487  9 Note Off        35, 0
  35127  115.5494  9 Note On         44, 80
  35146  115.6119  9 Note Off        44, 0
  35207  115.8125  9 Note On         40, 110
  35207  115.8125  9 Note On         44, 100
  35226  115.8750  9 Note Off        44, 0
  35226  115.8750  9 Note Off        40, 0
  35284  116.0656  9 Note On         44, 80
  35306  116.1381  9 Note Off        44, 0
  35325  116.2006  9 Note On         38, 100
  35345  116.2662  9 Note Off        38, 0
  35364  116.3287  9 Note On         44, 100
  35386  116.4013  9 Note Off        44, 0
  35405  116.4638  9 Note On         35, 100
  35425  116.5294  9 Note Off        35, 0
  35444  116.5919  9 Note On         35, 80
  35444  116.5919  9 Note On         44, 80
  35466  116.6644  9 Note Off        44, 0
  35466  116.6644  9 Note Off        35, 0
  35524  116.8550  9 Note On         40, 110
  35524  116.8550  9 Note On         44, 100
  35543  116.9175  9 Note Off        44, 0
  35543  116.9175  9 Note Off        40, 0
  35565  116.9900  9 Note On         35, 100
  35584  117.0525  9 Note Off        35, 0
  35604  117.1181  9 Note On         44, 80
  35623  117.1806  9 Note Off        44, 0
  35683  117.3781  9 Note On         36, 120
  35683  117.3781  9 Note On         57, 100
  35683  117.3781  9 Note On         44, 100
  35703  117.4437  9 Note Off        44, 0
  35703  117.4437  9 Note Off        57, 0
  35703  117.4437  9 Note Off        36, 0
  35724  117.5131  9 Note On         36, 80
  35724  117.5131  9 Note On         44, 100
  35744  117.5787  9 Note Off        44, 0
  35744  117.5787  9 Note Off        36, 0
  35763  117.6412  9 Note On         44, 100
  35763  117.6412  9 Note On         67, 100
  35783  117.7069  9 Note Off        67, 0
  35783  117.7069  9 Note Off        44, 0
  35802  117.7694  9 Note On         36, 100
  35802  117.7694  9 Note On         44, 100
  35824  117.8419  9 Note Off        44, 0
  35824  117.8419  9 Note Off        36, 0
  35843  117.9044  9 Note On         40, 110
  35843  117.9044  9 Note On         46, 80
  35863  117.9700  9 Note Off        46, 0
  35863  117.9700  9 Note Off        40, 0
  35882  118.0325  9 Note On         44, 8
  35882  118.0325  9 Note On         67, 100
  35891  118.0625  9 Note Off        44, 0
  35904  118.1050  9 Note Off        67, 0
  35923  118.1675  9 Note On         44, 100
  35942  118.2300  9 Note Off        44, 0
  35962  118.2956  9 Note On         38, 100
  35962  118.2956  9 Note On         44, 100
  35983  118.3650  9 Note Off        44, 0
  35983  118.3650  9 Note Off        38, 0
  36003  118.4306  9 Note On         67, 100
  36003  118.4306  9 Note On         46, 80
  36022  118.4931  9 Note Off        46, 0
  36022  118.4931  9 Note Off        67, 0
  36042  118.5588  9 Note On         44, 8
  36050  118.5856  9 Note Off        44, 0
  36083  118.6937  9 Note On         36, 110
  36083  118.6937  9 Note On         44, 100
  36102  118.7562  9 Note Off        44, 0
  36102  118.7562  9 Note Off        36, 0
  36121  118.8187  9 Note On         44, 100
  36141  118.8850  9 Note Off        44, 0
  36162  118.9537  9 Note On         40, 110
  36162  118.9537  9 Note On         67, 100
  36162  118.9537  9 Note On         46, 80
  36182  119.0194  9 Note Off        46, 0
  36182  119.0194  9 Note Off        67, 0
  36182  119.0194  9 Note Off        40, 0
  36201  119.0819  9 Note On         44, 8
  36201  119.0819  9 Note On         35, 90
  36210  119.1119  9 Note Off        44, 0
  36221  119.1481  9 Note Off        35, 0
  36242  119.2169  9 Note On         46, 100
  36262  119.2825  9 Note Off        46, 0
  36281  119.3450  9 Note On         67, 100
  36300  119.4075  9 Note Off        67, 0
  36320  119.4737  9 Note On         36, 120
  36320  119.4737  9 Note On         44, 100
  36341  119.5425  9 Note Off        44, 0
  36341  119.5425  9 Note Off        36, 0
  36361  119.6081  9 Note On         36, 80
  36361  119.6081  9 Note On         44, 100
  36380  119.6706  9 Note Off        44, 0
  36380  119.6706  9 Note Off        36, 0
  36400  119.7369  9 Note On         44, 100
  36400  119.7369  9 Note On         67, 100
  36421  119.8056  9 Note Off        67, 0
  36421  119.8056  9 Note Off        44, 0
  36441  119.8713  9 Note On         36, 100
  36441  119.8713  9 Note On         44, 100
  36460  119.9338  9 Note Off        44, 0
  36460  119.9338  9 Note Off        36, 0
  36480  120.0000  9 Note On         40, 110
  36480  120.0000  9 Note On         46, 80
  36501  120.0687  9 Note Off        46, 0
  36501  120.0687  9 Note Off        40, 0
  36520  120.1312  9 Note On         44, 8
  36520  120.1312  9 Note On         67, 100
  36529  120.1612  9 Note Off        44, 0
  36540  120.1975  9 Note Off        67, 0
  36559  120.2600  9 Note On         44, 100
  36579  120.3256  9 Note Off        44, 0
  36600  120.3944  9 Note On         38, 90
  36600  120.3944  9 Note On         44, 100
  36620  120.4606  9 Note Off        44, 0
  36620  120.4606  9 Note Off        38, 0
  36639  120.5231  9 Note On         67, 100
  36639  120.5231  9 Note On         46, 80
  36659  120.5888  9 Note Off        46, 0
  36659  120.5888  9 Note Off        67, 0
  36680  120.6575  9 Note On         44, 8
  36687  120.6806  9 Note Off        44, 0
  36719  120.7862  9 Note On         36, 110
  36719  120.7862  9 Note On         44, 100
  36738  120.8487  9 Note Off        44, 0
  36738  120.8487  9 Note Off        36, 0
  36760  120.9206  9 Note On         44, 100
  36779  120.9831  9 Note Off        44, 0
  36799  121.0494  9 Note On         40, 110
  36799  121.0494  9 Note On         67, 100
  36799  121.0494  9 Note On         46, 80
  36818  121.1119  9 Note Off        46, 0
  36818  121.1119  9 Note Off        67, 0
  36818  121.1119  9 Note Off        40, 0
  36838  121.1775  9 Note On         44, 8
  36838  121.1775  9 Note On         35, 90
  36846  121.2037  9 Note Off        44, 0
  36859  121.2463  9 Note Off        35, 0
  36879  121.3125  9 Note On         46, 100
  36898  121.3750  9 Note Off        46, 0
  36917  121.4375  9 Note On         67, 100
  36939  121.5094  9 Note Off        67, 0
  36958  121.5719  9 Note On         36, 120
  36958  121.5719  9 Note On         44, 100
  36978  121.6381  9 Note Off        44, 0
  36978  121.6381  9 Note Off        36, 0
  36997  121.7006  9 Note On         36, 80
  36997  121.7006  9 Note On         44, 100
  37019  121.7731  9 Note Off        44, 0
  37019  121.7731  9 Note Off        36, 0
  37038  121.8356  9 Note On         44, 100
  37038  121.8356  9 Note On         67, 100
  37058  121.9013  9 Note Off        67, 0
  37058  121.9013  9 Note Off        44, 0
  37077  121.9638  9 Note On         36, 100
  37077  121.9638  9 Note On         44, 100
  37096  122.0263  9 Note Off        44, 0
  37096  122.0263  9 Note Off        36, 0
  37118  122.0987  9 Note On         40, 110
  37118  122.0987  9 Note On         46, 80
  37137  122.1612  9 Note Off        46, 0
  37137  122.1612  9 Note Off        40, 0
  37157  122.2269  9 Note On         44, 8
  37157  122.2269  9 Note On         67, 100
  37166  122.2562  9 Note Off        44, 0
  37176  122.2894  9 Note Off        67, 0
  37198  122.3619  9 Note On         44, 100
  37217  122.4244  9 Note Off        44, 0
  37237  122.4900  9 Note On         38, 100
  37237  122.4900  9 Note On         44, 100
  37256  122.5525  9 Note Off        44, 0
  37256  122.5525  9 Note Off        38, 0
  37278  122.6250  9 Note On         67, 100
  37278  122.6250  9 Note On         46, 80
  37297  122.6875  9 Note Off        46, 0
  37297  122.6875  9 Note Off        67, 0
  37317  122.7531  9 Note On         44, 8
  37325  122.7794  9 Note Off        44, 0
  37355  122.8781  9 Note On         36, 110
  37355  122.8781  9 Note On         44, 100
  37377  122.9506  9 Note Off        44, 0
  37377  122.9506  9 Note Off        36, 0
  37396  123.0131  9 Note On         44, 100
  37416  123.0787  9 Note Off        44, 0
  37435  123.1412  9 Note On         40, 110
  37435  123.1412  9 Note On         67, 100
  37435  123.1412  9 Note On         46, 80
  37457  123.2138  9 Note Off        46, 0
  37457  123.2138  9 Note Off        67, 0
  37457  123.2138  9 Note Off        40, 0
  37476  123.2763  9 Note On         44, 8
  37476  123.2763  9 Note On         35, 90
  37485  123.3056  9 Note Off        44, 0
  37496  123.3419  9 Note Off        35, 0
  37515  123.4044  9 Note On         46, 100
  37537  123.4769  9 Note Off        46, 0
  37556  123.5394  9 Note On         67, 100
  37575  123.6019  9 Note Off        67, 0
  37595  123.6675  9 Note On         36, 120
  37595  123.6675  9 Note On         44, 100
  37614  123.7300  9 Note Off        44, 0
  37614  123.7300  9 Note Off        36, 0
  37636  123.8025  9 Note On         36, 80
  37636  123.8025  9 Note On         44, 100
  37655  123.8650  9 Note Off        44, 0
  37655  123.8650  9 Note Off        36, 0
  37675  123.9306  9 Note On         44, 100
  37675  123.9306  9 Note On         67, 100
  37694  123.9931  9 Note Off        67, 0
  37694  123.9931  9 Note Off        44, 0
  37716  124.0656  9 Note On         36, 100
  37716  124.0656  9 Note On         44, 100
  37735  124.1281  9 Note Off        44, 0
  37735  124.1281  9 Note Off        36, 0
  37754  124.1906  9 Note On         40, 110
  37754  124.1906  9 Note On         46, 80
  37774  124.2562  9 Note Off        46, 0
  37774  124.2562  9 Note Off        40, 0
  37795  124.3256  9 Note On         44, 8
  37795  124.3256  9 Note On         67, 100
  37802  124.3487  9 Note Off        44, 0
  37815  124.3912  9 Note Off        67, 0
  37834  124.4537  9 Note On         44, 100
  37854  124.5194  9 Note Off        44, 0
  37873  124.5819  9 Note On         38, 90
  37873  124.5819  9 Note On         44, 100
  37895  124.6544  9 Note Off        44, 0
  37895  124.6544  9 Note Off        38, 0
  37914  124.7169  9 Note On         67, 100
  37914  124.7169  9 Note On         46, 80
  37934  124.7825  9 Note Off        46, 0
  37934  124.7825  9 Note Off        67, 0
  37953  124.8450  9 Note On         44, 8
  37962  124.8750  9 Note Off        44, 0
  37994  124.9800  9 Note On         36, 110
  37994  124.9800  9 Note On         44, 100
  38013  125.0425  9 Note Off        44, 0
  38013  125.0425  9 Note Off        36, 0
  38033  125.1081  9 Note On         44, 100
  38054  125.1775  9 Note Off        44, 0
  38074  125.2431  9 Note On         40, 110
  38074  125.2431  9 Note On         67, 100
  38074  125.2431  9 Note On         46, 80
  38093  125.3056  9 Note Off        46, 0
  38093  125.3056  9 Note Off        67, 0
  38093  125.3056  9 Note Off        40, 0
  38113  125.3713  9 Note On         44, 8
  38113  125.3713  9 Note On         35, 90
  38121  125.3981  9 Note Off        44, 0
  38132  125.4338  9 Note Off        35, 0
  38154  125.5062  9 Note On         46, 100
  38173  125.5687  9 Note Off        46, 0
  38192  125.6312  9 Note On         67, 100
  38212  125.6969  9 Note Off        67, 0
  38233  125.7662  9 Note On         36, 120
  38233  125.7662  9 Note On         44, 100
  38253  125.8319  9 Note Off        44, 0
  38253  125.8319  9 Note Off        36, 0
  38272  125.8944  9 Note On         36, 80
  38272  125.8944  9 Note On         44, 100
  38292  125.9606  9 Note Off        44, 0
  38292  125.9606  9 Note Off        36, 0
  38313  126.0294  9 Note On         44, 100
  38313  126.0294  9 Note On         67, 100
  38333  126.0950  9 Note Off        67, 0
  38333  126.0950  9 Note Off        44, 0
  38352  126.1575  9 Note On         36, 100
  38352  126.1575  9 Note On         44, 100
  38371  126.2200  9 Note Off        44, 0
  38371  126.2200  9 Note Off        36, 0
  38391  126.2862  9 Note On         40, 110
  38391  126.2862  9 Note On         46, 80
  38412  126.3550  9 Note Off        46, 0
  38412  126.3550  9 Note Off        40, 0
  38432  126.4206  9 Note On         44, 8
  38432  126.4206  9 Note On         67, 100
  38440  126.4469  9 Note Off        44, 0
  38451  126.4831  9 Note Off        67, 0
  38471  126.5494  9 Note On         44, 100
  38492  126.6181  9 Note Off        44, 0
  38512  126.6838  9 Note On         38, 100
  38512  126.6838  9 Note On         44, 100
  38531  126.7463  9 Note Off        44, 0
  38531  126.7463  9 Note Off        38, 0
  38551  126.8125  9 Note On         67, 100
  38551  126.8125  9 Note On         46, 80
  38572  126.8812  9 Note Off        46, 0
  38572  126.8812  9 Note Off        67, 0
  38592  126.9469  9 Note On         44, 8
  38600  126.9737  9 Note Off        44, 0
  38630  127.0719  9 Note On         36, 110
  38630  127.0719  9 Note On         44, 100
  38650  127.1381  9 Note Off        44, 0
  38650  127.1381  9 Note Off        36, 0
  38671  127.2069  9 Note On         44, 100
  38691  127.2731  9 Note Off        44, 0
  38710  127.3356  9 Note On         40, 110
  38710  127.3356  9 Note On         67, 100
  38710  127.3356  9 Note On         46, 80
  38730  127.4013  9 Note Off        46, 0
  38730  127.4013  9 Note Off        67, 0
  38730  127.4013  9 Note Off        40, 0
  38751  127.4700  9 Note On         44, 8
  38751  127.4700  9 Note On         35, 90
  38758  127.4931  9 Note Off        44, 0
  38771  127.5362  9 Note Off        35, 0
  38790  127.5987  9 Note On         46, 100
  38809  127.6612  9 Note Off        46, 0
  38831  127.7331  9 Note On         67, 100
  38850  127.7956  9 Note Off        67, 0
  38870  127.8619  9 Note On         36, 120
  38870  127.8619  9 Note On         44, 100
  38889  127.9244  9 Note Off        44, 0
  38889  127.9244  9 Note Off        36, 0
  38909  127.9900  9 Note On         36, 80
  38909  127.9900  9 Note On         44, 100
  38930  128.0588  9 Note Off        44, 0
  38930  128.0588  9 Note Off        36, 0
  38950  128.1250  9 Note On         44, 100
  38950  128.1250  9 Note On         67, 100
  38969  128.1875  9 Note Off        67, 0
  38969  128.1875  9 Note Off        44, 0
  38988  128.2500  9 Note On         36, 100
  38988  128.2500  9 Note On         44, 100
  39010  128.3219  9 Note Off        44, 0
  39010  128.3219  9 Note Off        36, 0
  39029  128.3844  9 Note On         40, 110
  39029  128.3844  9 Note On         46, 80
  39049  128.4506  9 Note Off        46, 0
  39049  128.4506  9 Note Off        40, 0
  39068  128.5131  9 Note On         44, 8
  39068  128.5131  9 Note On         67, 100
  39077  128.5425  9 Note Off        44, 0
  39090  128.5856  9 Note Off        67, 0
  39109  128.6481  9 Note On         44, 100
  39129  128.7138  9 Note Off        44, 0
  39148  128.7763  9 Note On         38, 90
  39148  128.7763  9 Note On         44, 100
  39168  128.8419  9 Note Off        44, 0
  39168  128.8419  9 Note Off        38, 0
  39189  128.9112  9 Note On         67, 100
  39189  128.9112  9 Note On         46, 80
  39208  128.9737  9 Note Off        46, 0
  39208  128.9737  9 Note Off        67, 0
  39228  129.0394  9 Note On         44, 8
  39237  129.0687  9 Note Off        44, 0
  39269  129.1744  9 Note On         36, 110
  39269  129.1744  9 Note On         44, 100
  39288  129.2369  9 Note Off        44, 0
  39288  129.2369  9 Note Off        36, 0
  39308  129.3025  9 Note On         44, 100
  39327  129.3650  9 Note Off        44, 0
  39349  129.4375  9 Note On         40, 110
  39349  129.4375  9 Note On         67, 100
  39349  129.4375  9 Note On         46, 80
  39368  129.5000  9 Note Off        46, 0
  39368  129.5000  9 Note Off        67, 0
  39368  129.5000  9 Note Off        40, 0
  39388  129.5656  9 Note On         44, 8
  39388  129.5656  9 Note On         35, 90
  39396  129.5919  9 Note Off        44, 0
  39407  129.6281  9 Note Off        35, 0
  39426  129.6906  9 Note On         46, 100
  39448  129.7631  9 Note Off        46, 0
  39467  129.8256  9 Note On         67, 100
  39487  129.8913  9 Note Off        67, 0
  39506  129.9538  9 Note On         36, 120
  39506  129.9538  9 Note On         44, 100
  39528  130.0263  9 Note Off        44, 0
  39528  130.0263  9 Note Off        36, 0
  39547  130.0888  9 Note On         36, 80
  39547  130.0888  9 Note On         44, 100
  39567  130.1544  9 Note Off        44, 0
  39567  130.1544  9 Note Off        36, 0
  39586  130.2169  9 Note On         44, 100
  39586  130.2169  9 Note On         67, 100
  39608  130.2894  9 Note Off        67, 0
  39608  130.2894  9 Note Off        44, 0
  39627  130.3519  9 Note On         36, 100
  39627  130.3519  9 Note On         44, 100
  39646  130.4144  9 Note Off        44, 0
  39646  130.4144  9 Note Off        36, 0
  39666  130.4800  9 Note On         40, 110
  39666  130.4800  9 Note On         46, 80
  39685  130.5425  9 Note Off        46, 0
  39685  130.5425  9 Note Off        40, 0
  39707  130.6150  9 Note On         44, 8
  39707  130.6150  9 Note On         67, 100
  39715  130.6413  9 Note Off        44, 0
  39726  130.6775  9 Note Off        67, 0
  39746  130.7431  9 Note On         44, 100
  39765  130.8056  9 Note Off        44, 0
  39787  130.8781  9 Note On         38, 100
  39787  130.8781  9 Note On         44, 100
  39806  130.9406  9 Note Off        44, 0
  39806  130.9406  9 Note Off        38, 0
  39825  131.0031  9 Note On         67, 100
  39825  131.0031  9 Note On         46, 80
  39845  131.0687  9 Note Off        46, 0
  39845  131.0687  9 Note Off        67, 0
  39866  131.1381  9 Note On         44, 8
  39873  131.1612  9 Note Off        44, 0
  39905  131.2663  9 Note On         36, 110
  39905  131.2663  9 Note On         44, 100
  39925  131.3319  9 Note Off        44, 0
  39925  131.3319  9 Note Off        36, 0
  39944  131.3944  9 Note On         44, 100
  39966  131.4669  9 Note Off        44, 0
  39985  131.5294  9 Note On         40, 110
  39985  131.5294  9 Note On         67, 100
  39985  131.5294  9 Note On         46, 80
  40005  131.5950  9 Note Off        46, 0
  40005  131.5950  9 Note Off        67, 0
  40005  131.5950  9 Note Off        40, 0
  40024  131.6575  9 Note On         44, 8
  40024  131.6575  9 Note On         35, 90
  40033  131.6875  9 Note Off        44, 0
  40046  131.7300  9 Note Off        35, 0
  40065  131.7925  9 Note On         46, 100
  40084  131.8550  9 Note Off        46, 0
  40104  131.9206  9 Note On         67, 100
  40125  131.9900  9 Note Off        67, 0
  40145  132.0556  9 Note On         36, 120
  40145  132.0556  9 Note On         44, 100
  40164  132.1181  9 Note Off        44, 0
  40164  132.1181  9 Note Off        36, 0
  40184  132.1838  9 Note On         36, 80
  40184  132.1838  9 Note On         44, 100
  40203  132.2463  9 Note Off        44, 0
  40203  132.2463  9 Note Off        36, 0
  40225  132.3187  9 Note On         44, 100
  40225  132.3187  9 Note On         67, 100
  40244  132.3812  9 Note Off        67, 0
  40244  132.3812  9 Note Off        44, 0
  40263  132.4437  9 Note On         36, 100
  40263  132.4437  9 Note On         44, 100
  40283  132.5094  9 Note Off        44, 0
  40283  132.5094  9 Note Off        36, 0
  40304  132.5788  9 Note On         40, 110
  40304  132.5788  9 Note On         46, 80
  40324  132.6444  9 Note Off        46, 0
  40324  132.6444  9 Note Off        40, 0
  40343  132.7069  9 Note On         44, 8
  40343  132.7069  9 Note On         67, 100
  40352  132.7369  9 Note Off        44, 0
  40363  132.7731  9 Note Off        67, 0
  40384  132.8419  9 Note On         44, 100
  40404  132.9075  9 Note Off        44, 0
  40423  132.9700  9 Note On         44, 100
  40442  133.0325  9 Note Off        44, 0
  40462  133.0987  9 Note On         46, 80
  40462  133.0987  9 Note On         67, 100
  40483  133.1675  9 Note Off        67, 0
  40483  133.1675  9 Note Off        46, 0
  40503  133.2331  9 Note On         44, 8
  40512  133.2631  9 Note Off        44, 0
  40542  133.3619  9 Note On         36, 110
  40542  133.3619  9 Note On         44, 100
  40563  133.4306  9 Note Off        44, 0
  40563  133.4306  9 Note Off        36, 0
  40583  133.4963  9 Note On         44, 100
  40602  133.5588  9 Note Off        44, 0
  40622  133.6250  9 Note On         67, 100
  40622  133.6250  9 Note On         40, 110
  40622  133.6250  9 Note On         46, 80
  40643  133.6937  9 Note Off        46, 0
  40643  133.6937  9 Note Off        40, 0
  40643  133.6937  9 Note Off        67, 0
  40663  133.7594  9 Note On         35, 90
  40663  133.7594  9 Note On         44, 8
  40671  133.7862  9 Note Off        44, 0
  40682  133.8219  9 Note Off        35, 0
  40701  133.8844  9 Note On         46, 100
  40721  133.9506  9 Note Off        46, 0
  40742  134.0194  9 Note On         67, 100
  40762  134.0856  9 Note Off        67, 0
  40781  134.1481  9 Note On         36, 120
  40781  134.1481  9 Note On         57, 100
  40781  134.1481  9 Note On         44, 100
  40801  134.2138  9 Note Off        44, 0
  40801  134.2138  9 Note Off        57, 0
  40801  134.2138  9 Note Off        36, 0
  40822  134.2825  9 Note On         36, 80
  40822  134.2825  9 Note On         44, 100
  40842  134.3487  9 Note Off        44, 0
  40842  134.3487  9 Note Off        36, 0
  40861  134.4112  9 Note On         44, 100
  40861  134.4112  9 Note On         67, 100
  40880  134.4737  9 Note Off        67, 0
  40880  134.4737  9 Note Off        44, 0
  40902  134.5456  9 Note On         36, 100
  40902  134.5456  9 Note On         44, 100
  40921  134.6081  9 Note Off        44, 0
  40921  134.6081  9 Note Off        36, 0
  40941  134.6744  9 Note On         40, 110
  40941  134.6744  9 Note On         46, 80
  40960  134.7369  9 Note Off        46, 0
  40960  134.7369  9 Note Off        40, 0
  40980  134.8025  9 Note On         44, 8
  40980  134.8025  9 Note On         67, 100
  40988  134.8288  9 Note Off        44, 0
  41001  134.8713  9 Note Off        67, 0
  41021  134.9375  9 Note On         44, 100
  41040  135.0000  9 Note Off        44, 0
  41059  135.0625  9 Note On         38, 100
  41059  135.0625  9 Note On         44, 100
  41081  135.1344  9 Note Off        44, 0
  41081  135.1344  9 Note Off        38, 0
  41100  135.1969  9 Note On         67, 100
  41100  135.1969  9 Note On         46, 80
  41120  135.2631  9 Note Off        46, 0
  41120  135.2631  9 Note Off        67, 0
  41139  135.3256  9 Note On         44, 8
  41148  135.3550  9 Note Off        44, 0
  41180  135.4606  9 Note On         36, 110
  41180  135.4606  9 Note On         44, 100
  41200  135.5263  9 Note Off        44, 0
  41200  135.5263  9 Note Off        36, 0
  41219  135.5888  9 Note On         44, 100
  41239  135.6544  9 Note Off        44, 0
  41260  135.7237  9 Note On         40, 110
  41260  135.7237  9 Note On         67, 100
  41260  135.7237  9 Note On         46, 80
  41280  135.7894  9 Note Off        46, 0
  41280  135.7894  9 Note Off        67, 0
  41280  135.7894  9 Note Off        40, 0
  41299  135.8519  9 Note On         44, 8
  41299  135.8519  9 Note On         35, 90
  41308  135.8812  9 Note Off        44, 0
  41318  135.9144  9 Note Off        35, 0
  41340  135.9869  9 Note On         46, 100
  41359  136.0494  9 Note Off        46, 0
  41379  136.1150  9 Note On         67, 100
  41398  136.1775  9 Note Off        67, 0
  41420  136.2500  9 Note On         36, 120
  41420  136.2500  9 Note On         44, 100
  41439  136.3125  9 Note Off        44, 0
  41439  136.3125  9 Note Off        36, 0
  41459  136.3781  9 Note On         36, 80
  41459  136.3781  9 Note On         44, 100
  41478  136.4406  9 Note Off        44, 0
  41478  136.4406  9 Note Off        36, 0
  41497  136.5031  9 Note On         44, 100
  41497  136.5031  9 Note On         67, 100
  41519  136.5756  9 Note Off        67, 0
  41519  136.5756  9 Note Off        44, 0
  41538  136.6381  9 Note On         36, 100
  41538  136.6381  9 Note On         44, 100
  41558  136.7038  9 Note Off        44, 0
  41558  136.7038  9 Note Off        36, 0
  41577  136.7663  9 Note On         40, 110
  41577  136.7663  9 Note On         46, 80
  41599  136.8388  9 Note Off        46, 0
  41599  136.8388  9 Note Off        40, 0
  41618  136.9013  9 Note On         44, 8
  41618  136.9013  9 Note On         67, 100
  41627  136.9306  9 Note Off        44, 0
  41638  136.9669  9 Note Off        67, 0
  41657  137.0294  9 Note On         44, 100
  41679  137.1019  9 Note Off        44, 0
  41698  137.1644  9 Note On         38, 90
  41698  137.1644  9 Note On         44, 100
  41717  137.2269  9 Note Off        44, 0
  41717  137.2269  9 Note Off        38, 0
  41737  137.2925  9 Note On         67, 100
  41737  137.2925  9 Note On         46, 80
  41756  137.3550  9 Note Off        46, 0
  41756  137.3550  9 Note Off        67, 0
  41778  137.4275  9 Note On         44, 8
  41786  137.4538  9 Note Off        44, 0
  41817  137.5556  9 Note On         36, 110
  41817  137.5556  9 Note On         44, 100
  41836  137.6181  9 Note Off        44, 0
  41836  137.6181  9 Note Off        36, 0
  41858  137.6906  9 Note On         44, 100
  41877  137.7531  9 Note Off        44, 0
  41896  137.8156  9 Note On         40, 110
  41896  137.8156  9 Note On         67, 100
  41896  137.8156  9 Note On         46, 80
  41916  137.8812  9 Note Off        46, 0
  41916  137.8812  9 Note Off        67, 0
  41916  137.8812  9 Note Off        40, 0
  41937  137.9506  9 Note On         44, 8
  41937  137.9506  9 Note On         35, 90
  41944  137.9737  9 Note Off        44, 0
  41957  138.0163  9 Note Off        35, 0
  41976  138.0788  9 Note On         46, 100
  41996  138.1444  9 Note Off        46, 0
  42015  138.2069  9 Note On         67, 100
  42037  138.2794  9 Note Off        67, 0
  42056  138.3419  9 Note On         36, 120
  42056  138.3419  9 Note On         44, 100
  42076  138.4075  9 Note Off        44, 0
  42076  138.4075  9 Note Off        36, 0
  42095  138.4700  9 Note On         36, 80
  42095  138.4700  9 Note On         44, 100
  42117  138.5425  9 Note Off        44, 0
  42117  138.5425  9 Note Off        36, 0
  42136  138.6050  9 Note On         44, 100
  42136  138.6050  9 Note On         67, 100
  42155  138.6675  9 Note Off        67, 0
  42155  138.6675  9 Note Off        44, 0
  42175  138.7331  9 Note On         36, 100
  42175  138.7331  9 Note On         44, 100
  42196  138.8025  9 Note Off        44, 0
  42196  138.8025  9 Note Off        36, 0
  42216  138.8681  9 Note On         40, 110
  42216  138.8681  9 Note On         46, 80
  42235  138.9306  9 Note Off        46, 0
  42235  138.9306  9 Note Off        40, 0
  42255  138.9963  9 Note On         44, 8
  42255  138.9963  9 Note On         67, 100
  42263  139.0231  9 Note Off        44, 0
  42274  139.0588  9 Note Off        67, 0
  42296  139.1312  9 Note On         44, 100
  42315  139.1937  9 Note Off        44, 0
  42334  139.2562  9 Note On         38, 100
  42334  139.2562  9 Note On         44, 100
  42354  139.3219  9 Note Off        44, 0
  42354  139.3219  9 Note Off        38, 0
  42375  139.3913  9 Note On         67, 100
  42375  139.3913  9 Note On         46, 80
  42395  139.4569  9 Note Off        46, 0
  42395  139.4569  9 Note Off        67, 0
  42414  139.5194  9 Note On         44, 8
  42423  139.5494  9 Note Off        44, 0
  42455  139.6544  9 Note On         36, 110
  42455  139.6544  9 Note On         44, 100
  42475  139.7200  9 Note Off        44, 0
  42475  139.7200  9 Note Off        36, 0
  42494  139.7825  9 Note On         44, 100
  42513  139.8450  9 Note Off        44, 0
  42533  139.9112  9 Note On         40, 110
  42533  139.9112  9 Note On         67, 100
  42533  139.9112  9 Note On         46, 80
  42554  139.9800  9 Note Off        46, 0
  42554  139.9800  9 Note Off        67, 0
  42554  139.9800  9 Note Off        40, 0
  42574  140.0456  9 Note On         44, 8
  42574  140.0456  9 Note On         35, 90
  42583  140.0756  9 Note Off        44, 0
  42593  140.1081  9 Note Off        35, 0
  42613  140.1744  9 Note On         46, 100
  42634  140.2431  9 Note Off        46, 0
  42654  140.3088  9 Note On         67, 100
  42673  140.3713  9 Note Off        67, 0
  42693  140.4375  9 Note On         36, 120
  42693  140.4375  9 Note On         44, 100
  42714  140.5062  9 Note Off        44, 0
  42714  140.5062  9 Note Off        36, 0
  42734  140.5719  9 Note On         36, 80
  42734  140.5719  9 Note On         44, 100
  42753  140.6344  9 Note Off        44, 0
  42753  140.6344  9 Note Off        36, 0
  42772  140.6969  9 Note On         44, 100
  42772  140.6969  9 Note On         67, 100
  42792  140.7631  9 Note Off        67, 0
  42792  140.7631  9 Note Off        44, 0
  42813  140.8319  9 Note On         36, 100
  42813  140.8319  9 Note On         44, 100
  42833  140.8981  9 Note Off        44, 0
  42833  140.8981  9 Note Off        36, 0
  42852  140.9606  9 Note On         40, 110
  42852  140.9606  9 Note On         46, 80
  42872  141.0263  9 Note Off        46, 0
  42872  141.0263  9 Note Off        40, 0
  42893  141.0950  9 Note On         44, 8
  42893  141.0950  9 Note On         67, 100
  42900  141.1181  9 Note Off        44, 0
  42913  141.1612  9 Note Off        67, 0
  42932  141.2237  9 Note On         44, 100
  42951  141.2862  9 Note Off        44, 0
  42973  141.3581  9 Note On         38, 90
  42973  141.3581  9 Note On         44, 100
  42992  141.4206  9 Note Off        44, 0
  42992  141.4206  9 Note Off        38, 0
  43012  141.4869  9 Note On         67, 100
  43012  141.4869  9 Note On         46, 80
  43031  141.5494  9 Note Off        46, 0
  43031  141.5494  9 Note Off        67, 0
  43051  141.6150  9 Note On         44, 8
  43059  141.6413  9 Note Off        44, 0
  43092  141.7500  9 Note On         36, 110
  43092  141.7500  9 Note On         44, 100
  43111  141.8125  9 Note Off        44, 0
  43111  141.8125  9 Note Off        36, 0
  43130  141.8750  9 Note On         44, 100
  43152  141.9469  9 Note Off        44, 0
  43171  142.0094  9 Note On         40, 110
  43171  142.0094  9 Note On         67, 100
  43171  142.0094  9 Note On         46, 80
  43191  142.0756  9 Note Off        46, 0
  43191  142.0756  9 Note Off        67, 0
  43191  142.0756  9 Note Off        40, 0
  43210  142.1381  9 Note On         44, 8
  43210  142.1381  9 Note On         35, 90
  43219  142.1675  9 Note Off        44, 0
  43232  142.2106  9 Note Off        35, 0
  43251  142.2731  9 Note On         46, 100
  43271  142.3388  9 Note Off        46, 0
  43290  142.4013  9 Note On         67, 100
  43310  142.4669  9 Note Off        67, 0
  43331  142.5362  9 Note On         36, 120
  43331  142.5362  9 Note On         44, 100
  43351  142.6019  9 Note Off        44, 0
  43351  142.6019  9 Note Off        36, 0
  43370  142.6644  9 Note On         36, 80
  43370  142.6644  9 Note On         44, 100
  43389  142.7269  9 Note Off        44, 0
  43389  142.7269  9 Note Off        36, 0
  43411  142.7994  9 Note On         44, 100
  43411  142.7994  9 Note On         67, 100
  43430  142.8619  9 Note Off        67, 0
  43430  142.8619  9 Note Off        44, 0
  43450  142.9275  9 Note On         36, 100
  43450  142.9275  9 Note On         44, 100
  43469  142.9900  9 Note Off        44, 0
  43469  142.9900  9 Note Off        36, 0
  43491  143.0625  9 Note On         40, 110
  43491  143.0625  9 Note On         46, 80
  43510  143.1250  9 Note Off        46, 0
  43510  143.1250  9 Note Off        40, 0
  43530  143.1906  9 Note On         44, 8
  43530  143.1906  9 Note On         67, 100
  43538  143.2169  9 Note Off        44, 0
  43549  143.2531  9 Note Off        67, 0
  43568  143.3156  9 Note On         44, 100
  43590  143.3881  9 Note Off        44, 0
  43609  143.4506  9 Note On         38, 100
  43609  143.4506  9 Note On         44, 100
  43629  143.5163  9 Note Off        44, 0
  43629  143.5163  9 Note Off        38, 0
  43648  143.5788  9 Note On         67, 100
  43648  143.5788  9 Note On         46, 80
  43670  143.6513  9 Note Off        46, 0
  43670  143.6513  9 Note Off        67, 0
  43689  143.7138  9 Note On         44, 8
  43698  143.7431  9 Note Off        44, 0
  43728  143.8419  9 Note On         36, 110
  43728  143.8419  9 Note On         44, 100
  43750  143.9144  9 Note Off        44, 0
  43750  143.9144  9 Note Off        36, 0
  43769  143.9769  9 Note On         44, 100
  43788  144.0394  9 Note Off        44, 0
  43808  144.1050  9 Note On         40, 110
  43808  144.1050  9 Note On         67, 100
  43808  144.1050  9 Note On         46, 80
  43827  144.1675  9 Note Off        46, 0
  43827  144.1675  9 Note Off        67, 0
  43827  144.1675  9 Note Off        40, 0
  43849  144.2400  9 Note On         44, 8
  43849  144.2400  9 Note On         35, 90
  43857  144.2663  9 Note Off        44, 0
  43868  144.3025  9 Note Off        35, 0
  43888  144.3681  9 Note On         46, 100
  43907  144.4306  9 Note Off        46, 0
  43929  144.5031  9 Note On         67, 100
  43948  144.5656  9 Note Off        67, 0
  43968  144.6312  9 Note On         36, 120
  43968  144.6312  9 Note On         44, 100
  43987  144.6937  9 Note Off        44, 0
  43987  144.6937  9 Note Off        36, 0
  44008  144.7631  9 Note On         36, 80
  44008  144.7631  9 Note On         44, 100
  44028  144.8288  9 Note Off        44, 0
  44028  144.8288  9 Note Off        36, 0
  44047  144.8913  9 Note On         44, 100
  44047  144.8913  9 Note On         67, 100
  44067  144.9569  9 Note Off        67, 0
  44067  144.9569  9 Note Off        44, 0
  44086  145.0194  9 Note On         36, 100
  44086  145.0194  9 Note On         44, 100
  44108  145.0919  9 Note Off        44, 0
  44108  145.0919  9 Note Off        36, 0
  44127  145.1544  9 Note On         40, 110
  44127  145.1544  9 Note On         46, 80
  44147  145.2200  9 Note Off        46, 0
  44147  145.2200  9 Note Off        40, 0
  44166  145.2825  9 Note On         44, 8
  44166  145.2825  9 Note On         67, 100
  44175  145.3125  9 Note Off        44, 0
  44188  145.3550  9 Note Off        67, 0
  44207  145.4175  9 Note On         44, 100
  44226  145.4800  9 Note Off        44, 0
  44246  145.5456  9 Note On         38, 90
  44246  145.5456  9 Note On         44, 100
  44267  145.6150  9 Note Off        44, 0
  44267  145.6150  9 Note Off        38, 0
  44287  145.6806  9 Note On         67, 100
  44287  145.6806  9 Note On         46, 80
  44306  145.7431  9 Note Off        46, 0
  44306  145.7431  9 Note Off        67, 0
  44326  145.8088  9 Note On         44, 8
  44334  145.8350  9 Note Off        44, 0
  44367  145.9437  9 Note On         36, 110
  44367  145.9437  9 Note On         44, 100
  44386  146.0062  9 Note Off        44, 0
  44386  146.0062  9 Note Off        36, 0
  44405  146.0687  9 Note On         44, 100
  44425  146.1344  9 Note Off        44, 0
  44446  146.2038  9 Note On         40, 110
  44446  146.2038  9 Note On         67, 100
  44446  146.2038  9 Note On         46, 80
  44466  146.2694  9 Note Off        46, 0
  44466  146.2694  9 Note Off        67, 0
  44466  146.2694  9 Note Off        40, 0
  44485  146.3319  9 Note On         44, 8
  44485  146.3319  9 Note On         35, 90
  44494  146.3619  9 Note Off        44, 0
  44505  146.3975  9 Note Off        35, 0
  44526  146.4669  9 Note On         46, 100
  44546  146.5325  9 Note Off        46, 0
  44565  146.5950  9 Note On         67, 100
  44584  146.6575  9 Note Off        67, 0
  44604  146.7237  9 Note On         36, 120
  44604  146.7237  9 Note On         44, 100
  44625  146.7925  9 Note Off        44, 0
  44625  146.7925  9 Note Off        36, 0
  44645  146.8581  9 Note On         36, 80
  44645  146.8581  9 Note On         44, 100
  44664  146.9206  9 Note Off        44, 0
  44664  146.9206  9 Note Off        36, 0
  44684  146.9869  9 Note On         44, 100
  44684  146.9869  9 Note On         67, 100
  44705  147.0556  9 Note Off        67, 0
  44705  147.0556  9 Note Off        44, 0
  44725  147.1213  9 Note On         36, 100
  44725  147.1213  9 Note On         44, 100
  44744  147.1838  9 Note Off        44, 0
  44744  147.1838  9 Note Off        36, 0
  44764  147.2500  9 Note On         40, 110
  44764  147.2500  9 Note On         46, 80
  44785  147.3187  9 Note Off        46, 0
  44785  147.3187  9 Note Off        40, 0
  44805  147.3844  9 Note On         44, 8
  44805  147.3844  9 Note On         67, 100
  44813  147.4112  9 Note Off        44, 0
  44824  147.4469  9 Note Off        67, 0
  44843  147.5094  9 Note On         44, 100
  44863  147.5756  9 Note Off        44, 0
  44884  147.6444  9 Note On         38, 100
  44884  147.6444  9 Note On         44, 100
  44904  147.7100  9 Note Off        44, 0
  44904  147.7100  9 Note Off        38, 0
  44923  147.7725  9 Note On         67, 100
  44923  147.7725  9 Note On         46, 80
  44943  147.8388  9 Note Off        46, 0
  44943  147.8388  9 Note Off        67, 0
  44964  147.9075  9 Note On         44, 8
  44971  147.9306  9 Note Off        44, 0
  45003  148.0362  9 Note On         36, 110
  45003  148.0362  9 Note On         44, 100
  45022  148.0987  9 Note Off        44, 0
  45022  148.0987  9 Note Off        36, 0
  45044  148.1706  9 Note On         44, 100
  45063  148.2331  9 Note Off        44, 0
  45083  148.2994  9 Note On         40, 110
  45083  148.2994  9 Note On         67, 100
  45083  148.2994  9 Note On         46, 80
  45102  148.3619  9 Note Off        46, 0
  45102  148.3619  9 Note Off        67, 0
  45102  148.3619  9 Note Off        40, 0
  45122  148.4275  9 Note On         44, 8
  45122  148.4275  9 Note On         35, 90
  45130  148.4538  9 Note Off        44, 0
  45143  148.4963  9 Note Off        35, 0
  45163  148.5625  9 Note On         46, 100
  45182  148.6250  9 Note Off        46, 0
  45201  148.6875  9 Note On         67, 100
  45223  148.7594  9 Note Off        67, 0
  45242  148.8219  9 Note On         36, 120
  45242  148.8219  9 Note On         44, 100
  45262  148.8881  9 Note Off        44, 0
  45262  148.8881  9 Note Off        36, 0
  45281  148.9506  9 Note On         36, 80
  45281  148.9506  9 Note On         44, 100
  45303  149.0225  9 Note Off        44, 0
  45303  149.0225  9 Note Off        36, 0
  45322  149.0850  9 Note On         44, 100
  45322  149.0850  9 Note On         67, 100
  45342  149.1513  9 Note Off        67, 0
  45342  149.1513  9 Note Off        44, 0
  45361  149.2138  9 Note On         36, 100
  45361  149.2138  9 Note On         44, 100
  45381  149.2794  9 Note Off        44, 0
  45381  149.2794  9 Note Off        36, 0
  45402  149.3487  9 Note On         40, 110
  45402  149.3487  9 Note On         46, 80
  45422  149.4144  9 Note Off        46, 0
  45422  149.4144  9 Note Off        40, 0
  45441  149.4769  9 Note On         44, 8
  45441  149.4769  9 Note On         67, 100
  45450  149.5062  9 Note Off        44, 0
  45460  149.5394  9 Note Off        67, 0
  45482  149.6119  9 Note On         44, 100
  45501  149.6744  9 Note Off        44, 0
  45521  149.7400  9 Note On         44, 100
  45540  149.8025  9 Note Off        44, 0
  45562  149.8750  9 Note On         46, 80
  45562  149.8750  9 Note On         67, 100
  45581  149.9375  9 Note Off        67, 0
  45581  149.9375  9 Note Off        46, 0
  45601  150.0031  9 Note On         44, 8
  45609  150.0294  9 Note Off        44, 0
  45639  150.1281  9 Note On         36, 110
  45639  150.1281  9 Note On         44, 100
  45661  150.2006  9 Note Off        44, 0
  45661  150.2006  9 Note Off        36, 0
  45680  150.2631  9 Note On         44, 100
  45700  150.3288  9 Note Off        44, 0
  45719  150.3913  9 Note On         67, 100
  45719  150.3913  9 Note On         40, 110
  45719  150.3913  9 Note On         46, 80
  45741  150.4638  9 Note Off        46, 0
  45741  150.4638  9 Note Off        40, 0
  45741  150.4638  9 Note Off        67, 0
  45760  150.5263  9 Note On         35, 90
  45760  150.5263  9 Note On         44, 8
  45769  150.5556  9 Note Off        44, 0
  45780  150.5919  9 Note Off        35, 0
  45799  150.6544  9 Note On         46, 100
  45821  150.7269  9 Note Off        46, 0
  45840  150.7894  9 Note On         67, 100
  45859  150.8519  9 Note Off        67, 0
  45879  150.9175  9 Note On         44, 100
  45879  150.9175  9 Note On         35, 100
  45898  150.9800  9 Note Off        35, 0
  45898  150.9800  9 Note Off        44, 0
  45959  151.1806  9 Note On         44, 80
  45978  151.2431  9 Note Off        44, 0
  46039  151.4437  9 Note On         40, 110
  46039  151.4437  9 Note On         44, 100
  46058  151.5062  9 Note Off        44, 0
  46058  151.5062  9 Note Off        40, 0
  46118  151.7038  9 Note On         44, 80
  46138  151.7694  9 Note Off        44, 0
  46157  151.8319  9 Note On         38, 100
  46179  151.9044  9 Note Off        38, 0
  46198  151.9669  9 Note On         44, 100
  46218  152.0325  9 Note Off        44, 0
  46237  152.0950  9 Note On         35, 100
  46259  152.1675  9 Note Off        35, 0
  46278  152.2300  9 Note On         35, 80
  46278  152.2300  9 Note On         44, 80
  46297  152.2925  9 Note Off        44, 0
  46297  152.2925  9 Note Off        35, 0
  46358  152.4931  9 Note On         40, 110
  46358  152.4931  9 Note On         44, 100
  46377  152.5556  9 Note Off        44, 0
  46377  152.5556  9 Note Off        40, 0
  46397  152.6213  9 Note On         35, 100
  46416  152.6838  9 Note Off        35, 0
  46438  152.7562  9 Note On         44, 80
  46457  152.8187  9 Note Off        44, 0
  46517  153.0163  9 Note On         35, 100
  46517  153.0163  9 Note On         44, 100
  46537  153.0819  9 Note Off        44, 0
  46537  153.0819  9 Note Off        35, 0
  46597  153.2794  9 Note On         44, 80
  46617  153.3450  9 Note Off        44, 0
  46675  153.5362  9 Note On         40, 110
  46675  153.5362  9 Note On         44, 100
  46696  153.6050  9 Note Off        44, 0
  46696  153.6050  9 Note Off        40, 0
  46755  153.7994  9 Note On         44, 80
  46776  153.8681  9 Note Off        44, 0
  46796  153.9338  9 Note On         38, 100
  46815  153.9963  9 Note Off        38, 0
  46835  154.0625  9 Note On         44, 100
  46856  154.1312  9 Note Off        44, 0
  46876  154.1969  9 Note On         35, 100
  46895  154.2594  9 Note Off        35, 0
  46914  154.3219  9 Note On         35, 80
  46914  154.3219  9 Note On         44, 80
  46934  154.3881  9 Note Off        44, 0
  46934  154.3881  9 Note Off        35, 0
  46994  154.5850  9 Note On         40, 110
  46994  154.5850  9 Note On         44, 100
  47014  154.6513  9 Note Off        44, 0
  47014  154.6513  9 Note Off        40, 0
  47035  154.7200  9 Note On         35, 100
  47055  154.7862  9 Note Off        35, 0
  47074  154.8487  9 Note On         44, 80
  47093  154.9112  9 Note Off        44, 0
  47154  155.1119  9 Note On         36, 120
  47154  155.1119  9 Note On         57, 100
  47154  155.1119  9 Note On         44, 100
  47173  155.1744  9 Note Off        44, 0
  47173  155.1744  9 Note Off        57, 0
  47173  155.1744  9 Note Off        36, 0
  47193  155.2400  9 Note On         36, 80
  47193  155.2400  9 Note On         44, 100
  47214  155.3088  9 Note Off        44, 0
  47214  155.3088  9 Note Off        36, 0
  47234  155.3750  9 Note On         44, 100
  47234  155.3750  9 Note On         67, 100
  47253  155.4375  9 Note Off        67, 0
  47253  155.4375  9 Note Off        44, 0
  47272  155.5000  9 Note On         36, 100
  47272  155.5000  9 Note On         44, 100
  47294  155.5719  9 Note Off        44, 0
  47294  155.5719  9 Note Off        36, 0
  47313  155.6344  9 Note On         40, 110
  47313  155.6344  9 Note On         46, 80
  47333  155.7006  9 Note Off        46, 0
  47333  155.7006  9 Note Off        40, 0
  47352  155.7631  9 Note On         44, 8
  47352  155.7631  9 Note On         67, 100
  47361  155.7925  9 Note Off        44, 0
  47374  155.8350  9 Note Off        67, 0
  47393  155.8975  9 Note On         44, 100
  47413  155.9638  9 Note Off        44, 0
  47432  156.0263  9 Note On         38, 100
  47432  156.0263  9 Note On         44, 100
  47452  156.0919  9 Note Off        44, 0
  47452  156.0919  9 Note Off        38, 0
  47473  156.1612  9 Note On         67, 100
  47473  156.1612  9 Note On         46, 80
  47493  156.2269  9 Note Off        46, 0
  47493  156.2269  9 Note Off        67, 0
  47512  156.2894  9 Note On         44, 8
  47521  156.3187  9 Note Off        44, 0
  47553  156.4244  9 Note On         36, 110
  47553  156.4244  9 Note On         44, 100
  47572  156.4869  9 Note Off        44, 0
  47572  156.4869  9 Note Off        36, 0
  47592  156.5525  9 Note On         44, 100
  47611  156.6150  9 Note Off        44, 0
  47633  156.6875  9 Note On         40, 110
  47633  156.6875  9 Note On         67, 100
  47633  156.6875  9 Note On         46, 80
  47652  156.7500  9 Note Off        46, 0
  47652  156.7500  9 Note Off        67, 0
  47652  156.7500  9 Note Off        40, 0
  47672  156.8156  9 Note On         44, 8
  47672  156.8156  9 Note On         35, 90
  47680  156.8419  9 Note Off        44, 0
  47691  156.8781  9 Note Off        35, 0
  47710  156.9406  9 Note On         46, 100
  47732  157.0131  9 Note Off        46, 0
  47751  157.0756  9 Note On         67, 100
  47771  157.1413  9 Note Off        67, 0
  47790  157.2038  9 Note On         36, 120
  47790  157.2038  9 Note On         44, 100
  47812  157.2763  9 Note Off        44, 0
  47812  157.2763  9 Note Off        36, 0
  47831  157.3388  9 Note On         36, 80
  47831  157.3388  9 Note On         44, 100
  47851  157.4044  9 Note Off        44, 0
  47851  157.4044  9 Note Off        36, 0
  47870  157.4669  9 Note On         44, 100
  47870  157.4669  9 Note On         67, 100
  47892  157.5394  9 Note Off        67, 0
  47892  157.5394  9 Note Off        44, 0
  47911  157.6019  9 Note On         36, 100
  47911  157.6019  9 Note On         44, 100
  47930  157.6644  9 Note Off        44, 0
  47930  157.6644  9 Note Off        36, 0
  47950  157.7300  9 Note On         40, 110
  47950  157.7300  9 Note On         46, 80
  47969  157.7925  9 Note Off        46, 0
  47969  157.7925  9 Note Off        40, 0
  47991  157.8650  9 Note On         44, 8
  47991  157.8650  9 Note On         67, 100
  48000  157.8944  9 Note Off        44, 0
  48010  157.9275  9 Note Off        67, 0
  48030  157.9931  9 Note On         44, 100
  48049  158.0556  9 Note Off        44, 0
  48071  158.1281  9 Note On         44, 100
  48090  158.1906  9 Note Off        44, 0
  48110  158.2562  9 Note On         46, 80
  48110  158.2562  9 Note On         67, 100
  48129  158.3187  9 Note Off        67, 0
  48129  158.3187  9 Note Off        46, 0
  48151  158.3913  9 Note On         44, 8
  48157  158.4112  9 Note Off        44, 0
  48189  158.5163  9 Note On         36, 110
  48189  158.5163  9 Note On         44, 100
  48209  158.5819  9 Note Off        44, 0
  48209  158.5819  9 Note Off        36, 0
  48228  158.6444  9 Note On         44, 100
  48250  158.7169  9 Note Off        44, 0
  48269  158.7794  9 Note On         67, 100
  48269  158.7794  9 Note On         40, 110
  48269  158.7794  9 Note On         46, 80
  48289  158.8450  9 Note Off        46, 0
  48289  158.8450  9 Note Off        40, 0
  48289  158.8450  9 Note Off        67, 0
  48308  158.9075  9 Note On         35, 90
  48308  158.9075  9 Note On         44, 8
  48317  158.9375  9 Note Off        44, 0
  48330  158.9800  9 Note Off        35, 0
  48349  159.0425  9 Note On         46, 100
  48368  159.1050  9 Note Off        46, 0
  48388  159.1706  9 Note On         67, 100
  48409  159.2400  9 Note Off        67, 0
  48429  159.3056  9 Note On         44, 100
  48429  159.3056  9 Note On         35, 100
  48448  159.3681  9 Note Off        35, 0
  48448  159.3681  9 Note Off        44, 0
  48509  159.5687  9 Note On         44, 80
  48528  159.6312  9 Note Off        44, 0
  48588  159.8288  9 Note On         40, 110
  48588  159.8288  9 Note On         44, 100
  48608  159.8944  9 Note Off        44, 0
  48608  159.8944  9 Note Off        40, 0
  48668  160.0919  9 Note On         44, 80
  48688  160.1575  9 Note Off        44, 0
  48707  160.2200  9 Note On         38, 100
  48727  160.2862  9 Note Off        38, 0
  48746  160.3487  9 Note On         44, 100
  48768  160.4206  9 Note Off        44, 0
  48787  160.4831  9 Note On         35, 100
  48806  160.5456  9 Note Off        35, 0
  48826  160.6119  9 Note On         35, 80
  48826  160.6119  9 Note On         44, 80
  48847  160.6806  9 Note Off        44, 0
  48847  160.6806  9 Note Off        35, 0
  48906  160.8750  9 Note On         40, 110
  48906  160.8750  9 Note On         44, 100
  48927  160.9437  9 Note Off        44, 0
  48927  160.9437  9 Note Off        40, 0
  48947  161.0094  9 Note On         35, 100
  48966  161.0719  9 Note Off        35, 0
  48985  161.1344  9 Note On         44, 80
  49005  161.2006  9 Note Off        44, 0
  49065  161.3975  9 Note On         35, 100
  49065  161.3975  9 Note On         44, 100
  49085  161.4638  9 Note Off        44, 0
  49085  161.4638  9 Note Off        35, 0
  49145  161.6612  9 Note On         44, 80
  49164  161.7237  9 Note Off        44, 0
  49225  161.9244  9 Note On         40, 110
  49225  161.9244  9 Note On         44, 100
  49244  161.9869  9 Note Off        44, 0
  49244  161.9869  9 Note Off        40, 0
  49305  162.1875  9 Note On         44, 80
  49324  162.2500  9 Note Off        44, 0
  49344  162.3156  9 Note On         38, 100
  49365  162.3844  9 Note Off        38, 0
  49384  162.4469  9 Note On         44, 100
  49404  162.5131  9 Note Off        44, 0
  49423  162.5756  9 Note On         35, 100
  49445  162.6475  9 Note Off        35, 0
  49464  162.7100  9 Note On         35, 80
  49464  162.7100  9 Note On         44, 80
  49484  162.7763  9 Note Off        44, 0
  49484  162.7763  9 Note Off        35, 0
  49544  162.9737  9 Note On         40, 110
  49544  162.9737  9 Note On         44, 100
  49564  163.0394  9 Note Off        44, 0
  49564  163.0394  9 Note Off        40, 0
  49583  163.1019  9 Note On         40, 100
  49602  163.1644  9 Note Off        40, 0
  49624  163.2369  9 Note On         35, 100
  49624  163.2369  9 Note On         44, 80
  49643  163.2994  9 Note Off        44, 0
  49643  163.2994  9 Note Off        35, 0
  49704  163.5000  9 Note On         57, 100
  49704  163.5000  9 Note On         36, 120
  49704  163.5000  9 Note On         44, 100
  49723  163.5625  9 Note Off        44, 0
  49723  163.5625  9 Note Off        36, 0
  49723  163.5625  9 Note Off        57, 0
  49743  163.6281  9 Note On         36, 80
  49743  163.6281  9 Note On         44, 100
  49762  163.6906  9 Note Off        44, 0
  49762  163.6906  9 Note Off        36, 0
  49781  163.7531  9 Note On         44, 100
  49781  163.7531  9 Note On         67, 100
  49803  163.8256  9 Note Off        67, 0
  49803  163.8256  9 Note Off        44, 0
  49822  163.8881  9 Note On         36, 100
  49822  163.8881  9 Note On         44, 100
  49842  163.9538  9 Note Off        44, 0
  49842  163.9538  9 Note Off        36, 0
  49861  164.0163  9 Note On         40, 110
  49861  164.0163  9 Note On         46, 80
  49883  164.0888  9 Note Off        46, 0
  49883  164.0888  9 Note Off        40, 0
  49902  164.1513  9 Note On         44, 8
  49902  164.1513  9 Note On         67, 100
  49911  164.1806  9 Note Off        44, 0
  49922  164.2169  9 Note Off        67, 0
  49941  164.2794  9 Note On         44, 100
  49963  164.3519  9 Note Off        44, 0
  49982  164.4144  9 Note On         44, 100
  50001  164.4769  9 Note Off        44, 0
  50021  164.5425  9 Note On         46, 80
  50021  164.5425  9 Note On         67, 100
  50040  164.6050  9 Note Off        67, 0
  50040  164.6050  9 Note Off        46, 0
  50062  164.6775  9 Note On         44, 8
  50071  164.7069  9 Note Off        44, 0
  50101  164.8056  9 Note On         36, 110
  50101  164.8056  9 Note On         44, 100
  50120  164.8681  9 Note Off        44, 0
  50120  164.8681  9 Note Off        36, 0
  50142  164.9406  9 Note On         44, 100
  50161  165.0031  9 Note Off        44, 0
  50181  165.0687  9 Note On         67, 100
  50181  165.0687  9 Note On         40, 110
  50181  165.0687  9 Note On         46, 80
  50200  165.1312  9 Note Off        46, 0
  50200  165.1312  9 Note Off        40, 0
  50200  165.1312  9 Note Off        67, 0
  50222  165.2038  9 Note On         35, 90
  50222  165.2038  9 Note On         44, 8
  50228  165.2231  9 Note Off        44, 0
  50241  165.2663  9 Note Off        35, 0
  50260  165.3288  9 Note On         46, 100
  50280  165.3944  9 Note Off        46, 0
  50299  165.4569  9 Note On         67, 100
  50321  165.5294  9 Note Off        67, 0
  50340  165.5919  9 Note On         36, 120
  50340  165.5919  9 Note On         44, 100
  50360  165.6575  9 Note Off        44, 0
  50360  165.6575  9 Note Off        36, 0
  50379  165.7200  9 Note On         36, 80
  50379  165.7200  9 Note On         44, 100
  50401  165.7925  9 Note Off        44, 0
  50401  165.7925  9 Note Off        36, 0
  50420  165.8550  9 Note On         44, 100
  50420  165.8550  9 Note On         67, 100
  50439  165.9175  9 Note Off        67, 0
  50439  165.9175  9 Note Off        44, 0
  50459  165.9831  9 Note On         36, 100
  50459  165.9831  9 Note On         44, 100
  50480  166.0525  9 Note Off        44, 0
  50480  166.0525  9 Note Off        36, 0
  50500  166.1181  9 Note On         40, 110
  50500  166.1181  9 Note On         46, 80
  50519  166.1806  9 Note Off        46, 0
  50519  166.1806  9 Note Off        40, 0
  50539  166.2463  9 Note On         44, 8
  50539  166.2463  9 Note On         67, 100
  50547  166.2725  9 Note Off        44, 0
  50558  166.3088  9 Note Off        67, 0
  50580  166.3812  9 Note On         44, 100
  50599  166.4437  9 Note Off        44, 0
  50618  166.5062  9 Note On         38, 100
  50618  166.5062  9 Note On         44, 100
  50638  166.5719  9 Note Off        44, 0
  50638  166.5719  9 Note Off        38, 0
  50659  166.6413  9 Note On         67, 100
  50659  166.6413  9 Note On         46, 80
  50679  166.7069  9 Note Off        46, 0
  50679  166.7069  9 Note Off        67, 0
  50698  166.7694  9 Note On         44, 8
  50707  166.7994  9 Note Off        44, 0
  50739  166.9044  9 Note On         36, 110
  50739  166.9044  9 Note On         44, 100
  50759  166.9700  9 Note Off        44, 0
  50759  166.9700  9 Note Off        36, 0
  50778  167.0325  9 Note On         44, 100
  50798  167.0981  9 Note Off        44, 0
  50817  167.1606  9 Note On         40, 110
  50817  167.1606  9 Note On         67, 100
  50817  167.1606  9 Note On         46, 80
  50839  167.2331  9 Note Off        46, 0
  50839  167.2331  9 Note Off        67, 0
  50839  167.2331  9 Note Off        40, 0
  50858  167.2956  9 Note On         44, 8
  50858  167.2956  9 Note On         35, 90
  50867  167.3256  9 Note Off        44, 0
  50877  167.3581  9 Note Off        35, 0
  50897  167.4244  9 Note On         46, 100
  50918  167.4931  9 Note Off        46, 0
  50938  167.5588  9 Note On         67, 100
  50957  167.6213  9 Note Off        67, 0
  50977  167.6875  9 Note On         36, 120
  50977  167.6875  9 Note On         44, 100
  50998  167.7562  9 Note Off        44, 0
  50998  167.7562  9 Note Off        36, 0
  51018  167.8219  9 Note On         36, 80
  51018  167.8219  9 Note On         44, 100
  51037  167.8844  9 Note Off        44, 0
  51037  167.8844  9 Note Off        36, 0
  51056  167.9469  9 Note On         44, 100
  51056  167.9469  9 Note On         67, 100
  51076  168.0131  9 Note Off        67, 0
  51076  168.0131  9 Note Off        44, 0
  51097  168.0819  9 Note On         36, 100
  51097  168.0819  9 Note On         44, 100
  51117  168.1475  9 Note Off        44, 0
  51117  168.1475  9 Note Off        36, 0
  51136  168.2100  9 Note On         40, 110
  51136  168.2100  9 Note On         46, 80
  51156  168.2763  9 Note Off        46, 0
  51156  168.2763  9 Note Off        40, 0
  51177  168.3450  9 Note On         44, 8
  51177  168.3450  9 Note On         67, 100
  51184  168.3681  9 Note Off        44, 0
  51197  168.4106  9 Note Off        67, 0
  51216  168.4731  9 Note On         44, 100
  51235  168.5356  9 Note Off        44, 0
  51257  168.6081  9 Note On         38, 90
  51257  168.6081  9 Note On         44, 100
  51276  168.6706  9 Note Off        44, 0
  51276  168.6706  9 Note Off        38, 0
  51296  168.7369  9 Note On         67, 100
  51296  168.7369  9 Note On         46, 80
  51315  168.7994  9 Note Off        46, 0
  51315  168.7994  9 Note Off        67, 0
  51335  168.8650  9 Note On         44, 8
  51343  168.8913  9 Note Off        44, 0
  51376  169.0000  9 Note On         36, 110
  51376  169.0000  9 Note On         44, 100
  51395  169.0625  9 Note Off        44, 0
  51395  169.0625  9 Note Off        36, 0
  51415  169.1281  9 Note On         44, 100
  51436  169.1969  9 Note Off        44, 0
  51456  169.2631  9 Note On         40, 110
  51456  169.2631  9 Note On         67, 100
  51456  169.2631  9 Note On         46, 80
  51475  169.3256  9 Note Off        46, 0
  51475  169.3256  9 Note Off        67, 0
  51475  169.3256  9 Note Off        40, 0
  51494  169.3881  9 Note On         44, 8
  51494  169.3881  9 Note On         35, 90
  51503  169.4175  9 Note Off        44, 0
  51516  169.4600  9 Note Off        35, 0
  51535  169.5225  9 Note On         46, 100
  51555  169.5888  9 Note Off        46, 0
  51574  169.6513  9 Note On         67, 100
  51594  169.7169  9 Note Off        67, 0
  51615  169.7856  9 Note On         36, 120
  51615  169.7856  9 Note On         44, 100
  51615  169.7856  9 Note On         38, 100
  51635  169.8519  9 Note Off        38, 0
  51635  169.8519  9 Note Off        44, 0
  51635  169.8519  9 Note Off        36, 0
  51654  169.9144  9 Note On         36, 80
  51654  169.9144  9 Note On         44, 100
  51654  169.9144  9 Note On         38, 100
  51673  169.9769  9 Note Off        38, 0
  51673  169.9769  9 Note Off        44, 0
  51673  169.9769  9 Note Off        36, 0
  51695  170.0494  9 Note On         44, 100
  51695  170.0494  9 Note On         67, 100
  51695  170.0494  9 Note On         38, 100
  51714  170.1119  9 Note Off        38, 0
  51714  170.1119  9 Note Off        67, 0
  51714  170.1119  9 Note Off        44, 0
  51734  170.1775  9 Note On         36, 100
  51734  170.1775  9 Note On         44, 100
  51734  170.1775  9 Note On         38, 100
  51753  170.2400  9 Note Off        38, 0
  51753  170.2400  9 Note Off        44, 0
  51753  170.2400  9 Note Off        36, 0
  51775  170.3125  9 Note On         40, 110
  51775  170.3125  9 Note On         46, 80
  51775  170.3125  9 Note On         38, 100
  51794  170.3750  9 Note Off        38, 0
  51794  170.3750  9 Note Off        46, 0
  51794  170.3750  9 Note Off        40, 0
  51814  170.4406  9 Note On         44, 8
  51814  170.4406  9 Note On         67, 100
  51814  170.4406  9 Note On         38, 100
  51822  170.4669  9 Note Off        44, 0
  51833  170.5031  9 Note Off        67, 0
  51833  170.5031  9 Note Off        38, 0
  51852  170.5656  9 Note On         44, 100
  51852  170.5656  9 Note On         38, 100
  51874  170.6381  9 Note Off        38, 0
  51874  170.6381  9 Note Off        44, 0
  51893  170.7006  9 Note On         44, 100
  51893  170.7006  9 Note On         38, 100
  51913  170.7663  9 Note Off        38, 0
  51913  170.7663  9 Note Off        44, 0
  51932  170.8288  9 Note On         67, 100
  51932  170.8288  9 Note On         46, 80
  51932  170.8288  9 Note On         38, 100
  51954  170.9013  9 Note Off        38, 0
  51954  170.9013  9 Note Off        46, 0
  51954  170.9013  9 Note Off        67, 0
  51973  170.9638  9 Note On         44, 8
  51973  170.9638  9 Note On         38, 100
  51982  170.9931  9 Note Off        44, 0
  51993  171.0294  9 Note Off        38, 0
  52012  171.0919  9 Note On         36, 110
  52012  171.0919  9 Note On         44, 100
  52012  171.0919  9 Note On         38, 100
  52034  171.1644  9 Note Off        38, 0
  52034  171.1644  9 Note Off        44, 0
  52034  171.1644  9 Note Off        36, 0
  52053  171.2269  9 Note On         44, 100
  52053  171.2269  9 Note On         38, 100
  52072  171.2894  9 Note Off        38, 0
  52072  171.2894  9 Note Off        44, 0
  52092  171.3550  9 Note On         40, 110
  52092  171.3550  9 Note On         67, 100
  52092  171.3550  9 Note On         46, 80
  52092  171.3550  9 Note On         38, 100
  52111  171.4175  9 Note Off        38, 0
  52111  171.4175  9 Note Off        46, 0
  52111  171.4175  9 Note Off        67, 0
  52111  171.4175  9 Note Off        40, 0
  52133  171.4900  9 Note On         44, 8
  52133  171.4900  9 Note On         35, 90
  52133  171.4900  9 Note On         38, 100
  52142  171.5194  9 Note Off        44, 0
  52152  171.5525  9 Note Off        35, 0
  52152  171.5525  9 Note Off        38, 0
  52172  171.6181  9 Note On         46, 100
  52172  171.6181  9 Note On         38, 100
  52191  171.6806  9 Note Off        38, 0
  52191  171.6806  9 Note Off        46, 0
  52213  171.7531  9 Note On         67, 100
  52213  171.7531  9 Note On         38, 100
  52232  171.8156  9 Note Off        38, 0
  52232  171.8156  9 Note Off        67, 0
  52252  171.8812  9 Note On         36, 120
  52252  171.8812  9 Note On         57, 100
  52252  171.8812  9 Note On         44, 100
  52271  171.9437  9 Note Off        44, 0
  52271  171.9437  9 Note Off        57, 0
  52271  171.9437  9 Note Off        36, 0
  52293  172.0163  9 Note On         36, 80
  52293  172.0163  9 Note On         44, 100
  52312  172.0788  9 Note Off        44, 0
  52312  172.0788  9 Note Off        36, 0
  52331  172.1413  9 Note On         44, 100
  52331  172.1413  9 Note On         67, 100
  52351  172.2069  9 Note Off        67, 0
  52351  172.2069  9 Note Off        44, 0
  52370  172.2694  9 Note On         36, 100
  52370  172.2694  9 Note On         44, 100
  52392  172.3419  9 Note Off        44, 0
  52392  172.3419  9 Note Off        36, 0
  52411  172.4044  9 Note On         40, 110
  52411  172.4044  9 Note On         46, 80
  52431  172.4700  9 Note Off        46, 0
  52431  172.4700  9 Note Off        40, 0
  52450  172.5325  9 Note On         44, 8
  52450  172.5325  9 Note On         67, 100
  52459  172.5625  9 Note Off        44, 0
  52472  172.6050  9 Note Off        67, 0
  52491  172.6675  9 Note On         44, 100
  52510  172.7300  9 Note Off        44, 0
  52530  172.7956  9 Note On         38, 90
  52530  172.7956  9 Note On         44, 100
  52551  172.8650  9 Note Off        44, 0
  52551  172.8650  9 Note Off        38, 0
  52571  172.9306  9 Note On         67, 100
  52571  172.9306  9 Note On         46, 80
  52590  172.9931  9 Note Off        46, 0
  52590  172.9931  9 Note Off        67, 0
  52610  173.0588  9 Note On         44, 8
  52610  173.0588  9 Note On         38, 70
  52618  173.0850  9 Note Off        44, 0
  52629  173.1213  9 Note Off        38, 0
  52651  173.1937  9 Note On         36, 110
  52651  173.1937  9 Note On         44, 100
  52670  173.2562  9 Note Off        44, 0
  52670  173.2562  9 Note Off        36, 0
  52689  173.3187  9 Note On         44, 100
  52709  173.3844  9 Note Off        44, 0
  52730  173.4538  9 Note On         40, 110
  52730  173.4538  9 Note On         67, 100
  52730  173.4538  9 Note On         46, 80
  52750  173.5194  9 Note Off        46, 0
  52750  173.5194  9 Note Off        67, 0
  52750  173.5194  9 Note Off        40, 0
  52769  173.5819  9 Note On         44, 8
  52769  173.5819  9 Note On         35, 90
  52778  173.6119  9 Note Off        44, 0
  52789  173.6475  9 Note Off        35, 0
  52810  173.7169  9 Note On         46, 100
  52830  173.7825  9 Note Off        46, 0
  52849  173.8450  9 Note On         67, 100
  52869  173.9106  9 Note Off        67, 0
  52888  173.9731  9 Note On         36, 120
  52888  173.9731  9 Note On         44, 100
  52910  174.0456  9 Note Off        44, 0
  52910  174.0456  9 Note Off        36, 0
  52929  174.1081  9 Note On         36, 80
  52929  174.1081  9 Note On         44, 100
  52948  174.1706  9 Note Off        44, 0
  52948  174.1706  9 Note Off        36, 0
  52968  174.2369  9 Note On         44, 100
  52968  174.2369  9 Note On         67, 100
  52989  174.3056  9 Note Off        67, 0
  52989  174.3056  9 Note Off        44, 0
  53009  174.3713  9 Note On         36, 100
  53009  174.3713  9 Note On         44, 100
  53028  174.4338  9 Note Off        44, 0
  53028  174.4338  9 Note Off        36, 0
  53048  174.5000  9 Note On         40, 110
  53048  174.5000  9 Note On         46, 80
  53069  174.5687  9 Note Off        46, 0
  53069  174.5687  9 Note Off        40, 0
  53089  174.6344  9 Note On         44, 8
  53089  174.6344  9 Note On         67, 100
  53097  174.6606  9 Note Off        44, 0
  53108  174.6969  9 Note Off        67, 0
  53127  174.7594  9 Note On         44, 100
  53147  174.8256  9 Note Off        44, 0
  53168  174.8944  9 Note On         38, 100
  53168  174.8944  9 Note On         44, 100
  53188  174.9600  9 Note Off        44, 0
  53188  174.9600  9 Note Off        38, 0
  53207  175.0225  9 Note On         67, 100
  53207  175.0225  9 Note On         46, 80
  53227  175.0888  9 Note Off        46, 0
  53227  175.0888  9 Note Off        67, 0
  53248  175.1575  9 Note On         44, 8
  53248  175.1575  9 Note On         38, 70
  53255  175.1806  9 Note Off        44, 0
  53268  175.2231  9 Note Off        38, 0
  53287  175.2856  9 Note On         36, 110
  53287  175.2856  9 Note On         44, 100
  53306  175.3481  9 Note Off        44, 0
  53306  175.3481  9 Note Off        36, 0
  53328  175.4206  9 Note On         44, 100
  53347  175.4831  9 Note Off        44, 0
  53367  175.5494  9 Note On         40, 110
  53367  175.5494  9 Note On         67, 100
  53367  175.5494  9 Note On         46, 80
  53386  175.6119  9 Note Off        46, 0
  53386  175.6119  9 Note Off        67, 0
  53386  175.6119  9 Note Off        40, 0
  53406  175.6775  9 Note On         44, 8
  53406  175.6775  9 Note On         35, 90
  53414  175.7038  9 Note Off        44, 0
  53427  175.7463  9 Note Off        35, 0
  53447  175.8125  9 Note On         46, 100
  53466  175.8750  9 Note Off        46, 0
  53486  175.9406  9 Note On         67, 100
  53507  176.0094  9 Note Off        67, 0
  53527  176.0756  9 Note On         36, 120
  53527  176.0756  9 Note On         44, 100
  53546  176.1381  9 Note Off        44, 0
  53546  176.1381  9 Note Off        36, 0
  53565  176.2006  9 Note On         36, 80
  53565  176.2006  9 Note On         44, 100
  53587  176.2725  9 Note Off        44, 0
  53587  176.2725  9 Note Off        36, 0
  53606  176.3350  9 Note On         44, 100
  53606  176.3350  9 Note On         67, 100
  53626  176.4013  9 Note Off        67, 0
  53626  176.4013  9 Note Off        44, 0
  53645  176.4638  9 Note On         36, 100
  53645  176.4638  9 Note On         44, 100
  53665  176.5294  9 Note Off        44, 0
  53665  176.5294  9 Note Off        36, 0
  53686  176.5981  9 Note On         40, 110
  53686  176.5981  9 Note On         46, 80
  53706  176.6644  9 Note Off        46, 0
  53706  176.6644  9 Note Off        40, 0
  53725  176.7269  9 Note On         44, 8
  53725  176.7269  9 Note On         67, 100
  53734  176.7562  9 Note Off        44, 0
  53744  176.7894  9 Note Off        67, 0
  53766  176.8619  9 Note On         44, 100
  53785  176.9244  9 Note Off        44, 0
  53805  176.9900  9 Note On         44, 100
  53805  176.9900  9 Note On         38, 90
  53824  177.0525  9 Note Off        38, 0
  53824  177.0525  9 Note Off        44, 0
  53846  177.1250  9 Note On         67, 100
  53846  177.1250  9 Note On         46, 80
  53865  177.1875  9 Note Off        46, 0
  53865  177.1875  9 Note Off        67, 0
  53885  177.2531  9 Note On         44, 8
  53885  177.2531  9 Note On         38, 70
  53893  177.2794  9 Note Off        44, 0
  53904  177.3156  9 Note Off        38, 0
  53923  177.3781  9 Note On         36, 110
  53923  177.3781  9 Note On         44, 100
  53945  177.4506  9 Note Off        44, 0
  53945  177.4506  9 Note Off        36, 0
  53964  177.5131  9 Note On         44, 100
  53984  177.5788  9 Note Off        44, 0
  54003  177.6413  9 Note On         40, 110
  54003  177.6413  9 Note On         67, 100
  54003  177.6413  9 Note On         46, 80
  54025  177.7138  9 Note Off        46, 0
  54025  177.7138  9 Note Off        67, 0
  54025  177.7138  9 Note Off        40, 0
  54044  177.7763  9 Note On         44, 8
  54044  177.7763  9 Note On         35, 90
  54053  177.8056  9 Note Off        44, 0
  54064  177.8419  9 Note Off        35, 0
  54083  177.9044  9 Note On         46, 100
  54105  177.9769  9 Note Off        46, 0
  54124  178.0394  9 Note On         67, 100
  54144  178.1050  9 Note Off        67, 0
  54163  178.1675  9 Note On         36, 120
  54163  178.1675  9 Note On         44, 100
  54182  178.2300  9 Note Off        44, 0
  54182  178.2300  9 Note Off        36, 0
  54204  178.3025  9 Note On         36, 80
  54204  178.3025  9 Note On         44, 100
  54223  178.3650  9 Note Off        44, 0
  54223  178.3650  9 Note Off        36, 0
  54243  178.4306  9 Note On         44, 100
  54243  178.4306  9 Note On         67, 100
  54262  178.4931  9 Note Off        67, 0
  54262  178.4931  9 Note Off        44, 0
  54284  178.5656  9 Note On         36, 100
  54284  178.5656  9 Note On         44, 100
  54303  178.6281  9 Note Off        44, 0
  54303  178.6281  9 Note Off        36, 0
  54323  178.6937  9 Note On         40, 110
  54323  178.6937  9 Note On         46, 80
  54342  178.7562  9 Note Off        46, 0
  54342  178.7562  9 Note Off        40, 0
  54364  178.8288  9 Note On         44, 8
  54364  178.8288  9 Note On         67, 100
  54370  178.8481  9 Note Off        44, 0
  54383  178.8913  9 Note Off        67, 0
  54402  178.9538  9 Note On         44, 100
  54422  179.0194  9 Note Off        44, 0
  54441  179.0819  9 Note On         44, 100
  54441  179.0819  9 Note On         38, 100
  54463  179.1544  9 Note Off        38, 0
  54463  179.1544  9 Note Off        44, 0
  54482  179.2169  9 Note On         67, 100
  54482  179.2169  9 Note On         46, 80
  54502  179.2825  9 Note Off        46, 0
  54502  179.2825  9 Note Off        67, 0
  54521  179.3450  9 Note On         44, 8
  54521  179.3450  9 Note On         38, 70
  54530  179.3750  9 Note Off        44, 0
  54543  179.4175  9 Note Off        38, 0
  54562  179.4800  9 Note On         36, 110
  54562  179.4800  9 Note On         44, 100
  54581  179.5425  9 Note Off        44, 0
  54581  179.5425  9 Note Off        36, 0
  54601  179.6081  9 Note On         44, 100
  54622  179.6775  9 Note Off        44, 0
  54642  179.7431  9 Note On         40, 110
  54642  179.7431  9 Note On         67, 100
  54642  179.7431  9 Note On         46, 80
  54661  179.8056  9 Note Off        46, 0
  54661  179.8056  9 Note Off        67, 0
  54661  179.8056  9 Note Off        40, 0
  54681  179.8713  9 Note On         44, 8
  54681  179.8713  9 Note On         35, 90
  54689  179.8975  9 Note Off        44, 0
  54700  179.9338  9 Note Off        35, 0
  54722  180.0062  9 Note On         46, 100
  54741  180.0687  9 Note Off        46, 0
  54760  180.1312  9 Note On         67, 100
  54780  180.1969  9 Note Off        67, 0
  54801  180.2663  9 Note On         36, 120
  54801  180.2663  9 Note On         44, 100
  54821  180.3319  9 Note Off        44, 0
  54821  180.3319  9 Note Off        36, 0
  54840  180.3944  9 Note On         36, 80
  54840  180.3944  9 Note On         44, 100
  54860  180.4600  9 Note Off        44, 0
  54860  180.4600  9 Note Off        36, 0
  54881  180.5294  9 Note On         44, 100
  54881  180.5294  9 Note On         67, 100
  54901  180.5950  9 Note Off        67, 0
  54901  180.5950  9 Note Off        44, 0
  54920  180.6575  9 Note On         36, 100
  54920  180.6575  9 Note On         44, 100
  54940  180.7231  9 Note Off        44, 0
  54940  180.7231  9 Note Off        36, 0
  54959  180.7856  9 Note On         40, 110
  54959  180.7856  9 Note On         46, 80
  54981  180.8581  9 Note Off        46, 0
  54981  180.8581  9 Note Off        40, 0
  55000  180.9206  9 Note On         44, 8
  55000  180.9206  9 Note On         67, 100
  55009  180.9506  9 Note Off        44, 0
  55019  180.9831  9 Note Off        67, 0
  55039  181.0494  9 Note On         44, 100
  55060  181.1181  9 Note Off        44, 0
  55080  181.1838  9 Note On         44, 100
  55080  181.1838  9 Note On         38, 90
  55099  181.2463  9 Note Off        38, 0
  55099  181.2463  9 Note Off        44, 0
  55119  181.3125  9 Note On         46, 80
  55119  181.3125  9 Note On         67, 100
  55140  181.3812  9 Note Off        67, 0
  55140  181.3812  9 Note Off        46, 0
  55160  181.4469  9 Note On         44, 8
  55160  181.4469  9 Note On         38, 70
  55168  181.4731  9 Note Off        44, 0
  55179  181.5094  9 Note Off        38, 0
  55198  181.5719  9 Note On         36, 110
  55198  181.5719  9 Note On         44, 100
  55218  181.6381  9 Note Off        44, 0
  55218  181.6381  9 Note Off        36, 0
  55239  181.7069  9 Note On         44, 100
  55259  181.7725  9 Note Off        44, 0
  55278  181.8350  9 Note On         40, 110
  55278  181.8350  9 Note On         46, 80
  55278  181.8350  9 Note On         67, 100
  55298  181.9013  9 Note Off        67, 0
  55298  181.9013  9 Note Off        46, 0
  55298  181.9013  9 Note Off        40, 0
  55319  181.9700  9 Note On         35, 90
  55319  181.9700  9 Note On         44, 8
  55326  181.9931  9 Note Off        44, 0
  55339  182.0356  9 Note Off        35, 0
  55358  182.0981  9 Note On         46, 100
  55377  182.1606  9 Note Off        46, 0
  55399  182.2331  9 Note On         67, 100
  55418  182.2956  9 Note Off        67, 0
  55438  182.3619  9 Note On         36, 120
  55438  182.3619  9 Note On         44, 100
  55457  182.4244  9 Note Off        44, 0
  55457  182.4244  9 Note Off        36, 0
  55477  182.4900  9 Note On         36, 80
  55477  182.4900  9 Note On         44, 100
  55498  182.5588  9 Note Off        44, 0
  55498  182.5588  9 Note Off        36, 0
  55518  182.6250  9 Note On         44, 100
  55518  182.6250  9 Note On         67, 100
  55537  182.6875  9 Note Off        67, 0
  55537  182.6875  9 Note Off        44, 0
  55557  182.7531  9 Note On         36, 100
  55557  182.7531  9 Note On         44, 100
  55578  182.8219  9 Note Off        44, 0
  55578  182.8219  9 Note Off        36, 0
  55598  182.8881  9 Note On         40, 110
  55598  182.8881  9 Note On         46, 80
  55617  182.9506  9 Note Off        46, 0
  55617  182.9506  9 Note Off        40, 0
  55636  183.0131  9 Note On         44, 8
  55636  183.0131  9 Note On         67, 100
  55645  183.0425  9 Note Off        44, 0
  55658  183.0850  9 Note Off        67, 0
  55677  183.1475  9 Note On         44, 100
  55697  183.2138  9 Note Off        44, 0
  55716  183.2763  9 Note On         44, 100
  55716  183.2763  9 Note On         38, 100
  55736  183.3419  9 Note Off        38, 0
  55736  183.3419  9 Note Off        44, 0
  55757  183.4106  9 Note On         46, 80
  55757  183.4106  9 Note On         67, 100
  55777  183.4769  9 Note Off        67, 0
  55777  183.4769  9 Note Off        46, 0
  55796  183.5394  9 Note On         44, 8
  55796  183.5394  9 Note On         38, 70
  55805  183.5687  9 Note Off        44, 0
  55815  183.6019  9 Note Off        38, 0
  55837  183.6744  9 Note On         36, 110
  55837  183.6744  9 Note On         44, 100
  55856  183.7369  9 Note Off        44, 0
  55856  183.7369  9 Note Off        36, 0
  55876  183.8025  9 Note On         44, 100
  55895  183.8650  9 Note Off        44, 0
  55917  183.9375  9 Note On         40, 110
  55917  183.9375  9 Note On         46, 80
  55917  183.9375  9 Note On         67, 100
  55936  184.0000  9 Note Off        67, 0
  55936  184.0000  9 Note Off        46, 0
  55936  184.0000  9 Note Off        40, 0
  55956  184.0656  9 Note On         44, 8
  55956  184.0656  9 Note On         35, 90
  55964  184.0919  9 Note Off        44, 0
  55975  184.1281  9 Note Off        35, 0
  55994  184.1906  9 Note On         46, 100
  56016  184.2631  9 Note Off        46, 0
  56035  184.3256  9 Note On         67, 100
  56055  184.3913  9 Note Off        67, 0
  56074  184.4538  9 Note On         36, 120
  56074  184.4538  9 Note On         44, 100
  56096  184.5263  9 Note Off        44, 0
  56096  184.5263  9 Note Off        36, 0
  56115  184.5888  9 Note On         36, 80
  56115  184.5888  9 Note On         44, 100
  56135  184.6544  9 Note Off        44, 0
  56135  184.6544  9 Note Off        36, 0
  56154  184.7169  9 Note On         44, 100
  56154  184.7169  9 Note On         67, 100
  56176  184.7894  9 Note Off        67, 0
  56176  184.7894  9 Note Off        44, 0
  56195  184.8519  9 Note On         36, 100
  56195  184.8519  9 Note On         44, 100
  56215  184.9175  9 Note Off        44, 0
  56215  184.9175  9 Note Off        36, 0
  56234  184.9800  9 Note On         40, 110
  56234  184.9800  9 Note On         46, 80
  56253  185.0425  9 Note Off        46, 0
  56253  185.0425  9 Note Off        40, 0
  56275  185.1150  9 Note On         44, 8
  56275  185.1150  9 Note On         67, 100
  56284  185.1444  9 Note Off        44, 0
  56294  185.1775  9 Note Off        67, 0
  56314  185.2431  9 Note On         44, 100
  56333  185.3056  9 Note Off        44, 0
  56355  185.3781  9 Note On         44, 100
  56355  185.3781  9 Note On         38, 90
  56374  185.4406  9 Note Off        38, 0
  56374  185.4406  9 Note Off        44, 0
  56394  185.5062  9 Note On         46, 80
  56394  185.5062  9 Note On         67, 100
  56413  185.5687  9 Note Off        67, 0
  56413  185.5687  9 Note Off        46, 0
  56435  185.6413  9 Note On         44, 8
  56435  185.6413  9 Note On         38, 70
  56441  185.6606  9 Note Off        44, 0
  56454  185.7038  9 Note Off        38, 0
  56473  185.7663  9 Note On         36, 110
  56473  185.7663  9 Note On         44, 100
  56493  185.8319  9 Note Off        44, 0
  56493  185.8319  9 Note Off        36, 0
  56512  185.8944  9 Note On         44, 100
  56534  185.9669  9 Note Off        44, 0
  56553  186.0294  9 Note On         40, 110
  56553  186.0294  9 Note On         46, 80
  56553  186.0294  9 Note On         67, 100
  56573  186.0950  9 Note Off        67, 0
  56573  186.0950  9 Note Off        46, 0
  56573  186.0950  9 Note Off        40, 0
  56592  186.1575  9 Note On         44, 8
  56592  186.1575  9 Note On         35, 90
  56601  186.1875  9 Note Off        44, 0
  56614  186.2300  9 Note Off        35, 0
  56633  186.2925  9 Note On         46, 100
  56652  186.3550  9 Note Off        46, 0
  56672  186.4206  9 Note On         67, 100
  56693  186.4900  9 Note Off        67, 0
  56713  186.5556  9 Note On         36, 120
  56713  186.5556  9 Note On         44, 100
  56732  186.6181  9 Note Off        44, 0
  56732  186.6181  9 Note Off        36, 0
  56752  186.6838  9 Note On         36, 80
  56752  186.6838  9 Note On         44, 100
  56771  186.7463  9 Note Off        44, 0
  56771  186.7463  9 Note Off        36, 0
  56793  186.8187  9 Note On         44, 100
  56793  186.8187  9 Note On         67, 100
  56812  186.8812  9 Note Off        67, 0
  56812  186.8812  9 Note Off        44, 0
  56832  186.9469  9 Note On         36, 100
  56832  186.9469  9 Note On         44, 100
  56851  187.0094  9 Note Off        44, 0
  56851  187.0094  9 Note Off        36, 0
  56872  187.0788  9 Note On         40, 110
  56872  187.0788  9 Note On         46, 80
  56892  187.1444  9 Note Off        46, 0
  56892  187.1444  9 Note Off        40, 0
  56911  187.2069  9 Note On         44, 8
  56911  187.2069  9 Note On         67, 100
  56920  187.2363  9 Note Off        44, 0
  56931  187.2725  9 Note Off        67, 0
  56952  187.3419  9 Note On         44, 100
  56972  187.4075  9 Note Off        44, 0
  56991  187.4700  9 Note On         44, 100
  56991  187.4700  9 Note On         38, 100
  57011  187.5356  9 Note Off        38, 0
  57011  187.5356  9 Note Off        44, 0
  57030  187.5981  9 Note On         46, 80
  57030  187.5981  9 Note On         67, 100
  57052  187.6706  9 Note Off        67, 0
  57052  187.6706  9 Note Off        46, 0
  57071  187.7331  9 Note On         44, 8
  57071  187.7331  9 Note On         38, 70
  57080  187.7631  9 Note Off        44, 0
  57090  187.7956  9 Note Off        38, 0
  57110  187.8613  9 Note On         36, 110
  57110  187.8613  9 Note On         44, 100
  57131  187.9306  9 Note Off        44, 0
  57131  187.9306  9 Note Off        36, 0
  57151  187.9963  9 Note On         44, 100
  57170  188.0588  9 Note Off        44, 0
  57190  188.1250  9 Note On         40, 110
  57190  188.1250  9 Note On         46, 80
  57190  188.1250  9 Note On         67, 100
  57211  188.1937  9 Note Off        67, 0
  57211  188.1937  9 Note Off        46, 0
  57211  188.1937  9 Note Off        40, 0
  57231  188.2594  9 Note On         44, 8
  57231  188.2594  9 Note On         35, 90
  57239  188.2856  9 Note Off        44, 0
  57250  188.3219  9 Note Off        35, 0
  57269  188.3844  9 Note On         46, 100
  57289  188.4506  9 Note Off        46, 0
  57310  188.5194  9 Note On         67, 100
  57330  188.5850  9 Note Off        67, 0
  57349  188.6475  9 Note On         36, 120
  57349  188.6475  9 Note On         44, 100
  57369  188.7138  9 Note Off        44, 0
  57369  188.7138  9 Note Off        36, 0
  57390  188.7825  9 Note On         36, 80
  57390  188.7825  9 Note On         44, 100
  57410  188.8481  9 Note Off        44, 0
  57410  188.8481  9 Note Off        36, 0
  57429  188.9106  9 Note On         44, 100
  57429  188.9106  9 Note On         67, 100
  57448  188.9731  9 Note Off        67, 0
  57448  188.9731  9 Note Off        44, 0
  57470  189.0456  9 Note On         36, 100
  57470  189.0456  9 Note On         44, 100
  57489  189.1081  9 Note Off        44, 0
  57489  189.1081  9 Note Off        36, 0
  57509  189.1738  9 Note On         40, 110
  57509  189.1738  9 Note On         46, 80
  57528  189.2363  9 Note Off        46, 0
  57528  189.2363  9 Note Off        40, 0
  57548  189.3025  9 Note On         44, 8
  57548  189.3025  9 Note On         67, 100
  57556  189.3288  9 Note Off        44, 0
  57569  189.3713  9 Note Off        67, 0
  57589  189.4375  9 Note On         44, 100
  57608  189.5000  9 Note Off        44, 0
  57628  189.5656  9 Note On         44, 100
  57649  189.6344  9 Note Off        44, 0
  57669  189.7006  9 Note On         46, 80
  57669  189.7006  9 Note On         67, 100
  57688  189.7631  9 Note Off        67, 0
  57688  189.7631  9 Note Off        46, 0
  57707  189.8256  9 Note On         44, 8
  57716  189.8550  9 Note Off        44, 0
  57748  189.9600  9 Note On         36, 110
  57748  189.9600  9 Note On         44, 100
  57768  190.0263  9 Note Off        44, 0
  57768  190.0263  9 Note Off        36, 0
  57787  190.0888  9 Note On         44, 100
  57807  190.1544  9 Note Off        44, 0
  57828  190.2231  9 Note On         40, 110
  57828  190.2231  9 Note On         46, 80
  57828  190.2231  9 Note On         67, 100
  57848  190.2894  9 Note Off        67, 0
  57848  190.2894  9 Note Off        46, 0
  57848  190.2894  9 Note Off        40, 0
  57867  190.3519  9 Note On         44, 8
  57867  190.3519  9 Note On         35, 90
  57876  190.3812  9 Note Off        44, 0
  57886  190.4144  9 Note Off        35, 0
  57908  190.4863  9 Note On         46, 100
  57927  190.5488  9 Note Off        46, 0
  57947  190.6150  9 Note On         67, 100
  57966  190.6775  9 Note Off        67, 0
  57988  190.7500  9 Note On         36, 120
  57988  190.7500  9 Note On         44, 100
  58007  190.8125  9 Note Off        44, 0
  58007  190.8125  9 Note Off        36, 0
  58027  190.8781  9 Note On         36, 80
  58027  190.8781  9 Note On         44, 100
  58046  190.9406  9 Note Off        44, 0
  58046  190.9406  9 Note Off        36, 0
  58065  191.0031  9 Note On         44, 100
  58065  191.0031  9 Note On         67, 100
  58087  191.0756  9 Note Off        67, 0
  58087  191.0756  9 Note Off        44, 0
  58106  191.1381  9 Note On         36, 100
  58106  191.1381  9 Note On         44, 100
  58126  191.2038  9 Note Off        44, 0
  58126  191.2038  9 Note Off        36, 0
  58145  191.2663  9 Note On         40, 110
  58145  191.2663  9 Note On         46, 80
  58167  191.3388  9 Note Off        46, 0
  58167  191.3388  9 Note Off        40, 0
  58186  191.4013  9 Note On         44, 8
  58186  191.4013  9 Note On         67, 100
  58195  191.4306  9 Note Off        44, 0
  58206  191.4669  9 Note Off        67, 0
  58225  191.5294  9 Note On         44, 100
  58247  191.6019  9 Note Off        44, 0
  58266  191.6644  9 Note On         44, 100
  58286  191.7300  9 Note Off        44, 0
  58305  191.7925  9 Note On         46, 80
  58305  191.7925  9 Note On         67, 100
  58324  191.8550  9 Note Off        67, 0
  58324  191.8550  9 Note Off        46, 0
  58346  191.9275  9 Note On         44, 8
  58355  191.9569  9 Note Off        44, 0
  58385  192.0556  9 Note On         36, 110
  58385  192.0556  9 Note On         44, 100
  58404  192.1181  9 Note Off        44, 0
  58404  192.1181  9 Note Off        36, 0
  58426  192.1906  9 Note On         44, 100
  58445  192.2531  9 Note Off        44, 0
  58465  192.3187  9 Note On         40, 110
  58465  192.3187  9 Note On         46, 80
  58465  192.3187  9 Note On         67, 100
  58484  192.3812  9 Note Off        67, 0
  58484  192.3812  9 Note Off        46, 0
  58484  192.3812  9 Note Off        40, 0
  58506  192.4538  9 Note On         44, 8
  58506  192.4538  9 Note On         35, 90
  58512  192.4731  9 Note Off        44, 0
  58525  192.5163  9 Note Off        35, 0
  58544  192.5788  9 Note On         46, 100
  58564  192.6444  9 Note Off        46, 0
  58583  192.7069  9 Note On         67, 100
  58605  192.7794  9 Note Off        67, 0
  58624  192.8419  9 Note On         36, 120
  58624  192.8419  9 Note On         44, 100
  58644  192.9075  9 Note Off        44, 0
  58644  192.9075  9 Note Off        36, 0
  58663  192.9700  9 Note On         36, 80
  58663  192.9700  9 Note On         44, 100
  58685  193.0425  9 Note Off        44, 0
  58685  193.0425  9 Note Off        36, 0
  58704  193.1050  9 Note On         44, 100
  58704  193.1050  9 Note On         67, 100
  58723  193.1675  9 Note Off        67, 0
  58723  193.1675  9 Note Off        44, 0
  58743  193.2331  9 Note On         36, 100
  58743  193.2331  9 Note On         44, 100
  58764  193.3025  9 Note Off        44, 0
  58764  193.3025  9 Note Off        36, 0
  58784  193.3681  9 Note On         40, 110
  58784  193.3681  9 Note On         46, 80
  58803  193.4306  9 Note Off        46, 0
  58803  193.4306  9 Note Off        40, 0
  58823  193.4963  9 Note On         44, 8
  58823  193.4963  9 Note On         67, 100
  58831  193.5225  9 Note Off        44, 0
  58842  193.5588  9 Note Off        67, 0
  58864  193.6312  9 Note On         44, 100
  58883  193.6937  9 Note Off        44, 0
  58903  193.7594  9 Note On         44, 100
  58922  193.8219  9 Note Off        44, 0
  58944  193.8944  9 Note On         46, 80
  58944  193.8944  9 Note On         67, 100
  58963  193.9569  9 Note Off        67, 0
  58963  193.9569  9 Note Off        46, 0
  58982  194.0194  9 Note On         44, 8
  58991  194.0488  9 Note Off        44, 0
  59023  194.1544  9 Note On         36, 110
  59023  194.1544  9 Note On         44, 100
  59043  194.2200  9 Note Off        44, 0
  59043  194.2200  9 Note Off        36, 0
  59062  194.2825  9 Note On         44, 100
  59082  194.3481  9 Note Off        44, 0
  59101  194.4106  9 Note On         40, 110
  59101  194.4106  9 Note On         46, 80
  59101  194.4106  9 Note On         67, 100
  59123  194.4831  9 Note Off        67, 0
  59123  194.4831  9 Note Off        46, 0
  59123  194.4831  9 Note Off        40, 0
  59142  194.5456  9 Note On         44, 8
  59142  194.5456  9 Note On         35, 90
  59151  194.5756  9 Note Off        44, 0
  59161  194.6081  9 Note Off        35, 0
  59181  194.6738  9 Note On         46, 100
  59202  194.7431  9 Note Off        46, 0
  59222  194.8088  9 Note On         67, 100
  59241  194.8713  9 Note Off        67, 0
  59261  194.9375  9 Note On         36, 120
  59261  194.9375  9 Note On         44, 100
  59282  195.0062  9 Note Off        44, 0
  59282  195.0062  9 Note Off        36, 0
  59302  195.0719  9 Note On         36, 80
  59302  195.0719  9 Note On         44, 100
  59321  195.1344  9 Note Off        44, 0
  59321  195.1344  9 Note Off        36, 0
  59340  195.1969  9 Note On         44, 100
  59340  195.1969  9 Note On         67, 100
  59360  195.2631  9 Note Off        67, 0
  59360  195.2631  9 Note Off        44, 0
  59381  195.3319  9 Note On         36, 100
  59381  195.3319  9 Note On         44, 100
  59401  195.3975  9 Note Off        44, 0
  59401  195.3975  9 Note Off        36, 0
  59420  195.4600  9 Note On         40, 110
  59420  195.4600  9 Note On         46, 80
  59440  195.5263  9 Note Off        46, 0
  59440  195.5263  9 Note Off        40, 0
  59461  195.5950  9 Note On         44, 8
  59461  195.5950  9 Note On         67, 100
  59468  195.6181  9 Note Off        44, 0
  59481  195.6606  9 Note Off        67, 0
  59500  195.7231  9 Note On         44, 100
  59520  195.7894  9 Note Off        44, 0
  59541  195.8581  9 Note On         44, 100
  59560  195.9206  9 Note Off        44, 0
  59580  195.9863  9 Note On         46, 80
  59580  195.9863  9 Note On         67, 100
  59599  196.0488  9 Note Off        67, 0
  59599  196.0488  9 Note Off        46, 0
  59619  196.1150  9 Note On         44, 8
  59627  196.1413  9 Note Off        44, 0
  59660  196.2500  9 Note On         36, 110
  59660  196.2500  9 Note On         44, 100
  59679  196.3125  9 Note Off        44, 0
  59679  196.3125  9 Note Off        36, 0
  59699  196.3781  9 Note On         44, 100
  59720  196.4469  9 Note Off        44, 0
  59740  196.5131  9 Note On         40, 110
  59740  196.5131  9 Note On         46, 80
  59740  196.5131  9 Note On         67, 100
  59759  196.5756  9 Note Off        67, 0
  59759  196.5756  9 Note Off        46, 0
  59759  196.5756  9 Note Off        40, 0
  59778  196.6381  9 Note On         44, 8
  59778  196.6381  9 Note On         35, 90
  59787  196.6675  9 Note Off        44, 0
  59800  196.7100  9 Note Off        35, 0
  59819  196.7725  9 Note On         46, 100
  59839  196.8388  9 Note Off        46, 0
  59858  196.9013  9 Note On         67, 100
  59878  196.9669  9 Note Off        67, 0
  59899  197.0356  9 Note On         36, 120
  59899  197.0356  9 Note On         44, 100
  59919  197.1019  9 Note Off        44, 0
  59919  197.1019  9 Note Off        36, 0
  59938  197.1644  9 Note On         36, 80
  59938  197.1644  9 Note On         44, 100
  59957  197.2269  9 Note Off        44, 0
  59957  197.2269  9 Note Off        36, 0
  59979  197.2988  9 Note On         44, 100
  59979  197.2988  9 Note On         67, 100
  59998  197.3613  9 Note Off        67, 0
  59998  197.3613  9 Note Off        44, 0
  60018  197.4275  9 Note On         36, 100
  60018  197.4275  9 Note On         44, 100
  60037  197.4900  9 Note Off        44, 0
  60037  197.4900  9 Note Off        36, 0
  60059  197.5625  9 Note On         40, 110
  60059  197.5625  9 Note On         46, 80
  60078  197.6250  9 Note Off        46, 0
  60078  197.6250  9 Note Off        40, 0
  60098  197.6906  9 Note On         44, 8
  60098  197.6906  9 Note On         67, 100
  60106  197.7169  9 Note Off        44, 0
  60117  197.7531  9 Note Off        67, 0
  60136  197.8156  9 Note On         44, 100
  60158  197.8881  9 Note Off        44, 0
  60177  197.9506  9 Note On         44, 100
  60197  198.0163  9 Note Off        44, 0
  60216  198.0788  9 Note On         46, 80
  60216  198.0788  9 Note On         67, 100
  60238  198.1513  9 Note Off        67, 0
  60238  198.1513  9 Note Off        46, 0
  60257  198.2138  9 Note On         44, 8
  60266  198.2431  9 Note Off        44, 0
  60296  198.3419  9 Note On         36, 110
  60296  198.3419  9 Note On         44, 100
  60318  198.4144  9 Note Off        44, 0
  60318  198.4144  9 Note Off        36, 0
  60337  198.4769  9 Note On         44, 100
  60357  198.5425  9 Note Off        44, 0
  60376  198.6050  9 Note On         40, 110
  60376  198.6050  9 Note On         46, 80
  60376  198.6050  9 Note On         67, 100
  60395  198.6675  9 Note Off        67, 0
  60395  198.6675  9 Note Off        46, 0
  60395  198.6675  9 Note Off        40, 0
  60417  198.7400  9 Note On         44, 8
  60417  198.7400  9 Note On         35, 90
  60426  198.7694  9 Note Off        44, 0
  60436  198.8025  9 Note Off        35, 0
  60456  198.8681  9 Note On         46, 100
  60475  198.9306  9 Note Off        46, 0
  60497  199.0031  9 Note On         67, 100
  60516  199.0656  9 Note Off        67, 0
  60536  199.1312  9 Note On         36, 120
  60536  199.1312  9 Note On         44, 100
  60555  199.1937  9 Note Off        44, 0
  60555  199.1937  9 Note Off        36, 0
  60577  199.2663  9 Note On         36, 80
  60577  199.2663  9 Note On         44, 100
  60596  199.3288  9 Note Off        44, 0
  60596  199.3288  9 Note Off        36, 0
  60615  199.3913  9 Note On         44, 100
  60615  199.3913  9 Note On         67, 100
  60635  199.4569  9 Note Off        67, 0
  60635  199.4569  9 Note Off        44, 0
  60654  199.5194  9 Note On         36, 100
  60654  199.5194  9 Note On         44, 100
  60676  199.5919  9 Note Off        44, 0
  60676  199.5919  9 Note Off        36, 0
  60695  199.6544  9 Note On         40, 110
  60695  199.6544  9 Note On         46, 80
  60715  199.7200  9 Note Off        46, 0
  60715  199.7200  9 Note Off        40, 0
  60734  199.7825  9 Note On         44, 8
  60734  199.7825  9 Note On         67, 100
  60743  199.8125  9 Note Off        44, 0
  60756  199.8550  9 Note Off        67, 0
  60775  199.9175  9 Note On         44, 100
  60794  199.9800  9 Note Off        44, 0
  60814  200.0456  9 Note On         44, 100
  60835  200.1150  9 Note Off        44, 0
  60855  200.1806  9 Note On         46, 80
  60855  200.1806  9 Note On         67, 100
  60874  200.2431  9 Note Off        67, 0
  60874  200.2431  9 Note Off        46, 0
  60894  200.3088  9 Note On         44, 8
  60902  200.3350  9 Note Off        44, 0
  60935  200.4437  9 Note On         36, 110
  60935  200.4437  9 Note On         44, 100
  60954  200.5062  9 Note Off        44, 0
  60954  200.5062  9 Note Off        36, 0
  60974  200.5719  9 Note On         44, 100
  60993  200.6344  9 Note Off        44, 0
  61015  200.7069  9 Note On         40, 110
  61015  200.7069  9 Note On         46, 80
  61015  200.7069  9 Note On         67, 100
  61034  200.7694  9 Note Off        67, 0
  61034  200.7694  9 Note Off        46, 0
  61034  200.7694  9 Note Off        40, 0
  61053  200.8319  9 Note On         44, 8
  61053  200.8319  9 Note On         35, 90
  61062  200.8613  9 Note Off        44, 0
  61073  200.8975  9 Note Off        35, 0
  61094  200.9669  9 Note On         46, 100
  61114  201.0325  9 Note Off        46, 0
  61133  201.0950  9 Note On         67, 100
  61153  201.1606  9 Note Off        67, 0
  61172  201.2231  9 Note On         36, 120
  61172  201.2231  9 Note On         44, 100
  61194  201.2956  9 Note Off        44, 0
  61194  201.2956  9 Note Off        36, 0
  61213  201.3581  9 Note On         36, 80
  61213  201.3581  9 Note On         44, 100
  61232  201.4206  9 Note Off        44, 0
  61232  201.4206  9 Note Off        36, 0
  61252  201.4863  9 Note On         44, 100
  61252  201.4863  9 Note On         67, 100
  61273  201.5556  9 Note Off        67, 0
  61273  201.5556  9 Note Off        44, 0
  61293  201.6213  9 Note On         36, 100
  61293  201.6213  9 Note On         44, 100
  61312  201.6838  9 Note Off        44, 0
  61312  201.6838  9 Note Off        36, 0
  61332  201.7500  9 Note On         40, 110
  61332  201.7500  9 Note On         46, 80
  61353  201.8187  9 Note Off        46, 0
  61353  201.8187  9 Note Off        40, 0
  61373  201.8844  9 Note On         44, 8
  61373  201.8844  9 Note On         67, 100
  61381  201.9106  9 Note Off        44, 0
  61392  201.9469  9 Note Off        67, 0
  61411  202.0094  9 Note On         44, 100
  61431  202.0756  9 Note Off        44, 0
  61452  202.1444  9 Note On         44, 100
  61472  202.2100  9 Note Off        44, 0
  61491  202.2725  9 Note On         46, 80
  61491  202.2725  9 Note On         67, 100
  61511  202.3388  9 Note Off        67, 0
  61511  202.3388  9 Note Off        46, 0
  61532  202.4075  9 Note On         44, 8
  61539  202.4306  9 Note Off        44, 0
  61571  202.5356  9 Note On         36, 110
  61571  202.5356  9 Note On         44, 100
  61591  202.6019  9 Note Off        44, 0
  61591  202.6019  9 Note Off        36, 0
  61612  202.6706  9 Note On         44, 100
  61632  202.7363  9 Note Off        44, 0
  61651  202.7988  9 Note On         40, 110
  61651  202.7988  9 Note On         46, 80
  61651  202.7988  9 Note On         67, 100
  61670  202.8613  9 Note Off        67, 0
  61670  202.8613  9 Note Off        46, 0
  61670  202.8613  9 Note Off        40, 0
  61690  202.9275  9 Note On         44, 8
  61690  202.9275  9 Note On         35, 90
  61698  202.9538  9 Note Off        44, 0
  61711  202.9963  9 Note Off        35, 0
  61731  203.0625  9 Note On         46, 100
  61750  203.1250  9 Note Off        46, 0
  61770  203.1906  9 Note On         67, 100
  61791  203.2594  9 Note Off        67, 0
  62447  205.4175  9 Note On         57, 100
  62447  205.4175  9 Note On         44, 100
  62447  205.4175  9 Note On         35, 100
  62466  205.4800  9 Note Off        35, 0
  62466  205.4800  9 Note Off        44, 0
  62466  205.4800  9 Note Off        57, 0
  62527  205.6806  9 Note On         44, 80
  62546  205.7431  9 Note Off        44, 0
  62607  205.9437  9 Note On         40, 110
  62607  205.9437  9 Note On         44, 100
  62626  206.0062  9 Note Off        44, 0
  62626  206.0062  9 Note Off        40, 0
  62686  206.2038  9 Note On         44, 80
  62706  206.2694  9 Note Off        44, 0
  62725  206.3319  9 Note On         38, 100
  62747  206.4044  9 Note Off        38, 0
  62766  206.4669  9 Note On         44, 100
  62786  206.5325  9 Note Off        44, 0
  62805  206.5950  9 Note On         35, 100
  62827  206.6675  9 Note Off        35, 0
  62846  206.7300  9 Note On         35, 80
  62846  206.7300  9 Note On         44, 80
  62865  206.7925  9 Note Off        44, 0
  62865  206.7925  9 Note Off        35, 0
  62926  206.9931  9 Note On         40, 110
  62926  206.9931  9 Note On         44, 100
  62945  207.0556  9 Note Off        44, 0
  62945  207.0556  9 Note Off        40, 0
  63006  207.2562  9 Note On         35, 100
  63006  207.2562  9 Note On         44, 80
  63025  207.3187  9 Note Off        44, 0
  63025  207.3187  9 Note Off        35, 0
  63086  207.5194  9 Note On         35, 100
  63086  207.5194  9 Note On         44, 100
  63105  207.5819  9 Note Off        44, 0
  63105  207.5819  9 Note Off        35, 0
  63165  207.7794  9 Note On         44, 80
  63185  207.8450  9 Note Off        44, 0
  63243  208.0356  9 Note On         40, 110
  63243  208.0356  9 Note On         44, 100
  63265  208.1081  9 Note Off        44, 0
  63265  208.1081  9 Note Off        40, 0
  63323  208.2988  9 Note On         44, 80
  63344  208.3681  9 Note Off        44, 0
  63364  208.4338  9 Note On         38, 100
  63383  208.4963  9 Note Off        38, 0
  63403  208.5619  9 Note On         44, 100
  63424  208.6312  9 Note Off        44, 0
  63444  208.6969  9 Note On         35, 100
  63463  208.7594  9 Note Off        35, 0
  63482  208.8219  9 Note On         35, 80
  63482  208.8219  9 Note On         44, 80
  63502  208.8881  9 Note Off        44, 0
  63502  208.8881  9 Note Off        35, 0
  63562  209.0850  9 Note On         40, 110
  63562  209.0850  9 Note On         44, 100
  63582  209.1513  9 Note Off        44, 0
  63582  209.1513  9 Note Off        40, 0
  63642  209.3481  9 Note On         44, 80
  63662  209.4144  9 Note Off        44, 0
  63722  209.6113  9 Note On         57, 100
  63722  209.6113  9 Note On         44, 100
  63722  209.6113  9 Note On         35, 100
  63741  209.6738  9 Note Off        35, 0
  63741  209.6738  9 Note Off        44, 0
  63741  209.6738  9 Note Off        57, 0
  63802  209.8744  9 Note On         44, 80
  63821  209.9369  9 Note Off        44, 0
  63882  210.1381  9 Note On         40, 110
  63882  210.1381  9 Note On         44, 100
  63901  210.2006  9 Note Off        44, 0
  63901  210.2006  9 Note Off        40, 0
  63961  210.3975  9 Note On         44, 80
  63981  210.4638  9 Note Off        44, 0
  64000  210.5263  9 Note On         38, 100
  64020  210.5919  9 Note Off        38, 0
  64041  210.6606  9 Note On         44, 100
  64061  210.7269  9 Note Off        44, 0
  64080  210.7894  9 Note On         35, 100
  64099  210.8519  9 Note Off        35, 0
  64121  210.9238  9 Note On         35, 80
  64121  210.9238  9 Note On         44, 80
  64140  210.9863  9 Note Off        44, 0
  64140  210.9863  9 Note Off        35, 0
  64201  211.1869  9 Note On         40, 110
  64201  211.1869  9 Note On         44, 100
  64220  211.2494  9 Note Off        44, 0
  64220  211.2494  9 Note Off        40, 0
  64240  211.3156  9 Note On         35, 100
  64259  211.3781  9 Note Off        35, 0
  64279  211.4437  9 Note On         44, 80
  64300  211.5131  9 Note Off        44, 0
  64358  211.7038  9 Note On         35, 100
  64358  211.7038  9 Note On         44, 100
  64380  211.7763  9 Note Off        44, 0
  64380  211.7763  9 Note Off        35, 0
  64438  211.9669  9 Note On         44, 80
  64460  212.0394  9 Note Off        44, 0
  64518  212.2300  9 Note On         40, 110
  64518  212.2300  9 Note On         44, 100
  64537  212.2925  9 Note Off        44, 0
  64537  212.2925  9 Note Off        40, 0
  64598  212.4931  9 Note On         44, 80
  64617  212.5556  9 Note Off        44, 0
  64639  212.6281  9 Note On         38, 100
  64658  212.6906  9 Note Off        38, 0
  64678  212.7562  9 Note On         44, 100
  64697  212.8187  9 Note Off        44, 0
  64719  212.8913  9 Note On         35, 100
  64738  212.9538  9 Note Off        35, 0
  64757  213.0163  9 Note On         35, 80
  64757  213.0163  9 Note On         44, 80
  64777  213.0819  9 Note Off        44, 0
  64777  213.0819  9 Note Off        35, 0
  64837  213.2794  9 Note On         40, 110
  64837  213.2794  9 Note On         44, 100
  64857  213.3450  9 Note Off        44, 0
  64857  213.3450  9 Note Off        40, 0
  64876  213.4075  9 Note On         40, 100
  64898  213.4800  9 Note Off        40, 0
  64917  213.5425  9 Note On         44, 80
  64917  213.5425  9 Note On         35, 100
  64936  213.6050  9 Note Off        35, 0
  64936  213.6050  9 Note Off        44, 0
  64997  213.8056  9 Note On         57, 100
  64997  213.8056  9 Note On         44, 100
  64997  213.8056  9 Note On         35, 100
  65016  213.8681  9 Note Off        35, 0
  65016  213.8681  9 Note Off        44, 0
  65016  213.8681  9 Note Off        57, 0
  65077  214.0687  9 Note On         44, 80
  65096  214.1312  9 Note Off        44, 0
  65157  214.3319  9 Note On         40, 110
  65157  214.3319  9 Note On         44, 100
  65176  214.3944  9 Note Off        44, 0
  65176  214.3944  9 Note Off        40, 0
  65236  214.5919  9 Note On         44, 80
  65256  214.6575  9 Note Off        44, 0
  65275  214.7200  9 Note On         38, 100
  65295  214.7856  9 Note Off        38, 0
  65314  214.8481  9 Note On         44, 100
  65336  214.9206  9 Note Off        44, 0
  65355  214.9831  9 Note On         35, 100
  65374  215.0456  9 Note Off        35, 0
  65394  215.1113  9 Note On         35, 80
  65394  215.1113  9 Note On         44, 80
  65415  215.1806  9 Note Off        44, 0
  65415  215.1806  9 Note Off        35, 0
  65474  215.3744  9 Note On         40, 110
  65474  215.3744  9 Note On         44, 100
  65495  215.4437  9 Note Off        44, 0
  65495  215.4437  9 Note Off        40, 0
  65553  215.6344  9 Note On         35, 100
  65553  215.6344  9 Note On         44, 80
  65573  215.7006  9 Note Off        44, 0
  65573  215.7006  9 Note Off        35, 0
  65633  215.8975  9 Note On         35, 100
  65633  215.8975  9 Note On         44, 100
  65653  215.9638  9 Note Off        44, 0
  65653  215.9638  9 Note Off        35, 0
  65713  216.1606  9 Note On         44, 80
  65733  216.2269  9 Note Off        44, 0
  65793  216.4238  9 Note On         40, 110
  65793  216.4238  9 Note On         44, 100
  65812  216.4863  9 Note Off        44, 0
  65812  216.4863  9 Note Off        40, 0
  65873  216.6869  9 Note On         44, 80
  65892  216.7494  9 Note Off        44, 0
  65912  216.8156  9 Note On         38, 100
  65933  216.8844  9 Note Off        38, 0
  65953  216.9506  9 Note On         44, 100
  65972  217.0131  9 Note Off        44, 0
  65991  217.0756  9 Note On         35, 100
  66013  217.1475  9 Note Off        35, 0
  66032  217.2100  9 Note On         35, 80
  66032  217.2100  9 Note On         44, 80
  66052  217.2763  9 Note Off        44, 0
  66052  217.2763  9 Note Off        35, 0
  66112  217.4731  9 Note On         40, 110
  66112  217.4731  9 Note On         44, 100
  66132  217.5394  9 Note Off        44, 0
  66132  217.5394  9 Note Off        40, 0
  66192  217.7363  9 Note On         44, 80
  66211  217.7988  9 Note Off        44, 0
  66272  217.9994  9 Note On         57, 100
  66272  217.9994  9 Note On         44, 100
  66272  217.9994  9 Note On         35, 100
  66291  218.0619  9 Note Off        35, 0
  66291  218.0619  9 Note Off        44, 0
  66291  218.0619  9 Note Off        57, 0
  66350  218.2562  9 Note On         44, 80
  66371  218.3256  9 Note Off        44, 0
  66429  218.5163  9 Note On         40, 110
  66429  218.5163  9 Note On         44, 100
  66451  218.5888  9 Note Off        44, 0
  66451  218.5888  9 Note Off        40, 0
  66509  218.7794  9 Note On         44, 80
  66531  218.8519  9 Note Off        44, 0
  66550  218.9144  9 Note On         38, 100
  66570  218.9800  9 Note Off        38, 0
  66589  219.0425  9 Note On         44, 100
  66608  219.1050  9 Note Off        44, 0
  66630  219.1775  9 Note On         35, 100
  66649  219.2400  9 Note Off        35, 0
  66669  219.3056  9 Note On         35, 80
  66669  219.3056  9 Note On         44, 80
  66688  219.3681  9 Note Off        44, 0
  66688  219.3681  9 Note Off        35, 0
  66749  219.5687  9 Note On         40, 110
  66749  219.5687  9 Note On         44, 100
  66768  219.6312  9 Note Off        44, 0
  66768  219.6312  9 Note Off        40, 0
  66790  219.7038  9 Note On         35, 100
  66809  219.7663  9 Note Off        35, 0
  66828  219.8288  9 Note On         44, 80
  66848  219.8944  9 Note Off        44, 0
  66908  220.0919  9 Note On         35, 100
  66908  220.0919  9 Note On         44, 100
  66928  220.1575  9 Note Off        44, 0
  66928  220.1575  9 Note Off        35, 0
  66988  220.3550  9 Note On         44, 80
  67008  220.4206  9 Note Off        44, 0
  67068  220.6181  9 Note On         40, 110
  67087  220.6806  9 Note Off        40, 0
  67148  220.8812  9 Note On         40, 110
  67167  220.9437  9 Note Off        40, 0
  67189  221.0163  9 Note On         40, 90
  67208  221.0788  9 Note Off        40, 0
  67228  221.1444  9 Note On         40, 110
  67247  221.2069  9 Note Off        40, 0
  67269  221.2794  9 Note On         40, 90
  67288  221.3419  9 Note Off        40, 0
  67307  221.4044  9 Note On         35, 100
  67327  221.4700  9 Note Off        35, 0
  67545  222.1869  9 Note On         36, 120
  67545  222.1869  9 Note On         57, 100
  67545  222.1869  9 Note On         44, 100
  67566  222.2562  9 Note Off        44, 0
  67566  222.2562  9 Note Off        57, 0
  67566  222.2562  9 Note Off        36, 0
  67586  222.3219  9 Note On         36, 80
  67586  222.3219  9 Note On         44, 100
  67605  222.3844  9 Note Off        44, 0
  67605  222.3844  9 Note Off        36, 0
  67624  222.4469  9 Note On         44, 100
  67624  222.4469  9 Note On         67, 100
  67644  222.5131  9 Note Off        67, 0
  67644  222.5131  9 Note Off        44, 0
  67665  222.5819  9 Note On         36, 100
  67665  222.5819  9 Note On         44, 100
  67685  222.6475  9 Note Off        44, 0
  67685  222.6475  9 Note Off        36, 0
  67704  222.7100  9 Note On         40, 110
  67704  222.7100  9 Note On         46, 80
  67724  222.7763  9 Note Off        46, 0
  67724  222.7763  9 Note Off        40, 0
  67745  222.8450  9 Note On         44, 8
  67745  222.8450  9 Note On         67, 100
  67752  222.8681  9 Note Off        44, 0
  67765  222.9106  9 Note Off        67, 0
  67784  222.9731  9 Note On         44, 100
  67804  223.0394  9 Note Off        44, 0
  67825  223.1081  9 Note On         38, 100
  67825  223.1081  9 Note On         44, 100
  67845  223.1738  9 Note Off        44, 0
  67845  223.1738  9 Note Off        38, 0
  67864  223.2363  9 Note On         67, 100
  67864  223.2363  9 Note On         46, 80
  67883  223.2988  9 Note Off        46, 0
  67883  223.2988  9 Note Off        67, 0
  67903  223.3650  9 Note On         44, 8
  67911  223.3913  9 Note Off        44, 0
  67944  223.4994  9 Note On         36, 110
  67944  223.4994  9 Note On         44, 100
  67963  223.5619  9 Note Off        44, 0
  67963  223.5619  9 Note Off        36, 0
  67983  223.6281  9 Note On         44, 100
  68004  223.6969  9 Note Off        44, 0
  68024  223.7631  9 Note On         40, 110
  68024  223.7631  9 Note On         67, 100
  68024  223.7631  9 Note On         46, 80
  68043  223.8256  9 Note Off        46, 0
  68043  223.8256  9 Note Off        67, 0
  68043  223.8256  9 Note Off        40, 0
  68062  223.8881  9 Note On         44, 8
  68062  223.8881  9 Note On         35, 90
  68071  223.9175  9 Note Off        44, 0
  68084  223.9600  9 Note Off        35, 0
  68103  224.0225  9 Note On         46, 100
  68123  224.0888  9 Note Off        46, 0
  68142  224.1513  9 Note On         67, 100
  68162  224.2169  9 Note Off        67, 0
  68183  224.2856  9 Note On         36, 120
  68183  224.2856  9 Note On         44, 100
  68203  224.3519  9 Note Off        44, 0
  68203  224.3519  9 Note Off        36, 0
  68222  224.4144  9 Note On         36, 80
  68222  224.4144  9 Note On         44, 100
  68241  224.4769  9 Note Off        44, 0
  68241  224.4769  9 Note Off        36, 0
  68263  224.5488  9 Note On         44, 100
  68263  224.5488  9 Note On         67, 100
  68282  224.6113  9 Note Off        67, 0
  68282  224.6113  9 Note Off        44, 0
  68302  224.6775  9 Note On         36, 100
  68302  224.6775  9 Note On         44, 100
  68321  224.7400  9 Note Off        44, 0
  68321  224.7400  9 Note Off        36, 0
  68343  224.8119  9 Note On         40, 110
  68343  224.8119  9 Note On         46, 80
  68362  224.8744  9 Note Off        46, 0
  68362  224.8744  9 Note Off        40, 0
  68382  224.9406  9 Note On         44, 8
  68382  224.9406  9 Note On         67, 100
  68390  224.9669  9 Note Off        44, 0
  68401  225.0031  9 Note Off        67, 0
  68421  225.0687  9 Note On         44, 100
  68442  225.1381  9 Note Off        44, 0
  68462  225.2038  9 Note On         38, 90
  68462  225.2038  9 Note On         44, 100
  68481  225.2663  9 Note Off        44, 0
  68481  225.2663  9 Note Off        38, 0
  68500  225.3288  9 Note On         67, 100
  68500  225.3288  9 Note On         46, 80
  68522  225.4013  9 Note Off        46, 0
  68522  225.4013  9 Note Off        67, 0
  68541  225.4638  9 Note On         44, 8
  68550  225.4931  9 Note Off        44, 0
  68580  225.5919  9 Note On         36, 110
  68580  225.5919  9 Note On         44, 100
  68602  225.6644  9 Note Off        44, 0
  68602  225.6644  9 Note Off        36, 0
  68621  225.7269  9 Note On         44, 100
  68641  225.7925  9 Note Off        44, 0
  68660  225.8550  9 Note On         40, 110
  68660  225.8550  9 Note On         67, 100
  68660  225.8550  9 Note On         46, 80
  68679  225.9175  9 Note Off        46, 0
  68679  225.9175  9 Note Off        67, 0
  68679  225.9175  9 Note Off        40, 0
  68701  225.9900  9 Note On         44, 8
  68701  225.9900  9 Note On         35, 90
  68710  226.0194  9 Note Off        44, 0
  68720  226.0525  9 Note Off        35, 0
  68740  226.1181  9 Note On         46, 100
  68759  226.1806  9 Note Off        46, 0
  68781  226.2531  9 Note On         67, 100
  68800  226.3156  9 Note Off        67, 0
  68820  226.3812  9 Note On         36, 120
  68820  226.3812  9 Note On         44, 100
  68839  226.4437  9 Note Off        44, 0
  68839  226.4437  9 Note Off        36, 0
  68861  226.5163  9 Note On         36, 80
  68861  226.5163  9 Note On         44, 100
  68880  226.5788  9 Note Off        44, 0
  68880  226.5788  9 Note Off        36, 0
  68899  226.6413  9 Note On         44, 100
  68899  226.6413  9 Note On         67, 100
  68919  226.7069  9 Note Off        67, 0
  68919  226.7069  9 Note Off        44, 0
  68938  226.7694  9 Note On         36, 100
  68938  226.7694  9 Note On         44, 100
  68960  226.8419  9 Note Off        44, 0
  68960  226.8419  9 Note Off        36, 0
  68979  226.9044  9 Note On         40, 110
  68979  226.9044  9 Note On         46, 80
  68999  226.9700  9 Note Off        46, 0
  68999  226.9700  9 Note Off        40, 0
  69018  227.0325  9 Note On         44, 8
  69018  227.0325  9 Note On         67, 100
  69027  227.0619  9 Note Off        44, 0
  69040  227.1050  9 Note Off        67, 0
  69059  227.1675  9 Note On         44, 100
  69079  227.2331  9 Note Off        44, 0
  69098  227.2956  9 Note On         38, 100
  69098  227.2956  9 Note On         44, 100
  69120  227.3681  9 Note Off        44, 0
  69120  227.3681  9 Note Off        38, 0
  69139  227.4306  9 Note On         67, 100
  69139  227.4306  9 Note On         46, 80
  69158  227.4931  9 Note Off        46, 0
  69158  227.4931  9 Note Off        67, 0
  69178  227.5588  9 Note On         44, 8
  69186  227.5850  9 Note Off        44, 0
  69219  227.6937  9 Note On         36, 110
  69219  227.6937  9 Note On         44, 100
  69238  227.7562  9 Note Off        44, 0
  69238  227.7562  9 Note Off        36, 0
  69258  227.8219  9 Note On         44, 100
  69277  227.8844  9 Note Off        44, 0
  69299  227.9569  9 Note On         40, 110
  69299  227.9569  9 Note On         67, 100
  69299  227.9569  9 Note On         46, 80
  69318  228.0194  9 Note Off        46, 0
  69318  228.0194  9 Note Off        67, 0
  69318  228.0194  9 Note Off        40, 0
  69337  228.0819  9 Note On         44, 8
  69337  228.0819  9 Note On         35, 90
  69346  228.1113  9 Note Off        44, 0
  69357  228.1475  9 Note Off        35, 0
  69378  228.2169  9 Note On         46, 100
  69398  228.2825  9 Note Off        46, 0
  69417  228.3450  9 Note On         67, 100
  69437  228.4106  9 Note Off        67, 0
  69456  228.4731  9 Note On         36, 120
  69456  228.4731  9 Note On         44, 100
  69478  228.5456  9 Note Off        44, 0
  69478  228.5456  9 Note Off        36, 0
  69497  228.6081  9 Note On         36, 80
  69497  228.6081  9 Note On         44, 100
  69516  228.6706  9 Note Off        44, 0
  69516  228.6706  9 Note Off        36, 0
  69536  228.7363  9 Note On         44, 100
  69536  228.7363  9 Note On         67, 100
  69557  228.8056  9 Note Off        67, 0
  69557  228.8056  9 Note Off        44, 0
  69577  228.8713  9 Note On         36, 100
  69577  228.8713  9 Note On         44, 100
  69596  228.9338  9 Note Off        44, 0
  69596  228.9338  9 Note Off        36, 0
  69616  228.9994  9 Note On         40, 110
  69616  228.9994  9 Note On         46, 80
  69637  229.0687  9 Note Off        46, 0
  69637  229.0687  9 Note Off        40, 0
  69657  229.1344  9 Note On         44, 8
  69657  229.1344  9 Note On         67, 100
  69665  229.1606  9 Note Off        44, 0
  69676  229.1969  9 Note Off        67, 0
  69696  229.2631  9 Note On         44, 100
  69715  229.3256  9 Note Off        44, 0
  69736  229.3944  9 Note On         38, 90
  69736  229.3944  9 Note On         44, 100
  69756  229.4600  9 Note Off        44, 0
  69756  229.4600  9 Note Off        38, 0
  69775  229.5225  9 Note On         67, 100
  69775  229.5225  9 Note On         46, 80
  69795  229.5888  9 Note Off        46, 0
  69795  229.5888  9 Note Off        67, 0
  69816  229.6575  9 Note On         44, 8
  69823  229.6806  9 Note Off        44, 0
  69855  229.7856  9 Note On         36, 110
  69855  229.7856  9 Note On         44, 100
  69875  229.8519  9 Note Off        44, 0
  69875  229.8519  9 Note Off        36, 0
  69896  229.9206  9 Note On         44, 100
  69916  229.9863  9 Note Off        44, 0
  69935  230.0488  9 Note On         40, 110
  69935  230.0488  9 Note On         67, 100
  69935  230.0488  9 Note On         46, 80
  69954  230.1113  9 Note Off        46, 0
  69954  230.1113  9 Note Off        67, 0
  69954  230.1113  9 Note Off        40, 0
  69974  230.1775  9 Note On         44, 8
  69974  230.1775  9 Note On         35, 90
  69982  230.2038  9 Note Off        44, 0
  69995  230.2463  9 Note Off        35, 0
  70015  230.3119  9 Note On         46, 100
  70034  230.3744  9 Note Off        46, 0
  70054  230.4406  9 Note On         67, 100
  70075  230.5094  9 Note Off        67, 0
  70095  230.5750  9 Note On         36, 120
  70095  230.5750  9 Note On         44, 100
  70114  230.6375  9 Note Off        44, 0
  70114  230.6375  9 Note Off        36, 0
  70133  230.7000  9 Note On         36, 80
  70133  230.7000  9 Note On         44, 100
  70155  230.7725  9 Note Off        44, 0
  70155  230.7725  9 Note Off        36, 0
  70174  230.8350  9 Note On         44, 100
  70174  230.8350  9 Note On         67, 100
  70194  230.9013  9 Note Off        67, 0
  70194  230.9013  9 Note Off        44, 0
  70213  230.9638  9 Note On         36, 100
  70213  230.9638  9 Note On         44, 100
  70233  231.0294  9 Note Off        44, 0
  70233  231.0294  9 Note Off        36, 0
  70254  231.0981  9 Note On         40, 110
  70254  231.0981  9 Note On         46, 80
  70274  231.1644  9 Note Off        46, 0
  70274  231.1644  9 Note Off        40, 0
  70293  231.2269  9 Note On         44, 8
  70293  231.2269  9 Note On         67, 100
  70302  231.2562  9 Note Off        44, 0
  70312  231.2894  9 Note Off        67, 0
  70334  231.3613  9 Note On         44, 100
  70353  231.4238  9 Note Off        44, 0
  70373  231.4900  9 Note On         38, 100
  70373  231.4900  9 Note On         44, 100
  70392  231.5525  9 Note Off        44, 0
  70392  231.5525  9 Note Off        38, 0
  70414  231.6244  9 Note On         67, 100
  70414  231.6244  9 Note On         46, 80
  70433  231.6869  9 Note Off        46, 0
  70433  231.6869  9 Note Off        67, 0
  70453  231.7531  9 Note On         44, 8
  70461  231.7794  9 Note Off        44, 0
  70492  231.8812  9 Note On         36, 110
  70492  231.8812  9 Note On         44, 100
  70513  231.9500  9 Note Off        44, 0
  70513  231.9500  9 Note Off        36, 0
  70533  232.0163  9 Note On         44, 100
  70552  232.0788  9 Note Off        44, 0
  70571  232.1413  9 Note On         40, 110
  70571  232.1413  9 Note On         67, 100
  70571  232.1413  9 Note On         46, 80
  70593  232.2138  9 Note Off        46, 0
  70593  232.2138  9 Note Off        67, 0
  70593  232.2138  9 Note Off        40, 0
  70612  232.2763  9 Note On         44, 8
  70612  232.2763  9 Note On         35, 90
  70621  232.3056  9 Note Off        44, 0
  70632  232.3419  9 Note Off        35, 0
  70651  232.4044  9 Note On         46, 100
  70673  232.4769  9 Note Off        46, 0
  70692  232.5394  9 Note On         67, 100
  70712  232.6050  9 Note Off        67, 0
  70731  232.6675  9 Note On         36, 120
  70731  232.6675  9 Note On         44, 100
  70750  232.7300  9 Note Off        44, 0
  70750  232.7300  9 Note Off        36, 0
  70772  232.8025  9 Note On         36, 80
  70772  232.8025  9 Note On         44, 100
  70791  232.8650  9 Note Off        44, 0
  70791  232.8650  9 Note Off        36, 0
  70811  232.9306  9 Note On         44, 100
  70811  232.9306  9 Note On         67, 100
  70830  232.9931  9 Note Off        67, 0
  70830  232.9931  9 Note Off        44, 0
  70852  233.0656  9 Note On         36, 100
  70852  233.0656  9 Note On         44, 100
  70871  233.1281  9 Note Off        44, 0
  70871  233.1281  9 Note Off        36, 0
  70891  233.1937  9 Note On         40, 110
  70891  233.1937  9 Note On         46, 80
  70910  233.2562  9 Note Off        46, 0
  70910  233.2562  9 Note Off        40, 0
  70932  233.3288  9 Note On         44, 8
  70932  233.3288  9 Note On         67, 100
  70938  233.3481  9 Note Off        44, 0
  70951  233.3913  9 Note Off        67, 0
  70970  233.4538  9 Note On         44, 100
  70990  233.5194  9 Note Off        44, 0
  71009  233.5819  9 Note On         38, 90
  71009  233.5819  9 Note On         44, 100
  71031  233.6544  9 Note Off        44, 0
  71031  233.6544  9 Note Off        38, 0
  71050  233.7169  9 Note On         67, 100
  71050  233.7169  9 Note On         46, 80
  71070  233.7825  9 Note Off        46, 0
  71070  233.7825  9 Note Off        67, 0
  71089  233.8450  9 Note On         44, 8
  71098  233.8744  9 Note Off        44, 0
  71130  233.9800  9 Note On         36, 110
  71130  233.9800  9 Note On         44, 100
  71150  234.0456  9 Note Off        44, 0
  71150  234.0456  9 Note Off        36, 0
  71169  234.1081  9 Note On         44, 100
  71191  234.1806  9 Note Off        44, 0
  71210  234.2431  9 Note On         40, 110
  71210  234.2431  9 Note On         67, 100
  71210  234.2431  9 Note On         46, 80
  71229  234.3056  9 Note Off        46, 0
  71229  234.3056  9 Note Off        67, 0
  71229  234.3056  9 Note Off        40, 0
  71249  234.3713  9 Note On         44, 8
  71249  234.3713  9 Note On         35, 90
  71257  234.3975  9 Note Off        44, 0
  71268  234.4338  9 Note Off        35, 0
  71290  234.5062  9 Note On         46, 100
  71309  234.5687  9 Note Off        46, 0
  71329  234.6344  9 Note On         67, 100
  71348  234.6969  9 Note Off        67, 0
  71370  234.7694  9 Note On         36, 120
  71370  234.7694  9 Note On         44, 100
  71389  234.8319  9 Note Off        44, 0
  71389  234.8319  9 Note Off        36, 0
  71408  234.8944  9 Note On         36, 80
  71408  234.8944  9 Note On         44, 100
  71428  234.9600  9 Note Off        44, 0
  71428  234.9600  9 Note Off        36, 0
  71449  235.0294  9 Note On         44, 100
  71449  235.0294  9 Note On         67, 100
  71469  235.0950  9 Note Off        67, 0
  71469  235.0950  9 Note Off        44, 0
  71488  235.1575  9 Note On         36, 100
  71488  235.1575  9 Note On         44, 100
  71508  235.2231  9 Note Off        44, 0
  71508  235.2231  9 Note Off        36, 0
  71527  235.2856  9 Note On         40, 110
  71527  235.2856  9 Note On         46, 80
  71549  235.3581  9 Note Off        46, 0
  71549  235.3581  9 Note Off        40, 0
  71568  235.4206  9 Note On         44, 8
  71568  235.4206  9 Note On         67, 100
  71577  235.4500  9 Note Off        44, 0
  71587  235.4831  9 Note Off        67, 0
  71607  235.5488  9 Note On         44, 100
  71628  235.6181  9 Note Off        44, 0
  71648  235.6838  9 Note On         38, 100
  71648  235.6838  9 Note On         44, 100
  71667  235.7463  9 Note Off        44, 0
  71667  235.7463  9 Note Off        38, 0
  71687  235.8119  9 Note On         67, 100
  71687  235.8119  9 Note On         46, 80
  71708  235.8812  9 Note Off        46, 0
  71708  235.8812  9 Note Off        67, 0
  71728  235.9469  9 Note On         44, 8
  71736  235.9731  9 Note Off        44, 0
  71767  236.0750  9 Note On         36, 110
  71767  236.0750  9 Note On         44, 100
  71786  236.1375  9 Note Off        44, 0
  71786  236.1375  9 Note Off        36, 0
  71808  236.2100  9 Note On         44, 100
  71827  236.2725  9 Note Off        44, 0
  71846  236.3350  9 Note On         40, 110
  71846  236.3350  9 Note On         67, 100
  71846  236.3350  9 Note On         46, 80
  71866  236.4013  9 Note Off        46, 0
  71866  236.4013  9 Note Off        67, 0
  71866  236.4013  9 Note Off        40, 0
  71887  236.4700  9 Note On         44, 8
  71887  236.4700  9 Note On         35, 90
  71894  236.4931  9 Note Off        44, 0
  71907  236.5356  9 Note Off        35, 0
  71926  236.5981  9 Note On         46, 100
  71946  236.6644  9 Note Off        46, 0
  71967  236.7331  9 Note On         67, 100
  71987  236.7988  9 Note Off        67, 0
  72006  236.8613  9 Note On         36, 120
  72006  236.8613  9 Note On         44, 100
  72025  236.9238  9 Note Off        44, 0
  72025  236.9238  9 Note Off        36, 0
  72045  236.9900  9 Note On         36, 80
  72045  236.9900  9 Note On         44, 100
  72066  237.0588  9 Note Off        44, 0
  72066  237.0588  9 Note Off        36, 0
  72086  237.1244  9 Note On         44, 100
  72086  237.1244  9 Note On         67, 100
  72105  237.1869  9 Note Off        67, 0
  72105  237.1869  9 Note Off        44, 0
  72125  237.2531  9 Note On         36, 100
  72125  237.2531  9 Note On         44, 100
  72146  237.3219  9 Note Off        44, 0
  72146  237.3219  9 Note Off        36, 0
  72166  237.3875  9 Note On         40, 90
  72166  237.3875  9 Note On         46, 80
  72185  237.4500  9 Note Off        46, 0
  72185  237.4500  9 Note Off        40, 0
  72204  237.5125  9 Note On         44, 8
  72204  237.5125  9 Note On         67, 100
  72204  237.5125  9 Note On         40, 90
  72213  237.5425  9 Note Off        44, 0
  72226  237.5850  9 Note Off        67, 0
  72226  237.5850  9 Note Off        40, 0
  72245  237.6475  9 Note On         44, 100
  72245  237.6475  9 Note On         40, 90
  72265  237.7138  9 Note Off        40, 0
  72265  237.7138  9 Note Off        44, 0
  72284  237.7763  9 Note On         44, 100
  72284  237.7763  9 Note On         40, 90
  72304  237.8419  9 Note Off        40, 0
  72304  237.8419  9 Note Off        44, 0
  72325  237.9106  9 Note On         46, 80
  72325  237.9106  9 Note On         67, 100
  72325  237.9106  9 Note On         40, 90
  72345  237.9769  9 Note Off        40, 0
  72345  237.9769  9 Note Off        67, 0
  72345  237.9769  9 Note Off        46, 0
  72364  238.0394  9 Note On         44, 8
  72364  238.0394  9 Note On         40, 90
  72373  238.0687  9 Note Off        44, 0
  72384  238.1050  9 Note Off        40, 0
  72405  238.1738  9 Note On         36, 110
  72405  238.1738  9 Note On         44, 100
  72405  238.1738  9 Note On         40, 90
  72424  238.2363  9 Note Off        40, 0
  72424  238.2363  9 Note Off        44, 0
  72424  238.2363  9 Note Off        36, 0
  72444  238.3025  9 Note On         44, 100
  72444  238.3025  9 Note On         40, 90
  72463  238.3650  9 Note Off        40, 0
  72463  238.3650  9 Note Off        44, 0
  72485  238.4369  9 Note On         67, 100
  72485  238.4369  9 Note On         40, 90
  72485  238.4369  9 Note On         46, 80
  72504  238.4994  9 Note Off        46, 0
  72504  238.4994  9 Note Off        40, 0
  72504  238.4994  9 Note Off        67, 0
  72524  238.5656  9 Note On         35, 90
  72524  238.5656  9 Note On         44, 8
  72524  238.5656  9 Note On         40, 90
  72532  238.5919  9 Note Off        44, 0
  72543  238.6281  9 Note Off        35, 0
  72543  238.6281  9 Note Off        40, 0
  72563  238.6937  9 Note On         46, 100
  72563  238.6937  9 Note On         40, 90
  72584  238.7625  9 Note Off        40, 0
  72584  238.7625  9 Note Off        46, 0
  72604  238.8288  9 Note On         67, 100
  72604  238.8288  9 Note On         40, 90
  72623  238.8913  9 Note Off        40, 0
  72623  238.8913  9 Note Off        67, 0
  72642  238.9538  9 Note On         36, 120
  72642  238.9538  9 Note On         57, 100
  72664  239.0263  9 Note Off        57, 0
  72664  239.0263  9 Note Off        36, 0
  72664  239.0263 -- Meta Event      End Of Track
  72664  239.0263 -- Track           End: 11
      0    0.0000 -- Track           Start: 12
      0    0.0000 -- Forced channel  10
      0    0.0000 10 Control Change  7, 100
      0    0.0000 10 Program Change  58
    476    1.5656 10 Control Change  0, 0
    478    1.5725 10 Control Change  0, 0
    481    1.5825 10 Control Change  7, 100
    483    1.5888 10 Control Change  10, 80
    485    1.5956 10 Control Change  11, 117
    487    1.6019 10 Control Change  91, 40
    487    1.6019 10 Control Change  93, 0
  21027   69.1675 10 Note On         41, 100
  21055   69.2600 10 Note Off        41, 0
  21068   69.3025 10 Note On         41, 100
  21094   69.3881 10 Note Off        41, 0
  21107   69.4306 10 Note On         41, 100
  21132   69.5131 10 Note Off        41, 0
  21148   69.5656 10 Note On         41, 100
  21173   69.6481 10 Note Off        41, 0
  21186   69.6906 10 Note On         41, 100
  21212   69.7763 10 Note Off        41, 0
  21227   69.8256 10 Note On         41, 100
  21253   69.9112 10 Note Off        41, 0
  21266   69.9537 10 Note On         42, 100
  21292   70.0394 10 Note Off        42, 0
  21346   70.2169 10 Note On         42, 100
  21372   70.3025 10 Note Off        42, 0
  21426   70.4800 10 Note On         41, 100
  21452   70.5656 10 Note Off        41, 0
  21506   70.7431 10 Note On         41, 100
  21532   70.8287 10 Note Off        41, 0
  21544   70.8681 10 Note On         42, 100
  21573   70.9638 10 Note Off        42, 0
  27399   90.1281 10 Note On         41, 100
  27425   90.2138 10 Note Off        41, 0
  27440   90.2631 10 Note On         41, 100
  27466   90.3487 10 Note Off        41, 0
  27479   90.3912 10 Note On         41, 100
  27505   90.4769 10 Note Off        41, 0
  27518   90.5194 10 Note On         41, 100
  27546   90.6119 10 Note Off        41, 0
  27639   90.9175 10 Note On         41, 100
  27665   91.0031 10 Note Off        41, 0
  27678   91.0456 10 Note On         42, 100
  27706   91.1381 10 Note Off        42, 0
  27719   91.1806 10 Note On         41, 100
  27745   91.2662 10 Note Off        41, 0
  27758   91.3094 10 Note On         41, 100
  27786   91.4013 10 Note Off        41, 0
  32976  108.4737 10 Note On         41, 100
  33002  108.5588 10 Note Off        41, 0
  33015  108.6019 10 Note On         41, 100
  33041  108.6875 10 Note Off        41, 0
  33056  108.7369 10 Note On         41, 100
  33082  108.8225 10 Note Off        41, 0
  33095  108.8650 10 Note On         41, 100
  33121  108.9506 10 Note Off        41, 0
  52092  171.3550 10 Note On         41, 100
  52120  171.4469 10 Note Off        41, 0
  52133  171.4900 10 Note On         42, 100
  52159  171.5756 10 Note Off        42, 0
  52172  171.6181 10 Note On         41, 100
  52198  171.7038 10 Note Off        41, 0
  52213  171.7531 10 Note On         41, 100
  52239  171.8388 10 Note Off        41, 0
  72006  236.8613 10 Note On         41, 100
  72032  236.9469 10 Note Off        41, 0
  72045  236.9900 10 Note On         41, 100
  72073  237.0819 10 Note Off        41, 0
  72086  237.1244 10 Note On         41, 100
  72112  237.2100 10 Note Off        41, 0
  72125  237.2531 10 Note On         41, 100
  72153  237.3450 10 Note Off        41, 0
  72245  237.6475 10 Note On         41, 100
  72271  237.7331 10 Note Off        41, 0
  72284  237.7763 10 Note On         42, 100
  72312  237.8681 10 Note Off        42, 0
  72325  237.9106 10 Note On         41, 100
  72351  237.9963 10 Note Off        41, 0
  72364  238.0394 10 Note On         41, 100
  72390  238.1244 10 Note Off        41, 0
  72405  238.1738 10 Note On         42, 100
  72431  238.2594 10 Note Off        42, 0
  72444  238.3025 10 Note On         41, 100
  72470  238.3875 10 Note Off        41, 0
  72485  238.4369 10 Note On         42, 100
  72511  238.5225 10 Note Off        42, 0
  72524  238.5656 10 Note On         41, 100
  72550  238.6513 10 Note Off        41, 0
  72563  238.6937 10 Note On         41, 100
  72591  238.7856 10 Note Off        41, 0
  72604  238.8288 10 Note On         42, 100
  72629  238.9106 10 Note Off        42, 0
  72642  238.9538 10 Note On         42, 100
  72670  239.0456 10 Note Off        42, 0
  72670  239.0456 -- Meta Event      End Of Track
  72670  239.0456 -- Track           End: 12
      0    0.0000 -- Track           Start: 13
      0    0.0000 -- Forced channel  11
      0    0.0000 11 Control Change  7, 100
      0    0.0000 11 Program Change  33
    476    1.5656 11 Control Change  0, 0
    478    1.5725 11 Control Change  0, 0
    481    1.5825 11 Program Change  34
    481    1.5825 11 Control Change  7, 100
    483    1.5888 11 Control Change  10, 64
    485    1.5956 11 Control Change  11, 117
    487    1.6019 11 Control Change  91, 10
    487    1.6019 11 Control Change  93, 0
  11468   37.7238 11 Note On         34, 110
  11511   37.8650 11 Note Off        34, 0
  11707   38.5100 11 Note On         34, 110
  11750   38.6512 11 Note Off        34, 0
  11867   39.0363 11 Note On         29, 110
  11910   39.1775 11 Note Off        29, 0
  11985   39.4244 11 Note On         32, 110
  12029   39.5688 11 Note Off        32, 0
  12106   39.8225 11 Note On         34, 110
  12149   39.9637 11 Note Off        34, 0
  12346   40.6119 11 Note On         34, 110
  12389   40.7531 11 Note Off        34, 0
  12503   41.1281 11 Note On         29, 110
  12546   41.2694 11 Note Off        29, 0
  12624   41.5262 11 Note On         32, 110
  12667   41.6675 11 Note Off        32, 0
  12743   41.9175 11 Note On         34, 110
  12786   42.0594 11 Note Off        34, 0
  12982   42.7037 11 Note On         34, 110
  13025   42.8456 11 Note Off        34, 0
  13142   43.2300 11 Note On         29, 110
  13185   43.3719 11 Note Off        29, 0
  13260   43.6181 11 Note On         32, 110
  13304   43.7631 11 Note Off        32, 0
  13381   44.0162 11 Note On         34, 110
  13424   44.1581 11 Note Off        34, 0
  13619   44.7994 11 Note On         34, 110
  13662   44.9406 11 Note Off        34, 0
  13778   45.3225 11 Note On         29, 110
  13821   45.4637 11 Note Off        29, 0
  13899   45.7206 11 Note On         32, 110
  13942   45.8619 11 Note Off        32, 0
  14018   46.1119 11 Note On         34, 110
  14061   46.2531 11 Note Off        34, 0
  14257   46.8981 11 Note On         34, 110
  14300   47.0394 11 Note Off        34, 0
  14417   47.4244 11 Note On         29, 110
  14460   47.5656 11 Note Off        29, 0
  14535   47.8125 11 Note On         32, 110
  14579   47.9569 11 Note Off        32, 0
  14654   48.2037 11 Note On         34, 110
  14697   48.3456 11 Note Off        34, 0
  14894   48.9931 11 Note On         34, 110
  14937   49.1350 11 Note Off        34, 0
  15053   49.5162 11 Note On         29, 110
  15096   49.6581 11 Note Off        29, 0
  15172   49.9081 11 Note On         32, 110
  15215   50.0494 11 Note Off        32, 0
  15293   50.3056 11 Note On         34, 110
  15336   50.4475 11 Note Off        34, 0
  15532   51.0919 11 Note On         34, 110
  15575   51.2338 11 Note Off        34, 0
  15690   51.6119 11 Note On         29, 110
  15733   51.7531 11 Note Off        29, 0
  15810   52.0063 11 Note On         32, 110
  15854   52.1512 11 Note Off        32, 0
  15929   52.3981 11 Note On         34, 110
  15972   52.5394 11 Note Off        34, 0
  16168   53.1844 11 Note On         34, 110
  16212   53.3287 11 Note Off        34, 0
  16328   53.7106 11 Note On         29, 110
  16371   53.8519 11 Note Off        29, 0
  16447   54.1019 11 Note On         32, 110
  16490   54.2431 11 Note Off        32, 0
  16568   54.5000 11 Note On         34, 110
  16611   54.6412 11 Note Off        34, 0
  16805   55.2794 11 Note On         34, 110
  16848   55.4213 11 Note Off        34, 0
  16965   55.8056 11 Note On         29, 110
  17008   55.9475 11 Note Off        29, 0
  17085   56.2006 11 Note On         32, 110
  17128   56.3419 11 Note Off        32, 0
  17204   56.5919 11 Note On         34, 110
  17247   56.7338 11 Note Off        34, 0
  17443   57.3781 11 Note On         34, 110
  17487   57.5231 11 Note Off        34, 0
  17603   57.9044 11 Note On         29, 110
  17646   58.0463 11 Note Off        29, 0
  17722   58.2963 11 Note On         32, 110
  17765   58.4375 11 Note Off        32, 0
  17840   58.6844 11 Note On         34, 110
  17884   58.8287 11 Note Off        34, 0
  18080   59.4738 11 Note On         34, 110
  18123   59.6150 11 Note Off        34, 0
  18240   60.0000 11 Note On         29, 110
  18283   60.1412 11 Note Off        29, 0
  18358   60.3881 11 Note On         32, 110
  18401   60.5294 11 Note Off        32, 0
  18479   60.7863 11 Note On         34, 110
  18522   60.9275 11 Note Off        34, 0
  18716   61.5656 11 Note On         34, 110
  18759   61.7069 11 Note Off        34, 0
  18876   62.0919 11 Note On         29, 110
  18919   62.2338 11 Note Off        29, 0
  18997   62.4900 11 Note On         32, 110
  19040   62.6313 11 Note Off        32, 0
  19115   62.8781 11 Note On         34, 110
  19159   63.0231 11 Note Off        34, 0
  19355   63.6675 11 Note On         34, 110
  19398   63.8094 11 Note Off        34, 0
  19514   64.1906 11 Note On         29, 110
  19558   64.3356 11 Note Off        29, 0
  19633   64.5819 11 Note On         32, 110
  19676   64.7237 11 Note Off        32, 0
  19752   64.9737 11 Note On         34, 110
  19795   65.1150 11 Note Off        34, 0
  19991   65.7600 11 Note On         34, 110
  20034   65.9013 11 Note Off        34, 0
  20151   66.2862 11 Note On         29, 110
  20194   66.4275 11 Note Off        29, 0
  20270   66.6775 11 Note On         32, 110
  20313   66.8187 11 Note Off        32, 0
  20390   67.0725 11 Note On         34, 110
  20433   67.2138 11 Note Off        34, 0
  20630   67.8619 11 Note On         34, 110
  20673   68.0031 11 Note Off        34, 0
  20787   68.3781 11 Note On         29, 110
  20830   68.5194 11 Note Off        29, 0
  20908   68.7763 11 Note On         32, 110
  20951   68.9175 11 Note Off        32, 0
  21027   69.1675 11 Note On         34, 110
  21070   69.3094 11 Note Off        34, 0
  21266   69.9537 11 Note On         34, 110
  21309   70.0950 11 Note Off        34, 0
  21426   70.4800 11 Note On         29, 110
  21469   70.6219 11 Note Off        29, 0
  21544   70.8681 11 Note On         32, 110
  21588   71.0131 11 Note Off        32, 0
  21665   71.2662 11 Note On         34, 110
  21708   71.4075 11 Note Off        34, 0
  21903   72.0494 11 Note On         34, 110
  21946   72.1906 11 Note Off        34, 0
  22062   72.5725 11 Note On         29, 110
  22105   72.7138 11 Note Off        29, 0
  22183   72.9700 11 Note On         32, 110
  22226   73.1119 11 Note Off        32, 0
  22302   73.3619 11 Note On         34, 110
  22345   73.5031 11 Note Off        34, 0
  22541   74.1481 11 Note On         34, 110
  22584   74.2894 11 Note Off        34, 0
  22701   74.6744 11 Note On         29, 110
  22744   74.8156 11 Note Off        29, 0
  22819   75.0625 11 Note On         32, 110
  22863   75.2069 11 Note Off        32, 0
  22938   75.4537 11 Note On         34, 110
  22981   75.5950 11 Note Off        34, 0
  23178   76.2431 11 Note On         34, 110
  23221   76.3850 11 Note Off        34, 0
  23337   76.7662 11 Note On         29, 110
  23380   76.9075 11 Note Off        29, 0
  23456   77.1575 11 Note On         32, 110
  23499   77.2994 11 Note Off        32, 0
  23577   77.5556 11 Note On         34, 110
  23620   77.6975 11 Note Off        34, 0
  23816   78.3419 11 Note On         34, 110
  23859   78.4831 11 Note Off        34, 0
  23974   78.8619 11 Note On         29, 110
  24017   79.0031 11 Note Off        29, 0
  24094   79.2562 11 Note On         32, 110
  24138   79.4013 11 Note Off        32, 0
  24213   79.6481 11 Note On         34, 110
  24256   79.7894 11 Note Off        34, 0
  24453   80.4375 11 Note On         34, 110
  24496   80.5787 11 Note Off        34, 0
  24612   80.9606 11 Note On         29, 110
  24655   81.1019 11 Note Off        29, 0
  24731   81.3519 11 Note On         32, 110
  24774   81.4931 11 Note Off        32, 0
  24852   81.7500 11 Note On         34, 110
  24895   81.8912 11 Note Off        34, 0
  25089   82.5294 11 Note On         34, 110
  25132   82.6706 11 Note Off        34, 0
  25249   83.0556 11 Note On         29, 110
  25292   83.1975 11 Note Off        29, 0
  25369   83.4506 11 Note On         32, 110
  25413   83.5950 11 Note Off        32, 0
  25488   83.8419 11 Note On         34, 110
  25531   83.9831 11 Note Off        34, 0
  25728   84.6312 11 Note On         34, 110
  25771   84.7731 11 Note Off        34, 0
  25887   85.1544 11 Note On         29, 110
  25930   85.2956 11 Note Off        29, 0
  26006   85.5456 11 Note On         32, 110
  26049   85.6875 11 Note Off        32, 0
  26124   85.9344 11 Note On         34, 110
  26168   86.0787 11 Note Off        34, 0
  26364   86.7237 11 Note On         34, 110
  26407   86.8650 11 Note Off        34, 0
  26524   87.2500 11 Note On         29, 110
  26567   87.3912 11 Note Off        29, 0
  26642   87.6381 11 Note On         32, 110
  26685   87.7794 11 Note Off        32, 0
  26763   88.0362 11 Note On         34, 110
  26806   88.1775 11 Note Off        34, 0
  27000   88.8156 11 Note On         34, 110
  27043   88.9569 11 Note Off        34, 0
  27160   89.3419 11 Note On         29, 110
  27203   89.4831 11 Note Off        29, 0
  27281   89.7400 11 Note On         32, 110
  27324   89.8812 11 Note Off        32, 0
  27399   90.1281 11 Note On         34, 110
  27443   90.2731 11 Note Off        34, 0
  27639   90.9175 11 Note On         34, 110
  27682   91.0594 11 Note Off        34, 0
  27799   91.4437 11 Note On         29, 110
  27842   91.5856 11 Note Off        29, 0
  27917   91.8319 11 Note On         32, 110
  27960   91.9737 11 Note Off        32, 0
  28036   92.2237 11 Note On         34, 110
  28079   92.3650 11 Note Off        34, 0
  28275   93.0100 11 Note On         34, 110
  28318   93.1513 11 Note Off        34, 0
  28435   93.5362 11 Note On         29, 110
  28478   93.6775 11 Note Off        29, 0
  28554   93.9275 11 Note On         32, 110
  28597   94.0687 11 Note Off        32, 0
  28674   94.3225 11 Note On         34, 110
  28718   94.4669 11 Note Off        34, 0
  28914   95.1119 11 Note On         34, 110
  28957   95.2531 11 Note Off        34, 0
  29071   95.6281 11 Note On         29, 110
  29114   95.7694 11 Note Off        29, 0
  29192   96.0263 11 Note On         32, 110
  29235   96.1675 11 Note Off        32, 0
  29311   96.4175 11 Note On         34, 110
  29354   96.5594 11 Note Off        34, 0
  29550   97.2037 11 Note On         34, 110
  29593   97.3450 11 Note Off        34, 0
  29710   97.7300 11 Note On         29, 110
  29753   97.8719 11 Note Off        29, 0
  29829   98.1219 11 Note On         32, 110
  29872   98.2631 11 Note Off        32, 0
  29949   98.5162 11 Note On         34, 110
  29992   98.6575 11 Note Off        34, 0
  30187   99.2994 11 Note On         34, 110
  30230   99.4406 11 Note Off        34, 0
  30346   99.8225 11 Note On         29, 110
  30389   99.9638 11 Note Off        29, 0
  30467  100.2200 11 Note On         32, 110
  30510  100.3619 11 Note Off        32, 0
  30586  100.6119 11 Note On         34, 110
  30629  100.7531 11 Note Off        34, 0
  30825  101.3981 11 Note On         34, 110
  30868  101.5394 11 Note Off        34, 0
  30985  101.9244 11 Note On         29, 110
  31028  102.0656 11 Note Off        29, 0
  31104  102.3156 11 Note On         32, 110
  31147  102.4569 11 Note Off        32, 0
  31222  102.7037 11 Note On         34, 110
  31265  102.8450 11 Note Off        34, 0
  31462  103.4931 11 Note On         34, 110
  31505  103.6350 11 Note Off        34, 0
  31621  104.0162 11 Note On         29, 110
  31664  104.1575 11 Note Off        29, 0
  31740  104.4075 11 Note On         32, 110
  31783  104.5494 11 Note Off        32, 0
  31861  104.8056 11 Note On         34, 110
  31904  104.9475 11 Note Off        34, 0
  32100  105.5919 11 Note On         34, 110
  32143  105.7331 11 Note Off        34, 0
  32258  106.1119 11 Note On         29, 110
  32301  106.2531 11 Note Off        29, 0
  32378  106.5062 11 Note On         32, 110
  32422  106.6513 11 Note Off        32, 0
  32497  106.8981 11 Note On         34, 110
  32540  107.0394 11 Note Off        34, 0
  32737  107.6875 11 Note On         34, 110
  32780  107.8287 11 Note Off        34, 0
  32896  108.2106 11 Note On         29, 110
  32939  108.3519 11 Note Off        29, 0
  33015  108.6019 11 Note On         32, 110
  33058  108.7431 11 Note Off        32, 0
  33136  109.0000 11 Note On         34, 110
  33179  109.1412 11 Note Off        34, 0
  33373  109.7794 11 Note On         34, 110
  33416  109.9206 11 Note Off        34, 0
  33533  110.3056 11 Note On         29, 110
  33576  110.4475 11 Note Off        29, 0
  33653  110.7006 11 Note On         32, 110
  33697  110.8450 11 Note Off        32, 0
  33772  111.0919 11 Note On         34, 110
  33815  111.2331 11 Note Off        34, 0
  34012  111.8812 11 Note On         34, 110
  34055  112.0231 11 Note Off        34, 0
  34171  112.4044 11 Note On         29, 110
  34214  112.5456 11 Note Off        29, 0
  34290  112.7956 11 Note On         32, 110
  34333  112.9375 11 Note Off        32, 0
  34408  113.1838 11 Note On         34, 110
  34452  113.3287 11 Note Off        34, 0
  34648  113.9737 11 Note On         34, 110
  34691  114.1150 11 Note Off        34, 0
  34808  114.5000 11 Note On         29, 110
  34851  114.6412 11 Note Off        29, 0
  34926  114.8881 11 Note On         32, 110
  34969  115.0294 11 Note Off        32, 0
  35047  115.2862 11 Note On         34, 110
  35090  115.4275 11 Note Off        34, 0
  35284  116.0656 11 Note On         34, 110
  35328  116.2106 11 Note Off        34, 0
  35444  116.5919 11 Note On         29, 110
  35487  116.7331 11 Note Off        29, 0
  35565  116.9900 11 Note On         32, 110
  35608  117.1312 11 Note Off        32, 0
  35683  117.3781 11 Note On         34, 110
  35727  117.5231 11 Note Off        34, 0
  35923  118.1675 11 Note On         34, 110
  35966  118.3088 11 Note Off        34, 0
  36083  118.6937 11 Note On         29, 110
  36126  118.8356 11 Note Off        29, 0
  36201  119.0819 11 Note On         32, 110
  36244  119.2237 11 Note Off        32, 0
  36320  119.4737 11 Note On         34, 110
  36363  119.6150 11 Note Off        34, 0
  36559  120.2600 11 Note On         34, 110
  36602  120.4013 11 Note Off        34, 0
  36719  120.7862 11 Note On         29, 110
  36762  120.9275 11 Note Off        29, 0
  36838  121.1775 11 Note On         32, 110
  36881  121.3187 11 Note Off        32, 0
  36958  121.5719 11 Note On         34, 110
  37002  121.7169 11 Note Off        34, 0
  37198  122.3619 11 Note On         34, 110
  37241  122.5031 11 Note Off        34, 0
  37355  122.8781 11 Note On         29, 110
  37399  123.0231 11 Note Off        29, 0
  37476  123.2763 11 Note On         32, 110
  37519  123.4175 11 Note Off        32, 0
  37595  123.6675 11 Note On         34, 110
  37638  123.8088 11 Note Off        34, 0
  37834  124.4537 11 Note On         34, 110
  37877  124.5950 11 Note Off        34, 0
  37994  124.9800 11 Note On         29, 110
  38037  125.1213 11 Note Off        29, 0
  38113  125.3713 11 Note On         32, 110
  38156  125.5131 11 Note Off        32, 0
  38233  125.7662 11 Note On         34, 110
  38277  125.9112 11 Note Off        34, 0
  38471  126.5494 11 Note On         34, 110
  38514  126.6906 11 Note Off        34, 0
  38630  127.0719 11 Note On         29, 110
  38673  127.2138 11 Note Off        29, 0
  38751  127.4700 11 Note On         32, 110
  38794  127.6119 11 Note Off        32, 0
  38870  127.8619 11 Note On         34, 110
  38913  128.0031 11 Note Off        34, 0
  39109  128.6481 11 Note On         34, 110
  39152  128.7894 11 Note Off        34, 0
  39269  129.1744 11 Note On         29, 110
  39312  129.3156 11 Note Off        29, 0
  39388  129.5656 11 Note On         32, 110
  39431  129.7069 11 Note Off        32, 0
  39506  129.9538 11 Note On         34, 110
  39549  130.0950 11 Note Off        34, 0
  39746  130.7431 11 Note On         34, 110
  39789  130.8844 11 Note Off        34, 0
  39905  131.2663 11 Note On         29, 110
  39948  131.4075 11 Note Off        29, 0
  40024  131.6575 11 Note On         32, 110
  40067  131.7994 11 Note Off        32, 0
  40145  132.0556 11 Note On         34, 110
  40188  132.1969 11 Note Off        34, 0
  40384  132.8419 11 Note On         34, 110
  40427  132.9831 11 Note Off        34, 0
  40542  133.3619 11 Note On         29, 110
  40585  133.5031 11 Note Off        29, 0
  40663  133.7594 11 Note On         32, 110
  40706  133.9013 11 Note Off        32, 0
  40781  134.1481 11 Note On         34, 110
  40824  134.2894 11 Note Off        34, 0
  41021  134.9375 11 Note On         34, 110
  41064  135.0788 11 Note Off        34, 0
  41180  135.4606 11 Note On         29, 110
  41223  135.6019 11 Note Off        29, 0
  41299  135.8519 11 Note On         32, 110
  41342  135.9931 11 Note Off        32, 0
  41420  136.2500 11 Note On         34, 110
  41463  136.3913 11 Note Off        34, 0
  41657  137.0294 11 Note On         34, 110
  41700  137.1706 11 Note Off        34, 0
  41817  137.5556 11 Note On         29, 110
  41860  137.6969 11 Note Off        29, 0
  41937  137.9506 11 Note On         32, 110
  41981  138.0950 11 Note Off        32, 0
  42056  138.3419 11 Note On         34, 110
  42099  138.4831 11 Note Off        34, 0
  42296  139.1312 11 Note On         34, 110
  42339  139.2731 11 Note Off        34, 0
  42455  139.6544 11 Note On         29, 110
  42498  139.7956 11 Note Off        29, 0
  42574  140.0456 11 Note On         32, 110
  42617  140.1875 11 Note Off        32, 0
  42693  140.4375 11 Note On         34, 110
  42736  140.5788 11 Note Off        34, 0
  42932  141.2237 11 Note On         34, 110
  42975  141.3650 11 Note Off        34, 0
  43092  141.7500 11 Note On         29, 110
  43135  141.8913 11 Note Off        29, 0
  43210  142.1381 11 Note On         32, 110
  43253  142.2794 11 Note Off        32, 0
  43331  142.5362 11 Note On         34, 110
  43374  142.6775 11 Note Off        34, 0
  43568  143.3156 11 Note On         34, 110
  43612  143.4600 11 Note Off        34, 0
  43728  143.8419 11 Note On         29, 110
  43771  143.9831 11 Note Off        29, 0
  43849  144.2400 11 Note On         32, 110
  43892  144.3812 11 Note Off        32, 0
  43968  144.6312 11 Note On         34, 110
  44011  144.7725 11 Note Off        34, 0
  44207  145.4175 11 Note On         34, 110
  44250  145.5588 11 Note Off        34, 0
  44367  145.9437 11 Note On         29, 110
  44410  146.0850 11 Note Off        29, 0
  44485  146.3319 11 Note On         32, 110
  44528  146.4737 11 Note Off        32, 0
  44604  146.7237 11 Note On         34, 110
  44647  146.8650 11 Note Off        34, 0
  44843  147.5094 11 Note On         34, 110
  44887  147.6544 11 Note Off        34, 0
  45003  148.0362 11 Note On         29, 110
  45046  148.1775 11 Note Off        29, 0
  45122  148.4275 11 Note On         32, 110
  45165  148.5687 11 Note Off        32, 0
  45242  148.8219 11 Note On         34, 110
  45286  148.9669 11 Note Off        34, 0
  45482  149.6119 11 Note On         34, 110
  45525  149.7531 11 Note Off        34, 0
  45639  150.1281 11 Note On         29, 110
  45683  150.2725 11 Note Off        29, 0
  45760  150.5263 11 Note On         32, 110
  45803  150.6675 11 Note Off        32, 0
  49704  163.5000 11 Note On         34, 110
  49747  163.6413 11 Note Off        34, 0
  49941  164.2794 11 Note On         34, 110
  49984  164.4206 11 Note Off        34, 0
  50101  164.8056 11 Note On         29, 110
  50144  164.9469 11 Note Off        29, 0
  50222  165.2038 11 Note On         32, 110
  50265  165.3450 11 Note Off        32, 0
  50340  165.5919 11 Note On         34, 110
  50383  165.7331 11 Note Off        34, 0
  50580  166.3812 11 Note On         34, 110
  50623  166.5225 11 Note Off        34, 0
  50739  166.9044 11 Note On         29, 110
  50782  167.0456 11 Note Off        29, 0
  50858  167.2956 11 Note On         32, 110
  50901  167.4375 11 Note Off        32, 0
  50977  167.6875 11 Note On         34, 110
  51020  167.8288 11 Note Off        34, 0
  51216  168.4731 11 Note On         34, 110
  51259  168.6150 11 Note Off        34, 0
  51376  169.0000 11 Note On         29, 110
  51419  169.1413 11 Note Off        29, 0
  51494  169.3881 11 Note On         32, 110
  51537  169.5294 11 Note Off        32, 0
  51615  169.7856 11 Note On         34, 110
  51658  169.9275 11 Note Off        34, 0
  51852  170.5656 11 Note On         34, 110
  51896  170.7100 11 Note Off        34, 0
  52012  171.0919 11 Note On         29, 110
  52055  171.2331 11 Note Off        29, 0
  52133  171.4900 11 Note On         32, 110
  52176  171.6312 11 Note Off        32, 0
  52252  171.8812 11 Note On         34, 110
  52295  172.0225 11 Note Off        34, 0
  52491  172.6675 11 Note On         34, 110
  52534  172.8088 11 Note Off        34, 0
  52651  173.1937 11 Note On         29, 110
  52694  173.3350 11 Note Off        29, 0
  52769  173.5819 11 Note On         32, 110
  52812  173.7231 11 Note Off        32, 0
  52888  173.9731 11 Note On         34, 110
  52931  174.1150 11 Note Off        34, 0
  53127  174.7594 11 Note On         34, 110
  53171  174.9044 11 Note Off        34, 0
  53287  175.2856 11 Note On         29, 110
  53330  175.4275 11 Note Off        29, 0
  53406  175.6775 11 Note On         32, 110
  53449  175.8187 11 Note Off        32, 0
  53527  176.0756 11 Note On         34, 110
  53570  176.2169 11 Note Off        34, 0
  53766  176.8619 11 Note On         34, 110
  53809  177.0031 11 Note Off        34, 0
  53923  177.3781 11 Note On         29, 110
  53967  177.5225 11 Note Off        29, 0
  54044  177.7763 11 Note On         32, 110
  54087  177.9175 11 Note Off        32, 0
  54163  178.1675 11 Note On         34, 110
  54206  178.3088 11 Note Off        34, 0
  54402  178.9538 11 Note On         34, 110
  54446  179.0981 11 Note Off        34, 0
  54562  179.4800 11 Note On         29, 110
  54605  179.6213 11 Note Off        29, 0
  54681  179.8713 11 Note On         32, 110
  54724  180.0131 11 Note Off        32, 0
  54801  180.2663 11 Note On         34, 110
  54845  180.4106 11 Note Off        34, 0
  55039  181.0494 11 Note On         34, 110
  55082  181.1906 11 Note Off        34, 0
  55198  181.5719 11 Note On         29, 110
  55242  181.7169 11 Note Off        29, 0
  55319  181.9700 11 Note On         32, 110
  55362  182.1119 11 Note Off        32, 0
  55438  182.3619 11 Note On         34, 110
  55481  182.5031 11 Note Off        34, 0
  55677  183.1475 11 Note On         34, 110
  55720  183.2894 11 Note Off        34, 0
  55837  183.6744 11 Note On         29, 110
  55880  183.8156 11 Note Off        29, 0
  55956  184.0656 11 Note On         32, 110
  55999  184.2069 11 Note Off        32, 0
  56074  184.4538 11 Note On         34, 110
  56117  184.5950 11 Note Off        34, 0
  56314  185.2431 11 Note On         34, 110
  56357  185.3844 11 Note Off        34, 0
  56473  185.7663 11 Note On         29, 110
  56517  185.9106 11 Note Off        29, 0
  56592  186.1575 11 Note On         32, 110
  56635  186.2994 11 Note Off        32, 0
  56713  186.5556 11 Note On         34, 110
  56756  186.6969 11 Note Off        34, 0
  56952  187.3419 11 Note On         34, 110
  56995  187.4831 11 Note Off        34, 0
  57110  187.8613 11 Note On         29, 110
  57153  188.0031 11 Note Off        29, 0
  57231  188.2594 11 Note On         32, 110
  57274  188.4013 11 Note Off        32, 0
  57349  188.6475 11 Note On         34, 110
  57392  188.7894 11 Note Off        34, 0
  57589  189.4375 11 Note On         34, 110
  57632  189.5788 11 Note Off        34, 0
  57748  189.9600 11 Note On         29, 110
  57792  190.1050 11 Note Off        29, 0
  57867  190.3519 11 Note On         32, 110
  57910  190.4931 11 Note Off        32, 0
  57988  190.7500 11 Note On         34, 110
  58031  190.8913 11 Note Off        34, 0
  58225  191.5294 11 Note On         34, 110
  58268  191.6706 11 Note Off        34, 0
  58385  192.0556 11 Note On         29, 110
  58428  192.1969 11 Note Off        29, 0
  58506  192.4538 11 Note On         32, 110
  58549  192.5950 11 Note Off        32, 0
  58624  192.8419 11 Note On         34, 110
  58667  192.9831 11 Note Off        34, 0
  58864  193.6312 11 Note On         34, 110
  58907  193.7725 11 Note Off        34, 0
  59023  194.1544 11 Note On         29, 110
  59066  194.2956 11 Note Off        29, 0
  59142  194.5456 11 Note On         32, 110
  59185  194.6875 11 Note Off        32, 0
  59261  194.9375 11 Note On         34, 110
  59304  195.0788 11 Note Off        34, 0
  59500  195.7231 11 Note On         34, 110
  59543  195.8650 11 Note Off        34, 0
  59660  196.2500 11 Note On         29, 110
  59703  196.3913 11 Note Off        29, 0
  59778  196.6381 11 Note On         32, 110
  59822  196.7825 11 Note Off        32, 0
  62447  205.4175 11 Note On         41, 110
  62527  205.6806 11 Note Off        41, 0
  63722  209.6113 11 Note On         41, 110
  63802  209.8744 11 Note Off        41, 0
  64997  213.8056 11 Note On         41, 110
  65077  214.0687 11 Note Off        41, 0
  66272  217.9994 11 Note On         41, 110
  66350  218.2562 11 Note Off        41, 0
  67545  222.1869 11 Note On         34, 110
  67588  222.3288 11 Note Off        34, 0
  67784  222.9731 11 Note On         34, 110
  67827  223.1150 11 Note Off        34, 0
  67944  223.4994 11 Note On         29, 110
  67987  223.6413 11 Note Off        29, 0
  68062  223.8881 11 Note On         32, 110
  68106  224.0325 11 Note Off        32, 0
  68183  224.2856 11 Note On         34, 110
  68226  224.4275 11 Note Off        34, 0
  68421  225.0687 11 Note On         34, 110
  68464  225.2100 11 Note Off        34, 0
  68580  225.5919 11 Note On         29, 110
  68623  225.7331 11 Note Off        29, 0
  68701  225.9900 11 Note On         32, 110
  68744  226.1312 11 Note Off        32, 0
  68820  226.3812 11 Note On         34, 110
  68863  226.5225 11 Note Off        34, 0
  69059  227.1675 11 Note On         34, 110
  69102  227.3088 11 Note Off        34, 0
  69219  227.6937 11 Note On         29, 110
  69262  227.8350 11 Note Off        29, 0
  69337  228.0819 11 Note On         32, 110
  69381  228.2269 11 Note Off        32, 0
  69456  228.4731 11 Note On         34, 110
  69499  228.6150 11 Note Off        34, 0
  69696  229.2631 11 Note On         34, 110
  69739  229.4044 11 Note Off        34, 0
  69855  229.7856 11 Note On         29, 110
  69898  229.9275 11 Note Off        29, 0
  69974  230.1775 11 Note On         32, 110
  70017  230.3187 11 Note Off        32, 0
  70095  230.5750 11 Note On         34, 110
  70138  230.7169 11 Note Off        34, 0
  70334  231.3613 11 Note On         34, 110
  70377  231.5031 11 Note Off        34, 0
  70492  231.8812 11 Note On         29, 110
  70535  232.0225 11 Note Off        29, 0
  70612  232.2763 11 Note On         32, 110
  70656  232.4206 11 Note Off        32, 0
  70731  232.6675 11 Note On         34, 110
  70774  232.8088 11 Note Off        34, 0
  70970  233.4538 11 Note On         34, 110
  71014  233.5981 11 Note Off        34, 0
  71130  233.9800 11 Note On         29, 110
  71173  234.1213 11 Note Off        29, 0
  71249  234.3713 11 Note On         32, 110
  71292  234.5125 11 Note Off        32, 0
  71370  234.7694 11 Note On         34, 110
  71413  234.9106 11 Note Off        34, 0
  71607  235.5488 11 Note On         34, 110
  71650  235.6906 11 Note Off        34, 0
  71767  236.0750 11 Note On         29, 110
  71810  236.2169 11 Note Off        29, 0
  71887  236.4700 11 Note On         32, 110
  71930  236.6113 11 Note Off        32, 0
  72006  236.8613 11 Note On         34, 110
  72049  237.0031 11 Note Off        34, 0
  72245  237.6475 11 Note On         34, 110
  72289  237.7925 11 Note Off        34, 0
  72405  238.1738 11 Note On         29, 110
  72448  238.3156 11 Note Off        29, 0
  72524  238.5656 11 Note On         32, 110
  72567  238.7069 11 Note Off        32, 0
  72642  238.9538 11 Note On         34, 110
  72686  239.0981 11 Note Off        34, 0
  72686  239.0981 -- Meta Event      End Of Track
  72686  239.0981 -- Track           End: 13
      0    0.0000 -- Track           Start: 14
      0    0.0000 -- Forced channel  12
      0    0.0000 12 Control Change  7, 100
      0    0.0000 12 Program Change  39
    476    1.5656 12 Control Change  0, 0
    478    1.5725 12 Control Change  0, 0
    481    1.5825 12 Control Change  7, 100
    483    1.5888 12 Control Change  10, 64
    485    1.5956 12 Control Change  11, 110
    487    1.6019 12 Control Change  91, 50
    487    1.6019 12 Control Change  93, 127
   8920   29.3419 12 Note On         82, 50
   8950   29.4406 12 Note Off        82, 0
   9000   29.6050 12 Note On         82, 50
   9030   29.7037 12 Note Off        82, 0
   9080   29.8681 12 Note On         82, 50
   9110   29.9669 12 Note Off        82, 0
   9159   30.1281 12 Note On         82, 50
   9190   30.2300 12 Note Off        82, 0
   9239   30.3912 12 Note On         82, 50
   9267   30.4838 12 Note Off        82, 0
   9319   30.6544 12 Note On         82, 50
   9347   30.7469 12 Note Off        82, 0
   9397   30.9112 12 Note On         82, 50
   9427   31.0100 12 Note Off        82, 0
   9477   31.1744 12 Note On         82, 50
   9507   31.2731 12 Note Off        82, 0
   9556   31.4344 12 Note On         82, 50
   9587   31.5362 12 Note Off        82, 0
   9636   31.6975 12 Note On         82, 50
   9666   31.7963 12 Note Off        82, 0
   9716   31.9606 12 Note On         82, 50
   9746   32.0594 12 Note Off        82, 0
   9796   32.2238 12 Note On         82, 50
   9826   32.3225 12 Note Off        82, 0
   9876   32.4869 12 Note On         82, 50
   9906   32.5856 12 Note Off        82, 0
   9955   32.7469 12 Note On         82, 50
   9986   32.8488 12 Note Off        82, 0
  10035   33.0100 12 Note On         82, 50
  10065   33.1088 12 Note Off        82, 0
  10115   33.2731 12 Note On         82, 50
  10145   33.3719 12 Note Off        82, 0
  10195   33.5363 12 Note On         82, 50
  10225   33.6350 12 Note Off        82, 0
  10275   33.7994 12 Note On         82, 50
  10303   33.8912 12 Note Off        82, 0
  10355   34.0625 12 Note On         82, 50
  10383   34.1544 12 Note Off        82, 0
  10432   34.3156 12 Note On         82, 50
  10462   34.4144 12 Note Off        82, 0
  10512   34.5787 12 Note On         82, 50
  10542   34.6775 12 Note Off        82, 0
  10592   34.8419 12 Note On         82, 50
  10622   34.9406 12 Note Off        82, 0
  10672   35.1050 12 Note On         82, 50
  10702   35.2037 12 Note Off        82, 0
  10752   35.3681 12 Note On         82, 50
  10782   35.4669 12 Note Off        82, 0
  10831   35.6281 12 Note On         82, 50
  10862   35.7300 12 Note Off        82, 0
  10911   35.8912 12 Note On         82, 50
  10941   35.9900 12 Note Off        82, 0
  10991   36.1544 12 Note On         82, 50
  11021   36.2531 12 Note Off        82, 0
  11071   36.4175 12 Note On         82, 50
  11101   36.5162 12 Note Off        82, 0
  11151   36.6806 12 Note On         82, 50
  11181   36.7794 12 Note Off        82, 0
  11230   36.9406 12 Note On         82, 50
  11261   37.0425 12 Note Off        82, 0
  11310   37.2037 12 Note On         82, 50
  11338   37.2963 12 Note Off        82, 0
  11390   37.4669 12 Note On         82, 50
  11418   37.5594 12 Note Off        82, 0
  11418   37.5594 -- Meta Event      End Of Track
  11418   37.5594 -- Track           End: 14
      0    0.0000 -- Track           Start: 15
      0    0.0000 -- Forced channel  13
      0    0.0000 13 Control Change  7, 100
      0    0.0000 13 Program Change  0
    476    1.5656 13 Control Change  0, 0
    478    1.5725 13 Control Change  0, 0
    485    1.5956 13 Control Change  11, 100
    487    1.6019 13 Control Change  91, 0
    487    1.6019 13 Control Change  93, 0
  11468   37.7238 13 Note On         34, 110
  11511   37.8650 13 Note Off        34, 0
  11707   38.5100 13 Note On         34, 110
  11750   38.6512 13 Note Off        34, 0
  11867   39.0363 13 Note On         29, 110
  11910   39.1775 13 Note Off        29, 0
  11985   39.4244 13 Note On         32, 110
  12029   39.5688 13 Note Off        32, 0
  12106   39.8225 13 Note On         34, 110
  12149   39.9637 13 Note Off        34, 0
  12346   40.6119 13 Note On         34, 110
  12389   40.7531 13 Note Off        34, 0
  12503   41.1281 13 Note On         29, 110
  12546   41.2694 13 Note Off        29, 0
  12624   41.5262 13 Note On         32, 110
  12667   41.6675 13 Note Off        32, 0
  12743   41.9175 13 Note On         34, 110
  12786   42.0594 13 Note Off        34, 0
  12982   42.7037 13 Note On         34, 110
  13025   42.8456 13 Note Off        34, 0
  13142   43.2300 13 Note On         29, 110
  13185   43.3719 13 Note Off        29, 0
  13260   43.6181 13 Note On         32, 110
  13304   43.7631 13 Note Off        32, 0
  13381   44.0162 13 Note On         34, 110
  13424   44.1581 13 Note Off        34, 0
  13619   44.7994 13 Note On         34, 110
  13662   44.9406 13 Note Off        34, 0
  13778   45.3225 13 Note On         29, 110
  13821   45.4637 13 Note Off        29, 0
  13899   45.7206 13 Note On         32, 110
  13942   45.8619 13 Note Off        32, 0
  14018   46.1119 13 Note On         34, 110
  14061   46.2531 13 Note Off        34, 0
  14257   46.8981 13 Note On         34, 110
  14300   47.0394 13 Note Off        34, 0
  14417   47.4244 13 Note On         29, 110
  14460   47.5656 13 Note Off        29, 0
  14535   47.8125 13 Note On         32, 110
  14579   47.9569 13 Note Off        32, 0
  14654   48.2037 13 Note On         34, 110
  14697   48.3456 13 Note Off        34, 0
  14894   48.9931 13 Note On         34, 110
  14937   49.1350 13 Note Off        34, 0
  15053   49.5162 13 Note On         29, 110
  15096   49.6581 13 Note Off        29, 0
  15172   49.9081 13 Note On         32, 110
  15215   50.0494 13 Note Off        32, 0
  15293   50.3056 13 Note On         34, 110
  15336   50.4475 13 Note Off        34, 0
  15532   51.0919 13 Note On         34, 110
  15575   51.2338 13 Note Off        34, 0
  15690   51.6119 13 Note On         29, 110
  15733   51.7531 13 Note Off        29, 0
  15810   52.0063 13 Note On         32, 110
  15854   52.1512 13 Note Off        32, 0
  15929   52.3981 13 Note On         34, 110
  15972   52.5394 13 Note Off        34, 0
  16168   53.1844 13 Note On         34, 110
  16212   53.3287 13 Note Off        34, 0
  16328   53.7106 13 Note On         29, 110
  16371   53.8519 13 Note Off        29, 0
  16447   54.1019 13 Note On         32, 110
  16490   54.2431 13 Note Off        32, 0
  16568   54.5000 13 Note On         34, 110
  16611   54.6412 13 Note Off        34, 0
  16805   55.2794 13 Note On         34, 110
  16848   55.4213 13 Note Off        34, 0
  16965   55.8056 13 Note On         29, 110
  17008   55.9475 13 Note Off        29, 0
  17085   56.2006 13 Note On         32, 110
  17128   56.3419 13 Note Off        32, 0
  17204   56.5919 13 Note On         34, 110
  17247   56.7338 13 Note Off        34, 0
  17443   57.3781 13 Note On         34, 110
  17487   57.5231 13 Note Off        34, 0
  17603   57.9044 13 Note On         29, 110
  17646   58.0463 13 Note Off        29, 0
  17722   58.2963 13 Note On         32, 110
  17765   58.4375 13 Note Off        32, 0
  17840   58.6844 13 Note On         34, 110
  17884   58.8287 13 Note Off        34, 0
  18080   59.4738 13 Note On         34, 110
  18123   59.6150 13 Note Off        34, 0
  18240   60.0000 13 Note On         29, 110
  18283   60.1412 13 Note Off        29, 0
  18358   60.3881 13 Note On         32, 110
  18401   60.5294 13 Note Off        32, 0
  18479   60.7863 13 Note On         34, 110
  18522   60.9275 13 Note Off        34, 0
  18716   61.5656 13 Note On         34, 110
  18759   61.7069 13 Note Off        34, 0
  18876   62.0919 13 Note On         29, 110
  18919   62.2338 13 Note Off        29, 0
  18997   62.4900 13 Note On         32, 110
  19040   62.6313 13 Note Off        32, 0
  19115   62.8781 13 Note On         34, 110
  19159   63.0231 13 Note Off        34, 0
  19355   63.6675 13 Note On         34, 110
  19398   63.8094 13 Note Off        34, 0
  19514   64.1906 13 Note On         29, 110
  19558   64.3356 13 Note Off        29, 0
  19633   64.5819 13 Note On         32, 110
  19676   64.7237 13 Note Off        32, 0
  19752   64.9737 13 Note On         34, 110
  19795   65.1150 13 Note Off        34, 0
  19991   65.7600 13 Note On         34, 110
  20034   65.9013 13 Note Off        34, 0
  20151   66.2862 13 Note On         29, 110
  20194   66.4275 13 Note Off        29, 0
  20270   66.6775 13 Note On         32, 110
  20313   66.8187 13 Note Off        32, 0
  20390   67.0725 13 Note On         34, 110
  20433   67.2138 13 Note Off        34, 0
  20630   67.8619 13 Note On         34, 110
  20673   68.0031 13 Note Off        34, 0
  20787   68.3781 13 Note On         29, 110
  20830   68.5194 13 Note Off        29, 0
  20908   68.7763 13 Note On         32, 110
  20951   68.9175 13 Note Off        32, 0
  21027   69.1675 13 Note On         34, 110
  21070   69.3094 13 Note Off        34, 0
  21266   69.9537 13 Note On         34, 110
  21309   70.0950 13 Note Off        34, 0
  21426   70.4800 13 Note On         29, 110
  21469   70.6219 13 Note Off        29, 0
  21544   70.8681 13 Note On         32, 110
  21588   71.0131 13 Note Off        32, 0
  21665   71.2662 13 Note On         34, 110
  21708   71.4075 13 Note Off        34, 0
  21903   72.0494 13 Note On         34, 110
  21946   72.1906 13 Note Off        34, 0
  22062   72.5725 13 Note On         29, 110
  22105   72.7138 13 Note Off        29, 0
  22183   72.9700 13 Note On         32, 110
  22226   73.1119 13 Note Off        32, 0
  22302   73.3619 13 Note On         34, 110
  22345   73.5031 13 Note Off        34, 0
  22541   74.1481 13 Note On         34, 110
  22584   74.2894 13 Note Off        34, 0
  22701   74.6744 13 Note On         29, 110
  22744   74.8156 13 Note Off        29, 0
  22819   75.0625 13 Note On         32, 110
  22863   75.2069 13 Note Off        32, 0
  22938   75.4537 13 Note On         34, 110
  22981   75.5950 13 Note Off        34, 0
  23178   76.2431 13 Note On         34, 110
  23221   76.3850 13 Note Off        34, 0
  23337   76.7662 13 Note On         29, 110
  23380   76.9075 13 Note Off        29, 0
  23456   77.1575 13 Note On         32, 110
  23499   77.2994 13 Note Off        32, 0
  23577   77.5556 13 Note On         34, 110
  23620   77.6975 13 Note Off        34, 0
  23816   78.3419 13 Note On         34, 110
  23859   78.4831 13 Note Off        34, 0
  23974   78.8619 13 Note On         29, 110
  24017   79.0031 13 Note Off        29, 0
  24094   79.2562 13 Note On         32, 110
  24138   79.4013 13 Note Off        32, 0
  24213   79.6481 13 Note On         34, 110
  24256   79.7894 13 Note Off        34, 0
  24453   80.4375 13 Note On         34, 110
  24496   80.5787 13 Note Off        34, 0
  24612   80.9606 13 Note On         29, 110
  24655   81.1019 13 Note Off        29, 0
  24731   81.3519 13 Note On         32, 110
  24774   81.4931 13 Note Off        32, 0
  24852   81.7500 13 Note On         34, 110
  24895   81.8912 13 Note Off        34, 0
  25089   82.5294 13 Note On         34, 110
  25132   82.6706 13 Note Off        34, 0
  25249   83.0556 13 Note On         29, 110
  25292   83.1975 13 Note Off        29, 0
  25369   83.4506 13 Note On         32, 110
  25413   83.5950 13 Note Off        32, 0
  25488   83.8419 13 Note On         34, 110
  25531   83.9831 13 Note Off        34, 0
  25728   84.6312 13 Note On         34, 110
  25771   84.7731 13 Note Off        34, 0
  25887   85.1544 13 Note On         29, 110
  25930   85.2956 13 Note Off        29, 0
  26006   85.5456 13 Note On         32, 110
  26049   85.6875 13 Note Off        32, 0
  26124   85.9344 13 Note On         34, 110
  26168   86.0787 13 Note Off        34, 0
  26364   86.7237 13 Note On         34, 110
  26407   86.8650 13 Note Off        34, 0
  26524   87.2500 13 Note On         29, 110
  26567   87.3912 13 Note Off        29, 0
  26642   87.6381 13 Note On         32, 110
  26685   87.7794 13 Note Off        32, 0
  26763   88.0362 13 Note On         34, 110
  26806   88.1775 13 Note Off        34, 0
  27000   88.8156 13 Note On         34, 110
  27043   88.9569 13 Note Off        34, 0
  27160   89.3419 13 Note On         29, 110
  27203   89.4831 13 Note Off        29, 0
  27281   89.7400 13 Note On         32, 110
  27324   89.8812 13 Note Off        32, 0
  27399   90.1281 13 Note On         34, 110
  27443   90.2731 13 Note Off        34, 0
  27639   90.9175 13 Note On         34, 110
  27682   91.0594 13 Note Off        34, 0
  27799   91.4437 13 Note On         29, 110
  27842   91.5856 13 Note Off        29, 0
  27917   91.8319 13 Note On         32, 110
  27960   91.9737 13 Note Off        32, 0
  28036   92.2237 13 Note On         34, 110
  28079   92.3650 13 Note Off        34, 0
  28275   93.0100 13 Note On         34, 110
  28318   93.1513 13 Note Off        34, 0
  28435   93.5362 13 Note On         29, 110
  28478   93.6775 13 Note Off        29, 0
  28554   93.9275 13 Note On         32, 110
  28597   94.0687 13 Note Off        32, 0
  28674   94.3225 13 Note On         34, 110
  28718   94.4669 13 Note Off        34, 0
  28914   95.1119 13 Note On         34, 110
  28957   95.2531 13 Note Off        34, 0
  29071   95.6281 13 Note On         29, 110
  29114   95.7694 13 Note Off        29, 0
  29192   96.0263 13 Note On         32, 110
  29235   96.1675 13 Note Off        32, 0
  29311   96.4175 13 Note On         34, 110
  29354   96.5594 13 Note Off        34, 0
  29550   97.2037 13 Note On         34, 110
  29593   97.3450 13 Note Off        34, 0
  29710   97.7300 13 Note On         29, 110
  29753   97.8719 13 Note Off        29, 0
  29829   98.1219 13 Note On         32, 110
  29872   98.2631 13 Note Off        32, 0
  29949   98.5162 13 Note On         34, 110
  29992   98.6575 13 Note Off        34, 0
  30187   99.2994 13 Note On         34, 110
  30230   99.4406 13 Note Off        34, 0
  30346   99.8225 13 Note On         29, 110
  30389   99.9638 13 Note Off        29, 0
  30467  100.2200 13 Note On         32, 110
  30510  100.3619 13 Note Off        32, 0
  30586  100.6119 13 Note On         34, 110
  30629  100.7531 13 Note Off        34, 0
  30825  101.3981 13 Note On         34, 110
  30868  101.5394 13 Note Off        34, 0
  30985  101.9244 13 Note On         29, 110
  31028  102.0656 13 Note Off        29, 0
  31104  102.3156 13 Note On         32, 110
  31147  102.4569 13 Note Off        32, 0
  31222  102.7037 13 Note On         34, 110
  31265  102.8450 13 Note Off        34, 0
  31462  103.4931 13 Note On         34, 110
  31505  103.6350 13 Note Off        34, 0
  31621  104.0162 13 Note On         29, 110
  31664  104.1575 13 Note Off        29, 0
  31740  104.4075 13 Note On         32, 110
  31783  104.5494 13 Note Off        32, 0
  31861  104.8056 13 Note On         34, 110
  31904  104.9475 13 Note Off        34, 0
  32100  105.5919 13 Note On         34, 110
  32143  105.7331 13 Note Off        34, 0
  32258  106.1119 13 Note On         29, 110
  32301  106.2531 13 Note Off        29, 0
  32378  106.5062 13 Note On         32, 110
  32422  106.6513 13 Note Off        32, 0
  32497  106.8981 13 Note On         34, 110
  32540  107.0394 13 Note Off        34, 0
  32737  107.6875 13 Note On         34, 110
  32780  107.8287 13 Note Off        34, 0
  32896  108.2106 13 Note On         29, 110
  32939  108.3519 13 Note Off        29, 0
  33015  108.6019 13 Note On         32, 110
  33058  108.7431 13 Note Off        32, 0
  33136  109.0000 13 Note On         34, 110
  33179  109.1412 13 Note Off        34, 0
  33373  109.7794 13 Note On         34, 110
  33416  109.9206 13 Note Off        34, 0
  33533  110.3056 13 Note On         29, 110
  33576  110.4475 13 Note Off        29, 0
  33653  110.7006 13 Note On         32, 110
  33697  110.8450 13 Note Off        32, 0
  33772  111.0919 13 Note On         34, 110
  33815  111.2331 13 Note Off        34, 0
  34012  111.8812 13 Note On         34, 110
  34055  112.0231 13 Note Off        34, 0
  34171  112.4044 13 Note On         29, 110
  34214  112.5456 13 Note Off        29, 0
  34290  112.7956 13 Note On         32, 110
  34333  112.9375 13 Note Off        32, 0
  34408  113.1838 13 Note On         34, 110
  34452  113.3287 13 Note Off        34, 0
  34648  113.9737 13 Note On         34, 110
  34691  114.1150 13 Note Off        34, 0
  34808  114.5000 13 Note On         29, 110
  34851  114.6412 13 Note Off        29, 0
  34926  114.8881 13 Note On         32, 110
  34969  115.0294 13 Note Off        32, 0
  35047  115.2862 13 Note On         34, 110
  35090  115.4275 13 Note Off        34, 0
  35284  116.0656 13 Note On         34, 110
  35328  116.2106 13 Note Off        34, 0
  35444  116.5919 13 Note On         29, 110
  35487  116.7331 13 Note Off        29, 0
  35565  116.9900 13 Note On         32, 110
  35608  117.1312 13 Note Off        32, 0
  35683  117.3781 13 Note On         34, 110
  35727  117.5231 13 Note Off        34, 0
  35923  118.1675 13 Note On         34, 110
  35966  118.3088 13 Note Off        34, 0
  36083  118.6937 13 Note On         29, 110
  36126  118.8356 13 Note Off        29, 0
  36201  119.0819 13 Note On         32, 110
  36244  119.2237 13 Note Off        32, 0
  36320  119.4737 13 Note On         34, 110
  36363  119.6150 13 Note Off        34, 0
  36559  120.2600 13 Note On         34, 110
  36602  120.4013 13 Note Off        34, 0
  36719  120.7862 13 Note On         29, 110
  36762  120.9275 13 Note Off        29, 0
  36838  121.1775 13 Note On         32, 110
  36881  121.3187 13 Note Off        32, 0
  36958  121.5719 13 Note On         34, 110
  37002  121.7169 13 Note Off        34, 0
  37198  122.3619 13 Note On         34, 110
  37241  122.5031 13 Note Off        34, 0
  37355  122.8781 13 Note On         29, 110
  37399  123.0231 13 Note Off        29, 0
  37476  123.2763 13 Note On         32, 110
  37519  123.4175 13 Note Off        32, 0
  37595  123.6675 13 Note On         34, 110
  37638  123.8088 13 Note Off        34, 0
  37834  124.4537 13 Note On         34, 110
  37877  124.5950 13 Note Off        34, 0
  37994  124.9800 13 Note On         29, 110
  38037  125.1213 13 Note Off        29, 0
  38113  125.3713 13 Note On         32, 110
  38156  125.5131 13 Note Off        32, 0
  38233  125.7662 13 Note On         34, 110
  38277  125.9112 13 Note Off        34, 0
  38471  126.5494 13 Note On         34, 110
  38514  126.6906 13 Note Off        34, 0
  38630  127.0719 13 Note On         29, 110
  38673  127.2138 13 Note Off        29, 0
  38751  127.4700 13 Note On         32, 110
  38794  127.6119 13 Note Off        32, 0
  38870  127.8619 13 Note On         34, 110
  38913  128.0031 13 Note Off        34, 0
  39109  128.6481 13 Note On         34, 110
  39152  128.7894 13 Note Off        34, 0
  39269  129.1744 13 Note On         29, 110
  39312  129.3156 13 Note Off        29, 0
  39388  129.5656 13 Note On         32, 110
  39431  129.7069 13 Note Off        32, 0
  39506  129.9538 13 Note On         34, 110
  39549  130.0950 13 Note Off        34, 0
  39746  130.7431 13 Note On         34, 110
  39789  130.8844 13 Note Off        34, 0
  39905  131.2663 13 Note On         29, 110
  39948  131.4075 13 Note Off        29, 0
  40024  131.6575 13 Note On         32, 110
  40067  131.7994 13 Note Off        32, 0
  40145  132.0556 13 Note On         34, 110
  40188  132.1969 13 Note Off        34, 0
  40384  132.8419 13 Note On         34, 110
  40427  132.9831 13 Note Off        34, 0
  40542  133.3619 13 Note On         29, 110
  40585  133.5031 13 Note Off        29, 0
  40663  133.7594 13 Note On         32, 110
  40706  133.9013 13 Note Off        32, 0
  40781  134.1481 13 Note On         34, 110
  40824  134.2894 13 Note Off        34, 0
  41021  134.9375 13 Note On         34, 110
  41064  135.0788 13 Note Off        34, 0
  41180  135.4606 13 Note On         29, 110
  41223  135.6019 13 Note Off        29, 0
  41299  135.8519 13 Note On         32, 110
  41342  135.9931 13 Note Off        32, 0
  41420  136.2500 13 Note On         34, 110
  41463  136.3913 13 Note Off        34, 0
  41657  137.0294 13 Note On         34, 110
  41700  137.1706 13 Note Off        34, 0
  41817  137.5556 13 Note On         29, 110
  41860  137.6969 13 Note Off        29, 0
  41937  137.9506 13 Note On         32, 110
  41981  138.0950 13 Note Off        32, 0
  42056  138.3419 13 Note On         34, 110
  42099  138.4831 13 Note Off        34, 0
  42296  139.1312 13 Note On         34, 110
  42339  139.2731 13 Note Off        34, 0
  42455  139.6544 13 Note On         29, 110
  42498  139.7956 13 Note Off        29, 0
  42574  140.0456 13 Note On         32, 110
  42617  140.1875 13 Note Off        32, 0
  42693  140.4375 13 Note On         34, 110
  42736  140.5788 13 Note Off        34, 0
  42932  141.2237 13 Note On         34, 110
  42975  141.3650 13 Note Off        34, 0
  43092  141.7500 13 Note On         29, 110
  43135  141.8913 13 Note Off        29, 0
  43210  142.1381 13 Note On         32, 110
  43253  142.2794 13 Note Off        32, 0
  43331  142.5362 13 Note On         34, 110
  43374  142.6775 13 Note Off        34, 0
  43568  143.3156 13 Note On         34, 110
  43612  143.4600 13 Note Off        34, 0
  43728  143.8419 13 Note On         29, 110
  43771  143.9831 13 Note Off        29, 0
  43849  144.2400 13 Note On         32, 110
  43892  144.3812 13 Note Off        32, 0
  43968  144.6312 13 Note On         34, 110
  44011  144.7725 13 Note Off        34, 0
  44207  145.4175 13 Note On         34, 110
  44250  145.5588 13 Note Off        34, 0
  44367  145.9437 13 Note On         29, 110
  44410  146.0850 13 Note Off        29, 0
  44485  146.3319 13 Note On         32, 110
  44528  146.4737 13 Note Off        32, 0
  44604  146.7237 13 Note On         34, 110
  44647  146.8650 13 Note Off        34, 0
  44843  147.5094 13 Note On         34, 110
  44887  147.6544 13 Note Off        34, 0
  45003  148.0362 13 Note On         29, 110
  45046  148.1775 13 Note Off        29, 0
  45122  148.4275 13 Note On         32, 110
  45165  148.5687 13 Note Off        32, 0
  45242  148.8219 13 Note On         34, 110
  45286  148.9669 13 Note Off        34, 0
  45482  149.6119 13 Note On         34, 110
  45525  149.7531 13 Note Off        34, 0
  45639  150.1281 13 Note On         29, 110
  45683  150.2725 13 Note Off        29, 0
  45760  150.5263 13 Note On         32, 110
  45803  150.6675 13 Note Off        32, 0
  49704  163.5000 13 Note On         34, 110
  49747  163.6413 13 Note Off        34, 0
  49941  164.2794 13 Note On         34, 110
  49984  164.4206 13 Note Off        34, 0
  50101  164.8056 13 Note On         29, 110
  50144  164.9469 13 Note Off        29, 0
  50222  165.2038 13 Note On         32, 110
  50265  165.3450 13 Note Off        32, 0
  50340  165.5919 13 Note On         34, 110
  50383  165.7331 13 Note Off        34, 0
  50580  166.3812 13 Note On         34, 110
  50623  166.5225 13 Note Off        34, 0
  50739  166.9044 13 Note On         29, 110
  50782  167.0456 13 Note Off        29, 0
  50858  167.2956 13 Note On         32, 110
  50901  167.4375 13 Note Off        32, 0
  50977  167.6875 13 Note On         34, 110
  51020  167.8288 13 Note Off        34, 0
  51216  168.4731 13 Note On         34, 110
  51259  168.6150 13 Note Off        34, 0
  51376  169.0000 13 Note On         29, 110
  51419  169.1413 13 Note Off        29, 0
  51494  169.3881 13 Note On         32, 110
  51537  169.5294 13 Note Off        32, 0
  51615  169.7856 13 Note On         34, 110
  51658  169.9275 13 Note Off        34, 0
  51852  170.5656 13 Note On         34, 110
  51896  170.7100 13 Note Off        34, 0
  52012  171.0919 13 Note On         29, 110
  52055  171.2331 13 Note Off        29, 0
  52133  171.4900 13 Note On         32, 110
  52176  171.6312 13 Note Off        32, 0
  52252  171.8812 13 Note On         34, 110
  52295  172.0225 13 Note Off        34, 0
  52491  172.6675 13 Note On         34, 110
  52534  172.8088 13 Note Off        34, 0
  52651  173.1937 13 Note On         29, 110
  52694  173.3350 13 Note Off        29, 0
  52769  173.5819 13 Note On         32, 110
  52812  173.7231 13 Note Off        32, 0
  52888  173.9731 13 Note On         34, 110
  52931  174.1150 13 Note Off        34, 0
  53127  174.7594 13 Note On         34, 110
  53171  174.9044 13 Note Off        34, 0
  53287  175.2856 13 Note On         29, 110
  53330  175.4275 13 Note Off        29, 0
  53406  175.6775 13 Note On         32, 110
  53449  175.8187 13 Note Off        32, 0
  53527  176.0756 13 Note On         34, 110
  53570  176.2169 13 Note Off        34, 0
  53766  176.8619 13 Note On         34, 110
  53809  177.0031 13 Note Off        34, 0
  53923  177.3781 13 Note On         29, 110
  53967  177.5225 13 Note Off        29, 0
  54044  177.7763 13 Note On         32, 110
  54087  177.9175 13 Note Off        32, 0
  54163  178.1675 13 Note On         34, 110
  54206  178.3088 13 Note Off        34, 0
  54402  178.9538 13 Note On         34, 110
  54446  179.0981 13 Note Off        34, 0
  54562  179.4800 13 Note On         29, 110
  54605  179.6213 13 Note Off        29, 0
  54681  179.8713 13 Note On         32, 110
  54724  180.0131 13 Note Off        32, 0
  54801  180.2663 13 Note On         34, 110
  54845  180.4106 13 Note Off        34, 0
  55039  181.0494 13 Note On         34, 110
  55082  181.1906 13 Note Off        34, 0
  55198  181.5719 13 Note On         29, 110
  55242  181.7169 13 Note Off        29, 0
  55319  181.9700 13 Note On         32, 110
  55362  182.1119 13 Note Off        32, 0
  55438  182.3619 13 Note On         34, 110
  55481  182.5031 13 Note Off        34, 0
  55677  183.1475 13 Note On         34, 110
  55720  183.2894 13 Note Off        34, 0
  55837  183.6744 13 Note On         29, 110
  55880  183.8156 13 Note Off        29, 0
  55956  184.0656 13 Note On         32, 110
  55999  184.2069 13 Note Off        32, 0
  56074  184.4538 13 Note On         34, 110
  56117  184.5950 13 Note Off        34, 0
  56314  185.2431 13 Note On         34, 110
  56357  185.3844 13 Note Off        34, 0
  56473  185.7663 13 Note On         29, 110
  56517  185.9106 13 Note Off        29, 0
  56592  186.1575 13 Note On         32, 110
  56635  186.2994 13 Note Off        32, 0
  56713  186.5556 13 Note On         34, 110
  56756  186.6969 13 Note Off        34, 0
  56952  187.3419 13 Note On         34, 110
  56995  187.4831 13 Note Off        34, 0
  57110  187.8613 13 Note On         29, 110
  57153  188.0031 13 Note Off        29, 0
  57231  188.2594 13 Note On         32, 110
  57274  188.4013 13 Note Off        32, 0
  57349  188.6475 13 Note On         34, 110
  57392  188.7894 13 Note Off        34, 0
  57589  189.4375 13 Note On         34, 110
  57632  189.5788 13 Note Off        34, 0
  57748  189.9600 13 Note On         29, 110
  57792  190.1050 13 Note Off        29, 0
  57867  190.3519 13 Note On         32, 110
  57910  190.4931 13 Note Off        32, 0
  57988  190.7500 13 Note On         34, 110
  58031  190.8913 13 Note Off        34, 0
  58225  191.5294 13 Note On         34, 110
  58268  191.6706 13 Note Off        34, 0
  58385  192.0556 13 Note On         29, 110
  58428  192.1969 13 Note Off        29, 0
  58506  192.4538 13 Note On         32, 110
  58549  192.5950 13 Note Off        32, 0
  58624  192.8419 13 Note On         34, 110
  58667  192.9831 13 Note Off        34, 0
  58864  193.6312 13 Note On         34, 110
  58907  193.7725 13 Note Off        34, 0
  59023  194.1544 13 Note On         29, 110
  59066  194.2956 13 Note Off        29, 0
  59142  194.5456 13 Note On         32, 110
  59185  194.6875 13 Note Off        32, 0
  59261  194.9375 13 Note On         34, 110
  59304  195.0788 13 Note Off        34, 0
  59500  195.7231 13 Note On         34, 110
  59543  195.8650 13 Note Off        34, 0
  59660  196.2500 13 Note On         29, 110
  59703  196.3913 13 Note Off        29, 0
  59778  196.6381 13 Note On         32, 110
  59822  196.7825 13 Note Off        32, 0
  59899  197.0356 13 Note On         34, 110
  59942  197.1775 13 Note Off        34, 0
  60136  197.8156 13 Note On         34, 110
  60180  197.9600 13 Note Off        34, 0
  60296  198.3419 13 Note On         29, 110
  60339  198.4831 13 Note Off        29, 0
  60417  198.7400 13 Note On         32, 110
  60460  198.8812 13 Note Off        32, 0
  60536  199.1312 13 Note On         34, 110
  60579  199.2725 13 Note Off        34, 0
  60775  199.9175 13 Note On         34, 110
  60818  200.0588 13 Note Off        34, 0
  60935  200.4437 13 Note On         29, 110
  60978  200.5850 13 Note Off        29, 0
  61053  200.8319 13 Note On         32, 110
  61096  200.9731 13 Note Off        32, 0
  61172  201.2231 13 Note On         34, 110
  61215  201.3650 13 Note Off        34, 0
  61411  202.0094 13 Note On         34, 110
  61455  202.1544 13 Note Off        34, 0
  61571  202.5356 13 Note On         29, 110
  61614  202.6775 13 Note Off        29, 0
  61690  202.9275 13 Note On         32, 110
  61733  203.0687 13 Note Off        32, 0
  62447  205.4175 13 Note On         41, 110
  62527  205.6806 13 Note Off        41, 0
  63722  209.6113 13 Note On         41, 110
  63802  209.8744 13 Note Off        41, 0
  64997  213.8056 13 Note On         41, 110
  65077  214.0687 13 Note Off        41, 0
  66272  217.9994 13 Note On         41, 110
  66350  218.2562 13 Note Off        41, 0
  67545  222.1869 13 Note On         34, 110
  67588  222.3288 13 Note Off        34, 0
  67784  222.9731 13 Note On         34, 110
  67827  223.1150 13 Note Off        34, 0
  67944  223.4994 13 Note On         29, 110
  67987  223.6413 13 Note Off        29, 0
  68062  223.8881 13 Note On         32, 110
  68106  224.0325 13 Note Off        32, 0
  68183  224.2856 13 Note On         34, 110
  68226  224.4275 13 Note Off        34, 0
  68421  225.0687 13 Note On         34, 110
  68464  225.2100 13 Note Off        34, 0
  68580  225.5919 13 Note On         29, 110
  68623  225.7331 13 Note Off        29, 0
  68701  225.9900 13 Note On         32, 110
  68744  226.1312 13 Note Off        32, 0
  68820  226.3812 13 Note On         34, 110
  68863  226.5225 13 Note Off        34, 0
  69059  227.1675 13 Note On         34, 110
  69102  227.3088 13 Note Off        34, 0
  69219  227.6937 13 Note On         29, 110
  69262  227.8350 13 Note Off        29, 0
  69337  228.0819 13 Note On         32, 110
  69381  228.2269 13 Note Off        32, 0
  69456  228.4731 13 Note On         34, 110
  69499  228.6150 13 Note Off        34, 0
  69696  229.2631 13 Note On         34, 110
  69739  229.4044 13 Note Off        34, 0
  69855  229.7856 13 Note On         29, 110
  69898  229.9275 13 Note Off        29, 0
  69974  230.1775 13 Note On         32, 110
  70017  230.3187 13 Note Off        32, 0
  70095  230.5750 13 Note On         34, 110
  70138  230.7169 13 Note Off        34, 0
  70334  231.3613 13 Note On         34, 110
  70377  231.5031 13 Note Off        34, 0
  70492  231.8812 13 Note On         29, 110
  70535  232.0225 13 Note Off        29, 0
  70612  232.2763 13 Note On         32, 110
  70656  232.4206 13 Note Off        32, 0
  70731  232.6675 13 Note On         34, 110
  70774  232.8088 13 Note Off        34, 0
  70970  233.4538 13 Note On         34, 110
  71014  233.5981 13 Note Off        34, 0
  71130  233.9800 13 Note On         29, 110
  71173  234.1213 13 Note Off        29, 0
  71249  234.3713 13 Note On         32, 110
  71292  234.5125 13 Note Off        32, 0
  71370  234.7694 13 Note On         34, 110
  71413  234.9106 13 Note Off        34, 0
  71607  235.5488 13 Note On         34, 110
  71650  235.6906 13 Note Off        34, 0
  71767  236.0750 13 Note On         29, 110
  71810  236.2169 13 Note Off        29, 0
  71887  236.4700 13 Note On         32, 110
  71930  236.6113 13 Note Off        32, 0
  72006  236.8613 13 Note On         34, 110
  72049  237.0031 13 Note Off        34, 0
  72245  237.6475 13 Note On         34, 110
  72289  237.7925 13 Note Off        34, 0
  72405  238.1738 13 Note On         29, 110
  72448  238.3156 13 Note Off        29, 0
  72524  238.5656 13 Note On         32, 110
  72567  238.7069 13 Note Off        32, 0
  72642  238.9538 13 Note On         34, 110
  72686  239.0981 13 Note Off        34, 0
  72686  239.0981 -- Meta Event      End Of Track
  72686  239.0981 -- Track           End: 15
