__ticks __seconds ch event__________ data____
      0    0.0000 -- SMF Header      Format=1, Tracks=2, Division=960
      0    0.0000 -- Track           Start: 1
      0    0.0000 -- Time Signature  4, 2, 24, 8
      0    0.0000 -- Tempo           1000000
      0    0.0000 -- Meta Event      End Of Track
      0    0.0000 -- Track           End: 1
      0    0.0000 -- Track           Start: 2
      0    0.0000  0 Note On         60, 100
      0    0.0000  1 Note On         72, 100
      0    0.0000  2 Note On         84, 100
      0    0.0000  3 Note On         96, 100
    960    1.0000  0 Note Off        60, 100
    960    1.0000  1 Note Off        72, 100
    960    1.0000  2 Note Off        84, 100
    960    1.0000  3 Note Off        96, 100
    960    1.0000  0 Note On         62, 100
    960    1.0000  1 Note On         74, 100
    960    1.0000  2 Note On         86, 100
    960    1.0000  3 Note On         98, 100
   1920    2.0000  0 Note Off        62, 100
   1920    2.0000  1 Note Off        74, 100
   1920    2.0000  2 Note Off        86, 100
   1920    2.0000  3 Note Off        98, 100
   1920    2.0000  0 Note On         64, 100
   1920    2.0000  1 Note On         76, 100
   1920    2.0000  2 Note On         88, 100
   1920    2.0000  3 Note On         100, 100
   2880    3.0000  0 Note Off        64, 100
   2880    3.0000  1 Note Off        76, 100
   2880    3.0000  2 Note Off        88, 100
   2880    3.0000  3 Note Off        100, 100
   2880    3.0000  0 Note On         65, 100
   2880    3.0000  1 Note On         77, 100
   2880    3.0000  2 Note On         89, 100
   2880    3.0000  3 Note On         101, 100
   3840    4.0000  0 Note Off        65, 100
   3840    4.0000  1 Note Off        77, 100
   3840    4.0000  2 Note Off        89, 100
   3840    4.0000  3 Note Off        101, 100
   3840    4.0000  0 Note On         67, 100
   3840    4.0000  1 Note On         79, 100
   3840    4.0000  2 Note On         91, 100
   3840    4.0000  3 Note On         103, 100
   4800    5.0000  0 Note Off        67, 100
   4800    5.0000  1 Note Off        79, 100
   4800    5.0000  2 Note Off        91, 100
   4800    5.0000  3 Note Off        103, 100
   4800    5.0000  0 Note On         69, 100
   4800    5.0000  1 Note On         81, 100
   4800    5.0000  2 Note On         93, 100
   4800    5.0000  3 Note On         105, 100
   5760    6.0000  0 Note Off        69, 100
   5760    6.0000  1 Note Off        81, 100
   5760    6.0000  2 Note Off        93, 100
   5760    6.0000  3 Note Off        105, 100
   5760    6.0000  0 Note On         71, 100
   5760    6.0000  1 Note On         83, 100
   5760    6.0000  2 Note On         95, 100
   5760    6.0000  3 Note On         107, 100
   6720    7.0000  0 Note Off        71, 100
   6720    7.0000  1 Note Off        83, 100
   6720    7.0000  2 Note Off        95, 100
   6720    7.0000  3 Note Off        107, 100
   6720    7.0000  0 Note On         72, 100
   6720    7.0000  1 Note On         84, 100
   6720    7.0000  2 Note On         96, 100
   6720    7.0000  3 Note On         108, 100
   7680    8.0000  0 Note Off        72, 100
   7680    8.0000  1 Note Off        84, 100
   7680    8.0000  2 Note Off        96, 100
   7680    8.0000  3 Note Off        108, 100
   7680    8.0000 -- Meta Event      End Of Track
   7680    8.0000 -- Track           End: 2
